/* XPM */
static char *out[] = {
/* columns rows colors chars-per-pixel */
"48 48 107 2 ",
"   c #0E6E94",
".  c #176691",
"X  c #186792",
"o  c #1A6793",
"O  c #1C6693",
"+  c #1D6693",
"@  c #1D6794",
"#  c #1E6794",
"$  c #1F6797",
"%  c #156892",
"&  c #176893",
"*  c #166993",
"=  c #116F91",
"-  c #176C91",
";  c #156D93",
":  c #146E93",
">  c #176A94",
",  c #166B94",
"<  c #116D94",
"1  c #136C94",
"2  c #106E94",
"3  c #146C94",
"4  c #146D95",
"5  c #156D95",
"6  c #176C95",
"7  c #156C97",
"8  c #166E96",
"9  c #166F97",
"0  c #176F97",
"q  c #196893",
"w  c #186B93",
"e  c #196B93",
"r  c #1B6A93",
"t  c #1F6891",
"y  c #1C6A91",
"u  c #1C6993",
"i  c #1E6993",
"p  c #186994",
"a  c #1B6894",
"s  c #1A6994",
"d  c #196A95",
"f  c #186B95",
"g  c #1B6A95",
"h  c #1B6997",
"j  c #196A97",
"k  c #186B97",
"l  c #1A6B96",
"z  c #1C6995",
"x  c #1E6895",
"c  c #1F6895",
"v  c #1D6A94",
"b  c #1C6B94",
"n  c #1C6997",
"m  c #1F6996",
"M  c #1E6897",
"N  c #1D6A96",
"B  c #1C6B96",
"V  c #1E6B97",
"C  c #1A6C94",
"Z  c #196C96",
"A  c #186D96",
"S  c #1B6C97",
"D  c #1A6D97",
"F  c #196E97",
"G  c #1D6C97",
"H  c #1A6B9A",
"J  c #1A6A9B",
"K  c #1F6998",
"L  c #1C6A98",
"P  c #1D6A98",
"I  c #1D699A",
"U  c #1D699B",
"Y  c #1F699A",
"T  c #1F689B",
"R  c #1C6A9A",
"E  c #1F6C98",
"W  c #1E6D98",
"Q  c #1F6E99",
"!  c #0B7291",
"~  c #0D7193",
"^  c #0F7093",
"/  c #087491",
"(  c #157198",
")  c #177098",
"_  c #187098",
"`  c #206791",
"'  c #206795",
"]  c #236597",
"[  c #206697",
"{  c #236796",
"}  c #226697",
"|  c #246696",
" . c #216896",
".. c #206996",
"X. c #206A97",
"o. c #216798",
"O. c #21679A",
"+. c #21679B",
"@. c #23669A",
"#. c #23669B",
"$. c #26659A",
"%. c #26659B",
"&. c #24669A",
"*. c #206898",
"=. c #20689A",
"-. c #206D99",
";. c #216E9A",
/* pixels */
"& & p g z N X.X.N z a z V E V N a a a a a a a a z a a a a z N V N N N z z a a a + O o s f 8 9 ( ",
"& & p g z N X.X.N z a z V E V N a a a a a a a a z a a a a z N V N N N z z a a a # O o s f A 0 ) ",
"& & p g z N X.X.N z a z V E V N a a a a a a a a z a a a a z N V N N N N z z z z @ @ a s d Z F _ ",
"& & p g z N X.X.N z a z V E V N a a a a a a a a z a a a a z N V N N N N N N N z @ @ a s s d Z D ",
"& & p g z N X.X.N z a z V E V N a a a a a a a a z a a a a z N V N N N N N N N V x z a a s g B G ",
"& & p g z N X.X.N z a z V E V N a a a a a a a a z a a a a z N V N N N N V V V V N z z a a z N N ",
"& & p g z N X.X.N z a z V E V N a a a a a a a a z a a a a z N V N N N V V E E E N z z a @ x x m ",
"& & p g z N X.X.N z a z V E V N a a a a a a a a z a a a a z N V N N N V V E E E N N z @ @ @ c c ",
"& & p g z N X.X.N N N N N N N N a a a a a a a a o o o a a z z z N N N N N N N N z a a o o a a z ",
"& & p g z N X.X.N N N N N N N N a a a a a a a a o o a a a z z z N N N N N N N N z a a o o a a z ",
"& & p g z N X.X.N N N N N N N N a a a a a a a a o a a a z z z z N N N N N N N N z z a a a a z z ",
"p p p g z N m m z z z z z z z z z z z z z z z z a a a z z z N N N N N N N N N N N z a a a a z N ",
"p p d g z z m m z z z z z z z z z z z z z z z z a a z z z N N N N N N N N N N N N N z a a z N N ",
"d d d g z z x x a a a a a a a a N N N N N N N N z z z z N N N V N N N N N N N N N N z z z z N N ",
"d d d g z z x x a a a a a a a a N N N N N N N N z z z N N N V V N N N N N N N N V N N z z N N V ",
"d d d g z z x x a a a a a a a a N N N N N N N N z z z N N V V V N N N N N N N N V N N z z N N V ",
"N N N z z a a a a a a a a a a a z z z N N V V V z z z N N V V V N N N N N N N N N N N N N N N N ",
"N N N z z a a a a a a a a a a a z z z N N V V V z z z N N V V V N N N N N N N N N N N N N N N N ",
"N N N z z a a a a a a a a a a a z z z N N V V V z z z N N V V V N N N N N N N N N N N N N N N N ",
"N N N z z a a a a a a a a a a a z z z N N V V V z z z N N V V V N N N N N N N N N N N N N N N N ",
"N N N z z a a a a a a a a a a a z z z N N V V V z z z N N V V V N N N N N N N N N N N N N N N N ",
"N N N z z a a a a a a a a a a a z z z N N V V V z z z N N V V V N N N N N N N N N N N N N N N N ",
"N N N z z a a a a a a a a a a a z z z N N V V V z z z N N V V V N N N N N N N N N N N N N N N N ",
"N N N z z a a a a a a a a a a a z z z N N V V V z z z N N V V V N N N N N N N N N N N N N N N N ",
"B B B B B B B B g g g g g g g g N N N N N N N N N N N N N N N N g g g B B G G G G G G B B g g g ",
"B B B B B B B B g g g g g g g g N N N N N N N N N N N N N N N N g g g B B G G G G G B B B g g g ",
"B B B B B B B B g g g g g g g g N N N N N N N N N N N N N N N N g g g B B G G G G B B B g g g g ",
"B B B B B B B B B B B B B B B B N N N N N N N N N N N N N N N N g g g B B G G G B B B g g g s s ",
"B B B B B B B B B B B B B B B B N N N N N N N N N N N N N N N N g g g B B G G G B B g g g s s s ",
"B B B B B B B B G G G G G G G G N N N N N N N N N N N N N N N N g g g B B G G G g g g g s s s q ",
"B B B B B B B B G G G G G G G G N N N N N N N N N N N N N N N N g g g B B G G G g g g s s s q q ",
"B B B B B B B B G G G G G G G G N N N N N N N N N N N N N N N N g g g B B G G G g g g s s q q q ",
"f f f l l G G V N N N N N N N N N N N N N N N N N N N N N N N N m m N N B l l l N N B g d > , , ",
"Z Z Z l l B B N N N N N N N N N N N N N N N N N N N N N N N N N m m N N B l l l B B l d d p p > ",
"Z Z Z l l B B N N N N N N N N N N N N N N N N N N N N N N N N N m m N N B l l l Z Z Z d d s s s ",
"D D Z l l B g z N N N N N N N N N N N N N N N N N N N N N N N N m m N N B l l l A A Z d g s a a ",
"Z Z Z l l B B N N N N N N N N N N N N N N N N N N N N N N N N N m m N N B l l l Z Z l d d s s s ",
"f f f l l G G V N N N N N N N N N N N N N N N N N N N N N N N N m m N N B l l l N N B d d > > , ",
"* > > d S W W -.N N N N N N N N N N N N N N N N N N N N N N N N m m N N B l l l  ...m g f 3 1 < ",
"% * > d S W Q ;.N N N N N N N N N N N N N N N N N N N N N N N N m m N N B l l l | { ..z f 1 2   ",
"X X q s g B B G s s s s s s s s N N N V V E E E N N N N N N N N v N B L L H H J [ [ [ c g : ~ / ",
". X X q s g g B s s s s s s s s N N N V V E E E N N N N N N N N v N B L L R H J [ } } ' z ; ^ ! ",
". . . X q s s s s s s s s s s s N N N V V E E E N N N N N N N N b B B L P I I U } } } ' x w : = ",
". . . X X q q q q q s s s s g g N N N V V E E E N N N N N N N N b B B P P Y Y T ] } } ' x r w - ",
". . . X X X X q q q q s s g g g N N N V V E E E N N N N N N N N b B N P K =.=.+.} [ $ x z u u y ",
"X X X X q q q q X X q s s g B B N N N V V E E E N N N N N N N N C B N K *.O.@.#.$ M h d d r i t ",
"s s s s q q q q X X q s s g B B N N N V V E E E N N N N N N N N C l N K *.@.&.%.n j k 5 6 e i t ",
"g s s s s s s s X X q s s g B B N N N V V E E E N N N N N N N N C l N K o.@.$.%.j k 7 4 5 w u ` "
};
