/* XPM */
static char *out[] = {
/* columns rows colors chars-per-pixel */
"48 48 252 2 ",
"   c #71362A",
".  c #645232",
"X  c #556C3A",
"o  c #677530",
"O  c #6D3468",
"+  c #3F4E5C",
"@  c #2F7852",
"#  c #144D70",
"$  c #1B597B",
"%  c #2E566F",
"&  c #375A75",
"*  c #1C667B",
"=  c #167472",
"-  c #29686B",
";  c #3A6E6D",
":  c #297765",
">  c #28657A",
",  c #376678",
"<  c #297479",
"1  c #4A574D",
"2  c #495A58",
"3  c #724F50",
"4  c #4E6D59",
"5  c #6D6D51",
"6  c #515672",
"7  c #6C536A",
"8  c #426A68",
"9  c #4F6F71",
"0  c #456A7D",
"q  c #6A726D",
"w  c #A3271E",
"e  c #B31D39",
"r  c #922637",
"t  c #AC2E33",
"y  c #C8193F",
"u  c #D62D25",
"i  c #CC2D39",
"p  c #8D5E30",
"a  c #B14933",
"s  c #D65E33",
"d  c #8C1D47",
"f  c #B71749",
"g  c #922C50",
"h  c #B6284B",
"j  c #B12E50",
"k  c #941E68",
"l  c #B52D65",
"z  c #CD1C4E",
"x  c #CC2F4F",
"c  c #DB2A55",
"v  c #E73251",
"b  c #CC1D62",
"n  c #D23066",
"m  c #F02F67",
"M  c #8F5153",
"N  c #B7494B",
"B  c #A44856",
"V  c #8A6F4D",
"C  c #947A53",
"Z  c #A96D58",
"A  c #90546B",
"S  c #AE526D",
"D  c #926D6F",
"F  c #B56566",
"G  c #CB5454",
"H  c #EE5450",
"J  c #D96B4F",
"K  c #CD4A6E",
"L  c #F85263",
"P  c #CE696F",
"I  c #F66875",
"U  c #64883D",
"Y  c #089B56",
"T  c #378753",
"R  c #3CA656",
"E  c #1E9E6E",
"W  c #358C70",
"Q  c #4F9457",
"!  c #709755",
"~  c #55B257",
"^  c #4F956F",
"/  c #728E6E",
"(  c #57AB6D",
")  c #6EAF6F",
"_  c #50DA65",
"`  c #5CD66A",
"'  c #EF9731",
"]  c #E9C83D",
"[  c #9F8C55",
"{  c #8D8A6E",
"}  c #99877A",
"|  c #B3936E",
" . c #A78C7C",
".. c #B5A879",
"X. c #C29A57",
"o. c #CE8C6F",
"O. c #C48B73",
"+. c #C6967B",
"@. c #D79679",
"#. c #F69376",
"$. c #BFC57F",
"%. c #D8CA58",
"&. c #FFCC70",
"*. c #6F3D82",
"=. c #0F5C86",
"-. c #195B85",
";. c #275C86",
":. c #395B8B",
">. c #245E94",
",. c #076C84",
"<. c #186887",
"1. c #1B648D",
"2. c #1D6B8C",
"3. c #0B788C",
"4. c #19728A",
"5. c #176797",
"6. c #1C6693",
"7. c #1D6B93",
"8. c #146D9C",
"9. c #1D6D9B",
"0. c #0B7699",
"q. c #1D7394",
"w. c #147699",
"e. c #1B729B",
"r. c #286485",
"t. c #246C85",
"y. c #2D6C84",
"u. c #22658C",
"i. c #2C648B",
"p. c #236C8D",
"a. c #2B6B8C",
"s. c #366787",
"d. c #277389",
"f. c #377488",
"g. c #246592",
"h. c #2B6597",
"j. c #226D95",
"k. c #2A6C94",
"l. c #246D9A",
"z. c #2B6A9B",
"x. c #346A96",
"c. c #247294",
"v. c #2A7597",
"b. c #25719A",
"n. c #2A739C",
"m. c #357598",
"M. c #1D6DA3",
"N. c #1A68A5",
"B. c #0C78A4",
"V. c #1473A4",
"C. c #1875A6",
"Z. c #1774B6",
"A. c #2867A4",
"S. c #246CA3",
"D. c #2B6CA3",
"F. c #2374A3",
"G. c #2975A7",
"H. c #2D73AE",
"J. c #3579A5",
"K. c #4E568E",
"L. c #714A8A",
"P. c #456886",
"I. c #49738A",
"U. c #5A7386",
"Y. c #4E7292",
"T. c #547A94",
"R. c #6C728C",
"E. c #487EA5",
"W. c #5670AB",
"Q. c #656FAD",
"!. c #99718E",
"~. c #AE7797",
"^. c #D15088",
"/. c #D27289",
"(. c #FF6E84",
"). c #1A908E",
"_. c #3D8B94",
"`. c #23AD95",
"'. c #3984AA",
"]. c #3F87B4",
"[. c #5D849D",
"{. c #4E9592",
"}. c #6A8596",
"|. c #728E93",
" X c #45A081",
".X c #70B495",
"XX c #4789A6",
"oX c #518FB0",
"OX c #5B98B6",
"+X c #6A93AB",
"@X c #7195AD",
"#X c #48ACA4",
"$X c #75A7B4",
"%X c #6598C5",
"&X c #68A6C6",
"*X c #76ADCF",
"=X c #4FC7CB",
"-X c #71CEE2",
";X c #92908F",
":X c #BB9C89",
">X c #AC9295",
",X c #93A494",
"<X c #BBA396",
"1X c #B3A890",
"2X c #879AAB",
"3X c #87A5B9",
"4X c #94A6B1",
"5X c #B2AEAB",
"6X c #D0909B",
"7X c #F19985",
"8X c #CFAE8F",
"9X c #E9A68A",
"0X c #EDB693",
"qX c #F2B791",
"wX c #D0A3A5",
"eX c #CCB4AF",
"rX c #CAC691",
"tX c #CCC7BE",
"yX c #F7DDA0",
"uX c #F3D3AE",
"iX c #FFD8A8",
"pX c #91B7CF",
"aX c #ACBBD2",
"sX c #87BAE5",
"dX c #C2BFC6",
"fX c #95C5DB",
"gX c #B1C9CE",
"hX c #A6C7DC",
"jX c #B8C8DA",
"kX c #91CBEC",
"lX c #B8CAE2",
"zX c #AED5EC",
"xX c #AAEAFE",
"cX c #CBCCD6",
"vX c #C9D1DA",
"bX c #D6D6DB",
"nX c #EDD4C4",
"mX c #EADCD7",
"MX c #F6DCD3",
"NX c #EFE4D2",
"BX c #F8E4DA",
"VX c #CAD2E9",
"CX c #C8D5E9",
"ZX c #D6D9E6",
"AX c #E8DCE6",
"SX c #EADFF0",
"DX c #D9E5F7",
"FX c #D1E9F6",
"GX c #EBE5EA",
"HX c #F6E6E6",
"JX c #E9E6F4",
"KX c #F6F2F2",
/* pixels */
"j.j.j.c.j.9.j.j.c.b.j.b.j.j.j.b.8.G.E.Y.P.s.S.Z.M.9.a.y., s.z.b.9.q.b.q.4.2.4.c.d.p.c.'.'.k.j.l.",
"j.j.j.j.j.j.j.j.j.j.j.j.j.j.9.7.8.C._.m.s.i.9.N.V.M.a.y.s.y.l.M.7.7.q.q.q.q.c.c.c.2.c.v.D.l.g.l.",
"j.j.j.j.9.j.j.j.j.9.j.j.j.j.j.e.0.w.v.f.y.a.9.V.V.e.p.y.d.p.e.w.e.9.7.7.q.c.2.1.c.2.j.v.n.k.j.j.",
"j.j.j.9.j.j.j.j.j.j.l.j.j.j.j.e.0.3.4.t.y.a.l.M.C.9.c.t.d.4.V.V.e.e.e.7.7.7.7.7.j.u.j.c.j.j.g.c.",
"j.j.j.j.j.j.j.j.n.b.b.c.j.j.7.q.w.0.4.< y.k.l.l.M.l.k.k.p.q.w.V.8.9.9.e.b.F.'.XXj.j.6.k.7.u.j.j.",
"j.j.j.j.j.c.9.j.n.v.b.b.j.j.7.7.e.q.2.t.a.a.l.l.l.l.g.x.j.e.V.V.9.b.b.j.9.F.H.].l.j.j.7.2.j.u.c.",
"j.9.q.j.j.j.j.j.j.j.j.j.l.j.j.j.b.k.a.i.a.k.l.l.D.z.h.z.D.A.S.M.b.b.j.j.7.7.l.b.l.l.j.j.j.j.p.p.",
"j.j.j.j.j.j.j.j.j.7.j.9.j.c.j.k.z.x.h.k.k.j.j.j.l.l.z.z.A.A.A.S.j.d.p.c.j.b.l.g.9.l.l.g.j.p.p.p.",
"b.j.j.b.c.j.7.l.c.l.j.1.7.l.b.l.x.h.D.l.5.w.w.<.9.l.].D.A.H.A.D.* t.t.2.u.n.b.j.l.l.l.j.j.q.p.p.",
"c.7.1.j.l.j.j.j.7.j.l.c.j.j.j.g.>.>.S.C.0.w.w.3.<.<.z.9.6.D.>.h.d._.{._.d.p.j.z.l.l.l.j.j.p.p.p.",
"j.7.7.j.l.c.j.j.j.2.j.b.b.2.7.G.z.>.B.B.B.0.3.4.d.t.c.j.b.F.u.< : W #X_._.* <.v.g.l.l.b.j.c.c.p.",
"b.j.j.j.b.j.j.j.l.6.2.b.j.6.v.].J.S.B.B.0.3.< > f., s.a.p.2.= - W @ : W _.< t.d.j.l.z.n.b.c.c.2.",
"j.j.n.l.j.7.j.j.b.u.2.l.j.7.n.XXn.q.0.B.8.2.0 9 6 7 6 P.y.< W W ^ T @ T W < t.d.u.j.z.n.b.b.j.p.",
"7.j.j.j.1.j.j.7.j.7.j.b.b.1.7.v.p.2.e.C.u.0 6 3 3 A 7 6 ; ;  X( ( R T T : : * p.p.j.l.b.b.b.j.j.",
"j.j.j.2.j.G.v.7.7.9.j.c.j.j.7.2.t.a.b.j.:.K.D B j N A 3 2 8 ( ( $.~ Q T @ : < d.u.j.l.l.9.j.l.7.",
"F.e.1.<.n.'.'.9.k.a.a.1.j.l.b.k.2.k.k.;.P.!.6X/.L (.P A 5 Q ) ( ` ~ Q 4 / q q R.0 P.s.u.7.7.j.z.",
"Z.V.<.< v.J.H.S.a., , x.D.M.2.2.S.S.-.s.- 1 C s i L G p X ~ _ _ _ ~ { [ M B B S S A 6 y.3.3.l.z.",
"Z.8.* = c.G.Z.A.y., y.x.S.M.4.q.M.z.s.q 4 X X.J v L J . X ~ _ _ ~ Q p N N t f d l S R., = 3.l.>.",
"M.7.<.4.q.b.A.9.j.t.u.k.A.N.5.4.p., 4 :X| X.#.J u L G M 5 ^ E E ! p a x h j g O k 7 L.P.,.).b.9.",
"z.j.q.4.9.7.l.S.e.5.9.S.H.M.V.w.q.- q wX&.#.#.H L I G r 1 @ W ( [ a i c n g O !.*.O K.s.q.w.7.g.",
"a.k.c.e.9.l.l.l.w.V.C.'.H.H.C.V.V.l.R.wXI J (.n H L H a p U U U p t v c b k *.K.W.:.i.k.9.7.x.K.",
"s.k.e.8.9.l.g.l.8.8.C.Z.D.D.9.9.N.A.K.~.6XK ^.S G J 7XqX&.] %.X.p a v m l k K.x.>.A.F.6.1.x.W.Q.",
"i.a.9.9.9.9.j.j.7.<.8.9.z.g.;.P.K.Q.O !.wX<X2X@X|./ | %.] ] ' ' a i n n k O , w.,.0.9.7.1.z.E.W.",
"k.u.j.j.M.F.b.d.y.y.p.j.l.s.K.6 !.~.7 |.eX,X*XkX*X{.! ..] ] ' w x c c f d 7 _.).).3.<.p.b.k.6.S.",
"9.j.k.u.S.G.<.f.; 8 % * m.s.7 D A M o ) ,X#X=X=X=X#X/ rXyX&.s w i y m z g 7 {.#X`.).= * 4.3.0.B.",
"8.9.x.:.S.F.<., 1 / |.I.;.P.D F M M U ~ R Y E `.=X_.) rXyXJ u u x c m c d D |. XW E : < d.4.0.B.",
"B.8.a.s.l.7.* ; { ..,XP.i.Y.S N j M ! R Y Y Y `.=X{.) rXO.a i c K n f h d 6X,X.X X^ : ; f.a.l.l.",
"V.8.m.s.g.1.- / rX| q 8 x.R.M j j B [ ( ^ R ^ .X$X|.{ Z N l n x K l l ^.S wX>X,X^ ^ 8 8 , s.h.l.",
"0.e.Y.x.i.> 8 ,X8X[ 1 , h.& M n c H N F Z M F P P S N x f n ^.l g B S !.7 2 9 8 2 + + + + :.:.k.",
"4.2.D.x.i., ^ rX| V 4 , :.K.O j c v y x n h n c z z n c z c ^.l /.~.>Xq 9 9 {.% & 6 & + % s.h.j.",
"4.* z.z.> ; 5 1X| o 2 s.z.K.O d h e f l h h b b z y z c c f g M wX6X5X4XhXfXkXf.m.f.s.;.r.d.c.4.",
"c.<.l.h., ; ! ....5 2 0 & K.7 O r r j h r d e h t t w e e w     3 7 7 9 }.I.[.s.s.s.a.r.> d.4.<.",
"7.1.D.a.- 8 4 { ..[ . 5 q ;X>X>X| 9X9X@.o.+.9X9X7Xo.9X9Xo.@.| 5  .{ ,X,X;Xq }.2X}.@X@X$XoX$XOXXX",
"'.1.r.s.; 4 q 1X1X[ [ 8XuXKXGXmX0XiXiXiXiXiXiXiX0X0XiXNXiXuX9XC V D ;X5X5X1X,X,X4X,X}.}.[.+X+XOX",
"# x.OXfXzXgXtXNX1X+...8XtXuXtXeX8XqXqX0X9X9XqXqX9X@.0XqX0X9Xo.V 3 5 D { } ;X;X;X;X|.;X4X@X+XP.# ",
"W.hXxXFXFXJXKXBXuXrX+.| |  .}  .| O.O.O.O.O.O.O.@.O.| 6X| +.+. . .>XD { ;X>X<X5X5XcXCXCXCXFXaXU.",
"3XFXFXFXFXbXGXMXKXiX0X8X8XwX<XeX<X:X:X:X:X:X:X6X:X:X6X:X:X1X<X1X<X8XwX<X<X<X<X>XeXdXcXaXCXDXFXQ.",
"|.CXFXFXJXDXAXHXBXMXBXMXMXmXmXmXBXNXBXBXBXBXMXBXNXBXHXBXmXmXmXmXnXmXMXmXmXmXmXbXZXcXJXDXDXDXlXU.",
"2XgXgX4XgXCXVXSXHXHXBXKXKXBXJXKXHXHXAXHXHXBXHXHXKXKXHXAXAXAXAXGXGXHXmXmXAXGXGXKXJXZXSXaX4XpXhX}.",
"}.pX3X; T.aX4XaXZXcXcXcXvXvXFXFXJXGXSXGXSXAXAXSXSXSXSXSXJXJXZXGXGXbXvXbXbXvXvXlX2X3XpXK.& +XhX[.",
"@ $XfX, i.Y.zXP.3XaXlXaX}.U.@XhXjXjXjXvXaXaXaXVXaXVXaXvXlXlXjXjXgX;X|.jX}.U.lX@X& Y.*X% P.s.&X&X",
"% *XsX> x.x.*Xs.sXpX$XI.& s.f.{.T.$XhX$X2XQ.P.T.aXpXT.Y.P.I.s.[.fX& 0 zX[.I.fX> s.E.&Xu.m.$ E.x.",
"> *XOX<.J.j.G.u.sXOXx.> r.u.r.$ $ $XxXoXf.y.* f.zXOXa.* * m.> OXxXI.> pXOXf.&Xu.u.v.J.u.c.1.k.1.",
"4.OXn.<.F.5.1.9.OXD.r.k.m.b.q.n.<.XXxXJ.> t.a.XXxX&Xa.p.d.v.<.'.kXoX$ XXoX1.b.n.2.7.7.6.9.b.b.l.",
"t.m.6.9.9.8.5.e.1.v.v.u.2.D.F.6.n.r.xXOX;.:.x.;.sX*X-.>.k.u.u.-.$XoX# a.J.<.<.l.b.9.5.9.7.9.j.G.",
"v.u.j.G.9.e.b.e.1.p.u.u.j.S.N.9.J.# &XoXi.s.x.-.%X*X-.z.x.g.J.;.-XoXa.k.u.z.'.6.9.9.9.b.l.j.2.j.",
"x.g.z.l.C.e.b.9.v.<.<.x.J.h.A.H.n.# v.k.1.u.k.g.oX&X>.n.l.1.q.=.&XE.i.a.-.u.J.6.9.6.l.l.b.k.j.k.",
"h.z.D.1.G.9.2.c.<.f.x.u.>.A.A.6.l.c.7.2.n.n.1.l.5.b.=.l.q.e.9.v.$ f.i.i.J.g.-.n.D.l.S.1.z.k.z.u."
};
