/* XPM */
static char *e39546aa2b374be3aacc88d951263c35[] = {
/* columns rows colors chars-per-pixel */
"48 48 205 2 ",
"   c #1C1809",
".  c #110F10",
"X  c #1C1319",
"o  c #1C1B1D",
"O  c #14191A",
"+  c #0D1819",
"@  c #2A0D07",
"#  c #280F09",
"$  c #260D0D",
"%  c #24140C",
"&  c #30110B",
"*  c #2E0F19",
"=  c #3B0B12",
"-  c #26131A",
";  c #29181A",
":  c #321514",
">  c #34161A",
",  c #36191B",
"<  c #3E1919",
"1  c #330B0A",
"2  c #15230D",
"3  c #191C23",
"4  c #2A1B24",
"5  c #241C22",
"6  c #391D22",
"7  c #1A2323",
"8  c #162A39",
"9  c #1C343B",
"0  c #0E2429",
"q  c #2A2529",
"w  c #35262A",
"e  c #222C39",
"r  c #21303F",
"t  c #35373D",
"y  c #431415",
"u  c #4C1F11",
"i  c #431E1E",
"p  c #4C1010",
"a  c #6D1714",
"s  c #442312",
"d  c #492319",
"f  c #4E321C",
"g  c #5A1E27",
"h  c #482821",
"j  c #472629",
"k  c #562B28",
"l  c #5B332C",
"z  c #5C2531",
"x  c #5D343B",
"c  c #5C3639",
"v  c #6B2F28",
"b  c #662924",
"n  c #74292C",
"m  c #68352B",
"M  c #662A35",
"N  c #7E2A37",
"B  c #6A3738",
"V  c #713934",
"C  c #773B3C",
"Z  c #78383A",
"A  c #743729",
"S  c #77453B",
"D  c #796C3D",
"F  c #172E40",
"G  c #193541",
"H  c #213440",
"J  c #243C47",
"K  c #4F1B53",
"L  c #5E2E50",
"P  c #412A43",
"I  c #6B3A44",
"U  c #793B43",
"Y  c #6A3557",
"T  c #553167",
"R  c #642963",
"E  c #1C485E",
"W  c #1C5375",
"Q  c #1C5678",
"!  c #195A7D",
"~  c #1A4E68",
"^  c #225A7B",
"/  c #275478",
"(  c #214962",
")  c #6E4647",
"_  c #774A45",
"`  c #794A41",
"'  c #774948",
"]  c #71444A",
"[  c #7A455D",
"{  c #7D4B6D",
"}  c #6A5579",
"|  c #634961",
" . c #5B747E",
".. c #476C7A",
"X. c #76744D",
"o. c #863A39",
"O. c #B52E3B",
"+. c #A93538",
"@. c #D93B39",
"#. c #85493B",
"$. c #824735",
"%. c #974937",
"&. c #985839",
"*. c #AC522D",
"=. c #AB5234",
"-. c #AC533A",
";. c #A65438",
":. c #B4563F",
">. c #AA4A36",
",. c #D6502E",
"<. c #CE4E31",
"1. c #DA4A3C",
"2. c #D44D37",
"3. c #D95335",
"4. c #D75636",
"5. c #D04F34",
"6. c #E4453B",
"7. c #E9443C",
"8. c #E34A3A",
"9. c #E44835",
"0. c #E15031",
"q. c #E66937",
"w. c #86384A",
"e. c #843A45",
"r. c #933D5A",
"t. c #963B53",
"y. c #9B3444",
"u. c #B42F46",
"i. c #AA3248",
"p. c #B22E53",
"a. c #B13150",
"s. c #BE3E5B",
"d. c #AB334E",
"f. c #804C4A",
"g. c #864C47",
"h. c #90424C",
"j. c #9C5445",
"k. c #9B5C4C",
"l. c #844F5D",
"z. c #8F5E5A",
"x. c #965A53",
"c. c #89524C",
"v. c #AD5641",
"b. c #A65643",
"n. c #B54C56",
"m. c #986D45",
"M. c #9F7950",
"N. c #B26D44",
"B. c #804E6B",
"V. c #9F7A73",
"C. c #C44D4E",
"Z. c #C94D45",
"A. c #D84F47",
"S. c #D94A4C",
"D. c #CB5342",
"F. c #C05142",
"G. c #D34853",
"H. c #D04E4F",
"J. c #E74444",
"K. c #EA4341",
"L. c #E84748",
"P. c #E44645",
"I. c #D86846",
"U. c #D27653",
"Y. c #EF7C56",
"T. c #D15B6C",
"R. c #C07E61",
"E. c #BB8A79",
"W. c #F0834C",
"Q. c #EF8259",
"!. c #F99859",
"~. c #DD9F68",
"^. c #ED9978",
"/. c #DEA26A",
"(. c #DBA27A",
"). c #F3A779",
"_. c #1D5E81",
"`. c #225E82",
"'. c #1B6894",
"]. c #1A638D",
"[. c #2A6A81",
"{. c #6D5781",
"}. c #5A8394",
"|. c #5A8BA1",
" X c #5A97A8",
".X c #689CAC",
"XX c #7099A7",
"oX c #57A3AE",
"OX c #56A4B6",
"+X c #5AA2B4",
"@X c #A0ABAE",
"#X c #A2AFB1",
"$X c #EF9E8E",
"%X c #DAAB99",
"&X c #E8A485",
"*X c #CCADA2",
"=X c #CDC7B6",
"-X c #FCC5A6",
";X c #F9C7B0",
":X c #CAC8C7",
">X c #F9E9DA",
",X c #D6E7E3",
"<X c #FCEDE2",
"1X c #F8F9F8",
"2X c #F6F9F0",
/* pixels */
"'.'.'.'.'.'.'.'.'.'.'.'.'.'.'.'.'.'.'.'.'.'.'.'.'.'.'.'.'.'.'.'.'.'.'.'.'.'.'.'.'.'.'.'.'.'.'.'.",
"'.'.'.'.'.'.'.'.'.'.'.'.'.'.'.'.'.'.'.'.'.'.'.'.'.'.'.'.'.'.'.'.'.'.'.'.'.'.'.'.'.'.'.'.'.'.'.'.",
"'.'.'.'.'.'.'.'.'.'.'.'.'.'.'.'.'.'.'.'.'.'.'.'.'.'.'.'.'.'.'.'.'.'.'.'.'.'.'.'.'.'.'.'.'.'.'.'.",
"'.'.'.'.'.'.'.'.'.'.'.'.'.'.'.'.'.'.'.'.'.'.'.'.'.'.'.'.'.'.'.'.'.'.'.'.'.'.'.'.'.'.'.'.'.'.'.'.",
"'.'.'.'.'.'.'.'.'.'.'.'.'.'.'.'.'.'.'.'.'.'.'.'.'.'.'.'.'.'.'.'.'.'.'.'.'.'.'.'.'.'.'.'.'.'.'.'.",
"'.'.'.'.'.'.'.'.'.'.'.'.'.'.'.'.'.'.'.'.'.'.'.'.'.'.'.'.'.'.'.'.'.'.'.'.'.'.'.'.'.'.'.'.'.'.'.'.",
"'.'.'.'.'.'.'.'.'.'.'.'.'.'.'.'.'.'.'.'.'.'.'.'.'.'.'.'.'.'.'.'.'.'.'.'.'.'.'.'.'.'.'.'.'.'.'.'.",
"'.'.'.'.'.'.'.'.'.'.'.'.'.'.'.'.'.'.'.'.'.'.'.'.'.'.'.'.'.'.'.'.'.'.'.'.'.'.'.'.'.'.'.'.'.'.'.'.",
"'.'.'.'.'.'.'.'.'.'.'.'.'.'.'.'.'.'.'.'.'.'.'.'.'.'.'.'.'.'.'.'.'.'.'.'.'.'.'.'.'.'.'.'.'.'.'.'.",
"'.'.'.'.'.'.'.'.'.'.'.'.'.'.'.'.'.'.'.'.'.'.'.'.'.'.'.'.'.'.'.'.'.'.'.'.'.'.'.'.'.'.'.'.'.'.'.'.",
"'.'.'.'.'.'.'.'.'.'.'.'.'.'.'.'.'.'.'.'.'.'.'.'.'.'.'.'.'.'.'.'.'.'.'.'.'.'.'.'.'.'.'.'.'.'.'.'.",
"'.'.'.'.'.'.'.'.'.'.'.'.'.'.'.'.'.'.'.'.'.'.'.'.'.'.'.'.'.'.'.'.'.'.'.'.'.'.'.'.'.'.'.'.'.'.'.'.",
"'.'.'.'.'.'.'.'.'.'.'.'.'.'.'.'.'.'.'.'.'.'.'.'.'.'.'.'.'.'.'.'.'.'.'.'.'.'.'.'.'.'.'.'.'.'.'.'.",
"'.'.'.'.'.'.'.'.'.'.'.'.'.'.'.'.'.'.'.'.'.'.'.'.'.'.'.'.'.'.'.'.! W '.'.Q ! '.'.'.'.'.'.'.'.'.'.",
"'.'.'.'.o '.'.'.'.'.'.^ '.'.'.'.'.'.'.'.'.'.'.'.'.'.'.'.'.'.'.'.G G.y i G.e '.'.'.'.'.'.'.'.'.'.",
"'.'.'.W ) '.G '.'.'.'., o '.'.'.'.'.'.'.'.'.'.'.'.'.'.'.'.'.'.'.'.g t.h.n '.'.'.'.'.'.'.'.'.'.'.",
"'.'.'.Q k x l H - : B ] o '.'.'.'.'.'.'.'.'.'.'.'.'.'.'.'.'.'.'...n.|. X[ Y 3 '.'.'.'.'.'.'.'.'.",
"'.'.'.'.J k C H ; o.x 5 '.'.'.'.'.'.'.'.'.'.'.'.'.'.'.'.'.'.'.'. .D.XXoX} r.o '.'.'.'.'.'.'.'.'.",
"'.'.'.'.'.; C r - C W '.'.'.'.'.'.'.'.'.'.'.'.'.'.'.'.'.'.'.'.'. .A..X+X{ r.q + O 3 '.'.'.'.'.'.",
"'.'.'.'.'.; k * : C , 8 '.'.'.'.'.'.'.'.'.'.'.'.'.'.'.'.'.'.'.'. .A..X+X{ r.X 1X#X,X'.'.'.'.'.'.",
"'.'.'.! ` #.v.-.;.#.#.j.8 '.'.'.'.'.'.'.'.'.'.'.'.'.'.'.'.'.'.r t g  XOX{ r.3 '.'.'.'.'.'.'.'.'.",
"'.'.'.'.H 1XV.>X>X*.m q '.'.'.'.'.'.'.'.'.'.'.'.'.'.'.'.'.'.'.T.s.w.oXOX{ r.X 1X@X,X'.'.'.'.'.'.",
"'.'.'.; 1 <X$.:X<X*.b.8 '.'.'.'.'.'.'.'.'.'.'.'.'.'.'.'.'.Q =X$XG.w.+XOX{ r.; % @ @ @ O ~ '.'.'.",
"'.'.'./ S.1.>.&.k.-.=.% ;   W '.'.'.'.'.'.'.'.'.'.'.'.'.7 2   y = : 0 |.l.t.& I.,.<.<.k '.'.'.'.",
"'.'.'.Q R.U.&X-X-X:.*.s 8.S.g S E.S j '.'.'.'.'.'.'.'.'.Q D [.'.'.M.'..XB.b I.9.P.L.b '.'.'.'.'.",
"'.'.'.! *X%X%X%X-X:.-.s 3.1.m ^.-.V J '.'.'.'.'.'.'.'.'.Q X.[.'.'.M.Q }.| s 8.K.K.Z.`.'.'.'.'.'.",
"'.'.'.'.'.'.. z.;XN.b (.D.A.m =.-.d '.'.'.Q X $ # # % -   f [.'.'.m.L R P s 8.7.K.Z.'.'.'.'.'.'.",
"'.'.'.'.'.'.C /././.I.1.n.a b =.-.d '.'.'.'._.%.+.>.u :.4.N.2 '.'.m.{.} T s 0.7.K.C.'.'.'.'.'.'.",
"'.'.'.'.'.'.Z 8.L.6.6.P.P.S.w m m w '.'.E ].W 5 M n u.9.J.q.  '.'.x.L R K s 9.7.K.C.'.'.'.'.'.'.",
"'.'.'.'.'.'.c @.K.8.a p i.u.j , b.h 9 7 8 F F * d.d.O.7.6.2.).s s s s s u ^.7.6.K.C.'.'.'.'.'.'.",
"'.'.'.'.'.'.9 a G.p v.> X = U y =.h '.'.'.'.'.* p.a.O.6.6.K.5.3.8.6.8.8.W.9.7.6.7.C.'.'.'.'.'.'.",
"'.'.'.'.'.'.9 %.M j.-.e '.I U y =.d '.'.'.'.'.* p.a.O.9.9.J.5.3.6.8.6.Y.!.9.7.6.7.C.'.'.'.'.'.'.",
"'.'.'.'.'.'.9 j.e.&.-.e '.B U y =.h '.'.'.'._.4 N u.u.6.K.J.,.3.K.7.7.6.Q.1.K.K.J.o._.'.'.'.'.'.",
"'.'.'.'.'.'.9 j.e.&.=.e '.B U y =.h '.'._.B l < x.z y.+.C.C.>.F.H.Z.Z.Z.U.5.D.D.N '.z.k '.'.'.'.",
"'.'.'.'.'.'.9 j.e.j.;.e '.I U y ;.h '.'.7 b ^ k.^ '.w X '.Q c.'.'.Q ) `.'.h ; '.j ; '.#.W '.'.'.",
"'.'.'.'.'.'.H V x M v e '.z z > v 6 '.'.7 A W k.j q - $ ( q l W w E j w H > : w 6 ; q g.H '.'.'.",
"'.'.'.'.'.'.G q w q w 9 '.4 q 4 6 q '.'.'.c M : g.f.f.f._ ' ` ` ` ` ' _ ' ' _ ` ` S ` j '.'.'.'.",
"'.'.'.'.'.'.'.'.'.'.'.'.'.'.'.'.'.'.'.'.'.'.'.'.'.'.'.'.'.'.'.'.'.'.'.'.'.'.'.'.'.'.'.'.'.'.'.'.",
"'.'.'.'.'.'.'.'.'.'.'.'.'.'.'.'.'.'.'.'.'.'.'.'.'.'.'.'.'.'.'.'.'.'.'.'.'.'.'.'.'.'.'.'.'.'.'.'.",
"'.'.'.'.'.'.'.'.'.'.'.'.'.'.'.'.'.'.'.'.'.'.'.'.'.'.'.'.'.'.'.'.'.'.'.'.'.'.'.'.'.'.'.'.'.'.'.'.",
"'.'.'.'.'.'.'.'.'.'.'.'.'.'.'.'.'.'.'.'.'.'.'.'.'.'.'.'.'.'.'.'.'.'.'.'.'.'.'.'.'.'.'.'.'.'.'.'.",
"'.'.'.'.'.'.'.'.'.'.'.'.'.'.'.'.'.'.'.'.'.'.'.'.'.'.'.'.'.'.'.'.'.'.'.'.'.'.'.'.'.'.'.'.'.'.'.'.",
"'.'.'.'.'.'.'.'.'.'.'.'.'.'.'.'.'.'.'.'.'.'.'.'.'.'.'.'.'.'.'.'.'.'.'.'.'.'.'.'.'.'.'.'.'.'.'.'.",
"'.'.'.'.'.'.'.'.'.'.'.'.'.'.'.'.'.'.'.'.'.'.'.'.'.'.'.'.'.'.'.'.'.'.'.'.'.'.'.'.'.'.'.'.'.'.'.'.",
"'.'.'.'.'.'.'.'.'.'.'.'.'.'.'.'.'.'.'.'.'.'.'.'.'.'.'.'.'.'.'.'.'.'.'.'.'.'.'.'.'.'.'.'.'.'.'.'.",
"'.'.'.'.'.'.'.'.'.'.'.'.'.'.'.'.'.'.'.'.'.'.'.'.'.'.'.'.'.'.'.'.'.'.'.'.'.'.'.'.'.'.'.'.'.'.'.'.",
"'.'.'.'.'.'.'.'.'.'.'.'.'.'.'.'.'.'.'.'.'.'.'.'.'.'.'.'.'.'.'.'.'.'.'.'.'.'.'.'.'.'.'.'.'.'.'.'.",
"'.'.'.'.'.'.'.'.'.'.'.'.'.'.'.'.'.'.'.'.'.'.'.'.'.'.'.'.'.'.'.'.'.'.'.'.'.'.'.'.'.'.'.'.'.'.'.'."
};
