/* XPM */
static char *xpm_[] = {
/* columns rows colors chars-per-pixel */
"48 48 256 2 ",
"   c #050517",
".  c #1A0715",
"X  c #13050F",
"o  c #250818",
"O  c #2B0D14",
"+  c #000225",
"@  c #020C2A",
"#  c #031835",
"$  c #161738",
"%  c #141429",
"&  c #29162B",
"*  c #102639",
"=  c #332936",
"-  c #522832",
";  c #6C2D35",
":  c #4F1421",
">  c #182A4A",
",  c #15334A",
"<  c #0A3049",
"1  c #262A46",
"2  c #2A3949",
"3  c #373757",
"4  c #313250",
"5  c #3B3963",
"6  c #231F40",
"7  c #423A58",
"8  c #4E334D",
"9  c #6F384A",
"0  c #453A67",
"q  c #1A445A",
"w  c #294559",
"e  c #19597A",
"r  c #105473",
"t  c #374A65",
"y  c #2A546B",
"u  c #36566C",
"i  c #2A5B79",
"p  c #355976",
"a  c #2E4B6D",
"s  c #1A637C",
"d  c #0D627F",
"f  c #28637D",
"g  c #37647A",
"h  c #514B58",
"j  c #79434B",
"k  c #684757",
"l  c #7A4857",
"z  c #7C555C",
"x  c #6D4C52",
"c  c #485667",
"v  c #56566C",
"b  c #534976",
"n  c #485677",
"m  c #565872",
"M  c #4E4768",
"N  c #794964",
"B  c #785768",
"V  c #665A77",
"C  c #785977",
"Z  c #6B516A",
"A  c #48687A",
"S  c #576778",
"D  c #556974",
"F  c #686575",
"G  c #76657B",
"H  c #6E727D",
"J  c #98393C",
"K  c #8E2B35",
"L  c #A9383C",
"P  c #AD343A",
"I  c #893648",
"U  c #9A3944",
"Y  c #933855",
"T  c #A73D43",
"R  c #B33D48",
"E  c #AA3A56",
"W  c #984548",
"Q  c #864756",
"!  c #974659",
"~  c #89525C",
"^  c #8C4A4F",
"/  c #A74955",
"(  c #B84C55",
")  c #AC5459",
"_  c #B24E4F",
"`  c #864B64",
"'  c #865867",
"]  c #94556B",
"[  c #865976",
"{  c #995978",
"}  c #8F4B6B",
"|  c #A74865",
" . c #A8576A",
".. c #B85766",
"X. c #B74866",
"o. c #88677A",
"O. c #966976",
"+. c #B9676A",
"@. c #A46477",
"#. c #B97778",
"$. c #B16B73",
"%. c #BF655C",
"&. c #C7585B",
"*. c #CB5458",
"=. c #C45B69",
"-. c #CA6769",
";. c #D6666A",
":. c #C66876",
">. c #D76C76",
",. c #C87479",
"<. c #D67777",
"1. c #CE756C",
"2. c #E57774",
"3. c #EC7472",
"4. c #C0675F",
"5. c #E6847D",
"6. c #085B85",
"7. c #175E86",
"8. c #185E92",
"9. c #285D87",
"0. c #345F83",
"q. c #0B6488",
"w. c #1D6484",
"e. c #146D8C",
"r. c #1C6C8C",
"t. c #186787",
"y. c #15718D",
"u. c #1A718E",
"i. c #096495",
"p. c #1C6D93",
"a. c #1C6D9A",
"s. c #186896",
"d. c #157292",
"f. c #1B7293",
"g. c #1B739B",
"h. c #246482",
"j. c #2B6583",
"k. c #236B85",
"l. c #2B6A85",
"z. c #24648A",
"x. c #236C8B",
"c. c #2B698B",
"v. c #346A84",
"b. c #376887",
"n. c #27728C",
"m. c #37738D",
"M. c #236C94",
"N. c #246C9B",
"B. c #276896",
"V. c #366C94",
"C. c #237293",
"Z. c #2A7393",
"A. c #26769A",
"S. c #377596",
"D. c #166CA1",
"F. c #1B73A3",
"G. c #2875A5",
"H. c #2D74A8",
"J. c #6E5B85",
"K. c #476A86",
"L. c #576B86",
"P. c #487589",
"I. c #587489",
"U. c #477A96",
"Y. c #587893",
"T. c #5F6694",
"R. c #696887",
"E. c #77658A",
"W. c #66748A",
"Q. c #75768A",
"!. c #6C6494",
"~. c #676798",
"^. c #766993",
"/. c #687894",
"(. c #767696",
"). c #7D78A5",
"_. c #585485",
"`. c #855D84",
"'. c #915F82",
"]. c #846589",
"[. c #967797",
"{. c #8C778F",
"}. c #B77787",
"|. c #AD738D",
" X c #8B79AA",
".X c #B17CA8",
"XX c #CB7984",
"oX c #D3778C",
"OX c #E97888",
"+X c #2D83A6",
"@X c #4E839C",
"#X c #768698",
"$X c #6A8397",
"%X c #5887A5",
"&X c #5290A9",
"*X c #6889A6",
"=X c #7A89A5",
"-X c #6893AC",
";X c #758FB0",
":X c #6A97B5",
">X c #7499B6",
",X c #7596AA",
"<X c #76A1B6",
"1X c #77A5C4",
"2X c #978897",
"3X c #B38794",
"4X c #8689A6",
"5X c #988AA9",
"6X c #9897B7",
"7X c #9090B0",
"8X c #AC89A5",
"9X c #A595A9",
"0X c #BA95A9",
"qX c #A89AB9",
"wX c #B696B7",
"eX c #AE88B4",
"rX c #98A8BB",
"tX c #8BA5B9",
"yX c #A5A3BA",
"uX c #B7A7B7",
"iX c #B4B2BD",
"pX c #C88897",
"aX c #D28D95",
"sX c #F99599",
"dX c #F08E92",
"fX c #C696A8",
"gX c #CB93B0",
"hX c #D3AAB9",
"jX c #F5AEB0",
"kX c #ECA0A7",
"lX c #8895C3",
"zX c #9793C6",
"xX c #9394C8",
"cX c #A79BC6",
"vX c #B39BCB",
"bX c #91B1CD",
"nX c #A9A6C7",
"mX c #B8A7C5",
"MX c #A8B6CB",
"NX c #B9B5C9",
"BX c #A6A3D3",
"VX c #AABCD6",
"CX c #B6B0D5",
"ZX c #AAA7E0",
"AX c #C99EC6",
"SX c #D7B5C8",
"DX c #C9AECF",
"FX c #F6B9C6",
"GX c #B3C8D4",
"HX c #B3D0E2",
"JX c #9ECFE8",
"KX c #D6C6D8",
"LX c #F1C9D6",
"PX c #C6D2E6",
"IX c #EDD2ED",
"UX c #DFEAF6",
/* pixels */
"c.B.M.r.e.y.t.s S.a Y./.W.S Q.W.I.P.y s +Xq.e.H.s.D.6.+Xq.f g @XL./.(.W.(.n b.K.h.x.f.f.a.N.N.B.",
"9.B.x.p.e.u.t.f b.K./.R.v v v M c S g s n.t.A.a.H.8.+Xe.d s tXD v 3 v m m L.t i h.w.t.d.p.p.N.8.",
"B.M.r.e.y.u.t.f q P.(.7 X o o . o 3 D g +Xs n.n.B.d t.w.g u 4X= X o & X   ^.W.K.m.r.q.u.f.a.p.N.",
"x.M.p.e.y.y.r.s bXm b ].N N 9 ~ l l H ,X<Xg f f c.m.h.P.bXv F x 9 ~ l ' B V R.*XU.k.t.y.f.d.p.f.",
"r.f.d.d.y.d.r.f >X$ & N 9  .) T  .; O k S p y g g A A w 9XX : ! _ / W ~ O.& % u @Xs t.y.y.e.e.e.",
"e.y.d.y.d.d.x.h.*X1 = { I %.1.3.OXX.; B k v D I.A c D h {.- ! OX;.*.-.U { 9 $ L.@Xn.e.y.y.y.y.y.",
"y.f.d.d.d.f.x.h.>X1 O ]  .-.*.5.dX3./ ! O O O % % O O & ; ) ..OXsX;.1.+.] - % u v.n.C.f.d.d.d.d.",
"y.f.f.d.d.p.x.9.Y.4XF ; ; <.5.5.sX;.T U ; ; z z ' x j : K ( *.sX3.5.<. .; B 4X$Xf k.r.d.y.d.g.d.",
"d +Xq.q.C.C.w.j.b.#XF x O 5.jX5.*.;.2.&.J ..jXjXkXjX,.U =.>.;.;.2.sXsX^ O 8XMXY.i z.B.7.H.D.8.G.",
"+Xs s +XC.w.c.i y A H h - 5.5.5.&.;.2.;.W ) dXsXdXsX;.J *.&.&.;.-.dXjX' . h t g V.B.9.H.s.s.H.8.",
"r x.S.w.w.k.f f g w F = O j ^ #.5._ L P P P ;.;.1.-.( P _ L _ 5.:.^ ` - X * L.K.j.V.7.H.8.8.H.N.",
"C.r.x.w.n.f @XbX@X<XGXh = x O.@.5.%.L P P *.;.;.1.;.*.P _ T _ ,.}.] [ 8 2 H Y.y b.:XB.9.V.B.B.B.",
"+Xr Z.c.j.b.@Xg , y I.H iXKXSX}.j _ _ _ P L ( _ R _ P P P J J W { AXIXDXrXrX* q q Y.U.e V.B.8.B.",
"q.r.S.e @X<X>X# w , 2 rXGX2XqX|.j W J P L L T J J U R R *.T W ! |.SXAXDXH g * q < K.ZXU.V.9.B.H.",
"A.C.e c.1X*XbX<XA ,XtXHX#Xo.KXIXhX5.L L ( ( ) W W J R E R K U  .gX`.E.yXW.#XGXGXP.bXbX:XU.9.B.B.",
"x.s c.%Xg # $XW.#XtX#XGX4XGXKX|.LX5.W L _ J I I ^ K U / ( U 1.FXAX8 IXKX4XGXS bXrXbX, < 0.V.9.H.",
"Z.c.e :XL.+ 4XPX#XtXHXUX#XB AXFXsX5._ %./ $.aXfX$.pXaX..( _ %.jXfXB uXiX$XPXGXGXGXMX, < b.b.V.9.",
"e c.9.:XY.#  XmXGX,XbXGXKX2XhXpX5.W 4.5.#.aXFX|.9 |.fX+.kX-.1.-.#.LX2XGXrXGXrX4X6X6X2 , c.i 9.9.",
"x.Z.e U.Y.$ (.6X7XrXiXrXKXKXLXdX%.5.4.O.aXhXKX9X8 SXhX3XaX,.;.1.#.FX3XhXiXPX2XyXnX4X< < v.l.V.B.",
"r.Z.x.&XY.+ !.mXnXyXrXrX2X' I / 5.5.#.5.UXo.F $XR.NX].0XFX#.-.OX..^ ' [.2XiX2XNXmX=X< < f h.l.z.",
"p.e.s &X>Xa  X XmX4XyXqXDX[ ! >.+.%.XXfXIX2XHXUXHXPXQ.G hX@.OXoXoXU Y 0XuX5X0XqX5X7XD P.@Xy.x.Z.",
"f.r.r k.-X/.7X1 7 b G 5XgXO.Y E / XXkX|.NX#X1XJX<XHXrXyXSXpXoXU *.X.Y |.hX{.{.Z 4 D I.P.m.d d r.",
"q.A.A.s i p  X$ 6 M M NXeX@.I ../ |.pXgXIX=X*XUX<X&XK.CXKXgX.XE E E  .O.0X2XE.M & M p f n.n.u.f.",
"f.f.u.s j.K.4X+ 4 E.m F k 9 I I Y { AX8XCXVXbXbXJXbXVXCXAX8XAX! X.E } |.[.[.5XQ.1 t g f s u.C.a.",
"p.f.r.k.l.K.;X+ 3 ^.S h 8 - ; ! } '.AXAXxX).xXlXbX1XlXzXcXvX.X` | X.} [ Z 5XCX X$ T.1Xj.B.8.H.8.",
"p.M.r.w.l.g =X+ 5 (.R.v v k j ~ ` Y `. XcXZXZXxXBX;XxXvXeX{.].{ | Y } [.[.7XnX).$ p K.c.8.H.D.B.",
"M.M.p.r.l.b.;X+ 3 W.W.F H z x Q 8 8 8 b vXZXxXZXZXxXZXvX5X].E.'.| } ` 8XqX6XnX).6 0.b.9.B.H.D.D.",
"s.B.M.r.c.b.;X+ 3 R.R.D F z x j N N N J. X X X XlXzXzX X X X[.} |  .@.8X6XyXMX/.> _.-Xi B.s.H.8.",
"N.M.p.t.l.b.;X+ 0 E.R.V G B ` 9 ` `.`._.0 0 b 0 _.~.J._. XAXeX[ E }.}.8X9XyXnX(.@ p %Xe Z.t.H.N.",
"s.M.p.r.n.b.;X+ 0 ^.E.C G N Q N N N `.J.0 b _.5 ~. X^.].eXAX.X'.| :.}.fXyX9XyX#X$ a p c.C.M.8.a.",
"B.N.r.e.c.j.;X+ 7 ^.].C o.~ Y Y } `.`.`.J.^.~.T.xXZXcXzXvXAX.X|.:.>.#.pXuX9X9X#X= t g f n.u.7.a.",
"s.a.f.r.x.b.>X+ 7 ^.].C [ ~ Y Y N `.N `.!.~._.~. XBXZXeXeXAXeXoXOXOX$.3X0XuXyXQ.* u P.r n.t.N.M.",
"N.s.A.t.s P.>X+ M !.E.B o.] 9 ^ N } `.].!.!.!.!.zXvXzXvXeXgXgX}.OX>...XXfXqXyX(.# p i S.h.z.M.A.",
"a.a.M.w.c.v.-X@ 2 J.].].[ ' ^ Q l C `.].E.^.!.!.zXvXvXeXvXgXeX|.=.;.XXgXfX0XyX=X, p y U.V.M.t.s.",
"i.A.t.t.S.g -X# 3 J.E.].' l ~ 9 N [ `.].J.!.!.!.zXBXeXvXwXwXfX|.1.1.XXpX8XwXrX/.# a i j.h.M.N.a.",
"s.a.t.x.Z.g :X@ t /.C C ' Q ~ Q N C [ `.E.!.!.!.zXvXzXcXwX0X0X#.1.-.:.pX3XuXNX$X, 0.m.c.z.M.a.a.",
"a.s.f.n.h.f :X  4 Q.R.C o.~ j Q N B C E.R.!.~.~.xXBXcXqXwX0X0X}...<.4.aX9X9XyXH , q i h.Z.M.s.a.",
"g.q.C.n.k.v.<X# t W.].G o.~ ; l l N C E.J.!.~.~.xXBXcXqXwXeX0X}.+.5.#.fXhXiXiX$X# y @Xf w.N.G.D.",
"d.q.A.t.n.f &Xy Y.n m Z Z B x ~ z B C G E.!.~.~.lXBXcXcXwX0X0X}.#.#.#.O.2X2X,X<Xp %X1XZ.t.a.g.s.",
"g.e.A.d Z.f g P.*X# % % & k x x B C o.E.^.!.~.~. XZXcXcXwX0XfX3X$.#.3X- X     D -Xg f e H.s.i.F.",
"f.f.u.r.k.k.j.g tXT.t n v h Z k Z G G ]._.J.!.~. XBXcXqXAX9X0X'.#.O.2XB v c S -X@Xv.j.k.M.a.a.D.",
"a.f.u.r.k.k.l.j.V.K.K._.R.M * = & 8 {.J.V (.!.!.BX6X6XqX9XDX2X- O = = 6XD A g U.m.l.h.x.C.a.g.D.",
"a.f.f.x.k.k.k.j.i b.0.p *XW.* 2 4 7 ^._.!.!.R.m 6XvXcXmXyXDX5X7 = 2 2 MXg b.f l.l.k.k.x.p.a.s.D.",
"p.p.u.r.r.r.x.x.M.S.V.9.:X:Xb.I./.W.4 5 4 4 ^.(.6XCXm 3 t 2 /.=X$XD K.-Xi j.c.w.f k.k.x.p.d.a.D.",
"p.p.p.r.r.u.r.p.7.B.B.s.x.7.j.i a a # > @ * v H nXMXM @ > @ L.).y b.m.i t.N.r.r.r.x.n.x.p.a.a.a.",
"p.p.M.p.u.r.f.p.s.F.D.G.t.7.S.7.V.U.%X>XW.GXD 2 v m rXI.*X*X1XU.r h.B.7.d.+X6.A.u.C.C.r.r.p.a.a.",
"B.p.r.p.p.p.a.a.F.i.i.D.s.g.G.r.B.e m.g u tX2 %     W.t u b.V.e Z.H.G.F.D.D.i.g.f.C.C.r.r.p.g.s.",
"s.p.M.p.r.d.a.a.D.i.+XF.F.g.e.g.M.z.m.f u =X$X#X#X#X#XK.P.9.j.B.s.D.G.i.D.i.+Xq.e.e.r.r.r.C.g.s."
};
