/* XPM */
static char *out[] = {
/* columns rows colors chars-per-pixel */
"48 48 255 2 ",
"   c #030718",
".  c #110715",
"X  c #340715",
"o  c #020A26",
"O  c #031526",
"+  c #18172A",
"@  c #021B38",
"#  c #151935",
"$  c #2E172F",
"%  c #271928",
"&  c #39192C",
"*  c #122537",
"=  c #34212E",
"-  c #29263C",
";  c #38233A",
":  c #460619",
">  c #491829",
",  c #521127",
"<  c #691D32",
"1  c #4E2B36",
"2  c #482B38",
"3  c #742936",
"4  c #7C2839",
"5  c #14304B",
"6  c #302E48",
"7  c #27374B",
"8  c #1E3A61",
"9  c #4E354A",
"0  c #75344C",
"q  c #7A374A",
"w  c #1C4F5F",
"e  c #294655",
"r  c #35485A",
"t  c #34525D",
"y  c #15536F",
"u  c #1A5776",
"i  c #2C4A68",
"p  c #364865",
"a  c #29596A",
"s  c #355567",
"d  c #214F71",
"f  c #295876",
"g  c #365B75",
"h  c #356069",
"j  c #296379",
"k  c #37677B",
"l  c #4F4659",
"z  c #6E4857",
"x  c #79455B",
"c  c #7C4B5B",
"v  c #455468",
"b  c #545168",
"n  c #495C7A",
"m  c #7A4C64",
"M  c #69546F",
"N  c #68596A",
"B  c #7A5769",
"V  c #7A5B76",
"C  c #466379",
"Z  c #58687A",
"A  c #55737E",
"S  c #67677A",
"D  c #79647B",
"F  c #871929",
"G  c #8E2B39",
"H  c #9B373A",
"J  c #B92B3C",
"K  c #AA3134",
"L  c #B7373C",
"P  c #C62C38",
"I  c #C7383A",
"U  c #9A403F",
"Y  c #AB413F",
"T  c #C6413F",
"R  c #932B44",
"E  c #87374B",
"W  c #9B3B48",
"Q  c #883E55",
"!  c #983D52",
"~  c #BA2E43",
"^  c #A83947",
"/  c #B73945",
"(  c #A63A53",
")  c #B33957",
"_  c #C92F4C",
"`  c #C43B46",
"'  c #CB3455",
"]  c #9A4248",
"[  c #85435D",
"{  c #884558",
"}  c #974457",
"|  c #8A515B",
" . c #A54445",
".. c #B8454C",
"X. c #A74859",
"o. c #B54758",
"O. c #A8565A",
"+. c #B2585D",
"@. c #884A63",
"#. c #984F6A",
"$. c #85556A",
"%. c #995767",
"&. c #895976",
"*. c #A54B62",
"=. c #A55667",
"-. c #B2566D",
";. c #86657C",
":. c #966875",
">. c #B56875",
",. c #C84447",
"<. c #D8484A",
"1. c #C64958",
"2. c #D74A56",
"3. c #C65359",
"4. c #DB585C",
"5. c #E45859",
"6. c #F0605F",
"7. c #C85967",
"8. c #D65A66",
"9. c #C85A73",
"0. c #E65E61",
"q. c #C86869",
"w. c #D86469",
"e. c #C56977",
"r. c #CD7178",
"t. c #DA7679",
"y. c #E6676A",
"u. c #E86A74",
"i. c #F26D70",
"p. c #B58477",
"a. c #085D89",
"s. c #1C5C85",
"d. c #245D85",
"f. c #365D86",
"g. c #186688",
"h. c #1B648B",
"j. c #166C8C",
"k. c #1B6B8C",
"l. c #0E6B95",
"z. c #1B6593",
"x. c #166C94",
"c. c #1B6C94",
"v. c #176999",
"b. c #1B6D9A",
"n. c #157197",
"m. c #1B7294",
"M. c #1B729A",
"N. c #246484",
"B. c #2B6584",
"V. c #296887",
"C. c #24658C",
"Z. c #236A8C",
"A. c #2B6C8B",
"S. c #376887",
"D. c #2E7287",
"F. c #34738B",
"G. c #236B94",
"H. c #2B6C93",
"J. c #286897",
"K. c #236B9A",
"L. c #366B93",
"P. c #237294",
"I. c #2D7494",
"U. c #22739D",
"Y. c #2B739B",
"T. c #367598",
"R. c #1C6DA0",
"E. c #1B76A4",
"W. c #2F74A2",
"Q. c #2977A4",
"!. c #625F83",
"~. c #476885",
"^. c #566986",
"/. c #49728D",
"(. c #597589",
"). c #487596",
"_. c #597A97",
"`. c #696785",
"'. c #786786",
"]. c #66788C",
"[. c #787489",
"{. c #687996",
"}. c #787696",
"|. c #507BA1",
" X c #677FA1",
".X c #815D81",
"XX c #856986",
"oX c #907890",
"OX c #A7788A",
"+X c #BA7586",
"@X c #B2718A",
"#X c #C97787",
"$X c #D1768A",
"%X c #E77382",
"&X c #2781AB",
"*X c #548396",
"=X c #67838E",
"-X c #6B8698",
";X c #768598",
":X c #5986A6",
">X c #518BAC",
",X c #6789A4",
"<X c #788BA6",
"1X c #7C92A5",
"2X c #7795A9",
"3X c #6A95B0",
"4X c #7AA3B9",
"5X c #72ACC6",
"6X c #8C8599",
"7X c #988698",
"8X c #929097",
"9X c #AA8699",
"0X c #B88E93",
"qX c #B7869B",
"wX c #888AA6",
"eX c #998AA7",
"rX c #8699A9",
"tX c #9696A9",
"yX c #828FB9",
"uX c #8999B5",
"iX c #9396B5",
"pX c #AA87A4",
"aX c #B88CA5",
"sX c #A893A7",
"dX c #B794A9",
"fX c #AA97B7",
"gX c #B799B4",
"hX c #8CA6B7",
"jX c #99A5B6",
"kX c #A7A7B9",
"lX c #ADABB9",
"zX c #D2918F",
"xX c #C88697",
"cX c #F28E9B",
"vX c #C593A9",
"bX c #CC95AD",
"nX c #CFA9B7",
"mX c #9C9FC5",
"MX c #8DAEC8",
"NX c #99A7C7",
"BX c #9AB4C8",
"VX c #A7AACA",
"CX c #B7A6C3",
"ZX c #A7B4CA",
"AX c #B6B3C8",
"SX c #AEBBD6",
"DX c #CCB2CB",
"FX c #E6B6CB",
"GX c #BFD1DF",
"HX c #B7C8E5",
"JX c #D2C5D3",
"KX c #F3C7DE",
"LX c #D2D2EA",
"PX c #F1D2ED",
"IX c #F2F4FC",
/* pixels */
"v.x.k.A.j /.(.Z S S `.{._.).S.L.J.K.Q.v.P.u &Xn.P.j.g.5X>Xh.J.).k *XA =X(.Z {.^.|.f.s.J.h.U.j.j.",
"x.M.h.V.B.MXn r v b 8 l p g d.d.z.J.z.z.D.&Xj.u j &XI.u K.d.s.T.,Xp 7 t v p p g f.L.J.W.k.P.j.m.",
"K.z.Z.A.u 4Xo O + o o O @ @ d /.B.L.L.B.D.D.D.F.D.y k j S.f.f./.C O 7   - o * o 5 f.d.J.k.k.k.Z.",
"h.s.V.T.S.4X@ 7 iXiXiXiXiX<X XS.).L.g f 5X*Xk F.k :X*Xj g ,X4Xg <XwXiXwX].ZX}.5 @ ).d.C.N.g.P.Z.",
"J.T.N.u u :X5 5 VXVXVXiXBXBXk   (.=Xh e MXk   5 O 4Xh s s (.~.o iXCXeXAX8XGX1XO 8 >XH.H.Z.Z.P.Z.",
"s.Y.C.Z.T.:X|. X!.f.yXNXSXZXZ t BX-XC A -X=Xe t e hXt (.n (.1Xs mXiXAXkXiXv rX2Xd.|.H.G.k.H.A.Z.",
"P.G.z.Y.C.s.L.|.8 5 uXSXHXBXh Z 1X* O O * A A t h -XO @   n NXs LXHXLXZXZ O w *Xd.G.s.c.j.z.G.G.",
"b.x.z.K.s.J.L.).~.i 2X].,XjXt t rX1X1X- h A =XjXhXhXe n ,X,X{.p n r <X(.2XC D.j H.h.x.Q.z.Q.j.K.",
"E.a.Q.E.a.Z.C.S.f.f.v * =Xr =XBX1X<XHX{.{.{.].yX1XjX~.NXNX~.3XNXC s (.@ A *Xh y P.j.n.E.l.v.E.v.",
"x.M.n.n.Q.G.T.|.f.^.v 6 rXA lXIXZX<XBX<X1XNXHXmXBXjXf.<XNXSXyX,XZ C (.O 5 a k D.y j.n.l.E.E.R.v.",
"E.&Xa.j.P.u w w n `.6 o lXlXjXtXHXZXVXmXNX{.}.{.-XwXNXVXNXLXyX XZXSXA   A A h h I.P.l.v.E.E.R.E.",
"a.M.M.Y.s./.MXGX'.eXV ; 8X0XsXsXVXmXmXiXNX`.!.}.`.}.VXiXVXVXmX`.lXlXN % 8X8XA A *Xu z.R.l.l.E.n.",
"m.Y.Z.B.g C l N 2 z :.:.p.:.vXJXiX!.oX`.'.fXCXeXCXoX'.!.}.'.DXeXaX9X0X:.:.9 N ; * h T.H.z.M.E.E.",
"H.A.y ~.hXjX% X : , +.p.xXp.0X0XoX'.'.!.'.gXfXgXCX@X!.oX'.M CXCX#X>.r.>.U : X . - 2X:Xs.Y.m.a.&X",
"V.S.S.{.Z oX:.| O.q.t.q.q.r.r.xXOXOXOXpXgXpX@XbXvX@X@X@X@X@X@X@X$Xw.w.q.q.q.=.%.XX[.^.f.T.Z.l.n.",
"L.f ^.<X  1 zX>.%Xw.q.4.t.t.O.p.gXCXfXDXpXOXbXXX$X@XFXgXCXbXoX@X%X3.y.y.4.y.%X$XxX% # /.T.k.m.u ",
"f.).n rX% q O.3.2.2.8.8.w.+XbXaXDXfXPXDX0XzX+.q.t.zXnXoXDXAXDXFXxX9.8.y.0.<.4.3.=.9 6 }.d V.T.g.",
"d.L.C rX. > O.3.P <.i.u.$X>.xXOXOXVXDX[.p.zXt.y.q.cXvX6XZXS PXJXxX$Xr.u.6.P I 1.} > 6  Xd d.I.P.",
"H.d.k 1X. 3 O.U K _ 2.3.9.+XFXPXnX9X6X$.nXp.3.y.cXcXbXnXIXDX9 &.bX$Xe.1.4.I L / *.& ; {.B.H.h.h.",
"h.C.*X=XO 1 | O...,.o.o.#XvXFXDXCXPXKX0XzXq.w.y.4.t.>.nXJX; dXpXbXbXe.( ,.L L W [ $ 6 ~.B.Y.s.G.",
"j.P.F.k r N q U X. .^ } $XCXfXfXdXKXFX#XO.q.i.y.u.9.$XxXKXOXDXPX$XbX$XR / ,.o.] x l (.|.s.C.z.W.",
"M.x.j S.=XsX1 : 4 G ! ! $XgXCXCXaX@.Q 9.t.y.i.5.i.y.9.$Xq #.nXgXbXbX@XR o.t.q.< x '.,X|.s.z.z.J.",
"l.j.j.j h =XX > , 4 } @.aXCXfXfXOX0 *.%Xu.5.y.6.<.u.u.o.*.q aXpXCXvX+X( 7.t.-.: = p f d.z.K.Q.z.",
"l.j.P.D.h ;X% > q E 0 < .XoXoXCXaX#.*.) 8.` <.,.<.` 8.' o.=.aXDXOXvXbX>.X.o.! > ; n S.P.U.z.Q.z.",
"n.l.Z.N.h 1X% > $.Q 0 0 m '.yXfXvX[ ( ' ~ I L I I I _ P o.*.qXpXgXgX@X$Xe.! } > 6 C A.x.b.v.K.K.",
"M.l.P.N.g 1X% = @.Q 0 [ &.'.oXoX.X4 R ( ~ L I T T I P ~ 9.#XdXgXfXDXvX} *.*.=.X - C A.j.b.v.K.K.",
"M.x.G.B.g rX+ & m [ Q @.&..X!..X[ < R ) 1.` J T P I P <.$X$XaX7XPX'.:.} R R -.X - n A.x.M.v.K.G.",
"M.v.G.B.g 2X% & @.@.[ @.&..X.X.Xm E R W ) ^ K ,.<.<.<.<.9.$XFXJXXX'.&.< 9.( 0 > - ~.A.x.m.v.G.J.",
"R.z.G.V.f 1X+ = B @.[ @.&.&.V XX&.@.E < 4 F F ,.6.6.i.u.( *.OX`.kXl :.{ ( ( @XX 6 n A.j.n.x.G.J.",
"R.z.G.V.j 1X# & c @.[ @.&.;.D '.$.@.Q R 4 F F ,.6.5.5.4.G @XDXeXJX6XXXQ ) ) ( : ; n V.j.m.m.G.Z.",
"R.z.G.V.j 1X% = z | [ @.&.&.D D m @.@.[ } ! H L ` I J 1.E @X@XeXb AXaXE -.o.( , ; n S.k.m.k.P.Z.",
"R.z.P.V.h 1X* = m @.[ [ B D V '.V [ [ Q ! } H ..I ,.J ) ( @XOXSXrXtXB Q ) ) ) : ; n A.k.m.x.k.D.",
"v.j.j.A.j -X% 2 $.{ @.[ $..XS '.B | Q ! } W U Y Y I ' _ R @XXXlXC S ;.{ ( o.( , ; !.f.v.R.l.h.G.",
"n.m.j.j a 2X+ % | { [ [ &.XXS S B c E ] ^ H U ] ..L _ _ ) @XOXVXC v B | -.) ! : ; ~.L.z.Q.v.k.G.",
"P.x.k.D.a hX+ & c @.#.@.$.V S D N c Q !  .W U  ...J _ ' ) -.8XlX].Z ;.{ X.R ! : $ f.f.z.b.x.G.H.",
"U.g.k.I.a 2X  6 m @.#.Q $.;.V XXB c { ] } W U  ..._ _ ' ( =.sXlXv l ;.q *.*.-.X 6 !.W.J.K.b.J.C.",
"K.z.H.A.y 2XO = V x x x &.OX&.V B B { }  .] U U ^ ..' ' ) -.gXwXjX6X9Xz } ] #.X 6 g L.G.z.K.Y.C.",
"z.Y.H.N.j 4X7 - M m &.&.&.XXV ;.B | { ] ] U U Y ..` ~ ' ) @XdXM LXlX9X{ %.| x ; 6 f s.z.c.G.T.J.",
"z.K.G.g.F.>Xh v l l z z m &.V &.B c Q }  .W Y Y ..` ~ ~ ) #.vXM N S D 9 c x N b ^.).Y.Q.K.z.J.J.",
"K.K.s.G.A.j h ,X6 # . % b XX'.V B x E ] ^ H H Y / ` P ' ) } FXOXb 8X;X% . . 9 Z S.V.h.v.z.d.W.J.",
"b.M.P.m.j.j F.*X^.p v b [.M !.D B c %.O.G ..K Y L J 2.) ( #X@XnXlXGX6Xr S r Z k B.V.k.n.m.K.G.K.",
"x.m.m.n.j.j.Z.D.*X~._.Z ^.- # + 2 @.x 4 O.H U Y ..) ~ G ( @.> 6 *   hX(.s -X~.S.V.Z.k.n.n.x.b.G.",
"n.v.j.j.m.j.k.j g.y k ~._.p p 6 9 B $.[ | G ] O.H o.! X.#.m 9 9 e w BX*Xk ~.d A.k.k.m.n.m.x.z.b.",
"n.m.m.P.m.m.k.g.I.g.F.F.3X:X,X X[.; = 1 > | | G O.E < < > 9 tX}.*X5X>Xk L.y N.W.k.m.x.k.x.m.b.c.",
"n.M.c.c.K.c.G.G.k.k.A.s.d.u f.S.iX6 + - % z | :.$.z & & + v <Xi k D.*Xj C.z.J.C.G.z.G.c.c.x.b.c.",
"x.c.b.G.z.z.K.U.z.x.P.P.G.V.V.B./.,X2XuXrXl 2 9 2 oX;.;X<X_._.f j u k.&Xh.z.W.a.c.G.G.h.G.c.c.b.",
"c.z.G.G.J.K.K.K.c.x.x.z.Y.Y.A.d.B.L.f i v # + + . Z A A S.f s.A.j &Xj n.K.v.Q.Q.K.J.J.J.G.G.c.c.",
"P.c.G.K.K.K.J.z.z.Q.U.c.g.G.J.H.T.N.B.~.k -X[.wXwX].g g A.I.Y.g.k.j j.n.R.R.z.K.J.J.A.J.G.G.G.c."
};
