/* XPM */
static char *out[] = {
/* columns rows colors chars-per-pixel */
"48 48 256 2 ",
"   c #000224",
".  c #01052D",
"X  c #010B2D",
"o  c #04112B",
"O  c #10112B",
"+  c #050936",
"@  c #01053A",
"#  c #190938",
"$  c #071536",
"%  c #161539",
"&  c #240D3C",
"*  c #25153D",
"=  c #100F47",
"-  c #0C1747",
";  c #191747",
":  c #1A1956",
">  c #250B44",
",  c #251543",
"<  c #281846",
"1  c #2C1C4B",
"2  c #2C1057",
"3  c #251C57",
"4  c #341754",
"5  c #082444",
"6  c #17274A",
"7  c #1B2753",
"8  c #143054",
"9  c #272549",
"0  c #32214C",
"q  c #34294B",
"w  c #24304A",
"e  c #272757",
"r  c #38295A",
"t  c #273659",
"y  c #34395B",
"u  c #321B63",
"i  c #193A69",
"p  c #292865",
"a  c #392B67",
"s  c #2A3665",
"d  c #383765",
"f  c #372A75",
"g  c #2A3670",
"h  c #393877",
"j  c #452F5F",
"k  c #442C69",
"l  c #473868",
"z  c #472C7A",
"x  c #522D74",
"c  c #532C77",
"v  c #433B75",
"b  c #493878",
"n  c #573B7A",
"m  c #2D415E",
"M  c #194C6F",
"N  c #0B587A",
"B  c #1A5979",
"V  c #2A4968",
"C  c #39486A",
"Z  c #2B4B75",
"A  c #374A77",
"S  c #285777",
"D  c #375678",
"F  c #0C637E",
"G  c #1B637C",
"H  c #26637C",
"J  c #36607E",
"K  c #47456A",
"L  c #51416D",
"P  c #464675",
"I  c #574878",
"U  c #475679",
"Y  c #585679",
"T  c #644C7D",
"R  c #45647D",
"E  c #3D2E83",
"W  c #3B3785",
"Q  c #473987",
"!  c #563985",
"~  c #4C3491",
"^  c #673C8D",
"/  c #195D85",
"(  c #135F91",
")  c #3E4488",
"_  c #295B83",
"`  c #3B5B84",
"'  c #0C668A",
"]  c #156687",
"[  c #1C6283",
"{  c #1B658B",
"}  c #136B8C",
"|  c #176F8E",
" . c #1C6B8C",
".. c #196496",
"X. c #166D93",
"o. c #1C6D93",
"O. c #156E9A",
"+. c #1C6C9B",
"@. c #0D719C",
"#. c #157195",
"$. c #1B7295",
"%. c #12719A",
"&. c #1A7399",
"*. c #1C7B9C",
"=. c #246485",
"-. c #2C6485",
";. c #246983",
":. c #2B6984",
">. c #25658B",
",. c #2C6589",
"<. c #236B8C",
"1. c #2B6B8D",
"2. c #326584",
"3. c #3E6B86",
"4. c #386788",
"5. c #346A8D",
"6. c #39728D",
"7. c #226C93",
"8. c #266C96",
"9. c #2C6E90",
"0. c #237294",
"q. c #2A7394",
"w. c #24749B",
"e. c #28779B",
"r. c #367697",
"t. c #266EA2",
"y. c #2774A4",
"u. c #347AA4",
"i. c #494787",
"p. c #554987",
"a. c #415584",
"s. c #485986",
"d. c #5A5785",
"f. c #574698",
"g. c #4E5194",
"h. c #575998",
"j. c #66468A",
"k. c #63578D",
"l. c #6A4B97",
"z. c #754C9D",
"x. c #645A96",
"c. c #74599B",
"v. c #476688",
"b. c #57688A",
"n. c #45738C",
"m. c #56728E",
"M. c #406790",
"N. c #456D95",
"B. c #596798",
"V. c #487696",
"C. c #547391",
"Z. c #567898",
"A. c #676998",
"S. c #7A6798",
"D. c #667798",
"F. c #707097",
"G. c #524CA9",
"H. c #5B55A8",
"J. c #6F4AA6",
"K. c #675AA8",
"L. c #7356A5",
"P. c #6759B4",
"I. c #795AB7",
"U. c #5870A8",
"Y. c #686AAA",
"T. c #7967A8",
"R. c #6877A7",
"E. c #7979A9",
"W. c #6B67B8",
"Q. c #7768BB",
"!. c #6F74B4",
"~. c #7676B6",
"^. c #595BC0",
"/. c #6A59C3",
"(. c #5A6AD2",
"). c #6868C8",
"_. c #7668C6",
"`. c #7A74C3",
"'. c #7171D0",
"]. c #7974D7",
"[. c #845991",
"{. c #876A9C",
"}. c #905CAA",
"|. c #845BB9",
" X c #8767AB",
".X c #9468AB",
"XX c #8875A4",
"oX c #9577AA",
"OX c #8868B4",
"+X c #9768B5",
"@X c #8975B8",
"#X c #9979B9",
"$X c #A66FB8",
"%X c #A578B8",
"&X c #8667C3",
"*X c #8977C8",
"=X c #9879C9",
"-X c #8E6FD4",
";X c #867AD9",
":X c #9478D7",
">X c #A879C7",
",X c #B37CCE",
"<X c #3D83A7",
"1X c #49819C",
"2X c #57819A",
"3X c #69809F",
"4X c #5885A4",
"5X c #518BAD",
"6X c #6788A9",
"7X c #748EAD",
"8X c #688BB2",
"9X c #7988B8",
"0X c #7597B8",
"qX c #788DC1",
"wX c #73A8C5",
"eX c #908AB3",
"rX c #8594BA",
"tX c #A98AB8",
"yX c #9886C6",
"uX c #8A97C6",
"iX c #9294CD",
"pX c #9B8AD8",
"aX c #A686CA",
"sX c #B886CE",
"dX c #B799CB",
"fX c #AE8DD2",
"gX c #A897D5",
"hX c #B997D7",
"jX c #90ABCE",
"kX c #9AA7D4",
"lX c #AAABD6",
"zX c #AE94E6",
"xX c #B597E7",
"cX c #91A6E2",
"vX c #B4AAEA",
"bX c #B5B8EA",
"nX c #C696D3",
"mX c #CBA9DA",
"MX c #C998E3",
"NX c #CBA9EB",
"BX c #D0B1E9",
"VX c #CDA8F6",
"CX c #D3AAF9",
"ZX c #CBB7F8",
"AX c #D3B7F9",
"SX c #DCB3FE",
"DX c #DCBCFF",
"FX c #E3ADFA",
"GX c #E5B8FA",
"HX c #B7C6F3",
"JX c #D8C6FD",
"KX c #D4CBFA",
"LX c #E6C6FC",
"PX c #EACDF9",
"IX c #F2C3FE",
"UX c #F7E0FF",
/* pixels */
"&.' X.0.r.4.4Xb.D.D.D.m.3Xm.2XH 9.7.N e.]  .r.G q.F  .<. .7.<X/ 3.2XR m.m.F.D.D.m.C.H <X' $.#.%.",
"%.&.e.<.=.-.8Xv.K U Y U D V 2Xn.;.{ <XN <.u.N  .;.;.q.r.[ q.7.B 1X6XC U U Y Y C R n.H 9. .o.#.' ",
"X.+.}  .1.6.v.  o o $ % $ o V n.,./ r.r.=.6.r.6.6.9.:.B r.>./ 5.C.C   o O   o $ o S 2.H 8.8.y.+.",
"} 7.<.{ G :.6X5 C t y m t w V S Z.4XM 4.S wX1XB r.n.wXS 2.M wX8XD D e K Y m l t . 3.V.:./ 8.8./ ",
"q. .F <.r.6.6.o m m m m y C m - 8 8XU.Z J jX8 $ $ $ 0Xn.D ` qXX X s d d l K P t 5 ` S 9.>.8.( t.",
"7.0.e.<.G H 5X0XV 5 w m C b.v.A.v.0X6Xv.m.6XZ.6X0X7X6XA ` v.8XR.A.B.A.l y t s b.wX0X5.5X5Xr./ u.",
"8./ 0.] q.G H 1XV.m 7 C C B.R.jXHXB.+ 6 - s HXkXuXkXs.@ t + s bXiXF.E.U K t 6 D 4X6.M q.8.7.( 8.",
"w.( $.F <Xq.F 6.4.D V t s 9X9XY.cXh.g g + C uX9XkX9Xs.. g i h.uXiXE.uXe s D.v.C.S 1.<.{ ..o.u...",
"( u.O.+.*. . .1.S 4.R.s - kXbX!.g.Y.qXh.@ h !.R.Y.B.g @ g.9X9Xh.R.lXvXs 6 R.n.J H G ;.F o.&.X.X.",
"..+.X.( 0.0.;.:.5.` Z.h s iXyXqX~.!.Y.s.= s h.U.~.Y.W : A K.Y.Y.R.qXjXs i uX2XS H F <XF } *.' *.",
"t.+.O.} 0.] H 6.Z Z B.e @ h p h.Y.h.W ) h g : = - = g g i.g.g.U.B.7 h - t D.s J H H G <X$.} ' ' ",
"+.' t.w.q. .6.6X7X9XkXg.3 b i.Y.!.H.p h g.h p ; 7 : h h W ) i.!.R.s.U 7 C 7XD.jXjXwXG q.$.F e.*.",
"o.[ q.G 9.:.J V U d.tXlXdXBXlXx.h h p : p : p h v h p : : p 3 i.a.lXbXlXKXeXK Y 2X4XS G ] 0.e. .",
"1.7.;.B 1X2X2Xm % ; T mXPXKXKXI p p 3 : 3 : v v d v 3 ; : : : h x.ZXBXKXBXT * q o R 8X1XB r.N  .",
";.;.H 6.8X2XlXeXdXeXtXmXBXdXKXdXgXK.a a a P iXuXyXkXb p d p p.pXE.JXJXBXGXmXtXoXeXlX0X6XS 5.>.r.",
";.H H V.R o 7XlXKXLXPXBXPXmXBXJXJX~.P h d I JXPXZXJXx.v v a !.KXKXBXNXmXGXIXGXPXUXlXX D V._ 5.B ",
"1XG H 2XR   eXdXsXnXMXSXCXCXAXzXpX`.h.g.p.A.ZXZXNXDXOXQ Y.) U.cXcXZXZXNXIXnXtXnXmXtX  R C._ 5.1.",
"F G H 2XY   {.{..X}.sXGXVXAXAX~.!.W.P.Y.Y.T.AXJXGXJX@Xf.Q.W.(.^.P.bXLXDXFXsX$X[.oX{.o b.Z._ 5.1.",
"| ;.G n.R % S.{.%X}.>XFXVXxXxX@XK.W.W.~.pXyXNXAXVXCXfX*XiX!.'.U.`.zXxXVXMXnX$X[.eXS.  U V.5.1.>.",
"| F H 2XR o F.dXtX>X}.=X@X! b K.W.W.W.*XZXZXDXGXDXSXDXAXpXK.).'.P.h 2  X+X%X$XoXdXXXX A M.5.>.>.",
"*.F F 1X0XC F.XX{.%X.XOX Xb f l.K.Q.W.*XLXDXSXSXGXMXSXFXzXW.W.H.Q.i.z aX%X.XtX{.c.XXa.U.V.>./ e.",
"<X| F 1X0X3XD.q r 2 p.fXyXI v i.f.K.*XpXAXZXVXCXFXCXGXCXzX:X`.~ W h b OX#XnXGXaX0 b.B.8Xr.>.[ y.",
"F } *.;.D D b.% 1 # k #X@Xv d P k K.pXpXZXCXSXGXGXFXGXFXzX=XQ.Q Q Q Q T.>XnXLX#X# P v.4.1.e. .o.",
"<X<XF ;.2.v.D.$ a I l k a r r r Q L.=X@XaXfXfXsX,X$X,X,XfX=XI.Q E u Q gXCXaXhX{.# A 4._ _ e.X.' ",
"' <X$.;.:.n.m.X d k.L # + = < r b OX=XOXyXOX.X.X$X}.$X}.|.-XJ.~ ) f f vXPXfX#Xk.@ s.M.,.9.o.o.&.",
"<X' $.| :.3.m.X 9 l r < 1 , % 1 3 ! c.c.#X.X+X>X$X$X,X>XMXCX&XQ W G.K.*X=X XT.p.@ a.M._ 8.o.&.X.",
"' @.| ;.:.3.m.X ; ; # % 4 * # < 2 # # k aXaX#X+X+X$X+X|.xXPXzXQ E P.`.f.z ! p.k @ a.M.,.7.7.&.&.",
"@.@.#.| :.3.C.X y e 1 4 r < % 0 1 4 r n S.c.z..X,XMX,X>XxXCX:Xf.G.W._.K.l.K.x.p.@ a.4.,.1.7.o.$.",
"@.#.o.<.:.3.C.X K Y p.Y l j & * # k I l , # > k hXSXGXSXxX:X_.).).).W.*XpXyXyXT.@ a.M._ 9.7.o.o.",
"O.#.o.<.:.3.C.o t l I L j j * & 4 l l j , 2 2 4 xXSXVXVXxX&XW.;X).].).].;XQ.@Xh.@ a.M.,.<.1.7.$.",
"O.O.$.;.:.3.C.X 6 1 0 4 & & * & & < < 0 # r l j.@X=Xl.! G.f.G.P.).).).G.f.f.f.v = a.M._ 1.7.7.7.",
"O.o.0.;.2.3.C.X q * & 0 * & * & 0 * & < % j n j. X>Xz.Q ~ G.P.^.(.P.).G.~ l.b i.@ ` 3.,.7.>.7.8.",
"+.o.0.>.J v.Z.X y K L L L 0 # * 0 r L K L l 4 4 n l.OX:X:X-X].].(.(.(.;X&XOXyXh.. Z :.;.0.o.+.7.",
"&.} 7.1.-.a.m.  K K Y Y j 9 # # , r I I I l < > n ^ I.=X-X].].(.(.(.(.-X:X=X#XA.- v.6.9.0.o.+...",
"O.X. .1.5.4.m.$ y 9 j l 1 1 0 # < 0 r 0 q r r x OXOX|.I././.).].(.(././.|.OXj.k.. Z 2.[ { +.y.+.",
"o.o.7.>.5.v.m.$ % % O * # < 0 , < < < + ; r z c.=X|.J.~ ~ ~ G.^./././.G.! n b l $ 4.V.<.7.8.t...",
"O.w.7./ ,.M.v.X w q q q q * * * # < r r u z u ! L.|.|.-X|./._.).).).P.Q.z.l. XP + ` r.1.>.8.t...",
"( *.o./ 1.n.Z.5 m Y Y Y I q # q % q k.k.j.! 2 2 E ^ |.-X:X:X]._.)._.I.pXyXaXgXk.$ D 5._ 7.+.t.t.",
"X.&.{ { 9.5.Z.D K C K K j 0 * * * y K k k z u c J.|.|.|.-X&X&X`.W.W.K.T.L.L.E.s.A Z.r.>.w.+.t...",
"%.&.} 7.9.S V.N.R $   O O O % * * * * # > k ! ^ |.+X|.^ ~ ~ ~ K.W.!.x.p = + % s ` r.>./ 7.O.t.+.",
"X.X.o.7.7.1.:.D 2XR U U K w % 9 O q q O * j T ^ }.>X^ z.l.p.Y.Y.P.U.B.H.s.a.` 3.5.,.<. .$.X.O.O.",
"O.o.o.7.<.>.1.-.n.R v.b.b.t $ % * q Y Y T I 4 4 j.^ $X#X X@Xk.p - 8 g a.N.N.n.1X,.<. . .$.#.O.%.",
"o.o.o.7.7.<.1.1.-.2.2.3.v.V 8 w w m K K L j # j n x .X#X#XgXA.7 i i M _ 5.,.G G <.<.| #.#.O.%.%.",
"o.+.o.o.o.<.<.<.H =.H -.N.1X2X2XrX7Xw w K y l L {.$Xj.r d w 7XuX5X5XN.u.5.8.| F  .| $.#.#.#.O.#.",
"7.o.o.o.o.o. .7.q.q.1.G ;.=.M M 7X0X5 o $ 6 K k.oXoXl + 3 @ R.8X_ _ >...' } } F  .$.X.o.o.+.#.X.",
"8.7.o.o.} o.$.$.'  . . .0.r.9.1.S Z.0X8X3XrXy y Y Y eXE.rXqXcX1X/ ..>.8.' <X<X<X#.X.o.o.o.o.o.o.",
"8.7.7.o. .X.X.#.} &.' ' }  .{ <.r._ 4.S J rX6 5   $ uXP ) _ N._ r.t.8.} ' ' ' ' #.o.o.o.o.o.o.o.",
" .>.7.o.X.#.#.#.X.*.*.&.w.$. .0./ :.1.3.H 6XR D.eXR.lXa.U._ _ 8.>.7. .o.@.@.<X#.#.X.8...7.8.o.8."
};
