/* XPM */
static char *xpm_[] = {
/* columns rows colors chars-per-pixel */
"48 48 256 2 ",
"   c #030705",
".  c #020518",
"X  c #181818",
"o  c #0D130F",
"O  c #28150A",
"+  c #182415",
"@  c #352617",
"#  c #312C0F",
"$  c #000623",
"%  c #001428",
"&  c #0A1933",
"*  c #072639",
"=  c #182F2F",
"-  c #2C312D",
";  c #442A1A",
":  c #513114",
">  c #463129",
",  c #3C4430",
"<  c #514433",
"1  c #6A4831",
"2  c #5C421C",
"3  c #173649",
"4  c #1A3A56",
"5  c #0E2E49",
"6  c #282E4F",
"7  c #1E4259",
"8  c #274A5A",
"9  c #354D52",
"0  c #195879",
"q  c #164E6C",
"w  c #274B63",
"e  c #2B566B",
"r  c #345B6B",
"t  c #275B78",
"y  c #355A74",
"u  c #2F4B70",
"i  c #38636E",
"p  c #27627C",
"a  c #376579",
"s  c #38707F",
"d  c #4F5557",
"f  c #6E6B52",
"g  c #455867",
"h  c #4F5B72",
"j  c #486464",
"k  c #456677",
"l  c #55687A",
"z  c #546C72",
"x  c #756F6F",
"c  c #6C5A5D",
"v  c #9A4B13",
"b  c #8B5531",
"n  c #AE6F32",
"m  c #A55E2E",
"M  c #D1791B",
"N  c #C87A37",
"B  c #D0782B",
"V  c #E47D29",
"C  c #936E55",
"Z  c #B77B5A",
"A  c #AF744C",
"S  c #907075",
"D  c #AA7D6C",
"F  c #B3796F",
"G  c #985A4B",
"H  c #C67646",
"J  c #C47A58",
"K  c #D27D58",
"L  c #C97F6B",
"P  c #71817A",
"I  c #B68736",
"U  c #CE862D",
"Y  c #EF8A36",
"T  c #DFA13C",
"R  c #B48558",
"E  c #99867A",
"W  c #939679",
"Q  c #B48E6F",
"!  c #B5A379",
"~  c #B4A373",
"^  c #C8865A",
"/  c #D59857",
"(  c #D38B54",
")  c #F1954F",
"_  c #DCA95C",
"`  c #D7AA4F",
"'  c #E4A758",
"]  c #E9B758",
"[  c #F4AD54",
"{  c #CA8866",
"}  c #C79775",
"|  c #D0966D",
" . c #E6996D",
".. c #DCAA69",
"X. c #C6A87A",
"o. c #D7AA78",
"O. c #D9B479",
"+. c #DAB567",
"@. c #E8A965",
"#. c #E7B566",
"$. c #E9B975",
"%. c #F9BA77",
"&. c #F4AE6E",
"*. c #FBD778",
"=. c #EFCC70",
"-. c #165B85",
";. c #0D5D89",
":. c #265D84",
">. c #385D87",
",. c #0D688D",
"<. c #1C658C",
"1. c #1C6C8D",
"2. c #176789",
"3. c #1A718B",
"4. c #167189",
"5. c #0E6694",
"6. c #146593",
"7. c #156A94",
"8. c #1C6B94",
"9. c #156E9B",
"0. c #1B6C9A",
"q. c #1D6697",
"w. c #1C719C",
"e. c #197398",
"r. c #246385",
"t. c #2B6985",
"y. c #24658C",
"u. c #236B8C",
"i. c #2B6B8B",
"p. c #296687",
"a. c #366988",
"s. c #226C93",
"d. c #2A6C93",
"f. c #226D9B",
"g. c #286996",
"h. c #23739B",
"j. c #297397",
"k. c #367496",
"l. c #346F8C",
"z. c #1C6EA2",
"x. c #1A74A4",
"c. c #0E6EA0",
"v. c #226DA1",
"b. c #2677A4",
"n. c #337CA5",
"m. c #685D8E",
"M. c #496B88",
"N. c #576782",
"B. c #497489",
"V. c #577588",
"C. c #497A98",
"Z. c #557997",
"A. c #466994",
"S. c #63798A",
"D. c #706E91",
"F. c #587AA7",
"G. c #5778B7",
"H. c #4F6FAA",
"J. c #6965A8",
"K. c #7568A6",
"L. c #6B76AC",
"P. c #605D94",
"I. c #567CC1",
"U. c #987A84",
"Y. c #896E8C",
"T. c #A67688",
"R. c #8D79AB",
"E. c #C47E86",
"W. c #58859A",
"Q. c #668697",
"!. c #798C99",
"~. c #708F95",
"^. c #5A88A7",
"/. c #5589B2",
"(. c #6887A5",
"). c #758BA3",
"_. c #7897A9",
"`. c #789AB6",
"'. c #6B90B4",
"]. c #79A4BA",
"[. c #7294CE",
"{. c #79A2D2",
"}. c #5C82C1",
"|. c #87999C",
" X c #8E8A8F",
".X c #AE928F",
"XX c #B7A69A",
"oX c #B8B29A",
"OX c #ADA78D",
"+X c #8499AA",
"@X c #869BB7",
"#X c #969AA7",
"$X c #A99EB0",
"%X c #97A8A9",
"&X c #8CA6B8",
"*X c #97A9B7",
"=X c #93AEB0",
"-X c #AEB1AC",
";X c #9CB099",
":X c #C8918A",
">X c #D8B88A",
",X c #CBB895",
"<X c #D6B799",
"1X c #CEAA8B",
"2X c #E6B884",
"3X c #EBB18F",
"4X c #CAB5AD",
"5X c #B8CABA",
"6X c #ADC8B7",
"7X c #B7C89E",
"8X c #DAC798",
"9X c #D7CF94",
"0X c #E7C787",
"qX c #F8C886",
"wX c #FAD688",
"eX c #E7C997",
"rX c #E8D89A",
"tX c #F6D798",
"yX c #EFD392",
"uX c #FAE198",
"iX c #D8D8A9",
"pX c #C7C7B8",
"aX c #CBD6B7",
"sX c #D0CFAE",
"dX c #E5D9A8",
"fX c #ECD0AD",
"gX c #DAE2B4",
"hX c #F5E7AD",
"jX c #829CD3",
"kX c #8AA9C6",
"lX c #97AAC5",
"zX c #89A9D6",
"xX c #97B6D8",
"cX c #96B0D1",
"vX c #A6B8C9",
"bX c #A8BBD2",
"nX c #B5B5C8",
"mX c #98B9E5",
"MX c #89ACEB",
"NX c #A9AFD9",
"BX c #B6C9C7",
"VX c #B8D3C9",
"CX c #AEC8D1",
"ZX c #9BC3EE",
"AX c #A9C8E5",
"SX c #A7C9F7",
"DX c #B4D7FC",
"FX c #B4D0EE",
"GX c #A8D3EF",
"HX c #C6D8C2",
"JX c #D5DBC6",
"KX c #C5D2CE",
"LX c #F9EECB",
"PX c #C8E6FF",
"IX c #D1E9F6",
"UX c #E0E1D1",
/* pixels */
"7.8.8.2.j.d.t B.V.S.S.l S.S.Z.F.H.:.g.g.w.9.x.c.9.x.-.j.k.>.L.Z.K.m.D.D.D.(.A.q g.f.0.0.e.0.3.3.",
"8.f.h.<.d.i.t.Z.Q.g h h l N.h M.C.a.:.-.h.3.5.c.5.7.s.0 u '.L.N.h h l h l k (.{.p.q.8.0.0.8.3.u.",
"<.s.h.<.y.y.t W.3 . % . . $ $ $ A.a.C.:.3.j.j.j.s.3.i.k.>.F.w $ $ $ . . $ * A.C.y.y.q.8.3.3.u.u.",
"<.1.s.<.s.:.t ^.r 3 !.+X|.+X!.'.`.e C.C.p p k.q i.p q ].M.k @XlXlXlX@XlXD.* u A.i.g.f.8.d.3.3.3.",
"u.u.s.8.j.d.:.^.w * _.bXvXlXbXFXQ.% 4 a a a l.s e k i ].8 * S.FX+XlX@XvXQ.* e p a.g.g.3.g.1.u.u.",
"u.y.u.u.j.g.-.^.q 7 &X*XvXbXvX).kXQ.).k i i 8 i s s i V.V.).&XvXFXFXvXcXS.5 Z.].:.y.<.8.1.s.u.u.",
"u.2.8.8.f.q.-./.5 7 +X&XbXCXCXB.).@XkX4 * 7 5 3 3 * % r cXAX'.w PXDXAXbXZ.% a.ZXy.y.q.8.s.s.1.1.",
"s.s.h.8.0.2.1./.ZXZ.).`.bXbXIXIXPXkXcXM.w k r e W.(.7 Z.AXkXxX(.`.xX].Z.Q.`.].t p.s.f.f.w.8.s.u.",
"8.7.7.w.,.h.k.k.]._.w = AXz cXGXFXSXSXzXZX(.u y (.PXxXmXDXZXPXDXe w V.* V._.^.l.d.y.6.0.0.7.v.8.",
"5.n.6.0.j.j.r.t e i j * =XP ~.PXZXSXSXjXzX}.A.A.A.SX{.zXSXZXDXZXM.a _.* 7 i i p r.d.s.0.b.9.6.v.",
"0.0.,.8.j.0 p i 9 i j o ~.=X_.GXSXNXjXH.L.MXSXDXSXMXH.H.{.xXZXGX=X6Xj o j z 8 i t i.h.q.6.z.z.v.",
"b.2.b.d.p l.~.~.6X7Xj + P 6XVXVXmXjX[.G.[.MXSXSXSX{.H./.MXzXxXAXBX;Xz + ;XHXj ~.W.p y.g.6.q.z.;.",
"8.<.k.0 e Q.j , < f OXsXaXaX6X=XjXF.}.L.G.I.I.H.G.}.G.F.^.[.lX*X5XpXsXoXW f - 9 z w p u.d.f.-.g.",
"d.s.2.a ~.|.= # # : iXgXgXgX;X6X@XP.L.H.G.G.I.I.G.G.F.H.M.S.&X%XsXLX9XLX~ o , + = W.].i.d.j.-.n.",
"d.l.t _._.;X;X! ~ ~ uX9X9XgX7X6XvX[.jX[.{.[.[.[.{.[.'.zX@X+XnX5X8XrX9X8X9X~ OXoX|._.kXW.r.d.:.g.",
"0 k.a.~.o f hXdXuXuX=.=.hXiXaXaXnXlXlXkXzXzXMXzXzXMXkXcX@X%XIXJXdX9XtXtXtXyXhXgXLX+ * B.>.p.d.y.",
"3.t.s ~.  C >XO.=.=.wXwXrX9XaXJXvXCXvX=X6X6XCXBX*XCXbXnXvXvX6XHXsXiXrX0X=.0X0X>XfX@ - Z.a.a.j.<.",
"i.0 a +X  f eXqX_ _ #.0XhXdXaX5XVXVXVXVXHXHXgXHXJXHXKXKXVXBXVXHXaXsXrXuX=.$.#...X.@ - V.e -.s.s.",
"j.i.C.&X  f 8XR $.$.*.yXrXsXpXBXVXCXVXHXgXgXiXgXgXaXaXKXHX5X6XVXsX8X8XyX$.+...o.8X< - Z.a.k.0.8.",
"<.4.a.(.  f fX2Xo.#.O.! ~ OX-XKXKXVXHXJXgX7X=.*.rX9XfXaXaX5XVXHX7X! X.>X....$.2X,X> . M.t g.;.7.",
"j.j.k.kXg S OXfXo.o.X.X.oX-XCXKXFXKXpXiXdXyX*.*.=.uXrXdXsX5X-XKXoX~ X.2X.._ @.@.Q x g (.g.f.0.b.",
"q.<.d.'.S.D.@ : b A X.8X4X$X@X&XnX-X4X8XuX*.=.*.*.*.wXeX9XoXXXXXXXOX1X2X..^ n 1 1 !.S.Z.-.q.q.5.",
"f.s.:.t h #X@ O 1 C } <XXX$XlXNXnX4X<XeXwX*.*.*.=.*.*.0X>X,XXX$XXX.X1Xo./ ( m O O d k :.y.v.b.z.",
"0.;.n.a.y  XO @ >X} D C x D.`.lX$X4X<X3X=.+.] ] ] ] ] +.>X<X:X.X.XE Q | | %./ : # h >.p.v.6.q.v.",
"8.8.1.a.r +XX ; 3X1Xb 1 S D.[.NXnX1X>X$._ [ [ ) ] ] ] ' O.>X1X.X.XE E A ..2Xo.: @ h >.g.v.0.0.0.",
"3.3.u.i.p |.X ; } } C C S D.L.L.T.F Q ..#.&.&. .[ ' ] ' ^ } .XT. XS Q | $.qX..: - k >.f.v.0.0.8.",
"3.3.4.l.i _.+ ; Q L J L U.D.Z.D.G 1 G / &.&.&.3X%.&.%.` n R Q .XS x .X1X3X2X| # - y a.f.z.q.8.s.",
"4.3.2.t.p |.o ; R L L E.S D.J.K.Y.G n ^ ) ( K  . . .' T ` } D U.D.S XX3X2X$.Q ; - k g.0.z.q.u.1.",
"4.3.2.i.t _.X ; F J :X3XT.Y.J.K.T.F A m m v v n n I I I yXeXS x #X#X4XfXeX$.X.: = k g.0.v.8.u.t.",
"4.3.4.s.p _.X ; L J  .:XT.K.J.K.T.T.H v v v v H ( T U U wX8XS Y.*X%XKXfXeX0X~ # = a.s.q.0.8.i.t.",
"4.3.2.s.:.`.& ; E.K L L T.m.J.J.T.E.L H H H K %.%.%.] ` +.1X.X$XlX#XoX<X>XO.~ # = a g.0.w.8.u.s ",
"4.4.6.g.t @XX ; E.J K F T.T.J.K.Y.E.K H V B N @.qX[ ] ] ..3X$XNXvX=X-XoXo.>XX.# = a s.0.w.8.t.p ",
",.e.,.j.a ).X : 3X{  .L S Y.J.J.Y.F K ) ) V N ' %.#.] ] yXfX-X%X=X#XoX,X>XtX>X# = i i.8.w.8.s.u.",
"e.e.e.i.y !.O : 3X .{ Z S m.K.K.Y.F  .) ) V B / #.+.#.#.wXiX%X=X&X;XoXOXeXtX>X2 = i t.3.h.0.f.s.",
",.,.h.2.t !.X : 3X{ J F S m.J.P.x F K ) Y V B _ =.#.] #.O.9X%X&X=X-XoXOX8XeX~ # - i p 3.0.0.0.q.",
"e.e.j.i.t @XX ; { Z F F T.Y.J.J.Y.D K B V V U &.wX=.] ` O.8X%X*X=X%X-X,X,X<X! , = i p 4.w.8.8.s.",
"e.e.8.j.0 @XX + Q F } :XT.Y.K.R.U.D A ) Y M U ` *.=.] _ 0XsX%X&X=X|.-XsX<X,XOX# = i t.8.w.6.8.f.",
"c.,.,.j.0 `.- - E .X<X4X.Xm.m.K.Y.D ^ [ [ U M T ] ` ` =.tXfX-X*X*X=XKXUXLXsXOX- = a u.8.w.6.8.f.",
"e.e.w.j.u.^.k j x S T..XR.Y.K.Y.Y.D ^ ) Y Y M T ] ] ] #.yXfX$X*X&X*X-X-XXXOX$XP 7 l.u.8.w.7.8.0.",
"9.9.x.2.<.t.s z - o   > d m.J.Y.S Q H B M M U [ *.] ] _ 1X,X$X*XlXvXS.X o   d ~.i l.<.2.w.0.0.s.",
"0.6.0.h.s.0 a.W.Q.9 j h D.m.R.h Y.E.Z N V Y M [ *.] &.$.1X4X.X$XlX(.S.g d j ~.r a u.8.8.w.0.8.8.",
"w.6.8.h.f.2.p.B.B.k V.z l 6 6 & c F Z 3X .B M ) ' &._ o.fXfXd 6 3 * @XQ.k z k e p u.8.8.0.8.8.8.",
"e.2.6.8.f.g.y.:.e a i w Z.u 6 6 - .X} 1X&. .N @.' qX3X<XLX4Xc * 3 4 k e i e s t.i.s.e.9.0.0.8.s.",
"3.7.8.8.8.f.y.-.i.k.t.p '.F.H.L.nXc > 1 : Z A | tXQ : < < x |.N.Z.^.p t C.p t.j.3.s.8.8.0.0.8.s.",
"4.e.8.<.q.f.f.q.-.2.j.u.r.0 r.a.V.. o X O C Q 8XLXC o + o r _.w l.q k.p.p 1.0 2.8.8.9.0.8.8.s.s.",
"4.1.3.8.q.q.v.v.h.,.h.h.1.r.k.p y &X_.|.Y.x c S S OXP !.W._._.p d.r.k.y.u.h.7.b.e.9.9.0.0.8.s.8.",
"3.3.3.s.q.q.z.z.n.c.5.7.4.1.u.0 l.p w M.r .       z z e p p t t.0 n.0 2.h.7.5.5.9.9.9.0.0.8.f.8.",
"3.4.2.f.v.q.q.z.5.z.9.9.w.e.4.3.<.:.l.y l l  X X~.=Xz p i.k.0 j.j.0 n.0.,.b.9.9.9.c.9.0.0.8.s.s."
};
