/* XPM */
static char *xpm_[] = {
/* columns rows colors chars-per-pixel */
"48 48 256 2 ",
"   c #050803",
".  c #051907",
"X  c #1A1A0A",
"o  c #021515",
"O  c #100D0C",
"+  c #251A0C",
"@  c #072911",
"#  c #322B18",
"$  c #031C34",
"%  c #0D1928",
"&  c #062728",
"*  c #19362A",
"=  c #182C3A",
"-  c #102E31",
";  c #222B39",
":  c #25363A",
">  c #2D372D",
",  c #463D1A",
"<  c #583729",
"1  c #493932",
"2  c #603F38",
"3  c #1C4233",
"4  c #324531",
"5  c #3C7838",
"6  c #5A492B",
"7  c #554738",
"8  c #444934",
"9  c #694E3A",
"0  c #587439",
"q  c #667531",
"w  c #1A3848",
"e  c #12304B",
"r  c #243546",
"t  c #303143",
"y  c #194850",
"u  c #294749",
"i  c #384748",
"p  c #255748",
"a  c #39544C",
"s  c #274755",
"d  c #3A4A53",
"f  c #375655",
"g  c #28535D",
"h  c #3C6B57",
"j  c #0B5D7B",
"k  c #1B5879",
"l  c #15536D",
"z  c #285A6A",
"x  c #355866",
"c  c #285B76",
"v  c #385B78",
"b  c #2D4A6B",
"n  c #176479",
"m  c #076974",
"M  c #3C7A61",
"N  c #276579",
"B  c #376777",
"V  c #32636D",
"C  c #474C4B",
"Z  c #554A46",
"A  c #454A54",
"S  c #455659",
"D  c #535557",
"F  c #52544C",
"G  c #6A5859",
"H  c #567B49",
"J  c #456558",
"K  c #477756",
"L  c #5A7A58",
"P  c #517352",
"I  c #647D46",
"U  c #637C56",
"Y  c #726C55",
"T  c #475864",
"R  c #4F5868",
"E  c #4B6966",
"W  c #536C6B",
"Q  c #597969",
"!  c #466877",
"~  c #566775",
"^  c #5A7976",
"/  c #48746F",
"(  c #66756A",
")  c #667975",
"_  c #6B7075",
"`  c #655E65",
"'  c #BC7B38",
"]  c #96662E",
"[  c #C27F28",
"{  c #8B5F4F",
"}  c #996948",
"|  c #8C7352",
" . c #BB7C46",
".. c #A57A55",
"X. c #B07356",
"o. c #8F7A67",
"O. c #C37B53",
"+. c #C47B46",
"@. c #7FA23D",
"#. c #6A9238",
"$. c #48864B",
"%. c #4C8859",
"&. c #53825E",
"*. c #568A5A",
"=. c #5C995B",
"-. c #54874F",
";. c #698447",
":. c #688458",
">. c #6E9353",
",. c #75AA58",
"<. c #4A8868",
"1. c #588666",
"2. c #599466",
"3. c #548B72",
"4. c #658668",
"5. c #679669",
"6. c #66967B",
"7. c #708E71",
"8. c #77A969",
"9. c #74AE6F",
"0. c #8A9334",
"q. c #AD9238",
"w. c #85A13B",
"e. c #C68834",
"r. c #C39237",
"t. c #D49C3F",
"y. c #8A9352",
"u. c #B38952",
"i. c #83AD56",
"p. c #8BB45A",
"a. c #91AC4F",
"s. c #AEAE51",
"d. c #918D6C",
"f. c #B09271",
"g. c #84B867",
"h. c #8FAE6C",
"j. c #A5AB6B",
"k. c #A9B775",
"l. c #B2B56F",
"z. c #C68449",
"x. c #CC9253",
"c. c #D7A34A",
"v. c #D6A654",
"b. c #DAB858",
"n. c #C7AB4F",
"m. c #E4A754",
"M. c #D8BA69",
"N. c #CEB36F",
"B. c #E6B667",
"V. c #F0B872",
"C. c #D59F61",
"Z. c #B3C874",
"A. c #9CC366",
"S. c #C7C675",
"D. c #D8C979",
"F. c #D0C970",
"G. c #E9D57B",
"H. c #EECE75",
"J. c #F7E27B",
"K. c #E5C45D",
"L. c #175D84",
"P. c #0E5A8B",
"I. c #265A84",
"U. c #345A86",
"Y. c #0D6689",
"T. c #1B648C",
"R. c #156B8B",
"E. c #1C6B8C",
"W. c #176786",
"Q. c #1C728E",
"!. c #0D6794",
"~. c #146B93",
"^. c #1C6C94",
"/. c #156D9C",
"(. c #1C6D9B",
"). c #186494",
"_. c #1C739B",
"`. c #177297",
"'. c #087591",
"]. c #226C8C",
"[. c #286888",
"{. c #376887",
"}. c #26728B",
"|. c #2B748B",
" X c #36748A",
".X c #226693",
"XX c #226A94",
"oX c #226C9B",
"OX c #2A6A94",
"+X c #366B96",
"@X c #24749C",
"#X c #287597",
"$X c #367894",
"%X c #196EA6",
"&X c #2677A5",
"*X c #3579A3",
"=X c #2A71AE",
"-X c #1858A2",
";X c #476A87",
":X c #47798A",
">X c #567888",
",X c #487798",
"<X c #537291",
"1X c #6E7987",
"2X c #517DA3",
"3X c #3285AB",
"4X c #258599",
"5X c #5A8397",
"6X c #4C8595",
"7X c #698685",
"8X c #698798",
"9X c #748F8E",
"0X c #78AE87",
"qX c #528EAD",
"wX c #688CA9",
"eX c #689BA6",
"rX c #6F97AF",
"tX c #76A6B6",
"yX c #78AAC3",
"uX c #719BC6",
"iX c #8B9593",
"pX c #AC9B8E",
"aX c #8BB08F",
"sX c #B2AB8D",
"dX c #85A2B4",
"fX c #8CA8AE",
"gX c #ACB6B1",
"hX c #839CA0",
"jX c #CFB891",
"kX c #EDBD81",
"lX c #CABCA6",
"zX c #B9CD8B",
"xX c #8CD085",
"cX c #D7C887",
"vX c #C8D787",
"bX c #D8D885",
"nX c #C8D193",
"mX c #E7C787",
"MX c #EDD291",
"NX c #DAE695",
"BX c #D7E78E",
"VX c #EAE58E",
"CX c #D4CAAD",
"ZX c #F6D7A8",
"AX c #E5D1AE",
"SX c #EBE4A8",
"DX c #F9E6B4",
"FX c #FAE5A9",
"GX c #DCE8A3",
"HX c #86B3C7",
"JX c #AFBCC4",
"KX c #93C7D7",
"LX c #ABC9CB",
"PX c #ADD7E5",
"IX c #A6DAEB",
"UX c #FFF5CC",
/* pixels */
"R.4XY.}.m 4X6X5X<X1X;X1X1X1X>X:Xk .X#X@XY.#X.XU.I.+XT.E.#XW.{.{.<X>X>X_ 1X_ 1XiX>XV V ].Y.(.&X/.",
"R.R.W.n N KX;Xf R A 1X1XA R LX2XU.I.W.^.Y.#XOXU.+XI.OXW.E.|.l ;XdXf _ D D ` A D T 8X Xn Q.&X!.=X",
"oXP.OX+XN tX&     O + O O % 1X1Xb 6X[.W.].OXI.2XU.,X.X|.[.|.2X;X4.      O +     u PXz |.].&X).%X",
"=X.X.XOXz rX: i pXpXf.pXpXpXpXR wXwXN k N ,X,Xb v rXU.N z :XdXR pXpXsXsXpXpXpX; a ! N |.XX).).=X",
"-X=X&X+Xc eXi # gXAXAXjXjXlXo.X % ! B B 5X:X$ $ = ! B B B wXE o d.SXjXsXCXCXJX: & PX$Xk W.3XP.).",
"=X=X).XXc 5XhXgXd.Y sXjXAXcXjXpXgXW J / ^ hXR R iXJXS f a 7.gXsXAXcXl.jXjXY ( gX8X:XKXqX#X).).&X",
"%X-X!.&X].z / hX8   pXAXAXAXDXsXo.> + X > iXG pX` gXX X X # iXsXZXkXMXAXpXX X JXV {.6X3XL.R.&X@X",
"'.!./.`.#X[.V B hX9XsXd.sXUXSXDXAX| Y , 9 AXd.d.{ lX7 6 Y d.f.f.ZXDXjX| pXsX7Xx B c OXL.oX@X).~.",
"'.'.'.'.oX.XU.U.wXfX_ O d.sXDXVXZXDXMXu.X.AXZXDXUXjX..f.ZXZXDXZXDXUXjX+ G JX9Xv {.I.OXOX~._._.!.",
"'.'.4XY.+X=XI.;Xb ~ ~   d.j.DXbXMXmXV.x.z.N.kXH.V.B.u.C.kXkXMXkXZXUXd.+ _ 7Xs wXU.qXL.P.@XY.!.'.",
"m 4XE.T.+XI.;XU.v <X_   sXk.MXmXH.B.V.V.m.C.r.u...C.C.B.V.V.MXMXjXSX:.  ( 9Xg N [.uXOX$X*XY.4X`.",
"n }.n  XU.U.uX;X<XdX7.X d.sXjXFXH.c.m.V.m.x.q.' q.c.c.m.m.m.H.MXjXzXd.# ( LXfXB U. X+XL.W._.m `.",
"|.l  XI.{.wXv s ; R 9X:.j.j.u.mXV.r.e.e.e.t.B.b.v.c.e.e.e.e.b.H.l.h.h.7.5.3.M 3 z KXb I.$XL.3XY.",
"#X|.[. X>XrXy * * @ 8.zXzXy.l.s.v.r.[ e.e.c.H.m.M.c.q.e.e.e.t.F.s.i.k.aX5.@ o @ f HXrXqXk .XY.R.",
"L.$XI.rXB 7X6.<.8.5 ,.9.i.>.S.s.n.t.r.t.m.t.v.q.n.n.c.c.c.n.s.n.s.p.p.,.8.$.&.9X7X1XtXHXI.|.#XQ.",
"#XL.,XHXO h 0XaX=.xXg.g.,.a.a.0.r.K.m.b.b.n.q.q.q.s.M.H.B.n.r.q.0.@.i.g.g.g.aXaXfXS % <X;X[.Y.`.",
"+X[. XKXo h 7.4.2.9.9.g.a.w.A.s.K.K.K.F.F.A.0.s.w.s.F.BXF.G.b.b.s.w.A.i.,.=.5.7.iX> r g z #Xm 4X",
"I. XN eX  i P 4.%.2.6.h.p.a.A.J.J.J.J.F.GXZ.w.a.a.Z.BXBXD.VXG.J.n.0.,.g.9.=.&.L _ D o g 6Xn _.Y.",
"U.uXqXyX& f 7.( M 2.:.>.l.a.a.J.J.G.F.Z.vXA.@.a.w.A.Z.Z.BXVXH.J.F.a.p.>.=.$.=.Q ( : % s |.}.Y._.",
"I..X6XeXo : ) Q L 2.*.I j.F.F.VXJ.J.BXZ.p.,.@.A.w.a.A.A.BXVXG.H.F.F.p.$.$.$.2.5.( : w ,X{.W.Q._.",
"*Xk |.KXg W ( Q Q h -.I j.cXG.G.VXF.zXh.i.,.,.A.i.,.g.h.zXvXmXG.F.N.i.;.=.*.<.Q E W / eX$XQ.#X~.",
")..XQ.qX5XhX4 * * 3 P d.f.N.M.M.l.w.y.h.h.9.9.,.g.g.g.8.,.0.N.F.N.S.a.0 =.0X6.3 f fX5X X[.Q.~.oX",
"oX&XE.y z fX: o . @ F y.f.MXV.kXs.q q 8.9.0X9.9.g.8.g.8.$.q s.M.v.N.j.0 -.0X0X& u PXz N n j *X).",
"_.Y.4X}.V hX; ; u i 8 # { C.x.B.N.q U 8.<.2.=.,.,.$.=.=.0 q S.M.M.l.j.h.9.5.6.3 u eXB |.E.#XY.oX",
"(._.W.|.z dX: = S i # O ] O.C.V.N.I U &.M %.%.$.5 $.$.$.-.;.l.F.M.kXk.h.aX1.E - y B N l }.oX).oX",
"/./.Y.}.z fX: ; d C 4 # { O.+.C.f., 4 1.<.<.%.*.$.%.%.%.5.,.l.M.D.mXj.>.7.4.3.- p B B n Q.(.oX.X",
"/._.Y.}.b dXr ; r S D < } O.+.+.u.+ X Q 6.3.<.%.%.%.%.=.9.h.Z.S.D.MXj.0 L 4.^ - y z n |.E.~.@XoX",
"/._.R.|.z dXr ; i C G 7 } +.' +...# > a h K h %.5.2.2.2.8.y.Z.D.cXVXl.I *.4.4.$ y :XN ].E.R.oXoX",
"_.`.Y.}.c dXr ; d A Z < } O.+.z.} 9 7 * @ o @ K aX0X0X5.4.>.Z.bXD.VXZ.;.:.Q Q - u HX{.n Q.`.R.oX",
"/.`.W.}.z dXr ; A i Z < } z.+.+.X.9 7 * * & @ K 0X0X0X5.H q S.VXbXNXk.:.:.Q ( : w PXB j #X_.T.oX",
"^._.W.}.b dXt ; x i F < X.O.+.+.X.< 7 C S J 3 P 5.2.2.*.H ;.vXVXG.BXj.I L L _ ; r KXN n Q.Q.^.@X",
"^.^.W..Xc dXr e A d Z 2 } O.x.z.X.< G D : a a h 1.K &.-.-.;.bXbXbXNXk.I :.( ) - u KXB 4X].Y.@X^.",
"Q.^.E.[.N tXe $ f S 8 6 } u.r. ...6 Z A A f 4 %.<.<.%.&.-.;.vXNXbXnXzX;.L 4.Q * - PXV N #XT.%X&X",
"W.L.[.|.c yXw w u R Z 6 ] ..q.' ..7 Z Z A f p M <.<.<.L H I vXNXnXGXsXH :.( Q 3 u LXB [.[.@X%X/.",
"#X.XOX$Xb uXe r d D Z 6 }  .+. ...6 7 C d f p M 3.<.<.L H H Z.BXbXGXk.0 :.4.K - p tXB B n *X(.).",
"oXT.[.[.l tXe r T F 7 < } x.+.+.u.6 Z F f f p M <.<.<.<.-.;.vXBXBXGXk.q :.5.1.& p eXV B [.XX).%X",
"XXT.XX[.c HXe e A A 2 < ..f.O.+..., 7 8 a h p M <.<.<.Q P ;.vXBXbXbXl.>.U L 3.- p tXz N |.W.T.&X",
"oX&X+XOXU.yXe = b A G 2 X.X.+.O...6 7 C f g p M <.<.<.3.-.;.vXBXMXbXl.Y ( 4.<.- y IX XN |.].#XR.",
").R..X[.{.wX{.! A t A 1 o.O.O.O.u.6 7 C d f p M <.<.3.<.L ;.nXNXVXSXj.0 L E M N n yX XW.].].oXR.",
"&X_.T.T.I.{.{.<Xb % % O { pXO.X.d.7 8 C f f p M 3.3.<.3.L U nXSXnXDXy.. . o y tXn $X[.OX]..XT.oX",
"`.!.~.#XOXI.{.2X2XR T ` G o.pXX.o.7 8 A S d h J 7Xh 3.4.P d.nXvXnXAXh.C / B ,XqX[.]..X.X.XXX(.oX",
"/.~.R.#X].c [.,X<XU.;X~ _ > # + # F D i T f a E Q ^ W W ) P 4 4 # > 9XW >XN $XqX]..X.X.X.X^.(.(.",
"/./.~.^.E.[.[.|.I.I.U.x 8Xt ; : : D A t R T u S / 6.^ 1XiX^ 4 > * * fX:Xz k L.L..X.X.XoXoX(.(.%X",
"/.'.^.R.E.E.].T.+X+XOXI.tX>X>X8X1Xr $ e w r T E iXE r = e T 7X/ 7X! tX[.c *X*X).T.oX.X^.^.(.%X(.",
"~._.^.R.].XXXXT.T.^.T.Y.[.{.V z V y e e $ r T J 7.f = $ $ v eXg B k n k T.@X^.^.XXXX].].^.(./.`.",
"/.^.^.XX.XXXXXXX/.&X&X_.W.].|.n 6XrXwXqXrX;Xi f : 1X8XwXwXrXeXN n qX#X#X_.(.).#X.XE.].].XX^././.",
"oXoXXXXXOX.XXXoX).!./.!.^.Q.$X4Xj [.I.U.<Xb O     W ! v +Xc [.[.Y.3X3X`.Y.~.@XE.].}.].].Q.Q.`.`.",
"oX.XXXOX.XT.T._.=X/./.P.3XY.W.W.XX#X+Xk v wXfX7XQ hX;XU.+XI.|.#XQ.Y.~.!._.`.@XW.E.].].].Q.`.`.'."
};
