/* XPM */
static char *out[] = {
/* columns rows colors chars-per-pixel */
"48 48 256 2 ",
"   c #07010C",
".  c #040315",
"X  c #170614",
"o  c #2A0C1A",
"O  c #100F27",
"+  c #011928",
"@  c #011B36",
"#  c #2C1629",
"$  c #05212D",
"%  c #03263A",
"&  c #172835",
"*  c #282839",
"=  c #46353A",
"-  c #60413C",
";  c #032B42",
":  c #072843",
">  c #173348",
",  c #18324F",
"<  c #2F384C",
"1  c #303E62",
"2  c #48344B",
"3  c #1A4758",
"4  c #284757",
"5  c #364B50",
"6  c #374859",
"7  c #174968",
"8  c #195567",
"9  c #0A5A72",
"0  c #195C79",
"q  c #284B66",
"w  c #354765",
"e  c #29566A",
"r  c #39576B",
"t  c #384E73",
"y  c #285A77",
"u  c #395A75",
"i  c #156871",
"p  c #17667A",
"a  c #3A696F",
"s  c #27647A",
"d  c #36647A",
"f  c #4E4B55",
"g  c #705557",
"h  c #465569",
"j  c #555A64",
"k  c #53526B",
"l  c #465A75",
"z  c #6B5368",
"x  c #47677A",
"c  c #586777",
"v  c #546B73",
"b  c #6C6873",
"n  c #AB2E36",
"m  c #983E55",
"M  c #B73749",
"N  c #9B3A63",
"B  c #C23A4A",
"V  c #CE3D56",
"C  c #904559",
"Z  c #B3434B",
"A  c #A34859",
"S  c #B94455",
"D  c #8A4867",
"F  c #984967",
"G  c #945472",
"H  c #AF526A",
"J  c #8D6E75",
"K  c #976375",
"L  c #AD6F74",
"P  c #A36A78",
"I  c #B76976",
"U  c #BB767D",
"Y  c #C84B53",
"T  c #CC5666",
"R  c #E25971",
"E  c #CD6E74",
"W  c #C86979",
"Q  c #D76879",
"!  c #E36C71",
"~  c #51817F",
"^  c #9F8878",
"/  c #DA827E",
"(  c #1A5C86",
")  c #145B8C",
"_  c #265C86",
"`  c #365E84",
"'  c #245E96",
"]  c #0C6589",
"[  c #136584",
"{  c #186787",
"}  c #1C658B",
"|  c #156C8C",
" . c #1C6D8C",
".. c #15718A",
"X. c #1B718D",
"o. c #0D6D95",
"O. c #156796",
"+. c #1B6594",
"@. c #156D94",
"#. c #1C6C94",
"$. c #1C6D9A",
"%. c #157193",
"&. c #1B7194",
"*. c #167699",
"=. c #1C739C",
"-. c #276587",
";. c #2B6484",
":. c #24658B",
">. c #236B8C",
",. c #2B6B8B",
"<. c #376886",
"1. c #336C8B",
"2. c #27738A",
"3. c #35758B",
"4. c #226B93",
"5. c #2A6B94",
"6. c #276899",
"7. c #356B93",
"8. c #277596",
"9. c #23739B",
"0. c #357697",
"q. c #1B6BA4",
"w. c #1776A4",
"e. c #306BA6",
"r. c #2977A4",
"t. c #3877A8",
"y. c #466A88",
"u. c #556A84",
"i. c #477588",
"p. c #58778A",
"a. c #536C99",
"s. c #4A7B98",
"d. c #577A97",
"f. c #716F88",
"g. c #657489",
"h. c #687D98",
"j. c #5374A5",
"k. c #6C6EA1",
"l. c #90738B",
"z. c #A57887",
"x. c #B77A88",
"c. c #B07093",
"v. c #AA7BA6",
"b. c #B37AAB",
"n. c #C57785",
"m. c #CD748C",
"M. c #CE79A0",
"N. c #328596",
"B. c #3386AC",
"V. c #468596",
"C. c #588698",
"Z. c #66839B",
"A. c #768595",
"S. c #4A88A6",
"D. c #558DAC",
"F. c #698CA9",
"G. c #728AA6",
"H. c #6A93AC",
"J. c #7695A8",
"K. c #7086B8",
"L. c #6596B5",
"P. c #799AB5",
"I. c #69A3BA",
"U. c #7AA6B7",
"Y. c #7F97C3",
"T. c #79A9C4",
"R. c #71ACC9",
"E. c #7BABDA",
"W. c #7FB9E9",
"Q. c #8D8A93",
"!. c #B88489",
"~. c #B08E97",
"^. c #BFAE9C",
"/. c #928EAA",
"(. c #869BB8",
"). c #AD8EAA",
"_. c #B597A6",
"`. c #A894BA",
"'. c #99ADAF",
"]. c #8BA6B7",
"[. c #96A8B8",
"{. c #B2A9B6",
"}. c #C98994",
"|. c #D18890",
" X c #C69799",
".X c #D7989A",
"XX c #E38D93",
"oX c #C6AF9D",
"OX c #CC8EA8",
"+X c #C598A7",
"@X c #D399A7",
"#X c #E89AAC",
"$X c #FA98A6",
"%X c #CCADAF",
"&X c #D8A9A8",
"*X c #D8A9BB",
"=X c #D3B5BB",
"-X c #E7A8B7",
";X c #F0AEB4",
":X c #E7C1B8",
">X c #949CCE",
",X c #999CC8",
"<X c #AC98C2",
"1X c #B99BC9",
"2X c #8BA6C6",
"3X c #97A8C9",
"4X c #88B8CE",
"5X c #95B8C6",
"6X c #89A8D8",
"7X c #97A5D5",
"8X c #98B7D6",
"9X c #A6A5C8",
"0X c #B1B3CD",
"qX c #A3A5D4",
"wX c #909FE0",
"eX c #90ADE7",
"rX c #86BAE6",
"tX c #ACBBEA",
"yX c #CEA8CC",
"uX c #D9AAC8",
"iX c #CBB8C8",
"pX c #D6B5C8",
"aX c #DEACD8",
"sX c #CABAD3",
"dX c #D5BAD5",
"fX c #EAB3CC",
"gX c #98C6D8",
"hX c #AECCD5",
"jX c #A8C6D8",
"kX c #B7C6DB",
"lX c #99CCED",
"zX c #9BD3F8",
"xX c #9AD9FC",
"cX c #AACAE7",
"vX c #B7C9E5",
"bX c #A5D5EB",
"nX c #B6D4E8",
"mX c #A7C9F7",
"MX c #B6C9F9",
"NX c #A4D5FC",
"BX c #B9D8F5",
"VX c #96E1FF",
"CX c #ABECFA",
"ZX c #BAE7F9",
"AX c #CEC2CC",
"SX c #C7C5D9",
"DX c #D6C7D9",
"FX c #EFC5D3",
"GX c #C7C9E3",
"HX c #C5D6EA",
"JX c #D8D8ED",
"KX c #C5D7F6",
"LX c #E4D1EF",
"PX c #CFE5F1",
"IX c #C5E3FB",
"UX c #E1FAFF",
/* pixels */
",.5.4.#.O.| 8.N.i ~ a ~ ~ b k.l <.s  .%.o.w.w.o.q.9...p i C.v v g.h.l C.i.<.0.[ &.%.%.$.$.O.$.$.",
":.} 4.9.=.9.N.S.3 ].5 5 j f & k h d 2.X.w.o.o.r.9.8.i i C.'.< j 2 f 6 l 5Xy 8 0.4.&.#.#.#.+.$.6.",
"4.4.&.%.} { 1.i.g.b X o o = o X {.h <.2.:.4.e.' 7.y y d v A.  # o o # 2 9X(.d.y :.,.#.4.4.5.4.6.",
"| | &.&.#.,.p.h.f l.K P ^ !.c.l.f.h u.4 7.<._ <.` y.F.].c Q.l.K P P z.b k f.3X<.;.:.:.4.4.,.5.,.",
"%.@.%.@. .1.d.h.X G .XU L K L ^ o # A.C.a u a.y.w r /.j X z +XK E |.!.!.# . (.y.<.:.,.>.>.>.2.-.",
"=.=.@.| [ _ u.f.X D |.W |.&X;X=XJ J Q.f u.x l c g.j Q.b g +X+X;X/ L U !.2 . vXu ;.:.>. . . .>.>.",
"+.O.*.=.2.8.s.A.  J !.}.:X:X^ oX&XJ - X $ * & + &   # g ^ oXK ;X;X.X XJ * . jX0 ,.X.X.%.X.......",
"$.6.$.=.| p <.x j z g !.^ :XoXoX!.}.g f j j 5 c b g f _.!. XC ^ !.oXg g Q.g.U.p >.X.%...%.....| ",
"e.) e.] #.[ 3.d 6 Q.X b J g =X&XXX:X X!.^ j f g ^.~.U &X.X;X.X&X- g = & '.~ 3.y >.&.@.&.@...9.[ ",
"' e.+.r. .{ 2.s i.C.  Q.~.+X:X|./ / L L !.L G g  X!.I |..X;X.X=X~.Q.5 5 '.e <.7.0 { 4.9.| ) +.r.",
"' t.' 6.-.3.s <.y h.X f ~.OXOX$X/ / Z Z |.;XfX#X$XC Z Q E #X;X~._.b O 6 [.q e y 7.0.6.' 6.t.6.' ",
"q.:.e.9 3.s.s s.cX(., z ).m.#X$X! ! Y M E $X$X;X$Xn B R T XX#X~./.G.< u.hXZ.P.L.<.7.7.` ' 6.' e.",
"$.{ 2.e d.u % 1 7 P.u.u.b c.OXW B Y B B M S H S V B V B Y I P pXu.h.t u.Z., e 4 h.` ` ' 5.' ( t.",
"| 2.2.H.[.c > , @ 8Xs 4 c iX+XL Z n B B Y M M M M B V B S I K iXl y.` a.d.: , & 8XF.d.;.:.t.6.) ",
"i i V.v /.`.c h.L.D.-.3., v Q.=X/ Y Y ! T T T T R V R R T .XJ A.s.` y y.C.y.C.~ U.C.I.S.0 =.*.o.",
"N.9 gX  < f.6 l e 9 N.i i.a 6 J ^ Y ! ! W m.n.n.W m.m.Q I !.f 5 d _ 0.<.<.d r 3 x + 8 S.8.o.] B.",
"a 8 hX+ f Q.5XV.R.R._ 7 r v 0XAXoX&X|.m.fXOX).{.~.+XM.m.-X Xb b a <.1.7 D.bX].v v 3 e s +.r.+.#.",
"d e '.$ 5 hXZXCXCXL.u y.h b AXDX:X:XaXFXyXf.k l 6 '.FX-XfXFX^.v a x y 1.gXbX'.PXQ.$ 3 B.' O.#.4.",
"i i gX$ & hXhXgXCXgX(.v.`.{.dXpXyXdXaXyXl.h s a r hXFX*X*X*X=X{.0Xp.y L.bXZXhXhXc , 7 ( +.r.} 4.",
"2.s U.$ 5 hXIXnX8XKXKX<X).+XOX*X=XsXl.b w d 3.2.s x A.FXfX*XFX_././.tXIX8XgXHXUXg.: y D.+.+.9.>.",
"2.2.H.e Z.[.jXgXcXcXLXaXc.m.#X-XpXAXf.l d 3.i ..2.i.4 l.FXuX#X@Xl.{.tXnXcXZXgX'.J.a s.D.q.o.8.[ ",
"..p 3.C.P.c 4 y.h.,XGXyXc.m.m.n.=XDXh.q s &...*.[ 8 a {.pXOXM.x.z._.SXSX[.].h < ].U.s.) O.r.X.p ",
"*.| s d F.4 @ i.t wXLXaXM.m.Q n.uXJX(.d 0.B.B.B.B.i.x '.LXOXH I x.z.dXGX].8Xq + 5Xy.} r.O.] 0.2.",
"o.@.D.7 P.t > F.tXv.v.c.c.T m.I FXDXHXZXCXVXCXCXZXZXZXHXDX_.I XXL x.=X0X0XPX4 & C.s.4.} q.@.[ 3.",
"o.&.j.7.P.w % H.cXh.f.l.c.m.E U FXdXkXbXxXzXmXMXlXBXnXhXAX^.L I n.x.).0X0XBXr % F.<.} $.9.%.X.s ",
"o.| 7.y P.q @ P.3X(.v.v.F H W E ~./.3XcXmXmXMXtXMXBXnX'.{.^.L |..X@X*XsXkXKXr % i.;.6.r.=...>.p ",
"*.] ;.q J.t ; P.2X3X0Xv.D F W !.K f.9XBXmXMXKXtXMXMX0X'.'.Q.z.|.-X-XdXGXvXKXr % e s 5.=.O.@.2.{ ",
"=.| 7.y P.u ; H.3XqXqXv.D F I H Q.v.3X7XwXwXtXtXtXvXjXjX{.^.+X@X-XfXDXGXvXIXr $ i.<.4.$.O.$.4.} ",
"o.[ 1.y P.w % H.3X,X<Xv.G F F m 1XqXk.j.e.j.K.eX2X4X].jXAXAX*X-X*XpX0XvXhXIXa + U.s.{ } $.$.#.>.",
"..| 1.e J.q % P.7X,X<Xb.G N m D <XqXK.k.K.K.K.eXR.R.].jXSXAXuXuXuXyXsXvXcXHXr $ gXC.:.4.q.q.#. .",
"%...,.e J.r ; P.7X,X1Xb.l.N N F <XwXwXeXeXE.rXVXxXlXbXhXGXdXfXuXaXiXtXMXbXZXr $ J.i.-.9.$.$.#.+.",
"..[ ,.y P.e % G.wXqX1Xb.N N H N 1XwXwXeXE.E.lXVXVXlXlXnXsXdXaXuXpXsXSXHXnXnXr % a y :.4.O.O.9.#.",
"O.r.{ 0 I.e + P.2X,X1Xb.D F F D 1XqXqXwX7X6XrXxXlXbXcXvXGXyXaXuXyXLX0XSXHXHXr ; d <.,.4.#.$.9.$.",
"+.6.{ y I.s ; U.8X<X0Xv.G F F N `.qX>X>X6XE.rXzXbXbXnXGXSXdXdXuXiXiXDXsXGXKXt ; ;.;.-.} } #.$.6.",
"6.6.-.y D.e ; G.3X`.1Xc.D F A F `.qX7X7X6XE.gXxXzXbXcXvXsXsXiXpXpX{.DXSXGXHXu % y.0.0.5.4.#.$.#.",
"6.6.:.-.I.y ; (.9X9XyXv.F A m F `.>X7X7X6XE.W.VXzXlXcXvXSXiXuXuXpXdXsXGXGXHXx ; ;.y ( } 6.9.$.$.",
"6.7._ y I.e @ G.3X<X1Xc.D N m H `.,X7X6X6XE.rXxXzXzXcXvXSXAX=X=XpXdXsXSXSXHXq % D.0.:.( #.$.$.#.",
"6.7.' 0 L.y ; G.9X<X1Xv.l.N C F `.qX>X7XE.E.W.xXxXbXcXvXSXAXpX=XyXiXLXGXGXPXt ; 4XD.5.4.#.=.$.$.",
"6.:.0.:.L.C.y.Y.G./.l.l.K G m D `.>X>X6XeXE.rXxXxXlXcXkXAXAX=X%XDX%X`.`./.[.P.q s.-.( [ $.$.=.r.",
"6.( 0.0 -.0.y.y.. . # 2 z G D D `.>X>X6XeXE.rXxXNXmXcXvXSXAX=X=XdX/.* & @ @ cX` <.:.:.8.9.O.] O.",
"8.>. .} { -.j.T.e a.6 k z K z z 1X3X7X7X6XE.eXNXNXcXKXSXSXiX{.iXiX9Xk w t u s.;.;.>.>.4.#.#.$.$.",
" .| #.8.4.>.8.s.<.p.x g.< O X O 9X7X,X2X7XwXmXlXMXcX8XtXJXb o # . g.G.p.u.x 3.;.-.>.>.#.#.#.#.$.",
"| | #.9.9.} { } _ s u Z.r 1 1 1 >X>XtX>X2XY.cXMXcXMXKXBXKXg.> < > P.F.` y y ;.,.>.>.4.4.#.6.#.$.",
"2.| | =.=.$.+.#.0.1.s C.d.F.F.k.y., t 1 k.6X8XtXcXl u , l ].h.G.a.L.3.y 7.,.,.>.>. .&.#.#.#.#.4.",
"X.X.| $.q.q.=.9.{ 8.0 s y y _ ` <.@ @ : G.2XcXhXcX, @ @ , I.y ` 1._ _ 8.8.4.8.&.&.| #.#.#.4.4.4.",
"X.>.#.=.q.q.q.$.#.8.p 2.B._ ( 0.L.U.C.J.J.r G.C.G.(.C.P.D.R._ :.6.+.4.8.9 ] 9.| %.#.%.#.#.4.4.4.",
">.>.4.$.q.q.q.O.$.| 9 | 9.} +.' 1.V.s a 4 $ $   q x y y -.0.#.+.9.$.9.r.&.=.*.| %.#.#.#.+.4.4.5.",
"2.>.+.O.q.q.q.O.=.&.8.>.] $.B.+.2.8 <.a i.5XJ.J.[.u i.<.:.} #.w.@.o.@.%.w.o.] *.%.%.#.#.4.4.:.4."
};
