/* XPM */
static char *out[] = {
/* columns rows colors chars-per-pixel */
"48 48 256 2 ",
"   c #01081E",
".  c #000324",
"X  c #020C23",
"o  c #050B2B",
"O  c #150B2B",
"+  c #00122D",
"@  c #1B132A",
"#  c #040835",
"$  c #1A0D37",
"%  c #061636",
"&  c #181639",
"*  c #230D2A",
"=  c #26132B",
"-  c #240C39",
";  c #24143C",
":  c #291838",
">  c #321734",
",  c #0A253A",
"<  c #16243A",
"1  c #292337",
"2  c #030A45",
"3  c #1A0C45",
"4  c #071845",
"5  c #1A1544",
"6  c #191B54",
"7  c #230E45",
"8  c #231342",
"9  c #2A1547",
"0  c #231A43",
"q  c #2A1B45",
"w  c #231B4D",
"e  c #311644",
"r  c #2D1B52",
"t  c #291A57",
"y  c #331D58",
"u  c #0A244B",
"i  c #1A2647",
"p  c #132C4B",
"a  c #182B52",
"s  c #0F3053",
"d  c #183857",
"f  c #282447",
"g  c #352B4E",
"h  c #282956",
"j  c #34275B",
"k  c #283458",
"l  c #343559",
"z  c #2E1964",
"x  c #1A2F67",
"c  c #292664",
"v  c #392866",
"b  c #29386E",
"n  c #373866",
"m  c #3C336B",
"M  c #233D71",
"N  c #3B3273",
"B  c #383977",
"V  c #423156",
"C  c #432B6B",
"Z  c #443668",
"A  c #433B6C",
"S  c #4E3476",
"D  c #473977",
"F  c #2D425D",
"G  c #134D6D",
"H  c #085A7A",
"J  c #195778",
"K  c #284767",
"L  c #2B4D6F",
"P  c #394668",
"I  c #364479",
"U  c #2A5879",
"Y  c #375878",
"T  c #13627D",
"R  c #2D627D",
"E  c #34637D",
"W  c #45446A",
"Q  c #4F4C6B",
"!  c #464777",
"~  c #4C4274",
"^  c #4B427C",
"/  c #55467A",
"(  c #475575",
")  c #575779",
"_  c #65567F",
"`  c #47647D",
"'  c #363D84",
"]  c #4F3B8A",
"[  c #563B89",
"{  c #603A8D",
"}  c #613691",
"|  c #185B85",
" . c #3C488A",
".. c #275D84",
"X. c #375785",
"o. c #3E4B97",
"O. c #0A6789",
"+. c #1C6284",
"@. c #196886",
"#. c #15658B",
"$. c #1C658B",
"%. c #146B8D",
"&. c #1B6B8D",
"*. c #0E7188",
"=. c #1A738D",
"-. c #06699A",
";. c #1D6593",
":. c #156D94",
">. c #1C6C93",
",. c #156B98",
"<. c #1C6C9A",
"1. c #147193",
"2. c #1C7294",
"3. c #1A759B",
"4. c #236485",
"5. c #2B6483",
"6. c #246A84",
"7. c #25658A",
"8. c #2D658B",
"9. c #246B8D",
"0. c #2A6B8D",
"q. c #386785",
"w. c #33638B",
"e. c #346A8C",
"r. c #29718E",
"t. c #34718E",
"y. c #246693",
"u. c #2A6592",
"i. c #226B93",
"p. c #2A6C95",
"a. c #236C9A",
"s. c #396C92",
"d. c #237295",
"f. c #24729B",
"g. c #2A7598",
"h. c #377597",
"j. c #0F76A5",
"k. c #1875A5",
"l. c #246FA5",
"z. c #2878A3",
"x. c #474486",
"c. c #5A4687",
"v. c #54438C",
"b. c #485988",
"n. c #5C5785",
"m. c #4D4691",
"M. c #584793",
"N. c #4B579C",
"B. c #58589D",
"V. c #624788",
"C. c #635B87",
"Z. c #674996",
"A. c #6E5A99",
"S. c #476988",
"D. c #576688",
"F. c #526C8D",
"G. c #4E718C",
"H. c #55728C",
"J. c #496A94",
"K. c #576795",
"L. c #487597",
"P. c #4C7B9D",
"I. c #577698",
"U. c #6B6A8B",
"Y. c #686B97",
"T. c #756B9A",
"R. c #667999",
"E. c #777698",
"W. c #5452AA",
"Q. c #595AA9",
"!. c #6B59A6",
"~. c #765AA7",
"^. c #7555AB",
"/. c #655CB9",
"(. c #5C67A8",
"). c #4D7AA3",
"_. c #587AA6",
"`. c #5C65B5",
"'. c #6469A8",
"]. c #7765AB",
"[. c #6F75A9",
"{. c #6768B7",
"}. c #776ABB",
"|. c #6A76BC",
" X c #7674B8",
".X c #6E5DC1",
"XX c #696BC4",
"oX c #736AC6",
"OX c #6E75C5",
"+X c #7676C6",
"@X c #7B71D4",
"#X c #8C759A",
"$X c #8A5CBD",
"%X c #877BA7",
"&X c #8A72AF",
"*X c #8A68B9",
"=X c #8676B6",
"-X c #9374BB",
";X c #876FCE",
":X c #936BC3",
">X c #8978C5",
",X c #9978C7",
"<X c #9C6FD5",
"1X c #9877D6",
"2X c #28819F",
"3X c #2E84A5",
"4X c #5F819D",
"5X c #4D88A9",
"6X c #5785A6",
"7X c #6986A7",
"8X c #7687A9",
"9X c #6D8EB0",
"0X c #6B89B7",
"qX c #7899B8",
"wX c #74A2BE",
"eX c #79A6C6",
"rX c #8A83A9",
"tX c #9787AE",
"yX c #838DB3",
"uX c #988DB3",
"iX c #8997B6",
"pX c #9A95B8",
"aX c #A58CB3",
"sX c #A597BB",
"dX c #938CC8",
"fX c #9787D5",
"gX c #AE98CB",
"hX c #A189D6",
"jX c #AC94D7",
"kX c #8FAFD2",
"lX c #B1AAD2",
"zX c #BCB5DC",
"xX c #9C8CE8",
"cX c #A68DE5",
"vX c #A795E2",
"bX c #B59AE4",
"nX c #B192F3",
"mX c #B6A9E9",
"MX c #B9A9E9",
"NX c #B9A5F7",
"BX c #C9ABD0",
"VX c #C5AAE9",
"CX c #D1B4EF",
"ZX c #C6ABF5",
"AX c #CBB6FA",
"SX c #D3B5FD",
"DX c #D6B8FA",
"FX c #D5BAFF",
"GX c #90C6E7",
"HX c #BBC0E0",
"JX c #D3C2EC",
"KX c #D5C3FF",
"LX c #DBC7FC",
"PX c #E5C9FB",
"IX c #EAD6FF",
"UX c #F1E7FF",
/* pixels */
"&.=.>.&.>.>.9.9.s.U w.P.G.S.kX9XH.G.R 8.p.l.z.-.-.k.j.H GX4.q.G.J.K.K.R.K.I.U s.0.T H *.&.f.f.y.",
">.>.=.>.>.i.9.u.p.w.w.S.G.P F l Y ` S.w...| l.k.k.-.z.f.G 7.L kXY k ! I B ( L R r.r.2X2X2.#.y.$.",
"1.>.=.>.>.i.i.9.8...I.I.u % < % + % Y S.s.8.g.2Xl.O.i.h.5.G.E 8Xa k & o # % qXL.J H =.=.#.#.p.l.",
":.1.>.:.>.>.9.u.h.eXb.D.E.#XU.#XE.Y.I.( kXwX5.R h.i.6.R kXqX` E.U.U.8XE.Y.R.R.Y 6Xt.+.%.>.a.a.y.",
"3.,.,.1.>.>.9.9.J qX% P aXaX#X#XpXiXl + lXqXp E R E E L H.iX  _ tX#XrXpXpX8Xp , eX5X9.&.>.f.a.;.",
",.,.<.:.>.>.9.0.q.9X. ) #X#XaXBX_ U.U.) iXR.Y 4XE E ` H.P iXW pX_ sXuXsXtXE.K u 9Xt.+.4.&.>.f.a.",
"3.,.,.3.>.>.&.7.t.wX  P sXsXJXPXQ Q tXsXQ X <   , , % < @ C.tXlXV aXUXJXpXpXP % wX5X6.d.i.>.<.<.",
"<.<.<.<.>.>.9.9.R 6XP ) ) #XCXaX#X-X#XsX#XQ ) Q Q Q D.Q P sX#XlXtXaXsXsX8X( R.L wXL.T 9.>.>.,.1.",
"l.#.,.l.&.#.g.4.U R Y 8X% rXtXg IXIXJXLXlXtXuX) ` P pXlXuXMXJXPXIX%Xl ) ( o D.I.L U 9.g.#.k.O.j.",
";.a.a.i.i.i.p.6.t.5.q.9Xp D.yXY.mXKXbXVXjXT.#XC._ ) dXdX XlXMXVXJXgXn.T.Y.# X.X.s.w.7.i.#.2X*.O.",
"| f.i.$.p.0.| u.L...Y J.u I 9XdXMXLXhX-X~.S &XCXIXHXmX'.D ].,XjXLXMX=XqXb # _.S.U L.8.J &.>.H 3X",
"a.#.&.y.p.4...J.X._.0X_.x M 0XvXmXLX,X&X*XS $XDXJXKXmX'.c.~.-X1XAXvXdX Xb 4 kX0X_.X.X.h.4.f.=.O.",
"f.O.=.6.0.s.J.).4 L  .X.Q.(.|.'.dXvX!.[ $XS } ^.!.^.^.[ [ Z.Z.$XfXxX}.Q.|.J. .M X.M X.u.8.7.%.3X",
"%.=.2XR p.6X)._.2 2 2 c |.OX|.W.+X>X} S } } } } } } [ ] [ [ } Z.;X;X}.Q.OX`.x 4 # 2 0XkX).5.g.H ",
"*.=.=.T 5X).I K.N.K.Q.Q.|.`.oX+X}.>X:X:X:X$X<X<X$X$X*X:X:X*X*X:X;X.XoX@X`.|.|.N.Q._.{.X.s.s.0.p.",
"*.=.H T wXq.# K.'. X].{.oX{.{.W.~.~.*X,X:X<X<X1X1X1X1X1X:X:X,X*X/..X/.XX|.`.|.(.'. Xm.# x w.0.0.",
"2X=.2XG qXY u ( ( x.B.{.{.}.{.{.hXjXjXbXbXcXcX;XoX1X@X1XNXnXbXbXcXxX/.{.{.OX`.m.Y.c.n.4 u P.5.9.",
"*.r.E G wXP + P I n x.N.{.}.{./.ZXFXSXSXKXKXNXoX/..XXXnXKXAXAXKXAXNX}. X{.`. .c D N w h Y X.e.+.",
"#.2.6.J kXE % ( W B B x.B.{.oX}.ZXFXSXAXNXNXxX/.@XXX@XxXNXNXAXNXFXZX+X>X`.'.m.B D A n % K Y t.r.",
"g.2.6.R wXF % k W ! ! D ' M. X1XbXSXSXAXvX]./.XX.X/././.}.vXAXAXSXNX*X+X .' B B m ~ ! . s q.r.R ",
"1.#.9.7.6XY Y P k W m m B x.>XfXZXDXZXZXvX}.{.OXXXXXoXXX}.vXZXAXSXZX1XfXm.B B x.j P l P 6XU 3XT ",
"O.%.g.4.t.I.iXD.& h 6 j D M.>X>X,X<XZ.S B.{.{.(.XX`.OXoX/.M.v.Z.,X-X*X=Xm.B c 6 w h D.8X9X5.r.g.",
":.f.f.$.....I.D.o 0 $ r C c.>X>X,X,X{ z v. X+X`.XX`.XXOX].[ v S ,X-X,X>XM.c n 5 5 % 8XH.U 6.H d.",
"2.%.#.g.h.G G.7X. q $ q j C -X,X:X<XZ.S x.x. .N.o.o.W.] m.v.S Z.-X-XdX].D 6 A c h i Y S.U r.h.@.",
">.:.2.i.9.U P.F.. 1 : e 9 C =XhX$X,X!.S N B I B '  .' ' ' { v ~.-X-X,X-Xy 7 m A l p Y ` 5.6.&.&.",
">.&.>.&.y.4.P.H.X : : : e y !.].:X$X] z v I B b ' ' B B ' C 7 Z.&X-XBXbXS y Z W k p Y q.5.9.#.>.",
"&.&.2.>.i...P.H.  1 = > e y [ ] hX-XS t m ! ! I I b B x.] v # V.-XhXCXSX{ v Z n k p L q.5.0.>.,.",
"&.&.i.&.>.4.P.F.  1 = > e y [ ] $X~.v 3 t h n c b c c N B v 3 A.jXbXSXDXV.C D A k p Y q.4.&.;.<.",
"6.6.i.&.i.4.).G.  1 = > e y M.M.[ Z.v 3 3 $ 5 w w w 2 3 w v j =XFXZXFXZXV.Z S A k p R E 7.i.;.<.",
"6.@.d.&.>.+.P.F.  1 > > - t M.M.v.M.v 7 w ; ; $ 3 r r w h A v E.PXSXDXVXV.C W n k < U t.4.a.<.l.",
"6.6.d.&.>.+.P.G.  1 = > - y v.M.[ c.t 7 9 ; - $ 9 Z ~ A A ~ h Y.FXCXDXVX{ C A n k p U E 7.y.a.l.",
"R 6.9.>.i.+.P.G.  > = > e y m.m.v.M.y 7 ; - ; q ; Z ~ A Z n j =XSXZXPXCXV.C A W k p U t.7.y.a.a.",
"=.=.9.a.y.y.).F.o = > > - j M.] [ V.r 7 q - : ; q Z ~ m A ~ r &XAXSXLXSXS C ~ W h s U w.7.;.:.:.",
"@.=.>.f.;.y.J.K.X @ > = - y M.] v.V.r 7 q $ 0 & w m ~ m D S r &XSXSXSXZXV.C ~ m b a U e.u.g.2.:.",
"&.=.>.f.y.u.).H.X @ 1 = e y Z.] c.c.r 8 q $ ; & w m D N B x.r  XDXCXSXDXV.C ~ n a u Y s.7.&.#.#.",
"%.>.>.a.y.u.).I.X 1 > * - 9 Z.M.[ c.r ; 0 $ 5 & w m ^ N D D c &XSXDXDXDX_ j ! ! h s X.s.0.i.2.f.",
"=.d.>.>.| y.L.J.  < = * : 9 c.M.S c.t 3 0 $ 0 5 w m ^ N B x.c  XDXDXDXCX_ g ~ W k u G 5.4.i.2.2.",
"1.2.:.<.;.u.).I.+ g @ : e e S c.S / r 8 : $ ; 5 w m ] N B x.h ].PXCXCXzX_ Z ( P p s q.P.7.+.#.>.",
"%.1.:.f.y.u.)._.F ( O f : j / V.S C.h 0 : $ ; ; q A x.N D x.6 [.LXJXJXzXQ j P a S.X.6X5Xh.y.i.f.",
"1.2.:.d.| | s.X.F.R.o & O f A / / V.g : : O = : q Z / Z D ! 6 T.zXCXLXlXg o i % zX6X0.U | g.g.#.",
"1.1.3.>.y.u.w.w.G.9XD.( P ! n C.~ Z 1 : : @ > @ > Z ~ V ! ! f rXUXzXHXHXR.P ` Y 5Xt.5.0.y.9.>.i.",
"1.1.>.;.p.y.u.w.s.G.q.G.K.R.P # o 5 O O = @ = 1 V V Z Z A n W k + & % P qX` G.L.L.5.4.0.p.i.i.d.",
"1.1.2.>.i.u.u.u.w...w.J.X._.I.d P ( i O 1 1 @ = > V Z W g W Q i k ( F G.kXE R 5.6.4.+.p.i.i.;.i.",
"1.1.>.>.;.p.y.y.p.$.p.u.G s.0XI.I.7XP < f 1 1 @ = Q W l o P , H.9X4X4X9X9XG t.4.9.9.9.d.p.>.;.i.",
"1.1.:.>.y.y.i.y.<.>.3.2.d.7.5.5.X.U d , X < F & : W l h % k X iXG.K R e.J 6.h.&.d.>.d.<.i.;.a.a.",
"1.1.>.i.i.i.i.<.<.k.,.-.3X$.J 8.u.w.6XeXqXiXU.@ h l W 8XiX4X9XkXt.R e.T +.g.@.%.%.:.>.>.>.;.i.a.",
"1.1.>.i.p.y.;.<.k.j.3.O.3.%.d.3Xg.4.T R E ` D.k X . d D.F.Y S.L J 5.t.T g.2.%.3.:.%.:.>.>.<.a.y.",
"1.1.>.9.y.y.<.<.k.-.j.-.k.1.9.H @.g.t.R R ` 4X9XiX8XdX9XL S.U q.t.6.0.+.g.H 3.1.1.1.:.3.a.a.<.;."
};
