/* XPM */
static char *out[] = {
/* columns rows colors chars-per-pixel */
"48 48 255 2 ",
"   c #030703",
".  c #021706",
"X  c #100910",
"o  c #031A16",
"O  c #2A1309",
"+  c #241419",
"@  c #052309",
"#  c #052716",
"$  c #162816",
"%  c #2E2711",
"&  c #1A1B27",
"*  c #0B302F",
"=  c #182B34",
"-  c #32322C",
";  c #4F372C",
":  c #315925",
">  c #2D5337",
",  c #494434",
"<  c #466438",
"1  c #726331",
"2  c #473C46",
"3  c #184551",
"4  c #284845",
"5  c #335151",
"6  c #376251",
"7  c #18596C",
"8  c #0F5573",
"9  c #185978",
"0  c #334964",
"q  c #28586B",
"w  c #39576A",
"e  c #265B78",
"r  c #365B77",
"t  c #19637B",
"y  c #13697F",
"u  c #3B6668",
"i  c #29667A",
"p  c #356676",
"a  c #306C77",
"s  c #4A524D",
"d  c #465A58",
"f  c #665347",
"g  c #4F6653",
"h  c #547757",
"j  c #6A7157",
"k  c #47596C",
"l  c #7A5461",
"z  c #476569",
"x  c #476978",
"c  c #556870",
"v  c #487377",
"b  c #587978",
"n  c #6A6F72",
"m  c #9D3C11",
"M  c #AC3814",
"N  c #9B3D29",
"B  c #AA3D27",
"V  c #B3461B",
"C  c #914B2F",
"Z  c #984829",
"A  c #985637",
"S  c #A64837",
"D  c #B34F30",
"F  c #8A6727",
"G  c #B56F31",
"H  c #C0441E",
"J  c #C54C2F",
"K  c #C65A3A",
"L  c #CA6C3A",
"P  c #885454",
"I  c #A7554B",
"U  c #906A51",
"Y  c #B87745",
"T  c #B47258",
"R  c #86746D",
"E  c #987769",
"W  c #AA7A6E",
"Q  c #C6744A",
"!  c #D67948",
"~  c #E57448",
"^  c #4D8C36",
"/  c #7D893D",
"(  c #5C914E",
")  c #688F50",
"_  c #75AA4C",
"`  c #6BAA54",
"'  c #78AA59",
"]  c #78B558",
"[  c #598472",
"{  c #718F6B",
"}  c #6FAD60",
"|  c #7AB964",
" . c #928C35",
".. c #AD8834",
"X. c #B88935",
"o. c #C88630",
"O. c #C68835",
"+. c #988D51",
"@. c #A89246",
"#. c #B9954C",
"$. c #A8895A",
"%. c #8BAF59",
"&. c #AEAB50",
"*. c #B7B95A",
"=. c #919270",
"-. c #AA8965",
";. c #B3936E",
":. c #87A967",
">. c #98A869",
",. c #8AB566",
"<. c #8CB273",
"1. c #92B371",
"2. c #ABAE70",
"3. c #CF8D51",
"4. c #ED8654",
"5. c #CEA754",
"6. c #C8B65A",
"7. c #D6B55D",
"8. c #E6AD5B",
"9. c #CD8F68",
"0. c #F89179",
"q. c #CBB963",
"w. c #D7BC65",
"e. c #CFAE71",
"r. c #D5A878",
"t. c #ECB16D",
"y. c #E6AA77",
"u. c #8AC25F",
"i. c #89C569",
"p. c #95CA6B",
"a. c #97C777",
"s. c #98D578",
"d. c #ACCB72",
"f. c #B8CB78",
"g. c #A8D979",
"h. c #B7D979",
"j. c #AFE17F",
"k. c #D2C05E",
"l. c #C6C669",
"z. c #D8C66B",
"x. c #C7CB75",
"c. c #D6C977",
"v. c #C9D878",
"b. c #D5D77C",
"n. c #E6C377",
"m. c #065D85",
"M. c #175A88",
"N. c #2D5E87",
"B. c #0A688A",
"V. c #166787",
"C. c #1C6C83",
"Z. c #1C648B",
"A. c #1C6C8C",
"S. c #0C728B",
"D. c #18728D",
"F. c #0A6A96",
"G. c #196495",
"H. c #146B93",
"J. c #1C6D94",
"K. c #156E9C",
"L. c #1A6C9B",
"P. c #0D7494",
"I. c #137292",
"U. c #1A7194",
"Y. c #1A729C",
"T. c #16789A",
"R. c #2C6484",
"E. c #226B85",
"W. c #236B8C",
"Q. c #286889",
"!. c #356787",
"~. c #277289",
"^. c #377389",
"/. c #296796",
"(. c #236A93",
"). c #226C9B",
"_. c #356C95",
"`. c #277699",
"'. c #357895",
"]. c #186DA2",
"[. c #1874A3",
"{. c #266BA4",
"}. c #2877A4",
"|. c #3677AB",
" X c #446985",
".X c #477889",
"XX c #567684",
"oX c #4B7893",
"OX c #547593",
"+X c #6B7E8D",
"@X c #4B79A3",
"#X c #22809D",
"$X c #2F85A5",
"%X c #4B868F",
"&X c #568489",
"*X c #5A8693",
"=X c #6C8E93",
"-X c #7CA199",
";X c #5A93A5",
":X c #6C94A7",
">X c #78AAB4",
",X c #75A7C0",
"<X c #889A8E",
"1X c #B09888",
"2X c #8AA984",
"3X c #9AB786",
"4X c #8FA797",
"5X c #B0B390",
"6X c #879BA9",
"7X c #9AAFAC",
"8X c #ABBAAF",
"9X c #F89A86",
"0X c #D1B589",
"qX c #E7AF8C",
"wX c #E0AF9B",
"eX c #9BCA8A",
"rX c #9CD194",
"tX c #ADCD89",
"yX c #A7D686",
"uX c #B5D986",
"iX c #ABCC98",
"pX c #B5C998",
"aX c #ABD995",
"sX c #B6D799",
"dX c #A9E586",
"fX c #B4E787",
"gX c #B7E994",
"hX c #B3CEAB",
"jX c #BAD8A6",
"kX c #BCE9A5",
"lX c #C7C786",
"zX c #C5D786",
"xX c #D0D38F",
"cX c #ECCB88",
"vX c #E5C998",
"bX c #E6DB98",
"nX c #F9D99B",
"mX c #C8E787",
"MX c #D8E888",
"NX c #C7E99B",
"BX c #D7E899",
"VX c #C6F69A",
"CX c #D6F298",
"ZX c #ECEA96",
"AX c #E6E69B",
"SX c #D2D6AD",
"DX c #F6D3A8",
"FX c #C8E9A9",
"GX c #CEEDB0",
"HX c #EDEBAB",
"JX c #FBE6A9",
"KX c #ACD2DF",
"LX c #D2EFC5",
"PX c #F0F3C7",
"IX c #EDECDB",
/* pixels */
"/.Q.(.W.J.J.J.W.N.@XOXOX X+Xx XXc +Xr '.~.y #XZ.H.[.F.F.#XV.!.oX@X X@Xx XXv &X.X^././././.E.t y ",
"Q./.(.J.J.J.J.Q. XOX0 0 2 0 4 4 = +XXX7 7 ^.'./.|.[.F.P.I.9  X6Xk 0 k k d d 4 w a !./.).).A.W.~.",
"J.D.I.I.I.I.A.Q.N. XX X & + + + X 2 6X*Xr  Xe N./.G./.M.Q.OXk n + + O O O X   = k !./.).].{.L.J.",
"H.D.P.P.I.I.(.Q. X X& 2 W E T E R =.f =X+X3 OXN.!._./.e OX6Xk R W T T I 9.E ; + k N./.].].[.{.L.",
"I.D.P.P.P.I.A.R.k XX+ P wXT -.9.;.E - . g c 5 x r r p r XXc X P T 3.3.Y T T ; + k N.`.L.].].[.L.",
"D.I.I.H.I.J.W.R. Xc X f W 9.9.9.0XwX=.f =.g k c x x r z n R f 0XqXy.9.4.Q T ; 2 k /.).K.K.K.J.J.",
"W.J.J.J.L.L.(.Q.N.x X f U 0XqXqXnX9.xX+., . . & = = o     R W qXHXJXe.qXr.1X; X r i U.P.F.S.C.~.",
"Q.(./.(.).).(./.9 +Xd <Xj ;.e.cXnXqXr.;.-.; j s d 2 n R ; W r.qXvXbXbX;.l P n x e M.S.#XI.C.t ~.",
"M.|.Z.V.).G.).`._.e =X=X. % U vXqX5.t.y.r.-.wX1X2 f W 1X1XwX9XqX0XpXPXj % - IX0 ^.8 S.P.S.y $X9 ",
").Z.G.}.{.G.L.M.Q.e *X7X$ , SXvXcX8.t.9.9.I wXDXDXDXwX9.I ~ 9X9Xe.SXPX0X- ; 8Xx %X^.D.S.D.A.~.M.",
"P.P.F.Y.L.L.}.(.Q.!.q b + - 5X;.y.t.4.L J m Q DXwX9X9XI B K 4.4.0X0X+.1XO , c 5 3 8 C.A.J.J.{.{.",
"B.#XT.B.J.W./.Q.^.q XX4X- s 1XE t.0.~ ~ D M G 0.9X9X9XK V ~ 4.4.y.r.$.-.; f n =XKX>X'._.).{.].G.",
"P.P.I.`.J.Q.N.q * 4 4 4XSXSXDXDX3.Q J L M H H D K K J J M H V K 3.3.nXvX0XSXj 5 x 5 q N.M./.{.{.",
"P.B.`.`.e ;X:XOX# # . -XPXPXPX0X$.Y V V M V J V N M H J H H m G 3.3.JXJXPXGXg @ . 4 =X:XOXe G.{.",
"K.G./.!. XOX:X8X7XhX3XFXPXxXSXJXbXqXQ Q L ~ Q L ! Q K K L L L 8.y.cXJXAXpXGXrXhX{ 7X7Xw *X!.Q.Q.",
"L.).e _.:X= o LXIXLXLXGXNXHXbXbXJXJXe.G 3.! L 3.G L 3.L 3.G L 8.nXnXbXGXGXkXLXLXiXLX<X. v p R.Z.",
"{.)./.i *X4 $ FXSXsXsXkXGXBXBXcXcXz.5.3.5.r.9.qXt.y.y.5.5.5.8.8.t.nXJXBXFXFXGXaXkXLX<X  b p M.Z.",
"|./.Q.7 =X5 # 5XiXiXaXgXNXBXAXnXw.t.z.6.e.e.t.JXnXnXnXc.e.q.8.t.t.n.nXZXGXkXkXrXiXjX=.. =X.XQ.'.",
"{.M.~.i ;X4 . hXpXsXaXgXVXBXxXc.5.8.w.7.w.cXcXJXJXnXAXc.c.6.8.8.t.8.c.b.CXgXgXyXjXFXj   v i t Z.",
"{.M.'.y %X4 . hXhXjXyXyXuX2.@...8.8.z.6.c.AXnXbXJXbXAXbXbXw.t.8.8.5.#.&.h.yXaXaXiXjXj . b ^.'.D.",
"{.G.(.t ;X&Xu 8XiXiXyXaXuX2. .5.8.7.7.z.b.ZXAXAXZXBXZXCXZXz.z.8.8.o.X. .f.h.yXd.FXpX=.5 &Xa E.D.",
"G.{.`.9 ;X:X=Xn - < ( ,.zXl.@.X.o.o.k.c.MXZXAXBXBXNXCXCXCXb.7.5.o.o.X.@.v.f.,.:.: : { =X>X~.S.P.",
"V.}.`.y E.q c 4   > ) :.h.c.#...X.o.k.b.MXCXCXCXCXNXVXmXCXb.z.5.o.o.X...x.d.1.1.< @ g 6 q 7 V.$X",
"U.Z.B.`._.9 +Xb $ <.pX%.+. ...X.o.X.6.x.h.h.uXdXuXdXdXj.v.v.l.5.X.O.X...*.d.uXFX< $ b d q $X`.B.",
"U.U.U.H.W.R.OXz . 2XkX>.1  .G 3.O.O.7.v.g.j.dXgXs.s.s.s.g.h.v.k.X.o.X. . .&.NXGXj # v w !.Z.T.[.",
"H.U.K.H.(.R.oXw # { 3X%. . .F G 3.O...%.p.dXs.s.dXs.j.dXg.d.*...X.O.5.6.*.d.sXFXh # v r /.G.T.K.",
"U.U.Y.V.J.N.oXz . { :.%.%.#.F Z ! 3.F 1 u.dXs.dXdXyXs.j.d.u.%. ...O.k.z.x.f.tXpXh # v !._.J.].[.",
"J.I.Y.H.).Q.oXu . { <.>.2.;.m Z Q G +./ _ i.` ] i.i.s.i.p.h.*.*.O.5.k.b.v.v.sXpXh o  Xi _.G.L.K.",
"J.J.[.G.G.Q.oXw @ { :.1.xX0XC N Z C +.>.) ^ ^ ^ ^ _ _ _ u.v.b.b.k.k.k.l.MXMXsXjXh o  XN./.A.L.U.",
"J.L.K.H.).Q..Xu . } <.1.lX;.C I S m +.2.` ( ( ( _ u.p._ u.l.v.b.k.k.6.k.MXMXuXjXh o x i _.W.J.U.",
"J.L.].H.L.W.oXu   { <.>.2.-.C I Y A $.2.' } } | p.VXCXj.g.h.v.v.k.k.6.*.v.v.d.jXh #  Xi Q.A.A.Z.",
"L.U.K.H.(.i .Xz @ { <.:.>.-.N S N A -.>.<.| } ] p.gXj.j.h.h.h.v.k.k.6.*.v.h.d.kXh o v i ^.Z.(.G.",
").H.F.T.S.i .Xz   2XaX<.1.-.C S S S $.-.a.yXi.' ,.dXh.g.h.MXMXb.7.z.*.*.x.zXsXLXh $ u i i W.J.L.",
").J.I.T.y i v d . <.aXeX>.-.S D D Z +.>.a.dXs.| %.j.h.d.h.v.MXMX6.z.z.q.x.uXFXGX( # z a ~.(.}.[.",
"/.J.I.T.y a XXd . { aX3X+.-.Z B D A $.=.,.i.| _ p.fXfXj.h.h.mXx.6.5.q.*.x.f.SXGX[ . v p R.Z.G.G.",
"Z.(.I.D.y ^.XXz . j <.:.>.;.N D D A -.>.' ] } ` s.VXVXfXh.h.v.*.z.7.c.q.lXlXNXjX)   v p ^.Q.).).",
"N./.A.D.C.i v d . [ | =.5X9.N I C I $.>.i.i.i.] u.dXj.j.j.fXMXc.6.t.c.q.bXlXtXjXh . z p !.W.).`.",
"/._.Z.D.D.i v z $ { 4XiXDX0XI B C A +.:.eXdXs.] ] g.j.s.j.VXBXb.q.w.5.c.AXHXSXFXh * u q R.Z.).G.",
"/._.M.).`.t ^.&X6 [ { <.1XW I S I A +.>.1.s.i._ u.j.j.g.j.j.mXlXn.w.e.lX2.tX3X4Xb u .X^././.).L.",
"/.{.G.Y.U.t ~..Xv 6 . $ X O P P A U -.>.:.| ' ' p.VXfXj.g.h.xXx.0X0X0X5X$ @ $ # z u i R.W.G.L.K.",
"/.).K.K.K.J.W.E.a %X6 5 g s l P f C -.>.<.' ,._ ,.VXVXgXd.a.BXpX0XSX5X=.g > 6 u a a Q.Q.L.L.].].",
").L.K.K.K.U.J.E.t %X%Xv XXc & + O O =.3X<.kX2.%.a.%.yXyXsXsXHX1X  % $ g -X[ a %X~.W.Q.G.L.L.K.].",
"L.L.K.K.K.K.K.J.t 7 a 3 x :Xk 0 , > [ { 3XjXpX>.>.NXrXeXjXjXIX=.= 4 = 3 p a t E.W.W.J.L.K.K.K.K.",
"J.J.K.K.[.K.K.J.`.V.'.t oX,X@X+Xc 7X=X> 6 < ) { 3XpXLX( > 6 < 7X<X=X:X*Xi E.`.V.J.J.L.L.Y.K.K.K.",
"A.D.J.L.L.K.L.J.J.C.Q.t M.E.8 e r =X:X# # # s 5XhX5X7X6 @ * # :XXX0 e _.E.Z.U.I.L.L.G.L.Y.U.J.I.",
"A.A.J.J.L.L.L.L.`.(.E.E.i M.D.#X8 i >X;X>X=X<Xs n <X[ -X&X:X>XOX XN.M.9 (.}.K.}.K.L.L.J.J.J.A.A.",
"C.C.A.A.J.L.J.J.Z.A.W.`.C.S.D.S.U.$Xy 7 a &X6XX   . 3 ;Xa a q e e _.@XW.L.}.F.F.L.L.J.(.W.D.C.C.",
"y C.W.W.(.(.L.(.(.Z.W.t t #X#XP.#XB.V.$Xi w XX7X6X4X&Xa 9 _.oXoX@X8 _.}.m.H.].K.K.L.J.J.~.~.C.i "
};
