/* XPM */
static char *_5f3f4cf74aa4966f1558c78a022cbd8lHUxTKZw8JgLCkXN[] = {
/* columns rows colors chars-per-pixel */
"48 48 179 2 ",
"   c #343521",
".  c #274537",
"X  c #514929",
"o  c #6F2358",
"O  c #74245C",
"+  c #5C386A",
"@  c #5A3C74",
"#  c #662F65",
"$  c #732A66",
"%  c #62336C",
"&  c #6B316B",
"*  c #633265",
"=  c #6A3470",
"-  c #7D3E72",
";  c #3E4B7E",
":  c #36787D",
">  c #2C7A76",
",  c #536D44",
"<  c #44497D",
"1  c #454776",
"2  c #7B4579",
"3  c #4E6C73",
"4  c #9A114A",
"5  c #92174F",
"6  c #8D1E5E",
"7  c #891B56",
"8  c #99195A",
"9  c #B40A4E",
"0  c #AF0E56",
"q  c #B80B52",
"w  c #A2155B",
"e  c #B4125D",
"r  c #AA0C4C",
"t  c #9C2356",
"y  c #951C62",
"u  c #AB1A64",
"i  c #892668",
"p  c #932165",
"a  c #863670",
"s  c #B53B6F",
"d  c #C50751",
"f  c #CC0556",
"g  c #D40354",
"h  c #DB0154",
"j  c #D3095A",
"k  c #E60056",
"l  c #E90055",
"z  c #EB0159",
"x  c #EA085C",
"c  c #D81460",
"v  c #EA1A6A",
"b  c #D43175",
"n  c #E9226E",
"m  c #E72E76",
"M  c #E53B7D",
"N  c #9D4072",
"B  c #A3457E",
"V  c #3F966A",
"C  c #33817A",
"Z  c #388675",
"A  c #498559",
"S  c #7F9457",
"D  c #44966C",
"F  c #43986A",
"G  c #419467",
"H  c #408A7C",
"J  c #5A847A",
"K  c #6D9E6E",
"L  c #689377",
"P  c #4BA563",
"I  c #4BAC61",
"U  c #58A86A",
"Y  c #56B26A",
"T  c #6CA77B",
"R  c #6CB57E",
"E  c #67B67A",
"W  c #74A979",
"Q  c #C0AA3A",
"!  c #FEE92C",
"~  c #AEB658",
"^  c #83AE78",
"/  c #929553",
"(  c #CACE73",
")  c #3C4D80",
"_  c #2D5786",
"`  c #2A5987",
"'  c #265D8A",
"]  c #285B8A",
"[  c #335484",
"{  c #395082",
"}  c #1D628F",
"|  c #1E698F",
" . c #1B6693",
".. c #1B6894",
"X. c #176A95",
"o. c #21638E",
"O. c #226D8C",
"+. c #2A6785",
"@. c #3D618E",
"#. c #2B7783",
"$. c #267188",
"%. c #297489",
"&. c #236390",
"*. c #236B94",
"=. c #2D6D95",
"-. c #216D98",
";. c #326E95",
":. c #2D7392",
">. c #29729A",
",. c #347296",
"<. c #34779E",
"1. c #337B87",
"2. c #685F8C",
"3. c #4A608A",
"4. c #4C749A",
"5. c #7B7296",
"6. c #A87F94",
"7. c #B87797",
"8. c #EC5B93",
"9. c #CD608D",
"0. c #EE699D",
"q. c #358893",
"w. c #3381A4",
"e. c #42898F",
"r. c #4B9085",
"t. c #488592",
"y. c #448993",
"u. c #569696",
"i. c #678F97",
"p. c #629F9C",
"a. c #56BB89",
"s. c #6AB781",
"d. c #71BE85",
"f. c #77B888",
"g. c #6BA898",
"h. c #7BA296",
"j. c #68A383",
"k. c #5389A9",
"l. c #4C9AB6",
"z. c #7183A7",
"x. c #6E91A9",
"c. c #7BA1B8",
"v. c #55AFAC",
"b. c #5FC699",
"n. c #79C38C",
"m. c #6DCFDB",
"M. c #72F0ED",
"N. c #74EBF2",
"B. c #B08D9D",
"V. c #88B392",
"C. c #9D8FAA",
"Z. c #8A9DAB",
"A. c #9DB5A3",
"S. c #8FABBF",
"D. c #90A5B6",
"F. c #A1ACB3",
"G. c #EC81AD",
"H. c #EF8DB4",
"J. c #C1A6B2",
"K. c #CFB1B9",
"L. c #82CB94",
"P. c #A5C1AD",
"I. c #A5D4AE",
"U. c #A2D2B0",
"Y. c #83D1DD",
"T. c #CBCBCD",
"R. c #CED4D1",
"E. c #DBD8DC",
"W. c #F8CADE",
"Q. c #EED0DD",
"!. c #E6C9D5",
"~. c #C8E7D1",
"^. c #CED8E1",
"/. c #F2D9E5",
"(. c #DCECE2",
"). c #F4E9ED",
"_. c #FBE2EC",
"`. c #E1F2E7",
"'. c #E9F2ED",
/* pixels */
"................................................................................................",
"................................................................................................",
"................................................................................................",
"................................................................................................",
"................................................................................................",
"................................................................................................",
"................................................................................................",
"................................=...............................................................",
"..............................: ~ J ............................................................",
"............................ ./ ! ( :...........................................................",
"..............................3 Q S o....... . . ...............................................",
".............................. .+.o......._ p u i {  ...........................................",
"........................................' y 0 h l f % } ........................................",
"............................*...........3.- < s m m b 2.........................................",
"........................$.:.t.*.........D.S.x.E.).).).^.<. .....................................",
"........................: r.u.%.e.*... .k.c.h.L L f.T J *.......................................",
"........................| H f.n.y.........1.s.f.X .   , O.......................................",
"..........................| i.K.5.} ......Z E R ^ A K W O.......................................",
"............................&.a j =  .....#.E s.R U E Z | ......................................",
"..............................' p g = [  .,.h.R R U j.,.........................................",
"................................_ 6 g e i N J.P.T U.!.B [ ......................................",
"..................................' & 8 g k M Q.(.'.G.l w _ ....................................",
".................................... .[ * q h M 0.8.c q h y ] ..................................",
"........................................ .* 9 l l l h # 6 h y ] ................................",
"..........................................+ 9 k z z l & _ 6 h p ] .... . .......................",
"..........................................+ r h z z z w ' ` 8 k p 4.*.l.w. .....................",
"........................................ .* 4 d z z z 0 ` ..{ e 8.T.v.N.Y.<. ...................",
"........................................[ 7 4 d z z z g @  ...@.F.I.b.M.m.>. ...................",
"........................................[ 5 4 d v n n x f < ....$.G I a.q.......................",
"........................................[ 5 t 9.W._._.H.M @ X.....$.Z C | ......................",
"........................................4.6.B.R.`.`.`.`./.z......... . .........................",
"......................................*.Z.A.V.f.d.d.d.n.~.^.>...................................",
"........................................t.U Y n.L.L.L.L.g.k.*...................................",
"........................................O.V Y L.L.L.L.d.e. .....................................",
"..........................................O.D R n.n.s.C ........................................",
"............................................#.P D P C ..........................................",
"............................................$.F C G O...........................................",
"..............................................C C > .... . .....................................",
"............................................>.p.g.u.-.{ % ) ....................................",
"......................................; ; _ 2 7.C.7.a w &  .....................................",
"......................................[ $ i 7 o 1 O $ < o.......................................",
"........................................&.o.o.}  . . ...........................................",
"................................................................................................",
"................................................................................................",
"................................................................................................",
"................................................................................................",
"..............................................................................=.;.;.,.,.;.;.=...",
"..............................................................................*.*.*.*.*.*.*.*..."
};
