/* XPM */
static char *_35760afce1246eed83cee117b33eae4N9xgdCxx6fSQayJn[] = {
/* columns rows colors chars-per-pixel */
"48 48 186 2 ",
"   c #281A09",
".  c #16352E",
"X  c #472E11",
"o  c #50693B",
"O  c #2E396C",
"+  c #761A57",
"@  c #681850",
"#  c #57366B",
"$  c #4D3C6A",
"%  c #6B2D69",
"&  c #7F2665",
"*  c #663369",
"=  c #6B3371",
"-  c #743B74",
";  c #3E4E7F",
":  c #2C517F",
">  c #22517F",
",  c #35507F",
"<  c #2A7A75",
"1  c #337B7A",
"2  c #417E53",
"3  c #494479",
"4  c #487469",
"5  c #980B44",
"6  c #94134B",
"7  c #99154B",
"8  c #971456",
"9  c #8F1858",
"0  c #AF064A",
"q  c #BD044C",
"w  c #B40649",
"e  c #A60E55",
"r  c #B50A50",
"t  c #BC0753",
"y  c #B0125D",
"u  c #991E64",
"i  c #BA1662",
"p  c #872769",
"a  c #842365",
"s  c #942163",
"d  c #83326C",
"f  c #843C73",
"g  c #B22F6F",
"h  c #B33268",
"j  c #C30046",
"k  c #DE004B",
"l  c #D80049",
"z  c #C40952",
"x  c #CA0553",
"c  c #D80354",
"v  c #E6004B",
"b  c #E9004A",
"n  c #F9004D",
"m  c #EA0054",
"M  c #EA0459",
"N  c #E70759",
"B  c #F20055",
"V  c #F80051",
"C  c #E41967",
"Z  c #DF226C",
"A  c #ED236D",
"S  c #E53278",
"D  c #86466F",
"F  c #388C73",
"G  c #3D9269",
"H  c #52975F",
"J  c #4B9153",
"K  c #4EAA5F",
"L  c #48A95D",
"P  c #469A67",
"I  c #4D8A74",
"U  c #61886A",
"Y  c #5EB070",
"T  c #5AB066",
"R  c #65A677",
"E  c #65B67C",
"W  c #67B87A",
"Q  c #7BA676",
"!  c #6FC278",
"~  c #F2C630",
"^  c #FFFF23",
"/  c #96A042",
"(  c #A8AF55",
")  c #0B5D8F",
"_  c #115F8D",
"`  c #1D5E8B",
"'  c #1F5583",
"]  c #0F5F90",
"[  c #3D4D81",
"{  c #2C5786",
"}  c #245B88",
"|  c #315181",
" . c #0F608E",
".. c #15618F",
"X. c #1C628D",
"o. c #0C6D96",
"O. c #0D6692",
"+. c #156494",
"@. c #1B6694",
"#. c #146C96",
"$. c #1B6894",
"%. c #166399",
"&. c #186498",
"*. c #156E98",
"=. c #186D98",
"-. c #0D719A",
";. c #07749D",
":. c #18719A",
">. c #276B88",
",. c #287484",
"<. c #287189",
"1. c #307A81",
"2. c #226A94",
"3. c #336E94",
"4. c #2A7293",
"5. c #27719A",
"6. c #29759B",
"7. c #337295",
"8. c #397196",
"9. c #317A9F",
"0. c #1974A0",
"q. c #2C77A1",
"w. c #495A86",
"e. c #6C5687",
"r. c #426F92",
"t. c #6379A0",
"y. c #81768F",
"u. c #CC5D8B",
"i. c #EF5C96",
"p. c #D27C9B",
"a. c #F473A8",
"s. c #3E8190",
"d. c #368AA9",
"f. c #4D928B",
"g. c #458690",
"h. c #498694",
"j. c #5D9F97",
"k. c #609D93",
"l. c #6DBC83",
"z. c #77B785",
"x. c #6CAC97",
"c. c #79A195",
"v. c #4F84AB",
"b. c #529FB9",
"n. c #5694AC",
"m. c #6693AD",
"M. c #5BA7A5",
"N. c #64ACA4",
"B. c #79C689",
"V. c #6CC782",
"C. c #68D8E5",
"Z. c #B48195",
"A. c #80A094",
"S. c #87B494",
"D. c #B58EA1",
"F. c #A299B2",
"G. c #9ABFA0",
"H. c #9DA7B3",
"J. c #A7BEAC",
"K. c #EE98BC",
"L. c #E684AE",
"P. c #95C38A",
"I. c #83CC95",
"U. c #88CC99",
"Y. c #85CC90",
"T. c #92C0AF",
"R. c #9FD5B0",
"E. c #A7C4B2",
"W. c #C5CE8D",
"Q. c #84A3C0",
"!. c #96BECC",
"~. c #AFB8C1",
"^. c #CDBAC2",
"/. c #8AFFFF",
"(. c #E7CFCC",
"). c #D4EFD8",
"_. c #FFDEEE",
"`. c #DDFCEC",
"'. c #D8E7E1",
"]. c #E7F4EC",
"[. c #FDEDF6",
"{. c #EBF9F5",
"}. c #F4F1F4",
"|. c #FFF5FB",
" X c #FDFDFE",
".X c #F6FFFF",
/* pixels */
"$.$.$.$.$.$.$.$.$.$.$.$.$.$.$.$.$.$.$.$.$.$.$.$.$.$.$.$.$.$.$.$.$.$.$.$.$.$.$.$.$.$.$.$.$.$.$.$.",
"$.$.$.$.$.$.$.$.$.$.$.$.$.$.$.$.$.$.$.$.$.$.$.$.$.$.$.$.$.$.$.$.$.$.$.$.$.$.$.$.$.$.$.$.$.$.$.$.",
"$.$.$.$.$.$.$.$.$.$.$.$.$.$.$.$.$.$.$.$.$.$.$.$.$.$.$.$.$.$.$.$.$.$.$.$.$.$.$.$.$.$.$.$.$.$.$.$.",
"$.$.$.$.$.$.$.$.$.$.$.$.$.$.$.$.$.$.$.$.$.$.$.$.$.$.$.$.$.$.$.$.$.$.$.$.$.$.$.$.$.$.$.$.$.$.$.$.",
"$.$.$.$.$.$.$.$.$.$.$.$.$.$.$.$.$.$.$.$.$.$.$.$.$.$.$.$.@.X.$.$.$.$.$.$.$.$.$.$.$.$.$.$.$.$.$.$.",
"$.$.$.$.$.$.$.$.$.$.$.$.$.$.$.$.$.$.$.$.$.$.$.$.$.$.$...9.b._ $.$.$.$.$.$.$.$.$.$.$.$.$.$.$.$.$.",
"$.$.$.$.$.$.$.$.$.$.$.$.$.$.$.$.$.$.$.$.$.$.$.$.$.$.@.2.C./.m...$.$.$.$.$.$.$.$.$.$.$.$.$.$.$.$.",
"$.$.$.$.$.$.$.$.$.$.$.$.$.$.$.$.$.$.$.$.$.$.$.$.$.$.@.2.C./.b...$.$.$.$.$.$.$.$.$.$.$.$.$.$.$.$.",
"$.$.$.$.$.$.$.$.$.$.$.$.$.$.$.$.$.$.$.$.$.$.$.$.$.$.$.+.5.d...$.$.$.$.$.$.$.$.$.$.$.$.$.$.$.$.$.",
"$.$.$.$.$.$.$.$.$.$.$.$.$.$.$.$.$.$.$.$.$.$.$.$.$.@.$.$.@...$.$.$.$.$.$.$.$.$.$.$.$.$.$.$.$.$.$.",
"$.$.$.$.$.$.$.$.$.$.$.$.$.$.$.$.$.$.$.$.@.$.#.#.#.#.$.$.$.$.$.$.$.$.$.$.$.$.$.$.$.$.$.$.$.$.$.$.",
"$.$.$.$.$.$.$.$.$.$.$.$.$.$.$.$.$.$.$.@.=.` u i p { #.$.$.$.$.$.$.$.$.$.$.$.$.$.$.$.$.$.$.$.$.$.",
"$.$.$.$.$.$.$.$.$.$.$.$.$.$.$.$.$.$.$.$.` e q v n k # O.$.$.$.$.$.$.$.$.$.$.$.$.$.$.$.$.$.$.$.$.",
"$.$.$.$.$.$.$.$.$.$.$.$.$.$.$.$.$.$.@.#.w.d : h Z A C e.*.@.$.$.$.2.$.+.$.$.$.$.$.$.$.$.$.$.$.$.",
"$.$.$.$.$.$.$.$.$.$.$.$.$.$.$.$.$.$.$. .~.!.m.}. X X X}.5.@.$.$.+.7.g.4.4.$.$.$.$.$.$.$.$.$.$.$.",
"$.$.$.$.$.$.$.$.$.$.$.$.$.$.$.%.$.$.$.+.n.Q.c.U I z.R 4 @.$.$.<.1.X.j.k.s.+.$.$.$.$.$.$.$.$.$.$.",
"$.$.$.$.$.$.$.$.$.$.$.$.$.+.>.( >.%.$.$.+.,.E Y.X .   o =.@.$.$.F V.U.h.$.$.$.$.$.$.$.$.$.$.$.$.",
"$.$.$.$.$.$.$.$.$.$.$.$.$.+.( ^ W.2.$.$.&.F ! U.P.2 Q P.$.@.$._ y.(.n.] $.$.$.$.$.$.$.$.$.$.$.$.",
"$.$.$.$.$.$.$.$.$.$.$.$.&.< / ~ ( f.+.$.$.>.E I.l.Y W f.2.#.o.a V = #.@.$.$.$.$.$.$.$.$.$.$.$.$.",
"$.$.$.$.$.$.$.$.$.$.$.$.$.,.K J I 4.@.$.#.q.A.R l.H R 6.o.{ & n % o.$.$.$.$.$.$.$.$.$.$.$.$.$.$.",
"$.$.$.$.$.$.$.$.$.$.$.$.$.$.1 G.T.#.=.#.' D ^.E.H R._.e.% c b % #.$.$.$.$.$.$.$.$.$.$.$.$.$.$.$.",
"$.$.$.$.$.$.$.$.$.$.$.$.$.$.` g C : ` % q b S [.`..XL.j l 7 # o.$.@.$.$.$.$.$.$.$.$.$.$.$.$.$.$.",
"$.$.$.$.$.$.$.$.$.$.$.$.$.@.$.> 0 x t k p s v S a.i.c 6 $ X.*.$.$.$.$.$.$.$.$.$.$.$.$.$.$.$.$.$.",
"$.$.$.$.$.$.$.$.$.$.$.$.$.$.@.*.} r y | -.$ q m v v V = ;.$.@.$.$.$.$.$.$.$.$.$.$.$.$.$.$.$.$.$.",
"$.$.$.$.$.$.$.$.$.$.$.$.$.$.$.@.*.{ X.*.*.# w M M M V = o.@.$.$.$.$.$.$.$.$.$.$.$.$.$.$.$.$.$.$.",
"$.$.$.$.$.$.$.$.$.$.$.$.$.$.$.$.@.$.$.2.*.# 0 c m m B e ` $.@.$.$.$.$.$.$.$.$.$.$.$.$.$.$.$.$.$.",
"$.$.$.$.$.$.$.$.$.$.$.$.$.$.$.$.$.@.$.@.*.* 5 z B m B r X.$.@.$.$.$.$.$.$.$.$.$.$.$.$.$.$.$.$.$.",
"$.$.$.$.$.$.$.$.$.$.$.$.$.$.$.$.$.$.@.*.| 6 6 z B m m m 3 #.@.$.$.$.$.$.$.$.$.$.$.$.$.$.$.$.$.$.",
"$.$.$.$.$.$.$.$.$.$.$.$.$.$.$.$.$.$.@.*., 7 6 j N C C m k ; *.@.$.$.$.$.$.$.$.$.$.$.$.$.$.$.$.$.",
"$.$.$.$.$.$.$.$.$.$.$.$.$.$.$.$.$.$.@.#.{ 5 6 u._.|.|.K.A # -.@.$.$.$.$.$.$.$.$.$.$.$.$.$.$.$.$.",
"$.$.$.$.$.$.$.$.$.$.$.$.$.$.$.$.$.$.$.+.r.Z.D.'.{.].].{.[.t.+.$.$.$.$.$.$.$.$.$.$.$.$.$.$.$.$.$.",
"$.$.$.$.$.$.$.$.$.$.$.$.$.$.$.$.$.$.$.@.H.J.S.z.W W W E ).{.X.$.$.$.$.$.$.$.$.$.$.$.$.$.$.$.$.$.",
"$.$.$.$.$.$.$.$.$.$.$.$.$.$.$.$.$.$.$.$.h.T L B.I.I.I.I.x.v.$.$.$.$.$.$.$.$.$.$.$.$.$.$.$.$.$.$.",
"$.$.$.$.$.$.$.$.$.$.$.$.$.$.$.$.$.$.$.$.$.P T U.I.I.I.B.g.) $.$.$.$.$.$.$.$.$.$.$.$.$.$.$.$.$.$.",
"$.$.$.$.$.$.$.$.$.$.$.$.$.$.$.$.$.$.$.$.$.2.P W B.B.V.1 +.$.$.$.$.$.$.$.$.$.$.$.$.$.$.$.$.$.$.$.",
"$.$.$.$.$.$.$.$.$.$.$.$.$.$.$.$.$.$.$.$.$.%.,.L G K 1 +.$.$.$.$.$.$.$.$.$.$.$.$.$.$.$.$.$.$.$.$.",
"$.$.$.$.$.$.$.$.$.$.$.$.$.$.$.$.$.$.$.$.$.$.<.P 1.P $.$.$.$.$.$.$.$.$.$.$.$.$.$.$.$.$.$.$.$.$.$.",
"$.$.$.$.$.$.$.$.$.$.$.$.$.$.$.$.$.$.$.@.@.$.+.< < < +.$.@.$.$.$.$.$.$.$.$.$.$.$.$.$.$.$.$.$.$.$.",
"$.$.$.$.$.$.$.$.$.$.$.$.$.$.$.$.$.$.$.#.*.#.0.N.x.M.:.$.*.#.$.$.$.$.$.$.$.$.$.$.$.$.$.$.$.$.$.$.",
"$.$.$.$.$.$.$.$.$.$.$.$.$.$.$.$.$.@.#.3 3 ` f p.F.p.- ..3 [ #.@.$.$.$.$.$.$.$.$.$.$.$.$.$.$.$.$.",
"$.$.$.$.$.$.$.$.$.$.$.$.$.$.$.$.$.$.$.{ a u 9 @ O + 9 8 + } $.$.$.$.$.$.$.$.$.$.$.$.$.$.$.$.$.$.",
"$.$.$.$.$.$.$.$.$.$.$.$.$.$.$.$.$.$.$.#.$.$.#.=.=.*.#.@.$.#.$.$.$.$.$.$.$.$.$.$.$.$.$.$.$.$.$.$.",
"$.$.$.$.$.$.$.$.$.$.$.$.$.$.$.$.$.$.$.$.$.$.$.$.$.@.$.$.$.$.$.$.$.$.$.$.$.$.$.$.$.$.$.$.$.$.$.$.",
"$.$.$.$.$.$.$.$.$.$.$.$.$.$.$.$.$.$.$.$.$.$.$.$.$.$.$.$.$.$.$.$.$.$.$.$.$.$.$.$.$.$.$.$.$.$.$.$.",
"$.$.$.$.$.$.$.$.$.$.$.$.$.$.$.$.$.$.$.$.$.$.$.$.$.$.$.$.$.$.$.$.$.$.$.$.$.$.$.$.$.$.$.$.$.$.$.$.",
"$.$.$.$.$.$.$.$.$.$.$.$.$.$.$.$.$.$.$.$.$.$.$.$.$.$.$.$.$.$.$.$.$.$.$.$.$.$.$.$.$.$.+.$.+.$.$.$.",
"$.$.$.$.$.$.$.$.$.$.$.$.$.$.$.$.$.$.$.$.$.$.$.$.$.$.$.$.$.$.$.$.$.$.$.$.$.$.$.7.3.3.8.7.8.3.3.$.",
"$.$.$.$.$.$.$.$.$.$.$.$.$.$.$.$.$.$.$.$.$.$.$.$.$.$.$.$.$.$.$.$.$.$.$.$.$.$.$.2.2.2.2.2.2.2.2.$."
};
