/* XPM */
static char *d2ecfdf86ddc452fb0b6b6604b1b91215nSDiTsuZwjBLmEo[] = {
/* columns rows colors chars-per-pixel */
"48 48 189 2 ",
"   c #291909",
".  c #15342D",
"X  c #4A2C10",
"o  c #526A38",
"O  c #2E396B",
"+  c #741550",
"@  c #69184E",
"#  c #7B1F60",
"$  c #59356A",
"%  c #4F3570",
"&  c #553D74",
"*  c #4C3C6A",
"=  c #653368",
"-  c #6D346D",
";  c #224F7B",
":  c #3E4E7F",
">  c #28527F",
",  c #36507F",
"<  c #297974",
"1  c #317C77",
"2  c #337A7E",
"3  c #34767B",
"4  c #356E78",
"5  c #437F55",
"6  c #757859",
"7  c #4A4278",
"8  c #454476",
"9  c #49766B",
"0  c #990B44",
"q  c #96144A",
"w  c #881D5D",
"e  c #901655",
"r  c #96165B",
"t  c #AA0748",
"y  c #BA0449",
"u  c #A70E54",
"i  c #B50951",
"p  c #BD0851",
"a  c #B0125B",
"s  c #9D1C62",
"d  c #BB1662",
"f  c #942161",
"g  c #852F6B",
"h  c #AF2E6F",
"j  c #B43268",
"k  c #C2024A",
"l  c #DE0049",
"z  c #C40952",
"x  c #CB0856",
"c  c #D90253",
"v  c #E5004A",
"b  c #EA004C",
"n  c #F4004D",
"m  c #E50051",
"M  c #EB0054",
"N  c #EA0459",
"B  c #F20055",
"V  c #F50055",
"C  c #EC0C60",
"Z  c #E51765",
"A  c #DF226C",
"S  c #ED216D",
"D  c #E12371",
"F  c #E53278",
"G  c #8C7F56",
"H  c #85456D",
"J  c #3A866C",
"K  c #3D9067",
"L  c #378E71",
"P  c #52975E",
"I  c #4C9A5A",
"U  c #4BAB5B",
"Y  c #449B65",
"T  c #489A69",
"R  c #588D72",
"E  c #718D61",
"W  c #628777",
"Q  c #56A763",
"!  c #5DB76A",
"~  c #66A87A",
"^  c #62B174",
"/  c #65B67C",
"(  c #6ABC7C",
")  c #75A76D",
"_  c #66C170",
"`  c #72C07E",
"'  c #FFE81F",
"]  c #FFF327",
"[  c #90B67B",
"{  c #D0CD56",
"}  c #0D5E8F",
"|  c #155F8E",
" . c #1C5D8A",
".. c #1E5985",
"X. c #145E93",
"o. c #3D4D80",
"O. c #2D5685",
"+. c #235C89",
"@. c #315180",
"#. c #0D678F",
"$. c #15618E",
"%. c #1D628D",
"&. c #1B6784",
"*. c #0C6C96",
"=. c #0B6897",
"-. c #156494",
";. c #1B6693",
":. c #156B96",
">. c #1B6894",
",. c #156499",
"<. c #19659B",
"1. c #156D98",
"2. c #1A6C98",
"3. c #0E719A",
"4. c #177198",
"5. c #236987",
"6. c #277185",
"7. c #2A7384",
"8. c #236A93",
"9. c #296A95",
"0. c #336E95",
"q. c #2B7393",
"w. c #2B739B",
"e. c #397196",
"r. c #3A7D94",
"t. c #337698",
"y. c #1A74A0",
"u. c #2E7AA2",
"i. c #485B87",
"p. c #685A89",
"a. c #417093",
"s. c #6379A0",
"d. c #9D6D8C",
"f. c #CE5B8A",
"g. c #F05C97",
"h. c #D27B9C",
"j. c #F473A7",
"k. c #3A87A8",
"l. c #468A89",
"z. c #54908D",
"x. c #4A8493",
"c. c #6CAE8E",
"v. c #6FBD82",
"b. c #78B787",
"n. c #66A596",
"m. c #79A194",
"M. c #4D87A7",
"N. c #578AA8",
"B. c #6289A3",
"V. c #52A5B1",
"C. c #64ACA4",
"Z. c #7BC98D",
"A. c #7BC386",
"S. c #7ED48A",
"D. c #4FACC4",
"F. c #7BC8D8",
"G. c #77EAF1",
"H. c #B48397",
"J. c #81A095",
"K. c #88B595",
"L. c #A5B685",
"P. c #B58EA1",
"I. c #A298B2",
"U. c #9DA6B3",
"Y. c #A6BFAB",
"T. c #EA8DB5",
"R. c #84CC96",
"E. c #87CC9A",
"W. c #86CC90",
"Q. c #A3C29C",
"!. c #9DD6AF",
"~. c #92C1B1",
"^. c #A6C2B0",
"/. c #95BECD",
"(. c #85A4C2",
"). c #ADB7C2",
"_. c #CEBAC4",
"`. c #E3BEC8",
"'. c #81FFFF",
"]. c #91F1F4",
"[. c #D3EED7",
"{. c #FFDDEE",
"}. c #D9F1E6",
"|. c #E7F4EC",
" X c #FCEDF6",
".X c #EAFAF5",
"XX c #FFF5FC",
"oX c #FDFDFF",
"OX c #F7F7F8",
/* pixels */
">.>.>.>.>.>.>.>.>.>.>.>.>.>.>.>.>.>.>.>.>.>.>.>.>.>.>.>.>.>.>.>.>.>.>.>.>.>.>.>.>.>.>.>.>.>.>.>.",
">.>.>.>.>.>.>.>.>.>.>.>.>.>.>.>.>.>.>.>.>.>.>.>.>.>.>.>.>.>.>.>.>.>.>.>.>.>.>.>.>.>.>.>.>.>.>.>.",
">.>.>.>.>.>.>.>.>.>.>.>.>.>.>.>.>.>.>.>.>.>.;.>.>.>.>.>.>.>.>.>.>.>.>.>.>.>.>.>.>.>.>.>.>.>.>.>.",
">.>.>.>.>.>.>.>.>.>.>.>.>.>.>.>.>.>.>.>.>.>.>.>.>.>.>.>.>.>.>.>.>.>.>.>.>.>.>.>.>.>.>.>.>.>.>.>.",
">.>.>.>.>.>.>.>.>.>.>.>.>.>.>.>.>.>.>.>.-.;.>.>.>.>.>.>.>.>.>.>.>.>.>.>.>.>.>.>.>.>.>.>.>.>.>.>.",
">.>.>.>.>.>.>.>.>.>.>.>.>.>.>.>.>.>.>.$.k.w.-.>.>.>.>.>.>.>.>.>.>.>.>.>.>.>.>.>.>.>.>.>.>.>.>.>.",
">.>.>.>.>.>.>.>.>.>.>.>.>.>.>.>.>.>.;.u.G.F.9.;.>.>.>.>.>.>.>.>.>.>.>.>.>.>.>.>.>.>.>.>.>.>.>.>.",
">.>.>.>.>.>.>.>.>.>.>.>.>.>.>.>.>.>.| V.'.].t.-.>.>.>.>.>.>.>.>.>.>.>.>.>.>.>.>.>.>.>.>.>.>.>.>.",
">.>.>.>.>.>.>.>.>.>.>.>.>.>.>.>.>.>.>.;.D.k.$.>.>.>.>.>.>.>.>.>.>.>.>.>.>.>.>.>.>.>.>.>.>.>.>.>.",
">.>.>.>.>.>.>.>.>.>.>.>.>.>.>.>.>.>.>.>.| -.>.;.;.;.>.>.>.>.>.>.>.>.>.>.>.>.>.>.>.>.>.>.>.>.>.>.",
">.>.>.>.>.>.>.>.>.>.>.>.>.>.>.>.>.>.>.>.>.>.*.:.:.:.;.>.>.>.>.>.>.>.>.>.>.>.>.>.>.>.>.>.>.>.>.>.",
">.>.>.>.>.>.>.>.>.>.>.>.>.>.>.>.>.>.>.;.1. .s d g O.:.>.>.>.>.>.-.>.>.>.>.>.>.>.>.>.>.>.>.>.>.>.",
">.>.>.>.>.>.>.>.>.>.>.>.>.>.>.>.>.>.;.>. .u y v n l $ #.;.>.>.-.W 5.-.>.>.>.>.>.>.>.>.>.>.>.>.>.",
">.>.>.>.>.>.>.>.>.>.>.>.>.>.>.>.>.>.;.:.i.g > j A S Z p.1.>.,.E ] L.<.>.>.>.>.>.>.>.>.>.>.>.>.>.",
">.>.>.>.>.>.>.>.>.>.>.>.>.>.>.>.>.>.>.} )./.B.OXoXoXoXOXw.;.,.G ' { %.>.>.>.>.>.>.>.>.>.>.>.>.>.",
">.>.>.>.>.>.>.>.>.>.>.>.>.>.>.>.>.>.>.-.N.(.m.W R b.~ 9 ;.>.>.| 6 4 -.>.>.>.>.>.>.>.>.>.>.>.>.>.",
">.>.>.>.>.>.>.>.>.>.>.>.>.;.>.>.;.;.>.>.-.6./ W.X .   o 4.;.>.>.=.,.>.>.>.>.>.>.>.>.>.>.>.>.>.>.",
">.>.>.>.>.>.>.>.>.>.>.>.>.8.3 >.>.8.;.>.<.L _ Q [ 5 ) ) &.>.>.;.q.8.-.;.>.>.>.>.>.>.>.>.>.>.>.>.",
">.>.>.>.>.>.>.>.>.>.>.>.,.1 K X.r.z.-.>.;.6./ ( / ^ / J ;.>.>.-.t.x.t.q.-.>.>.>.>.>.>.>.>.>.>.>.",
">.>.>.>.>.>.>.>.>.>.>.>.;.7.U J l.q.;.>.:.u.J.~ v.I ~ w.;.;.6.3 &.n.n.r.-.>.>.>.>.>.>.>.>.>.>.>.",
">.>.>.>.>.>.>.>.>.>.>.>.>.-.2 Q.~.-.2.:...H _.^.P !.{.p.*.8.,.L S.E.r.-.>.>.>.>.>.>.>.>.>.>.>.>.",
">.>.>.>.>.>.>.>.>.>.>.>.;.>.+.h D O...= k b F  X}.oXT.y 8 3...d.`.M.} >.>.>.>.>.>.>.>.>.>.>.>.>.",
">.>.>.>.>.>.>.>.>.>.>.>.>.;.2.; t x p l g f v F j.g.x t c 8 s n % :.>.>.>.>.>.>.>.>.>.>.>.>.>.>.",
">.>.>.>.>.>.>.>.>.>.>.>.>.>.;.1.+.i a @.*.* y M v b V = w b m & 3.>.>.>.>.>.>.>.>.>.>.>.>.>.>.>.",
">.>.>.>.>.>.>.>.>.>.>.>.>.>.>.;.1.O.%.1.1.$ y N N N V - #.r & 3.;.>.>.>.>.>.>.>.>.>.>.>.>.>.>.>.",
">.>.>.>.>.>.>.>.>.>.>.>.>.>.>.>.;.>.>.;.1.$ t c M M B u %.-.:.>.>.>.>.>.>.>.>.>.>.>.>.>.>.>.>.>.",
">.>.>.>.>.>.>.>.>.>.>.>.>.>.>.>.>.;.;.;.1.= 0 z B N B i  .2.;.>.>.>.>.>.>.>.>.>.>.>.>.>.>.>.>.>.",
">.>.>.>.>.>.>.>.>.>.>.>.>.>.>.>.>.>.;.1.@.q q z B M M m 7 :.;.>.>.>.>.>.>.>.>.>.>.>.>.>.>.>.>.>.",
">.>.>.>.>.>.>.>.>.>.>.>.>.>.>.>.>.>.;.1., q q k C Z Z M l : 1.;.>.>.>.>.>.>.>.>.>.>.>.>.>.>.>.>.",
">.>.>.>.>.>.>.>.>.>.>.>.>.>.>.>.>.>.;.:.O.0 q f.{.XXXXT.S $ 3.;.;.;.>.>.>.>.>.>.>.>.>.>.>.>.>.>.",
">.>.>.>.>.>.>.>.>.>.>.>.>.>.>.>.>.>.>.-.a.H.P.}..X|.|..X Xs.-.>.>.>.>.>.>.>.>.>.>.>.>.>.>.>.>.>.",
">.>.>.>.>.>.>.>.>.>.>.>.>.>.>.>.>.>.>.;.U.Y.K.b./ / / ^ [..X%.>.>.>.>.>.>.>.>.>.>.>.>.>.>.>.>.>.",
">.>.>.>.>.>.>.>.>.>.>.>.>.>.>.>.>.>.>.;.x.Q U Z.R.R.R.R.c.M.>.>.>.>.>.>.>.>.>.>.>.>.>.>.>.>.>.>.",
">.>.>.>.>.>.>.>.>.>.>.>.>.>.>.>.>.>.>.;.>.Y ! E.R.R.R.A.l.} >.>.>.>.>.>.>.>.>.>.>.>.>.>.>.>.>.>.",
">.>.>.>.>.>.>.>.>.>.>.>.>.>.>.>.>.>.>.>.;.5.T ( Z.Z.` 1 -.>.>.>.>.>.>.>.>.>.>.>.>.>.>.>.>.>.>.>.",
">.>.>.>.>.>.>.>.>.>.>.>.>.>.>.>.>.>.>.>.>.,.7.U K U 1 -.>.>.>.>.>.>.>.>.>.>.>.>.>.>.>.>.>.>.>.>.",
">.>.>.>.>.>.>.>.>.>.>.>.>.>.>.>.>.>.>.>.>.;.6.Y 2 T >.>.>.>.>.>.>.>.>.>.>.>.>.>.>.>.>.>.>.>.>.>.",
">.>.>.>.>.>.>.>.>.>.>.>.>.>.>.>.>.>.>.;.;.>.-.< < < -.>.>.;.>.>.>.>.>.>.>.>.>.>.>.>.>.>.>.>.>.>.",
">.>.>.>.>.>.>.>.>.>.>.>.>.>.>.>.>.>.;.1.1.:.y.C.n.C.3.>.1.:.;.>.>.>.>.>.>.>.>.>.>.>.>.>.>.>.>.>.",
">.>.>.>.>.>.>.>.>.>.>.>.>.>.>.>.>.;.:.7 :  .g h.I.h.- $.7 o.1.;.>.>.>.>.>.>.>.>.>.>.>.>.>.>.>.>.",
">.>.>.>.>.>.>.>.>.>.>.>.>.>.>.>.>.;.>.O.w r e @ O + e r # +.>.>.>.>.>.>.>.>.>.>.>.>.>.>.>.>.>.>.",
">.>.>.>.>.>.>.>.>.>.>.>.>.>.>.>.>.>.>.:.;.;.:.2.2.1.:.;.>.:.;.>.>.>.>.>.>.>.>.>.>.>.>.>.>.>.>.>.",
">.>.>.>.>.>.>.>.>.>.>.>.>.>.>.>.>.>.>.;.>.>.>.>.>.;.>.>.>.;.>.>.>.>.>.>.>.>.>.>.>.>.>.>.>.>.>.>.",
">.>.>.>.>.>.>.>.>.>.>.>.>.>.>.>.>.>.>.>.>.>.>.>.>.>.>.>.>.>.>.>.>.>.>.>.>.>.>.>.>.>.>.>.>.>.>.>.",
">.>.>.>.>.>.>.>.>.>.>.>.>.>.>.>.>.>.>.>.>.>.>.>.>.>.>.>.>.>.>.>.>.>.>.>.>.>.>.>.>.>.>.>.>.>.>.>.",
">.>.>.>.>.>.>.>.>.>.>.>.>.>.>.>.>.>.>.>.>.>.>.>.>.>.>.>.>.>.>.>.>.>.>.>.>.>.>.;.;.;.-.;.-.;.;.>.",
">.>.>.>.>.>.>.>.>.>.>.>.>.>.>.>.>.>.>.>.>.>.>.>.>.>.>.>.>.>.>.>.>.>.>.>.>.>.;.0.0.0.e.e.e.0.0.>.",
">.>.>.>.>.>.>.>.>.>.>.>.>.>.>.>.>.>.>.>.>.>.>.>.>.>.>.>.>.>.>.>.>.>.>.>.>.>.>.8.8.8.8.8.8.8.8.>."
};
