/* XPM */
static char *e3fe3b6f77034b3efa3226035e1409e3Ib892LaPcnMfrbE1[] = {
/* columns rows colors chars-per-pixel */
"48 48 192 2 ",
"   c #291909",
".  c #16342C",
"X  c #472D10",
"o  c #536A38",
"O  c #3D3F75",
"+  c #2E3A6C",
"@  c #70164F",
"#  c #682051",
"$  c #7E225E",
"%  c #57366C",
"&  c #4F3768",
"*  c #762B69",
"=  c #64326A",
"-  c #643671",
";  c #6F2764",
":  c #3C4C7E",
">  c #374777",
",  c #28527F",
"<  c #36507F",
"1  c #2D7B73",
"2  c #297779",
"3  c #367A77",
"4  c #427E54",
"5  c #474479",
"6  c #4A7569",
"7  c #970B44",
"8  c #94144B",
"9  c #9E1149",
"0  c #8B1C5A",
"q  c #96165A",
"w  c #BE014E",
"e  c #B60A4F",
"r  c #B60548",
"t  c #A50F55",
"y  c #B40B52",
"u  c #A4155C",
"i  c #AF0747",
"p  c #971D62",
"a  c #BA1662",
"s  c #852567",
"d  c #87376D",
"f  c #843C73",
"g  c #AF366F",
"h  c #C40049",
"j  c #DE004C",
"k  c #DD0047",
"l  c #C60450",
"z  c #C40951",
"x  c #CF0753",
"c  c #DA0556",
"v  c #E2004E",
"b  c #ED004B",
"n  c #E70047",
"m  c #F6004F",
"M  c #FC004F",
"N  c #F90045",
"B  c #EB0053",
"V  c #E90558",
"C  c #F30054",
"Z  c #FC0051",
"A  c #DE1E67",
"S  c #E61563",
"D  c #DE226C",
"F  c #ED226C",
"G  c #E53278",
"H  c #3E945A",
"J  c #3C8D6D",
"K  c #3D9069",
"L  c #388572",
"P  c #3E8A74",
"I  c #2B8378",
"U  c #4D9A5B",
"Y  c #779858",
"T  c #49A85C",
"R  c #79A649",
"E  c #459A66",
"W  c #559167",
"Q  c #6C8D6F",
"!  c #55AE65",
"~  c #64BE6E",
"^  c #63B174",
"/  c #65B67D",
"(  c #6AB97B",
")  c #71A776",
"_  c #73C07F",
"`  c #FFF31F",
"'  c #FCD027",
"]  c #839D45",
"[  c #87BE7D",
"{  c #CFCE47",
"}  c #D0D578",
"|  c #0D5E8F",
" . c #1D5E8A",
".. c #165B89",
"X. c #2C5786",
"o. c #285A88",
"O. c #315281",
"+. c #0E668F",
"@. c #16638F",
"#. c #1B628E",
"$. c #1C6987",
"%. c #0C6D96",
"&. c #0E6393",
"*. c #156593",
"=. c #1B6694",
"-. c #156C96",
";. c #1B6894",
":. c #146399",
">. c #146E98",
",. c #186E99",
"<. c #186798",
"1. c #0D739D",
"2. c #197196",
"3. c #226B8D",
"4. c #236888",
"5. c #287284",
"6. c #277187",
"7. c #226A94",
"8. c #226793",
"9. c #336E94",
"0. c #28749B",
"q. c #397196",
"w. c #347198",
"e. c #0E72A0",
"r. c #1975A0",
"t. c #276EA1",
"y. c #2B77A0",
"u. c #535A86",
"i. c #437F8F",
"p. c #427499",
"a. c #63618C",
"s. c #6279A0",
"d. c #817888",
"f. c #CC5B8A",
"g. c #EE5D96",
"h. c #FF5494",
"j. c #CF7A9B",
"k. c #F373A7",
"l. c #2E8391",
"z. c #388AAB",
"x. c #40878E",
"c. c #5E958E",
"v. c #4A8294",
"b. c #58AF84",
"n. c #69A687",
"m. c #6EBC81",
"M. c #79B689",
"N. c #6CAA9F",
"B. c #79A194",
"V. c #4E83AB",
"C. c #588BA8",
"Z. c #6189A3",
"A. c #5DA8A7",
"S. c #64ACA4",
"D. c #7BC78C",
"F. c #57BCCF",
"G. c #6FB8CB",
"H. c #6EE4EC",
"J. c #78EFF4",
"K. c #809F94",
"L. c #B28297",
"P. c #96BF84",
"I. c #88B594",
"U. c #B38CA1",
"Y. c #A298B3",
"T. c #9EA6B3",
"R. c #A7BFAB",
"E. c #AEBFBF",
"W. c #D0809E",
"Q. c #EB8EB6",
"!. c #ECA9B7",
"~. c #83CC96",
"^. c #86CE99",
"/. c #86CD91",
"(. c #A1D4B2",
"). c #A8C4B2",
"_. c #A7E5BB",
"`. c #83A2C0",
"'. c #92BBCB",
"]. c #ADB6C2",
"[. c #CEB8C2",
"{. c #92FFFF",
"}. c #D4EFD8",
"|. c #FEDEEE",
" X c #DAE4E5",
".X c #DFFAEF",
"XX c #E7F5EC",
"oX c #FCECF6",
"OX c #FFE2F0",
"+X c #EAF9F5",
"@X c #FDFDFF",
"#X c #F9F6F9",
/* pixels */
";.;.;.;.;.;.;.;.;.;.;.;.;.;.;.;.;.;.;.;.;.;.;.;.;.;.;.;.;.;.;.;.;.;.;.;.;.;.;.;.;.;.;.;.;.;.;.;.",
";.;.;.;.;.;.;.;.;.;.;.;.;.;.;.;.;.;.;.;.;.;.;.;.;.;.;.;.;.;.;.;.;.;.;.;.;.;.;.;.;.;.;.;.;.;.;.;.",
";.;.;.;.;.;.;.;.;.;.;.;.;.;.;.;.;.;.;.;.;.;.;.;.;.;.;.;.;.;.;.;.;.;.;.;.;.;.;.;.;.;.;.;.;.;.;.;.",
";.;.;.;.;.;.;.;.;.;.;.;.;.;.;.;.;.;.;.;.;.;.;.;.;.;.;.;.;.;.;.;.;.;.;.;.;.;.;.;.;.;.;.;.;.;.;.;.",
";.;.;.;.;.;.;.;.;.;.;.;.;.;.;.;.;.;.;.;.;.;.;.;.;.;.;.;.;.;.;.;.;.;.;.;.;.;.;.;.;.;.;.;.;.;.;.;.",
";.;.;.;.;.;.;.;.;.;.;.;.;.;.;.;.;.;.;.;.;.;.;.;.;.;.;.;.;.;.;.;.;.;.;.;.;.;.;.;.;.;.;.;.;.;.;.;.",
";.;.;.;.;.;.;.;.;.;.;.;.;.;.;.;.;.;.;.;.;.;.;.;.;.;.;.;.;.;.=.8.=.;.;.;.;.;.;.;.;.;.;.;.;.;.;.;.",
";.;.;.;.;.;.;.;.;.;.;.;.;.;.;.;.;.;.;.;.;.;.;.;.;.;.;.;.;.@.z.F.=.;.;.;.;.;.;.;.;.;.;.;.;.;.;.;.",
";.;.;.;.;.;.;.;.;.;.;.;.;.;.;.;.;.;.;.;.;.;.;.;.;.;.;.;.=.7.H.{.G.| ;.;.;.;.;.;.;.;.;.;.;.;.;.;.",
";.;.;.;.;.;.;.;.;.;.;.;.;.;.;.;.;.;.;.;.;.=.;.;.;.=.;.;.;.=.F.J.z.*.;.;.;.;.;.;.;.;.;.;.;.;.;.;.",
";.;.;.;.;.;.;.;.;.;.;.;.;.;.;.;.;.;.;.;.=.;.>.-.-.-.;.;.;.=.;.0.*.;.;.;.;.;.;.;.;.;.;.;.;.;.;.;.",
";.;.;.;.;.;.;.;.;.;.;.;.;.;.;.;.;.;.;.=.,. .p a s X.-.;.;.;.;.=.;.;.;.;.;.;.;.;.;.;.;.;.;.;.;.;.",
";.;.;.;.;.;.;.;.;.;.;.;.;.;.;.;.;.;.;.;.#.t w v m j % +.;.;.;.;.;.;.;.;.;.;.;.;.;.;.;.;.;.;.;.;.",
";.;.;.;.;.;.;.;.;.;.;.;.;.;.;.;.;.;.=.-.u.d , g D F A u.-.=.;.;.;.;.;.;.;.;.;.;.;.;.;.;.;.;.;.;.",
";.;.;.;.;.;.;.;.;.;.;.;.;.;.;.;.;.;.;.| ].'.Z.#X@X#X@X#X0.*.;.;.;.;.;.;.;.;.;.;.;.;.;.;.;.;.;.;.",
";.;.;.;.;.;.;.;.;.;.;.;.;.;.;.;.;.;.;.*.C.`.B.Q W M.) 6 8.;.;.;.;.;.;.;.;.;.;.;.;.;.;.;.;.;.;.;.",
";.;.;.;.;.;.;.;.;.;.;.;.;.;.;.;.;.;.;.;.*.5./ /.X .   o 2.=.;.;.;.;.;.;.;.;.;.;.;.;.;.;.;.;.;.;.",
";.;.;.;.;.;.;.;.;.;.;.;.;.;.;.;.;.;.;.;.:.P ~ ( P.4 ) [ $.=.;.;.;.;.;.;.;.;.;.;.;.;.;.;.;.;.;.;.",
";.;.;.;.;.;.;.;.;.;.;.;.;.;.;.;.;.;.;.;.=.5./ m./ ^ / L =.;.;.;.;.;.;.;.;.;.;.;.;.;.;.;.;.;.;.;.",
";.;.;.;.;.;.;.;.;.;.;.;.;.;.;.;.;.;.;.;.*.y.K.^ m.U n.0.<.;.;.;.;.;.;.;.;.;.;.;.;.;.;.;.;.;.;.;.",
";.;.;.;.;.;.;.;.;.;.;.;.;.;.;.;.;.;.=.;.#.d [.).W (.OXg  .,.=.;.;.;.;.;.;.;.;.;.;.;.;.;.;.;.;.;.",
";.;.;.;.;.;.;.;.;.;.;.;.;.;.;.;.;.=.;.%.* b G oX.X@XQ.N u  .;.=.;.;.;.;.;.;.;.;.;.;.;.;.;.;.;.;.",
";.;.;.;.;.;.;.;.;.;.;.;.;.;.;.;.;.;.%.= Z x j G k.g.c y Z u *.;.=.;.;.;.;.;.;.=.;.;.;.;.;.;.;.;.",
";.;.;.;.;.;.;.;.;.;.;.;.;.=.=.;.;.%.= Z y # e B n b v & 0 M q *.;.;.;.;.;.;.;.;.;.;.;.;.;.;.;.;.",
";.;.;.;.;.;.;.;.;.;.;.;.=.7.7.*.%.- m l X.& r V V V Z - +.q M p *.*.;.:.<.;.;.;.;.;.;.;.;.;.;.;.",
";.;.;.;.;.;.;.;.;.;.;.;.<.i.c.l.a.B l > 1.% i c B B C t #.@.q Z q p.&.Q 3 :.;.;.;.;.;.;.;.;.;.;.",
";.;.;.;.;.;.;.;.;.;.;.;.;.<.8.b.!.h > >.-.= 7 z B B C e  .,.o.w h. XY ` } t.=.;.;.;.;.;.;.;.;.;.",
";.;.;.;.;.;.;.;.;.;.;.=.3.3.2 ! d.O >.;.O.8 8 z C B B v 5 >.-.o.E._.] ' { 3.=.;.;.;.;.;.;.;.;.;.",
";.;.;.;.;.;.;.;.;.;.;.;.3.3 T L *.-.=.>.< 9 8 h V S S B k : -.=.$.H T R 3 :.;.;.;.;.;.;.;.;.;.;.",
";.;.;.;.;.;.;.;.;.;.;.;.=.;.3.=.;.=.=.-.X.7 8 f.|.#X#XQ.F % 1.8.=.3.J I =.;.;.;.;.;.;.;.;.;.;.;.",
";.;.;.;.;.;.;.;.;.;.;.;.;.;.=.;.;.;.;.<.p.L.U. X+XXXXX+XoXs.*.;.;.;.*.=.;.;.;.;.;.;.;.;.;.;.;.;.",
";.;.;.;.;.;.;.;.;.;.;.;.;.;.;.;.;.;.;.=.T.).I.M./ / / ^ }.+X#.;.;.;.;.;.;.;.;.;.;.;.;.;.;.;.;.;.",
";.;.;.;.;.;.;.;.;.;.;.;.;.;.;.;.;.;.;.=.v.! T D.~.~.~.^.n.V.;.;.;.;.;.;.;.;.;.;.;.;.;.;.;.;.;.;.",
";.;.;.;.;.;.;.;.;.;.;.;.;.;.;.;.;.;.;.=.;.E ~ ^.~.~.^.D.x.| ;.;.;.;.;.;.;.;.;.;.;.;.;.;.;.;.;.;.",
";.;.;.;.;.;.;.;.;.;.;.;.;.;.;.;.;.;.;.;.=.3.E ( D.D._ 1 *.;.;.;.;.;.;.;.;.;.;.;.;.;.;.;.;.;.;.;.",
";.;.;.;.;.;.;.;.;.;.;.;.;.;.;.;.;.;.;.;.;.:.5.T K T 1 *.;.;.;.;.;.;.;.;.;.;.;.;.;.;.;.;.;.;.;.;.",
";.;.;.;.;.;.;.;.;.;.;.;.;.;.;.;.;.;.;.;.;.=.6.E 3 E ;.;.;.;.;.;.;.;.;.;.;.;.;.;.;.;.;.;.;.;.;.;.",
";.;.;.;.;.;.;.;.;.;.;.;.;.;.;.;.;.;.;.=.=.;.*.1 1 2 *.-.-.=.;.;.;.;.;.;.;.;.;.;.;.;.;.;.;.;.;.;.",
";.;.;.;.;.;.;.;.;.;.;.;.;.;.;.;.;.;.;.-.>.-.r.S.N.A.e.o.; 5 >.=.;.;.;.;.;.;.;.;.;.;.;.;.;.;.;.;.",
";.;.;.;.;.;.;.;.;.;.;.;.;.;.;.;.;.=.-.5 :  .f W.Y.j.d w * -.;.;.;.;.;.;.;.;.;.;.;.;.;.;.;.;.;.;.",
";.;.;.;.;.;.;.;.;.;.;.;.;.;.;.;.;.;.;.X.s p 0 @ + @ $ : -.;.;.;.;.;.;.;.;.;.;.;.;.;.;.;.;.;.;.;.",
";.;.;.;.;.;.;.;.;.;.;.;.;.;.;.;.;.;.;.-.;.;.-.,.,.,.>.>.;.;.;.;.;.;.;.;.;.;.;.;.;.;.;.;.;.;.;.;.",
";.;.;.;.;.;.;.;.;.;.;.;.;.;.;.;.;.;.;.;.;.;.;.;.;.;.=.=.;.;.;.;.;.;.;.;.;.;.;.;.;.;.;.;.;.;.;.;.",
";.;.;.;.;.;.;.;.;.;.;.;.;.;.;.;.;.;.;.;.;.;.;.;.;.;.;.;.;.;.;.;.;.;.;.;.;.;.;.;.;.;.;.;.;.;.;.;.",
";.;.;.;.;.;.;.;.;.;.;.;.;.;.;.;.;.;.;.;.;.;.;.;.;.;.;.;.;.;.;.;.;.;.;.;.;.;.;.;.;.;.;.;.;.;.;.;.",
";.;.;.;.;.;.;.;.;.;.;.;.;.;.;.;.;.;.;.;.;.;.;.;.;.;.;.;.;.;.;.;.;.;.;.;.;.;.;.=.=.=.<.=.<.=.=.;.",
";.;.;.;.;.;.;.;.;.;.;.;.;.;.;.;.;.;.;.;.;.;.;.;.;.;.;.;.;.;.;.;.;.;.;.;.;.;.=.w.9.9.q.w.q.9.9.;.",
";.;.;.;.;.;.;.;.;.;.;.;.;.;.;.;.;.;.;.;.;.;.;.;.;.;.;.;.;.;.;.;.;.;.;.;.;.;.;.7.7.7.7.7.7.7.7.;."
};
