/* XPM */
static char *a96d9fae877c4a47db044af14138337bT1cLJePq8pM1sNeo[] = {
/* columns rows colors chars-per-pixel */
"48 48 173 2 ",
"   c #343622",
".  c #29463A",
"X  c #51492A",
"o  c #70255B",
"O  c #5A3869",
"+  c #5A3C74",
"@  c #6B2C66",
"#  c #772866",
"$  c #66336C",
"%  c #7E3D73",
"&  c #3E4B7E",
"*  c #3B4878",
"=  c #2E7A7D",
"-  c #4E6E43",
";  c #424B7E",
":  c #484779",
">  c #5C4279",
",  c #6E437A",
"<  c #7B4479",
"1  c #547C6E",
"2  c #456775",
"3  c #9A114A",
"4  c #92174F",
"5  c #8A1C58",
"6  c #9F1658",
"7  c #9B1B5F",
"8  c #A70D4C",
"9  c #B4094D",
"0  c #AD0E55",
"q  c #B40C55",
"w  c #BA0C58",
"e  c #A01258",
"r  c #85205E",
"t  c #9D2457",
"y  c #961C62",
"u  c #AB1A64",
"i  c #852262",
"p  c #872768",
"a  c #902366",
"s  c #9C3C73",
"d  c #B53B70",
"f  c #C50750",
"g  c #C90656",
"h  c #DA0253",
"j  c #D20656",
"k  c #D1165F",
"l  c #E70056",
"z  c #EB0055",
"x  c #EA085B",
"c  c #E91A68",
"v  c #C72D72",
"b  c #D33275",
"n  c #E9216C",
"m  c #E72E75",
"M  c #E8397C",
"N  c #854B75",
"B  c #E2407E",
"V  c #3A8676",
"C  c #34817A",
"Z  c #4A8659",
"A  c #7F895B",
"S  c #42966A",
"D  c #43986C",
"F  c #5F9865",
"G  c #44947C",
"H  c #6D9E6D",
"J  c #6A9279",
"K  c #659274",
"L  c #4AA564",
"P  c #5BA96A",
"I  c #57A466",
"U  c #56B26A",
"Y  c #47A17F",
"T  c #6BA77A",
"R  c #7CA971",
"E  c #6BB57D",
"W  c #65B67A",
"Q  c #BBA13E",
"!  c #FCE32C",
"~  c #8DA054",
"^  c #A5B159",
"/  c #D8D86A",
"(  c #2D5685",
")  c #2D5987",
"_  c #275C8A",
"`  c #295C8A",
"'  c #335483",
"]  c #395082",
"[  c #1E638F",
"{  c #1D698B",
"}  c #1B6693",
"|  c #1B6894",
" . c #176A95",
".. c #22618E",
"X. c #236C8C",
"o. c #296785",
"O. c #2C7783",
"+. c #297584",
"@. c #367984",
"#. c #206390",
"$. c #226B94",
"%. c #2C6E96",
"&. c #226D99",
"*. c #326D94",
"=. c #2D7493",
"-. c #26719A",
";. c #347296",
":. c #36759B",
">. c #367A93",
",. c #2B7AA0",
"<. c #317DA2",
"1. c #4A608A",
"2. c #4A7396",
"3. c #68608D",
"4. c #71608F",
"5. c #9A6E8C",
"6. c #B37996",
"7. c #ED5C94",
"8. c #CD618D",
"9. c #EE699D",
"0. c #308083",
"q. c #3E8494",
"w. c #42898F",
"e. c #478791",
"r. c #599898",
"t. c #4D958A",
"y. c #629E9C",
"u. c #69B682",
"i. c #71BE85",
"p. c #7CBC8C",
"a. c #76B785",
"s. c #68A596",
"d. c #7BA297",
"f. c #71B08C",
"g. c #528AA4",
"h. c #528AAA",
"j. c #7183A7",
"k. c #6F91A9",
"l. c #66BBBE",
"z. c #7BA2B9",
"x. c #79C58B",
"c. c #5CC9A2",
"v. c #5EB8C9",
"b. c #5AC2CF",
"n. c #70E7E9",
"m. c #7EF6FB",
"M. c #B18E9E",
"N. c #92AD95",
"B. c #89B393",
"V. c #9B8EA9",
"C. c #8A9EAB",
"Z. c #9EB5A3",
"A. c #8FA9AE",
"S. c #EF8DB3",
"D. c #E582AB",
"F. c #C2A9B4",
"G. c #82CB94",
"H. c #9FD1AD",
"J. c #A4C0AD",
"K. c #91ACC0",
"L. c #86C9D5",
"P. c #CDD4D0",
"I. c #D8D7DD",
"U. c #E9CCD8",
"Y. c #F7CADE",
"T. c #C7E5D0",
"R. c #C7D7E0",
"E. c #F2D9E5",
"W. c #DBEAE0",
"Q. c #F2E7EC",
"!. c #F9E4EC",
"~. c #E1F2E7",
"^. c #E8F2EC",
/* pixels */
"| | | | | | | | | | | | | | | | | | | | | | | | | | | | | | | | | | | | | | | | | | | | | | | | ",
"| | | | | | | | | | | | | | | | | | | | | | | | | | | | | | | | | | | | | | | | | | | | | | | | ",
"| | | | | | | | | | | | | | | | | | | | | | | %.| | | | | | | | | | | | | | | | | | | | | | | | ",
"| | | | | | | | | | | | | | | | | | | | | | O.^ J | | | | | | | | | | | | | | | | | | | | | | | ",
"| | | | | | | | | | | | | | | | | | | | | } A ! / >.| | | | | | | | | | | | | | | | | | | | | | ",
"| | | | | | | | | | | | | | | | | | | | | | 2 Q ~ X.| | | | | | | | | | | | | | | | | | | | | | ",
"| | | | | | | | | | | | | | | | | | | | | | | o.X.| | | | | | | | | | | | | | | | | | | | | | | ",
"| | | | | | | | | | | | | | | | | | | | | | | | | | | | | | | | | | | | | | | | | | | | | | | | ",
"| | | | | | | | | | | | | | | | | | | | | | | | | | | | | | | | | | | | | | | | | | | | | | | | ",
"| | | | | | | | | | | | | | | | | | | | | | | | | | | | | | | | | | | | | | | | | | | | | | | | ",
"| | | | | | | | | | | | | | | | | | | | | | } } } | | | | | | | | | | | | | | | | | | | | | | | ",
"| | | | | | | | | | | | | | | | | | | | | ' a u p ] } | | | | | | | | | | | | | | | | | | | | | ",
"| | | | | | | | | | | | | | | | | | | | _ y 0 h l g $ [ | | | | | | | | | | | | | | | | | | | | ",
"| | | | | | | | | | | | | | | | | | | | 1.% : d m m b 3.| | | | | | | | | | | | | | | | | | | | ",
"| | | | | | | | | | | | | | | | | | | | A.K.k.I.Q.Q.Q.I.:.} | | | | | | | | | | | | | | | | | | ",
"| | | | | | | | | | | | | | | $.| | | } h.z.d.J K a.T 1 X.| | | | | | | | | | | | | | | | | | | ",
"| | | | | | | | | | | | | | ,.v.<.| | | | @.u.a.X .   - X.| | | | | | | | | | | | | | | | | | | ",
"| | | | | | | | | | | | | $.b.m.L.=.| | | V W P R Z H F { | } | $.$.| | | | | | | | | | | | | | ",
"| | | | | | | | | | | | | 0.c.n.l.e.} | | O.W E E P W V { | | } =.e.>.=.| | | | | | | | | | | | ",
"| | | | | | | | | | | | | O.L Y t.=.| | | :.d.E E I f.>.| | X.= O.s.r.>.| | | | | | | | | | | | ",
"| | | | | | | | | | | | | | @.N.A.$.| } ' N F.J.T H.U.4.} | | G x.p.q.| | | | | | | | | | | | | ",
"| | | | | | | | | | | | | | ` s v ; ' @ 0 h B U.W.^.D.q : | ) 5.F.g.} | | | | | | | | | | | | | ",
"| | | | | | | | | | | | | | | & e w q f p 7 h M 9.7.k 8 q + y j > | | | | | | | | | | | | | | | ",
"| | | | | | | | | | | | | | | | ] 6 7 ; } O 9 l l z l # 5 j j + } | | | | | | | | | | | | | | | ",
"| | | | | | | | | | | | | | | | | ( _ | | O 9 l l l l $ ( i + } | | | | | | | | | | | | | | | | ",
"| | | | | | | | | | | | | | | | | | | | | O 8 h l l z e _ ..} | | | | | | | | | | | | | | | | | ",
"| | | | | | | | | | | | | | | | | | | | } $ 3 f z l z 0 ) | | | | | | | | | | | | | | | | | | | ",
"| | | | | | | | | | | | | | | | | | | | ' 5 3 f z l z j + } | | | | | | | | | | | | | | | | | | ",
"| | | | | | | | | | | | | | | | | | | | ' 4 3 f c n n x g ; | | | | | | | | | | | | | | | | | | ",
"| | | | | | | | | | | | | | | | | | | | ' 4 t 8.Y.!.!.S.M +  .| } } | | | | | | | | | | | | | | ",
"| | | | | | | | | | | | | | | | | | | | 2.6.M.P.~.~.~.~.E.j.| | | | | | | | | | | | | | | | | | ",
"| | | | | | | | | | | | | | | | | | | $.C.Z.B.p.i.i.i.p.T.R.%.| | | | | | | | | | | | | | | | | ",
"| | | | | | | | | | | | | | | | | | | | e.P U x.G.G.G.G.f.h.$.| | | | | | | | | | | | | | | | | ",
"| | | | | | | | | | | | | | | | | | | | X.S U G.G.G.G.i.w.} | | | | | | | | | | | | | | | | | | ",
"| | | | | | | | | | | | | | | | | | | | | X.D E x.x.u.C | | | | | | | | | | | | | | | | | | | | ",
"| | | | | | | | | | | | | | | | | | | | | | O.L D L C } | | | | | | | | | | | | | | | | | | | | ",
"| | | | | | | | | | | | | | | | | | | | | | +.S C S X.| | | | | | | | | | | | | | | | | | | | | ",
"| | | | | | | | | | | | | | | | | | | | | | | C C = | | | | | | | | | | | | | | | | | | | | | | ",
"| | | | | | | | | | | | | | | | | | | | | | -.y.s.r.&.| | | | | | | | | | | | | | | | | | | | | ",
"| | | | | | | | | | | | | | | | | | | & & ( < 6.V.6., ) : ] | | | | | | | | | | | | | | | | | | ",
"| | | | | | | | | | | | | | | | | | | ' # i 5 o * o r i @ _ | | | | | | | | | | | | | | | | | | ",
"| | | | | | | | | | | | | | | | | | | | #.....[ } } #...#.| | | | | | | | | | | | | | | | | | | ",
"| | | | | | | | | | | | | | | | | | | | | | | | | | | | | | | | | | | | | | | | | | | | | | | | ",
"| | | | | | | | | | | | | | | | | | | | | | | | | | | | | | | | | | | | | | | | | | | | | | | | ",
"| | | | | | | | | | | | | | | | | | | | | | | | | | | | | | | | | | | | | | | | | | | | | | | | ",
"| | | | | | | | | | | | | | | | | | | | | | | | | | | | | | | | | | | | | | | | | | | | | | | | ",
"| | | | | | | | | | | | | | | | | | | | | | | | | | | | | | | | | | | | | | | %.*.*.;.;.*.*.%.| ",
"| | | | | | | | | | | | | | | | | | | | | | | | | | | | | | | | | | | | | | | $.$.$.$.$.$.$.$.| "
};
