/* XPM */
static char *dff4c041ff6b4d1be3bafc53f310402a8BRaK8d1dYskpqt4[] = {
/* columns rows colors chars-per-pixel */
"48 48 185 2 ",
"   c #343722",
".  c #29473A",
"X  c #504828",
"o  c #6E2459",
"O  c #74255C",
"+  c #5D356B",
"@  c #5C396A",
"#  c #533A6D",
"$  c #5A3B74",
"%  c #742A66",
"&  c #7D2969",
"*  c #7D2563",
"=  c #66326A",
"-  c #763873",
";  c #394E7E",
":  c #2E7B7F",
">  c #31797B",
",  c #4E6E43",
"<  c #41497D",
"1  c #454878",
"2  c #7C4377",
"3  c #5E7B6D",
"4  c #547C70",
"5  c #9A124A",
"6  c #92174E",
"7  c #891B55",
"8  c #981758",
"9  c #B40A4E",
"0  c #AC0F55",
"q  c #BD0B56",
"w  c #A3165E",
"e  c #B9105D",
"r  c #AA0D4C",
"t  c #9C2457",
"y  c #921C61",
"u  c #AB1A63",
"i  c #822462",
"p  c #8B2164",
"a  c #832B69",
"s  c #863773",
"d  c #B63B71",
"f  c #CA034F",
"g  c #C50750",
"h  c #CA0554",
"j  c #D50455",
"k  c #DB0153",
"l  c #C8115C",
"z  c #E70055",
"x  c #EB0055",
"c  c #EA085B",
"v  c #D91560",
"b  c #EA1B68",
"n  c #E9226D",
"m  c #E72E75",
"M  c #E33679",
"N  c #D23275",
"B  c #8B4975",
"V  c #AB407B",
"C  c #3E9269",
"Z  c #33817B",
"A  c #3A8779",
"S  c #3A8575",
"D  c #4B8559",
"F  c #41966A",
"G  c #489B6C",
"H  c #469771",
"J  c #689C69",
"K  c #679176",
"L  c #4AA563",
"P  c #5BA96B",
"I  c #57A265",
"U  c #56B16A",
"Y  c #5FB770",
"T  c #68A97B",
"R  c #7CA871",
"E  c #66B47A",
"W  c #6BB47C",
"Q  c #69BC7D",
"!  c #78B57F",
"~  c #F1D42A",
"^  c #92874D",
"/  c #8F9C50",
"(  c #9BAC65",
")  c #ABB24E",
"_  c #EEE452",
"`  c #3C4E81",
"'  c #2E5686",
"]  c #2B5985",
"[  c #255D8A",
"{  c #285C8B",
"}  c #345384",
"|  c #395083",
" . c #1F648E",
".. c #1F6D8B",
"X. c #1B6693",
"o. c #1B6894",
"O. c #176893",
"+. c #23618E",
"@. c #226C8D",
"#. c #2C6D8F",
"$. c #2A6A86",
"%. c #277286",
"&. c #2A7586",
"*. c #287487",
"=. c #377888",
"-. c #216592",
";. c #226B94",
":. c #2F6E96",
">. c #256E99",
",. c #326E95",
"<. c #2B7292",
"1. c #287399",
"2. c #337395",
"3. c #33759B",
"4. c #317893",
"5. c #2C7BA0",
"6. c #347BA1",
"7. c #4B618B",
"8. c #4A7194",
"9. c #67608D",
"0. c #7E6886",
"q. c #E93F80",
"w. c #A87E93",
"e. c #B87797",
"r. c #E24381",
"t. c #CC628F",
"y. c #ED6097",
"u. c #EF6EA0",
"i. c #3E818D",
"p. c #3D8092",
"a. c #41878F",
"s. c #54858E",
"d. c #519983",
"f. c #488892",
"g. c #599A96",
"h. c #639F9B",
"j. c #6AB782",
"k. c #71BD85",
"l. c #77B789",
"z. c #6CA79A",
"x. c #7BA296",
"c. c #68A285",
"v. c #548AAA",
"b. c #439EB7",
"n. c #6D82A6",
"m. c #6D97A9",
"M. c #4BA7BF",
"N. c #58A5BE",
"B. c #7BA0B8",
"V. c #77C58A",
"C. c #7AC38C",
"Z. c #58BFCD",
"A. c #68CDDA",
"S. c #79F7F9",
"D. c #B18E9E",
"F. c #AE9C9D",
"G. c #89B293",
"H. c #9D8FA9",
"J. c #8A9EAB",
"K. c #A49AA7",
"L. c #9EB5A2",
"P. c #8EABBE",
"I. c #93A7B9",
"U. c #A2BFAA",
"Y. c #EC83AE",
"T. c #ED8DB3",
"R. c #C0A8B3",
"E. c #C7B0B4",
"W. c #82CB93",
"Q. c #81C09A",
"!. c #A1D1AE",
"~. c #8BE1E9",
"^. c #CED4D0",
"/. c #D7D6DC",
"(. c #EDD2DE",
"). c #E5C9D5",
"_. c #CAE5D2",
"`. c #C4D7E3",
"'. c #F8CCE0",
"]. c #F1D8E4",
"[. c #DAEBE1",
"{. c #F2E7ED",
"}. c #F9E5ED",
"|. c #E1F2E7",
" X c #E8F3ED",
/* pixels */
"o.o.o.o.o.o.o.o.o.o.o.o.o.o.o.o.o.o.o.o.o.o.o.o.o.o.o.o.o.o.o.o.o.o.o.o.o.o.o.o.o.o.o.o.o.o.o.o.",
"o.o.o.o.o.o.o.o.o.o.o.o.o.o.o.o.o.o.o.o.o.o.o.o.o.o.o.o.o.o.o.o.o.o.o.o.o.o.o.o.o.o.o.o.o.o.o.o.",
"o.o.o.o.o.o.o.o.o.o.o.o.o.o.o.o.o.o.o.o.o.o.o.o.o.o.o.o.o.o.o.o.o.o.o.o.o.o.o.o.o.o.o.o.o.o.o.o.",
"o.o.o.o.o.o.o.o.o.o.o.o.o.o.o.o.o.o.o.o.o.o.o.o.o.o.o.o.#.#.o.o.o.o.o.o.o.o.o.o.o.o.o.o.o.o.o.o.",
"o.o.o.o.o.o.o.o.o.o.o.o.o.o.o.o.o.o.o.o.o.o.o.o.o.o.o.$.) ( 1.o.o.o.o.o.o.o.o.o.o.o.o.o.o.o.o.o.",
"o.o.o.o.o.o.o.o.o.o.o.o.o.o.o.o.o.o.o.o.o.o.o.o.o.o.o.3 ~ _ s.o.o.o.o.o.o.o.o.o.o.o.o.o.o.o.o.o.",
"o.o.o.o.o.o.o.o.o.o.o.o.o.o.o.o.o.o.o.o.o.o.o.o.o.o.o.$.^ / $.o.o.o.o.o.o.o.o.o.o.o.o.o.o.o.o.o.",
"o.o.o.o.o.o.o.o.o.o.o.o.o.o.o.o.X.o.o.o.o.o.o.o.o.o.o.o. . .o.o.o.o.o.o.o.o.o.o.o.o.o.o.o.o.o.o.",
"o.o.o.o.o.o.o.o.o.o.o.o.o.o.o.X.3.;.o.o.o.o.o.o.o.o.o.o.o.o.o.o.o.o.o.o.o.o.o.o.o.o.o.o.o.o.o.o.",
"o.o.o.o.o.o.o.o.o.o.o.o.o.o.o.5.A.N.;.o.o.o.o.o.o.o.o.o.o.o.o.o.o.o.o.o.o.o.o.o.o.o.o.o.o.o.o.o.",
"o.o.o.o.o.o.o.o.o.o.o.o.o.o.X.M.S.~.6.X.o.o.X.X.X.o.o.o.o.o.o.o.o.o.o.o.o.o.o.o.o.o.o.o.o.o.o.o.",
"o.o.o.o.o.o.o.o.o.o.o.o.o.o.o.1.Z.b.o.o.o.' p u a | X.o.o.o.o.o.o.o.o.o.o.o.o.o.o.o.o.o.o.o.o.o.",
"o.o.o.o.o.o.o.o.o.o.o.o.o.o.o.X.o.o.o.o.{ y 0 k z h + X.o.o.o.o.o.o.o.o.o.o.o.o.o.o.o.o.o.o.o.o.",
"o.o.o.o.o.o.o.o.o.o.o.o.o.o.@.o.o.o.o.o.7.2 1 d m m N 9.o.o.o.o.o.;.;.o.o.o.o.o.o.o.o.o.o.o.o.o.",
"o.o.o.o.o.o.o.o.o.o.o.o.o.%.> o.<.4.o.o.I.P.m./.{.{.{./.3.o.o.o.o.<.f.4.<.o.o.o.o.o.o.o.o.o.o.o.",
"o.o.o.o.o.o.o.o.o.o.o.o.o.Z C @.p.f.o.X.v.B.x.K K l.T 4 @.o.o.@.: *.g.g.i.o.o.o.o.o.o.o.o.o.o.o.",
"o.o.o.o.o.o.o.o.o.o.o.o.o.*.G H d.;.o.o.o.=.j.! X .   , ..o.o.o.A k.Q.f.o.o.o.o.o.o.o.o.o.o.o.o.",
"o.o.o.o.o.o.o.o.o.o.o.o.o.o.=.F.K.;.o.o.o.A Y P R D J J ..o.o.[ 0.E.m.o.o.o.o.o.o.o.o.o.o.o.o.o.",
"o.o.o.o.o.o.o.o.o.o.o.o.o.o.+.a l $ [ o.o.&.E W E P E S o.o. .& j - -.o.o.o.o.o.o.o.o.o.o.o.o.o.",
"o.o.o.o.o.o.o.o.o.o.o.o.o.o.o.{ i h w | O.3.x.W W I c.2.X.| & j & +.o.o.o.o.o.o.o.o.o.o.o.o.o.o.",
"o.o.o.o.o.o.o.o.o.o.o.o.o.o.o.o.[ i k e i B R.U.T !.).V p q h * [ o.o.o.o.o.o.o.o.o.o.o.o.o.o.o.",
"o.o.o.o.o.o.o.o.o.o.o.o.o.o.o.o.o.[ * j z k r.(.[. XY.z f 8 +  .o.o.o.o.o.o.o.o.o.o.o.o.o.o.o.o.",
"o.o.o.o.o.o.o.o.o.o.o.o.o.o.o.o.o.o.[ # 8 q k q.u.y.v 0 + ] o.o.o.o.o.o.o.o.o.o.o.o.o.o.o.o.o.o.",
"o.o.o.o.o.o.o.o.o.o.o.o.o.o.o.o.o.o.o.o.[ = 9 z x z k + o.o.o.o.o.o.o.o.o.o.o.o.o.o.o.o.o.o.o.o.",
"o.o.o.o.o.o.o.o.o.o.o.o.o.o.o.o.o.o.o.o.o.@ 9 z z z z = o.o.o.o.o.o.o.o.o.o.o.o.o.o.o.o.o.o.o.o.",
"o.o.o.o.o.o.o.o.o.o.o.o.o.o.o.o.o.o.o.o.o.@ r k z z x 8 { o.o.o.o.o.o.o.o.o.o.o.o.o.o.o.o.o.o.o.",
"o.o.o.o.o.o.o.o.o.o.o.o.o.o.o.o.o.o.o.o.X.= 5 g x z x 0 ] o.o.o.o.o.o.o.o.o.o.o.o.o.o.o.o.o.o.o.",
"o.o.o.o.o.o.o.o.o.o.o.o.o.o.o.o.o.o.o.o.} 7 5 g x z x j $ X.o.o.o.o.o.o.o.o.o.o.o.o.o.o.o.o.o.o.",
"o.o.o.o.o.o.o.o.o.o.o.o.o.o.o.o.o.o.o.o.; 6 5 g b n n c h < o.o.o.o.o.o.o.o.o.o.o.o.o.o.o.o.o.o.",
"o.o.o.o.o.o.o.o.o.o.o.o.o.o.o.o.o.o.o.o.} 6 t t.'.}.}.T.M $ o.o.X.X.o.o.o.o.o.o.o.o.o.o.o.o.o.o.",
"o.o.o.o.o.o.o.o.o.o.o.o.o.o.o.o.o.o.o.o.8.w.D.^.|.|.|.|.].n.o.o.o.o.o.o.o.o.o.o.o.o.o.o.o.o.o.o.",
"o.o.o.o.o.o.o.o.o.o.o.o.o.o.o.o.o.o.o.;.J.L.G.l.k.k.k.C._.`.1.o.o.o.o.o.o.o.o.o.o.o.o.o.o.o.o.o.",
"o.o.o.o.o.o.o.o.o.o.o.o.o.o.o.o.o.o.o.o.f.P U C.W.W.W.W.z.v.o.o.o.o.o.o.o.o.o.o.o.o.o.o.o.o.o.o.",
"o.o.o.o.o.o.o.o.o.o.o.o.o.o.o.o.o.o.o.o.@.F U W.W.W.W.k.a.X.o.o.o.o.o.o.o.o.o.o.o.o.o.o.o.o.o.o.",
"o.o.o.o.o.o.o.o.o.o.o.o.o.o.o.o.o.o.o.o.o.%.H Q V.V.j.Z o.o.o.o.o.o.o.o.o.o.o.o.o.o.o.o.o.o.o.o.",
"o.o.o.o.o.o.o.o.o.o.o.o.o.o.o.o.o.o.o.o.o.o.&.L F L Z o.o.o.o.o.o.o.o.o.o.o.o.o.o.o.o.o.o.o.o.o.",
"o.o.o.o.o.o.o.o.o.o.o.o.o.o.o.o.o.o.o.o.o.o.%.F Z F @.o.o.o.o.o.o.o.o.o.o.o.o.o.o.o.o.o.o.o.o.o.",
"o.o.o.o.o.o.o.o.o.o.o.o.o.o.o.o.o.o.o.o.o.o.o.Z Z : o.o.X.X.o.o.o.o.o.o.o.o.o.o.o.o.o.o.o.o.o.o.",
"o.o.o.o.o.o.o.o.o.o.o.o.o.o.o.o.o.o.o.o.o.o.1.h.z.g.>.} + ` o.o.o.o.o.o.o.o.o.o.o.o.o.o.o.o.o.o.",
"o.o.o.o.o.o.o.o.o.o.o.o.o.o.o.o.o.o.o.< ` ' 2 e.H.e.s w = X.o.o.o.o.o.o.o.o.o.o.o.o.o.o.o.o.o.o.",
"o.o.o.o.o.o.o.o.o.o.o.o.o.o.o.o.o.o.o.} % p 7 o 1 O % < X.o.o.o.o.o.o.o.o.o.o.o.o.o.o.o.o.o.o.o.",
"o.o.o.o.o.o.o.o.o.o.o.o.o.o.o.o.o.o.o.o.-.+.+. .X.X.X.o.o.o.o.o.o.o.o.o.o.o.o.o.o.o.o.o.o.o.o.o.",
"o.o.o.o.o.o.o.o.o.o.o.o.o.o.o.o.o.o.o.o.o.o.o.o.o.o.o.o.o.o.o.o.o.o.o.o.o.o.o.o.o.o.o.o.o.o.o.o.",
"o.o.o.o.o.o.o.o.o.o.o.o.o.o.o.o.o.o.o.o.o.o.o.o.o.o.o.o.o.o.o.o.o.o.o.o.o.o.o.o.o.o.o.o.o.o.o.o.",
"o.o.o.o.o.o.o.o.o.o.o.o.o.o.o.o.o.o.o.o.o.o.o.o.o.o.o.o.o.o.o.o.o.o.o.o.o.o.o.o.o.o.o.o.o.o.o.o.",
"o.o.o.o.o.o.o.o.o.o.o.o.o.o.o.o.o.o.o.o.o.o.o.o.o.o.o.o.o.o.o.o.o.o.o.o.o.o.o.o.o.o.o.o.o.o.o.o.",
"o.o.o.o.o.o.o.o.o.o.o.o.o.o.o.o.o.o.o.o.o.o.o.o.o.o.o.o.o.o.o.o.o.o.o.o.o.o.o.:.,.,.2.2.,.,.:.o.",
"o.o.o.o.o.o.o.o.o.o.o.o.o.o.o.o.o.o.o.o.o.o.o.o.o.o.o.o.o.o.o.o.o.o.o.o.o.o.o.;.;.;.;.;.;.;.;.o."
};
