/* XPM */
static char *xpm_[] = {
/* columns rows colors chars-per-pixel */
"48 48 256 2 ",
"   c #020204",
".  c #170304",
"X  c #0B100E",
"o  c #2A1710",
"O  c #342C16",
"+  c #031427",
"@  c #020933",
"#  c #081835",
"$  c #090529",
"%  c #51300B",
"&  c #78381B",
"*  c #553329",
"=  c #75352E",
"-  c #4E4E32",
";  c #6E5221",
":  c #043A52",
">  c #233F43",
",  c #011E4A",
"<  c #793B67",
"1  c #703E6F",
"2  c #623B58",
"3  c #334C50",
"4  c #00615F",
"5  c #36695C",
"6  c #085C7A",
"7  c #1A5A76",
"8  c #125369",
"9  c #2A596C",
"0  c #245A77",
"q  c #37576D",
"w  c #08687C",
"e  c #1A677A",
"r  c #05767D",
"t  c #076C6D",
"y  c #23667A",
"u  c #2A746D",
"i  c #064E5C",
"p  c #4F4E52",
"a  c #6F4D53",
"s  c #496C52",
"d  c #475964",
"f  c #4F4E72",
"g  c #6B4866",
"h  c #576373",
"j  c #676371",
"k  c #B81819",
"l  c #8F2D14",
"z  c #BA2817",
"x  c #AC341B",
"c  c #B6300C",
"v  c #951C2C",
"b  c #B4112E",
"n  c #972D22",
"m  c #90322E",
"M  c #AC282A",
"N  c #B72839",
"B  c #B7322E",
"V  c #8F0000",
"C  c #CD1313",
"Z  c #F80B1B",
"A  c #E41B1A",
"S  c #FC171A",
"D  c #E8140E",
"F  c #CC241B",
"G  c #E52419",
"H  c #D60A28",
"J  c #C61937",
"K  c #D31A35",
"L  c #CE1229",
"P  c #FC0A29",
"I  c #E61927",
"U  c #F91626",
"Y  c #E81833",
"T  c #F91734",
"R  c #F0082F",
"E  c #C92529",
"W  c #D62628",
"Q  c #C63228",
"!  c #C42936",
"~  c #D52E32",
"^  c #FE2C37",
"/  c #EE2A2D",
"(  c #8F4B34",
")  c #B5672D",
"_  c #CC6A12",
"`  c #F25232",
"'  c #E26C28",
"]  c #D65C26",
"[  c #8F3853",
"{  c #B52556",
"}  c #B2324C",
"|  c #893E65",
" . c #A82C64",
".. c #AC1443",
"X. c #EF1645",
"o. c #D33649",
"O. c #ED2F49",
"+. c #885150",
"@. c #A54356",
"#. c #8B506F",
"$. c #A44C69",
"%. c #847149",
"&. c #CD4E4C",
"*. c #F14855",
"=. c #F15051",
"-. c #D3634F",
";. c #F36858",
":. c #D45668",
">. c #FA4965",
",. c #F15469",
"<. c #D07273",
"1. c #E56666",
"2. c #EE6D6D",
"3. c #0B8763",
"4. c #F6B01B",
"5. c #ECB32B",
"6. c #DD9F2B",
"7. c #F4C72C",
"8. c #EADA23",
"9. c #B5884D",
"0. c #A39A6A",
"q. c #CB8A77",
"w. c #DFA962",
"e. c #D0C965",
"r. c #F4E072",
"t. c #095A8A",
"y. c #1C5E8B",
"u. c #155C88",
"i. c #075D91",
"p. c #145C93",
"a. c #195C95",
"s. c #275B8B",
"d. c #385B89",
"f. c #265A9A",
"g. c #335997",
"h. c #0C648C",
"j. c #026D8E",
"k. c #086A88",
"l. c #13648C",
"z. c #1B658D",
"x. c #146C8D",
"c. c #1B6A8D",
"v. c #196884",
"b. c #08748B",
"n. c #17758A",
"m. c #056B94",
"M. c #0D6C94",
"N. c #0A6798",
"B. c #146592",
"V. c #1C6694",
"C. c #156B93",
"Z. c #1C6A95",
"A. c #1C659B",
"S. c #136B9B",
"D. c #1D6B99",
"F. c #12669D",
"G. c #067696",
"H. c #12729B",
"J. c #1B709A",
"K. c #177694",
"L. c #25658D",
"P. c #28688A",
"I. c #336585",
"U. c #226594",
"Y. c #2B6394",
"T. c #216A95",
"R. c #2B6C95",
"E. c #22659B",
"W. c #226B9A",
"Q. c #2B6C9C",
"!. c #2E659E",
"~. c #366699",
"^. c #217196",
"/. c #24729B",
"(. c #2C729C",
"). c #277A9B",
"_. c #33749C",
"`. c #367A9B",
"'. c #2E7788",
"]. c #1A59A1",
"[. c #2B5AA4",
"{. c #385FAE",
"}. c #0C6BA3",
"|. c #136CA2",
" X c #196BA6",
".X c #0879A2",
"XX c #1776A2",
"oX c #186DB2",
"OX c #2465A2",
"+X c #266AA4",
"@X c #2875A4",
"#X c #3275A1",
"$X c #367AA6",
"%X c #276BB6",
"&X c #485288",
"*X c #54548D",
"=X c #4F708B",
"-X c #437CA4",
";X c #486DA7",
":X c #645698",
">X c #0079CC",
",X c #467AC3",
"<X c #996992",
"1X c #F05C8E",
"2X c #F87191",
"3X c #0C8695",
"4X c #2A8797",
"5X c #30878F",
"6X c #158BAD",
"7X c #3C82AA",
"8X c #2C8AAA",
"9X c #488AB4",
"0X c #4A8BAF",
"qX c #5B8A9A",
"wX c #5FA5CA",
"eX c #AD8E8E",
"rX c #AEBDB1",
"tX c #9E9FA7",
"yX c #CE9197",
"uX c #E3858A",
"iX c #C5A793",
"pX c #F497A5",
"aX c #C8B8BA",
"sX c #D8B1B3",
"dX c #EBB2A4",
"fX c #B4D0B6",
"gX c #F7CD94",
"hX c #EEFA98",
"jX c #C7CFB7",
"kX c #EBCDB1",
"lX c #EBE09E",
"zX c #92ABCE",
"xX c #AAA9E5",
"cX c #D5B5CD",
"vX c #F0B0CE",
"bX c #9DD0D0",
"nX c #B5CADB",
"mX c #BEE7DE",
"MX c #ABC8E6",
"NX c #D5D2CF",
"BX c #F4CCCD",
"VX c #D4EBDA",
"CX c #F0F0D6",
"ZX c #F6D6EA",
"AX c #D8FCFA",
"SX c #D0EFF3",
"DX c #FFE6E5",
"FX c #E9FBE3",
"GX c #FBFBE6",
"HX c #FDECFF",
"JX c #F4EBFF",
"KX c #ECFDFD",
"LX c #E9FEF7",
"PX c #FEFCFE",
"IX c #F7FAFA",
"UX c #E7E7ED",
/* pixels */
"Z.Z.Z.T.Z.D.Z.Z.Z.T.T. XE.T.Z.Z.n.3XH.p..XM.P.L.e e v.v.x.K.L.d.~.s.z.J.H.x.Z.E.Z.Z.Z.Z.T.T.D.D.",
"Z.Z.Z.D.Z.Z.Z.T.Z.Z.D.E.OXD.Z.Z.s.c.f.f. Xj.I.f a a 2 1 f x.G.M.u.h.C.t.h.C.Q.u.C.C.Z.T.W.T.Z.D.",
"Z.Z.T.Z.T.Z.D.Z.Z.Z.D.D.D.D.Z.T.v.V. X[.OXb.e | Y o.K X.{ f M.|.A.@X$XV.).T.c.6 C.C.Z.D.T.Z.Z.Z.",
"Z.D.Z.Z.Z.Z.D.Z.V.Z.Z.C.S.Z.Z.V.b.V.|.a.~.L.5 a M x B E m d r G.[.[.f.f.+Xy.V.8XC.Z.Z.T.T.T.Z.D.",
"Z.Z.D.T.D.D.Z.Z.Z.Z.Z.Z.C.Z.Z.U.m.~.C.M.&X| [ M I P U I K } [ g .X}.i. X@X+Xt.+XJ.Z.D.Z.T.T.Z.D.",
"D.Z.Z.Z.Z.Z.Z.T.V.Z.C.x.x.C.V.V.E.~.l.r d } H W T P P W W I J = 3XG.k.j.H.D.a.f.J.D.Z.V.U.Z.D.Z.",
"Z.T.Z.Z.T.Z.D.Z.U.V.x.x.x.x.c.U.XX(.q d - N D W I U U W W I E n f 3 =X'.`.6 _.9XJ.D.Z.Z.V.T.Z.Z.",
"Z.Z.Z.Z.D.Z.Z.Z.V.V.C.b.n.C.Z.U.|.~.< { J I Z I I A I U T T Y ~ b } ZXHXSX0 v.L.J.K.Z.Z.Z.V.Z.Z.",
"Z.Z.T.Z.Z.Z.Z.T.OXS.C.x.Y.U.G.Y.g.u [ H C ^ Z Q D / Z I S G C / N v BXIXAXe R.!.Z.D.T.Z.Z.Z.Z.Z.",
"Z.D.Z.Z.D.Z.Z.Z.Z.C.z.S.A.C.b.f :X* yXuXq.pX2X2.q.q.! k S F z ( < 2 tXbXwX6 z.s.Z.Z.Z.Z.Z.Z.Z.Z.",
"Z.Z.Z.D.Z.^.Z.D.n.c.Y.|.}.S.y [ o.V CXIXPXPXLXBXcXrXB k ^ L b a ~.g.R./.e w U._.Z.T.Z.Z.Z.Z.Z.Z.",
"Z.T.Z.Z.Z.Z.Z.T.c.Z.Y.S.D.c.e < B k ZXLXUXLXAXBXcXNX} C W } b #.}.}.N.B.C.J.Z.T.Z.Z.Z.Z.Z.Z.Z.Z.",
"D.Z.Z.Z.Z.Z.Z.Z.oX XT.n.I.s.M.d.- f f j %.e.e.r.UXFXB C m j 2 *XG.XXD.V.#XW.a.p.Z.Z.Z.Z.Z.Z.Z.Z.",
"T.Z.D.Z.Z.T.Z.Z.%X}.c.n.I.Y.G.f.3X.X@ . % 5.7.r.KXFX! b = c.R.4X@XT.V.u.E.p.D.@XZ.V.Z.V.Z.V.V.V.",
"Z.Z.Z.Z.D.Z.Z.Z. XC.T.n.Q.D.G.*X&Xf O % ; e.w.r.KXCX&.o.$.w x.L.i.p.T.T.).V.Z.Z.Z.V.V.Z.C.V.V.Z.",
"Z.D.Z.T.Z.Z.T.D.e v.P.H.|.H.x.1 J k 5.5.kXGXGXIXHXKXcXcXcXm.C.d.oX|.|.D.h.c.c.x.V.V.C.V.Z.z.Z.V.",
"Z.D.Z.Z.Z.Z.Z.Z.S.e t k.oX8X0 #.P C 4.8.7.hXVXJXDXPXVXjXbXM.h.9 +XV.V.l.Z.Z.Z.V.V.Z.V.Z.V.Z.Z.Z.",
"Z.T.Z.Z.Z.Z.Z.Z.XXT.P.V.].}.7 <X2X<.gXgXkXGXIXIXVXVXeX<.eXK.G.v.OXA.V.V.Z.Z.Z.V.Z.V.Z.V.Z.V.B.Z.",
"Z.Z.Z.Z.Z.Z.Z.Z.}.T.Y.~.[.i.k.MXJXVXIXZXUXKXIXUXNXcX[ H b d..Xp.E.D.Z.Z.Z.Z.Z.Z.Z.V.x.V.V.Z.V.V.",
"Z.Z.Z.Z.Z.Z.V.Z.S.D.z.g.%XXXB.MXIXAXLXGXLXLXPXZXcXiX&.C v q x.E.S.S.Z.D.T.T.Z.Z.Z.Z.V.Z.Z.Z.Z.Z.",
"Z.Z.Z.Z.Z.Z.Z.Z.T.K.K.z.x.b.7 tXcXBXCXFXGXNXNXpX<.1.*.~ @.= g *XS.S.D.T.T.T.D.J.Z.Z.Z.Z.Z.Z.Z.Z.",
"Z.V.Z.V.V.Z.V.Z.s.3XK.l.w r 0 zXfXNXJXKXHXnXfX<.O.Z Z W / C J  .N.S.D.T.T.D.Z.D.Z.Z.T.Z.Z.Z.Z.Z.",
"C.V.V.Z.Z.V.Z.V.Y.G.H.Y.w n.7 wXbXbXUXZXZXsXiXq.O.~ ~ o./ G Q $.N.N.Z.T.T.c.Z.C.Z.Z.Z.Z.Z.Z.Z.D.",
"V.Z.Z.V.Z.B.Z.V.Q.m.a.;X^.K.6 6X=Xf $.O.=.@.*.,.;.-.-.>.^ / c +.m.M.C.T.U.U.Z.Z.Z.Z.Z.Z.D.Z.Z.T.",
"Z.Z.Z.Z.C.V.C.Z. Xk.~.d.T.K.w OXy t $.R ;.l Q O.1.1X2.=.>.O.A a G.Z.W.T.W.Z.Z.Z.Z.Z.Z.Z.D.Z.D.Z.",
"Z.B.V.C.Z.Z.Z.Z.y.j.^.v.C.Z.L.*X#.g :.I ` z F O.;.,.1.;.>.T P @.G.C.T.U.D.K.D.Z.Z.D.T.Z.Z.Z.T.Z.",
"Z.x.Z.Z.Z.J.Z.Z.s.XXW.j.XXQ.-X<X@.! :.~ ^ ^ I >.;.,.1.1.:.L R  .m.C.V.U.Z.Z.D.D.Z.Z.D.Z.Z.D.D.Z.",
"Z.Z.Z.Z.Z.Z.D.D.~. Xi.k.m.Q.y @.c W / z A U H O.;.>.;.;.,.W ^  .M.C.V.U.T.D.C.W.D.T.Z.T.Z.Z.Z.Z.",
"Z.C.Z.Z.Z.Z.Z.Z.L.F.a.3XT.wX4X0.5.6.` ` _ ' ` -.1.1.;.;.&.n x * M.K.E.R.Z.Z.Z.T.Z.Z.D.Z.Z.Z.D.T.",
"D.Z.Z.Z.Z.Z.D.K.K.+X$X4Xs.$Xr 0.8.7._ _ ) ) ' 9.2.1X1.>.-.l ( 3 G.K.T.W.D.K.Z.Z.Z.Z.Z.T.Z.T.Z.Z.",
"Z.K.Z.Z.V.c.Z.c.l.[.7X4X=X9X8X0.4.' 6.9.9.-.9.9.:.1X:.2.:.* = f M.H.T.E.D.Z.Z.D.T.Z.Z.Z.Z.Z.Z.Z.",
"D.Z.Z.V.C.Z.B.B.#X{.7X3.qX{.5X( c c iXfXvXdXaXBXDXPXFXGXVXu 5 ).M.C.V.U.Z.K.Z.T.Z.Z.D.Z.D.Z.Z.Z.",
"c.T.^.l.@XB.V.@X).-X-X-X^.T.&X:XH b dXfXUXNXnXVXJXCXGXHXAXk.a.[.+XW.D.D.V.D.D.D.D.Z.Z.Z.Z.Z.T.D.",
"Z.K.l.l.z.Z.T.@X4X`.$X(.C.l.~.*X$.+.q.eXyX<.2XlXhXhXfXxXzXr A.+XD.D.D.D.D.D.D.T.Z.Z.D.T.Z.Z.Z.Z.",
"J.Z.l.Z.u.R._._.4X7X_.U.h.k.c.R.8 4 - v m C Z ' 8.6.5 [.V.r c.E.V.S.D.D.D.Z.D.D.Z.D.Z.Z.Z.Z.Z.Z.",
"J.B.Z.^.z.(.0X_.@X).Y.U.B.M.x.D.Y.3X= M n D S ' 4.5.s  X].3X).P.V.V.V.Z.D.D.V.Z.T.Z.Z.Z.Z.Z.W.Z.",
"D.u.#X^.7X`.0XR.^.Y.Y.Y.E.D.J.K.E.).= m n D R ] ] ] s }.].F.U.y V.V.D.D.D.Z.Z.D.Z.Z.Z.Z.D.T.D.Z.",
"T.u.$XU.9X_.0XL.z.y.U.E.E.T.S.D.G.K.* ; n Z R S X.W s .X+X X#X5XS.D.Z.D.D.D.Z.A.T.D.Z.Z.Z.Z.Z.Z.",
"_.P.0XL.9X#X$Xz.y.z.C.S.D.E.V.D.W.y & & l / o.I X.I d oXf.L.l.k.T.D.D.D.Z.D.D.D.Z.Z.Z.T.Z.Z.D.Z.",
"-X0X`.P.9X7X).V.z.C.XXXXS.A.A.Z.@X6 n l l S ~ D S H f >Xf.R.k.j.W.W.W.D.Z.D.D.T.Z.D.D.Z.Z.D.T.Z.",
"(.7X9X$X).).@X).y.l.x.h.B.D.R.P.y 9 ( [ M S I S U k a '.M.XX@Xb.z.Z.Z.D.Z.J.D.C.Z.Z.Z.T.Z.D.Z.Z.",
"(.#X@Xz.t.h.h.l.T.D.C.B. X+XL.7 8 : O O * z B F z m p 9 8 Q.x.k.T.Z.T.Z.Z.D.C.Z.Z.T.Z.D.Z.Z.Z.T.",
"$X$X(.z.l.Z.Z.x.^.^.Z.x.D.#X0 : # # X X O l m M n = o $ @ g.u.H.T.T.Z.Z.D.Z.C.Z.Z.Z.Z.Z.Z.Z.Z.Z.",
"W.W.T.V.Z./.D.B.D.^.x.l.D.#X7 : $ $ .   o & = & = * X   # I.Y.S.W.Z.Z.Z.C.Z.Z.Z.Z.Z.Z.Z.Z.Z.Z.Z.",
"l.V.V.Z.T.T.Z.Z.W.^.C.l.D.#XP.8 i 3 X   . O % O * o p > 9 R.@Xp.D.Z.Z.C.Z.z.Z.Z.Z.Z.Z.Z.Z.Z.Z.V.",
"V.D.W.T.S.V.D.W.V.Z.x.l.|.+XR.P.c.3 #   .   . X .   q P.c.h.@Xp.Z.Z.C.Z.Z.V.V.V.B.Z.V.V.Z.Z.z.Z.",
"V.V.V.V.V.V.V.A.z.z.l.N.p.|.V.c.y.f , $ # @ . + + # 0 y.M.m.F.V.C.C.Z.Z.Z.V.V.Z.Z.V.V.Z.V.Z.Z.Z.",
"D.S.D.S.W.W.Z.T.T.v.x.H.oX}.B.l.|.=X6 t n.t.3 e i e Y.E.%XoXt.p.l.B.C.Z.Z.T.Z.V.V.Z.V.x.Z.V.Z.V."
};
