/* XPM */
static char *xpm_[] = {
/* columns rows colors chars-per-pixel */
"48 48 256 2 ",
"   c #02030B",
".  c #070706",
"X  c #170206",
"o  c #051507",
"O  c #030815",
"+  c #150715",
"@  c #001214",
"#  c #061719",
"$  c #141313",
"%  c #00210D",
"&  c #0A1625",
"*  c #0C2433",
"=  c #2C2936",
"-  c #383719",
";  c #4D1E10",
":  c #4F2211",
">  c #762C08",
",  c #74330F",
"<  c #4F2D30",
"1  c #762A3A",
"2  c #723331",
"3  c #621A22",
"4  c #13413E",
"5  c #624812",
"6  c #5C6202",
"7  c #754730",
"8  c #6D613C",
"9  c #545224",
"0  c #1D3E45",
"q  c #3A3445",
"w  c #743951",
"e  c #753D76",
"r  c #413F4D",
"t  c #2E515C",
"y  c #185978",
"u  c #365A78",
"i  c #28556C",
"p  c #066A79",
"a  c #176879",
"s  c #047278",
"d  c #1B757A",
"f  c #0D696B",
"g  c #276779",
"h  c #366977",
"j  c #206763",
"k  c #135B58",
"l  c #524B4E",
"z  c #694A50",
"x  c #465B7A",
"c  c #495366",
"v  c #6B4B6D",
"b  c #7B4C68",
"n  c #704C72",
"m  c #516173",
"M  c #5F6A61",
"N  c #B01A0F",
"B  c #8C2C0E",
"V  c #B32614",
"C  c #B3280E",
"Z  c #B61428",
"A  c #933726",
"S  c #993835",
"D  c #8B2F29",
"F  c #BC252C",
"G  c #B22C3A",
"H  c #A5343C",
"J  c #AA2C2D",
"K  c #9F1C23",
"L  c #D80507",
"P  c #D61307",
"I  c #CA0514",
"U  c #DD0F1F",
"Y  c #CB1A1D",
"T  c #D81519",
"R  c #CB1009",
"E  c #E70706",
"W  c #FB0619",
"Q  c #E61A19",
"!  c #F9171A",
"~  c #ED1011",
"^  c #C62815",
"/  c #CE2A0C",
"(  c #E52510",
")  c #C81B26",
"_  c #D91727",
"`  c #D51634",
"'  c #D00A2F",
"]  c #FD0D25",
"[  c #FB092B",
"{  c #E91528",
"}  c #F91828",
"|  c #FD0537",
" . c #FA1734",
".. c #E81231",
"X. c #C72729",
"o. c #D92728",
"O. c #C52A36",
"+. c #D72738",
"@. c #CA342C",
"#. c #E62727",
"$. c #EE2B2D",
"%. c #A9433B",
"&. c #935F1C",
"*. c #C67D1F",
"=. c #E05536",
"-. c #973647",
";. c #8C384E",
":. c #A83858",
">. c #B03248",
",. c #8F3364",
"<. c #EF154B",
"1. c #D92344",
"2. c #C92D46",
"3. c #EB274D",
"4. c #8D4551",
"5. c #AC454D",
"6. c #8B4566",
"7. c #A04860",
"8. c #B76D69",
"9. c #CD5251",
"0. c #E17841",
"q. c #D05A77",
"w. c #D26A72",
"e. c #E87470",
"r. c #E05357",
"t. c #008A7B",
"y. c #E29D29",
"u. c #A9CB38",
"i. c #D2C833",
"p. c #F5C921",
"a. c #E9E509",
"s. c #989C6D",
"d. c #A89A5C",
"f. c #DAA159",
"g. c #CC8C78",
"h. c #EB8E72",
"j. c #EDD94F",
"k. c #EFE468",
"l. c #98932B",
"z. c #155D8A",
"x. c #105390",
"c. c #275986",
"v. c #3B5D87",
"b. c #2B5B99",
"n. c #385994",
"m. c #3D4D81",
"M. c #086789",
"N. c #15648C",
"B. c #1C638C",
"V. c #146B8C",
"C. c #1B6A8C",
"Z. c #186A85",
"A. c #05768B",
"S. c #16728A",
"D. c #086A95",
"F. c #166493",
"G. c #1A6693",
"H. c #156C94",
"J. c #1C6A95",
"K. c #126499",
"L. c #1C659B",
"P. c #146C9A",
"I. c #1D6B99",
"U. c #0B7393",
"Y. c #067697",
"T. c #157297",
"R. c #2A638B",
"E. c #226D8B",
"W. c #256589",
"Q. c #237387",
"!. c #226594",
"~. c #216C95",
"^. c #22649B",
"/. c #2C649A",
"(. c #216D9A",
"). c #2B6A94",
"_. c #366798",
"`. c #23719C",
"'. c #247196",
"]. c #327B9E",
"[. c #366885",
"{. c #1A5DAB",
"}. c #0C5CB5",
"|. c #2B5BA9",
" X c #2E5CB2",
".X c #096AA6",
"XX c #1C6BA3",
"oX c #1967A4",
"OX c #0575A6",
"+X c #1C62B2",
"@X c #1275AF",
"#X c #236CA2",
"$X c #216DAB",
"%X c #2874A2",
"&X c #326AAC",
"*X c #485793",
"=X c #4762AC",
"-X c #5E52A2",
";X c #0F69C1",
":X c #EC7385",
">X c #CC7C87",
",X c #05838F",
"<X c #009AA3",
"1X c #3A83A7",
"2X c #4289AB",
"3X c #5587BA",
"4X c #7DA2BD",
"5X c #618EA3",
"6X c #6891C5",
"7X c #B29890",
"8X c #97AB93",
"9X c #A5B394",
"0X c #9891B1",
"qX c #B2B3B2",
"wX c #99A2A6",
"eX c #D39095",
"rX c #E68889",
"tX c #F8868F",
"yX c #F1AC9B",
"uX c #FA97A6",
"iX c #E790A3",
"pX c #CFAEB2",
"aX c #F2B0AF",
"sX c #CD9BA3",
"dX c #95C1A8",
"fX c #B9C4BC",
"gX c #B6C4AB",
"hX c #A6C297",
"jX c #C9C7B2",
"kX c #8D9BC4",
"lX c #BBB5C4",
"zX c #98B5DD",
"xX c #F0ADC3",
"cX c #CEB8C4",
"vX c #B4D2C2",
"bX c #B0D5EE",
"nX c #B8EBEA",
"mX c #88CFDC",
"MX c #DAC7C7",
"NX c #C5D7D7",
"BX c #C6D0CE",
"VX c #EAD5D4",
"CX c #DDF4DD",
"ZX c #FCEBDE",
"AX c #F0FADB",
"SX c #D2D6EE",
"DX c #F7D6E6",
"FX c #DAFEFB",
"GX c #CEF9EC",
"HX c #F7F9E7",
"JX c #FDE9F8",
"KX c #E8F9F9",
"LX c #FFF4FD",
"PX c #F3FDFE",
"IX c #FAF7F8",
"UX c #F1F4E7",
/* pixels */
"J.J.J.J.I.J.~.J.C.J.C.~.(.`.#X(.#Xa SXFXCXK F ;.{.OXn.C.,XS.H./.J.J.I.I.(.!.~.~.N.G.G.G.G.J.J.J.",
"J.J.J.J.J.J.J.I.~.C.J.J.G.J.F.F.OXp SXLXJXF J w c.V.n.W.M.C.V.B.C.J.I.J.(.I.~.C.G.G.G.G.J.J.J.J.",
"J.J.J.I.J.J.J.J.J.J.J.J.I.I.J.G..Xp kXzXlXZ F -.z c u V.J.b.A.C.J.J.I.I.J.I.J.J.G.G.G.J.J.J.J.J.",
"I.J.J.~.~.I.J.J.J.G.J.J.~.(.I.I.L.M._.F.h K _ F F -.c U.L.oXU.R.!.J.J.I.L.I.G.H.G.J.G.J.J.I.J.J.",
"J.J.I.J.J.J.I.J.I.J.J.J.J.I.G.N.K.U./.F.u >.#.) ~ ' z u n.L.P.I.J.J.J.I.I.I.J.G.G.J.J.J.J.J.J.J.",
"J.J.J.J.J.J.J.J.I.J.J.I.~.~.I.J./.M.R.@X[.G T _ Q { >.,.e v.T.Y.S.J.I.I.J.I.J.J.J.J.J.I.J.J.I.J.",
"(.J.J.~.J.J.^.J.L.L.I.J.'.`.'.'./.M.y N.h Z T o.o.#.o.) S c x U.T.H.P.P.P.J.!.E.J.J.J.J.J.J.I.~.",
"J.J.I.J.J.J.J.J.I.I.J.J.J.C.N.N.A.A.*Xu v X.X.%.$.#.( T D l v [.U.H.P.I.J.(.~.!.J.J.J.J.J.J.J.J.",
"J.I.J.~.~.J.J.J.J.J.J.J.G.C.F.N.V./.w C 1...} / W ( P ] ) S :.e !.(.^.J.I.I.P.H.J.J.J.J.J.I.J.~.",
"J.J.J.J.J.I.I.J.(.(.(.(.~.I.J.G.U.&X:.P  .<.} I ' ~ R  .+.V 1.6.^.(.J.J.H.I.I.P.J.J.J.J.J.J.I.J.",
"(.J.I.J.J.J.J.(.J.J.J.J.J.J.I.J.Y.z.4.P +.w.w.tXiXuXw.g.w.#.} 7 I.I.I.G.G.I.I.I.G.J.J.J.!.I.J.(.",
"J.J.J.J.J.J.J.J.G.J.G.J.I.G.G.G.K.R.5.! =.pXgXVXnXHXfXNXaX$.} ;.H.I.J.J.G.J.I.G.G.G.G.J.J.J.J.J.",
"J.J.J.J.J.J.J.J.J.J.J.~.I.J.G.G.b.*X5.L %.jXBXZXAXHXvXNXuXX.' ,.N.J.I.~.J.J.J.J.J.J.G.J.J.G.J.J.",
"J.J.^.J.J.J.J.J.J.J.J.J.J.G.G.F.P.Z.0X:X8.l = 8 f.f.M l 4.g.g.0XN.C.I.T.G.J.G.N.G.G.G.J.J.J.J.J.",
"J.J.J.J.J.J.~.I.G.G.G.J.G.G.G.G.M.p 0XlX8X  X 5 y.0.- O $ hXdX5XB.J.~.J.C.H.H.V.G.G.J.G.J.J.J.J.",
"(.J.J.J.J.I.J.J.J.J.J.I.I.(.I.~.b.g 4XkXwXq < 6 y.=.7 q = hX8X0XB.!.~.J.N.V.H.H.G.G.G.J.G.J.G.J.",
"J.(.J.J.J.J.J.~.J.U.n.).Y././.H..XB.SXIXKXCXHXeXP W yXKXDXJXLXvX X}.+X[.S.U.B.d F.G.!.L.J.J.J.J.",
"J.J.J.J.J.I.J.J.R.U.!.P.T./.G.H.,Xs nXPXIXLXZXsXL { yXFXPXKXFXlXA.Y.Y.Z.'.$X|.W.G.G.B.G.G.G.!.J.",
"J.J.J.I.J.J.I.J.H.Y.I.Y.I.b.~.*Xb w MXVXDXLXLXVXe.>XVXFXKXGXnXpX2 v v.p J.|.+X^.J.G.J.G.J.J.J.G.",
"J.J.J.~.J.I.J.J.A.~._.T.H.V.d -X| Z aXpXvXPXPXUXUXUXIXIXJXMXvXiXW <.n f V.+X.XG.G.J.J.J.J.J.J.J.",
"(.J.J.J.J.J.I.J.~.n.*XI.B.g g 6.| ) yXjXBXPXFXUXLXPXLXLXJXcXgXtXE 1.b j g #XY.W.J.J.J.J.J.H.J.J.",
"J.J.I.J.J.J.J.J.V.H.J.Y.u ,.-.H Y N r.9.8.pXqXgXcXBXvXqXpX8.9.+.R O.:.-.6.v.P.E.J.J.J.H.H.J.J.H.",
"J.J.J.~.I.J.J.J.Y.Y.H.A.x <.[ ^ @.U } { +.>XwXqXBXBXdX9Xg.O. .} P O...] 2.x D.I.I.I.I.I.I.J.H.J.",
"J.J.J.J.J.J.J.J././.*XS.h 1.] / J ) ! ! 9.w.7XqXBXpX8X7Xw.)  .^ C A T ! G g OX+XI.H.I.H.J.H.J.H.",
"G.J.(.J.J.G.G.J.$X#Xb.P.c 1.W [ X.C C ..+.@.U eXPXLXq.) $.<.<.Q V / ..<.' x  XU.J.H.J.T.J.I.J.H.",
"G.J.J.J.J.G.J.J.I.T._.V.q _ L L ` X.o.| [ { W eXHXJXr.E ! ]  .Q @.N _ ..+.t I.d I.I.J.J.H.H.J.I.",
"J.J.J.J.G.J.I.(.M.d '.U.x e.e.>Xw ;.G [ ] ! U eXCXHXr.P ! ..<.1.6.1 w.e.h.f XXS.H.J.J.H.I.H.I.J.",
"J.J.J.G.J.J.(.(.Z.a M.}.3XPXKXbXz.h 5.} } } [ h.FXPXw._ ! _ 3.:.y i nXZXIXY.+XC.J.I.I.J.J.I.I.J.",
"J.J.J.J.J.J.(.I.%XW.M.}.3XCXCXmXM.Q.7.{ Q } { h.LXJXq.Q #.~ o.H s M.bXHXJXD.L.h J.J.I.J.J.J.J.J.",
"~.J.J.I.I.(.J.G.+XB.D.|.m k.j.s.x.M.w V B F B d.k.k.*.N V C J 7 !.x.9Xj.k.f (.'.J.J.J.J.J.I.J.I.",
"I.J.I.~.(.(.J.F.{.a U.&Xb i.p.d.N.s z > 5 A , l.a.a.&.5 2 > 7 l $Xx.d.a.y.f XXoXJ.~.J.~.J.!.J.J.",
"I.~.(.(.`.(.G.N.XXf ,X&XM u.i.s.!.A.z , 5 -.> y.p.j.&.1 ;.B &.8 t.M.s.a.f.S.#XM.!.J.~.J.I.!.J.I.",
"~.~.'.'.~.~.~.I.F.!.J.a a d d d Y.c.nXZXIXDXHXsX#.Y jXZXZXCXJXlXp p W.h h R.C.C.J.J.J.'.~.J.J.J.",
"J.I.J.I.~.J.J.J.L.I.'.C.Q.E.Q.W.x.b.bXUXFXKXAXpXI Z gXKXKXFXLXmXM.M.B.R.R.).G.J.J.J.J.I.I.J.G.J.",
"G.J.C.J.J.J.J.G.oXXX#XI.~.~.~.^.@X=XpXaXaXxXaX:XW ] tXaXpXpXxXwXx.D.P.(.(.^.^.L.G.J.J.I.J.J.G.G.",
"G.G.J.J.J.J.G.J.H.P.I.I.J.!.^.^.Y.i H E I U E L / E } W ] W | S oXoXoXXXP.P.(.~.J.I.I.G.G.J.G.F.",
"J.J.J.J.J.J.J.J.H.S.G.C.G.B.!.b.<XQ.%.! ! $.! #.! W } T ^ ~ [ %.I.XXP.H.P.H.J.~.J.I.I.G.G.I.I.C.",
"J.I.I.I.I.I.J.J.Z.Z.C.J.J.G.N.F.}.b.>.Q { +.Q G t z 2.{ #. .| 7.T.C.H.N.V.V.N.Z.J.'.(.F.G.~.I.J.",
"J.I.J.I.I.J.L.J.E.J.L.^.J.L.G.~.=Xb.>.Q  .+.{ -.V.g :.{ Q $...6.Z.Z.N.F.J.G.H.V.G.I.(.J.G.'.`.J.",
"J.J.I.J.J.J.I.J.J.G.L.#XoXK.G.(.P.s %.( ] } ! 4.K.a 4.$./ ( O.4.Z.N.C.^.#X#XI.V.G.'.I.G.G.`.%X(.",
"J.J.J.J.J.J.J.J.J.J.J.G.G.J.I.I..Xa 9 B B B D ; $ o ; B > B D 7 C.V.I.#X%XI.H.J.P.I.H.C.~.].2X2X",
"~.I.J.J.J.J.~.J.J.G.G.G.J.J.I.(..Xd 9 2 A 2 1 -   o 3 J 5 2 D z J.C.J.J.I.I.L.J.T.I.H.G.'.].2X2X",
"J.I.J.J.J.J.J.I.G.G.J.G.J.I.I.~.{.).< 3 < 2 1 ; . @ < 1 < 2 3 c C.'.J.F.F.I.I.N.I.H.N.N.~.'.].].",
"J.J.J.^.J.I.J.J.G.J.G.J.J.J.J.I..XV.& . o $ X o . . + X . . X * Z.T.I.F.P.#X'.N.%XI.I.`.%X1X1X2X",
"J.I.J.J.J.J.J.J.J.G.J.J.J.J.J.J.b.).* + . X X o . . X . @ @ O 0 N.I.I.G.H.`.`.V.N.N.z.z.B.J.~.~.",
"J.J.J.~.J.I.~.I.G.G.J.~.J.J.J.C.I.,Xy t * # . % . o $ O & 0 0 y ~.`.I.F.N.I.I.C.I.(.I.~.(.'.(.(.",
"J.J.I.J.J.J.I.J.J.J.J.J.J.J.G.G.c.M.!.v.t $ X   . . O   & t R.^.I.I.K.G.G.G.J.C.J.J.F.G.G.G.G.F.",
"(.J.J.J.J.J.J.J.J.G.J.I.J.J.G.G.'.D.T._.i & + O # O & O & u _.{.G.F.G.I.I.G.C.Z.G.G.G.J.I.'.(.I."
};
