/* XPM */
static char *xpm_[] = {
/* columns rows colors chars-per-pixel */
"48 48 251 2 ",
"   c #0B0202",
".  c #040503",
"X  c #130500",
"o  c #170D03",
"O  c #020914",
"+  c #09110F",
"@  c #03192C",
"#  c #08212D",
"$  c #0C2537",
"%  c #182839",
"&  c #583013",
"*  c #713A18",
"=  c #472724",
"-  c #6F382D",
";  c #574739",
":  c #68421E",
">  c #1B3747",
",  c #10324C",
"<  c #243547",
"1  c #7A3550",
"2  c #7F3566",
"3  c #27665A",
"4  c #35614A",
"5  c #195C78",
"6  c #164767",
"7  c #2A596A",
"8  c #385A78",
"9  c #2B5A75",
"0  c #1C6A7A",
"q  c #07787E",
"w  c #0F7179",
"e  c #31686C",
"r  c #27657B",
"t  c #346E7C",
"y  c #514F4D",
"u  c #664D47",
"i  c #714C59",
"p  c #736A53",
"a  c #594E65",
"s  c #45576A",
"d  c #5A4E74",
"f  c #505671",
"g  c #6B4C62",
"h  c #704C6D",
"j  c #4C6873",
"k  c #686D6B",
"l  c #B51113",
"z  c #86391A",
"x  c #8E3117",
"c  c #BC2B1B",
"v  c #B03114",
"b  c #AC1925",
"n  c #B3142F",
"m  c #943831",
"M  c #BA2927",
"N  c #B22E30",
"B  c #991B1F",
"V  c #C91A16",
"C  c #D71B18",
"Z  c #CB0E0F",
"A  c #F90407",
"S  c #F81506",
"D  c #FC0A19",
"F  c #E61918",
"G  c #F00C14",
"H  c #CA251E",
"J  c #CF2A14",
"K  c #E9221A",
"L  c #ED240F",
"P  c #C90E24",
"I  c #C81928",
"U  c #D71929",
"Y  c #D6163B",
"T  c #CC1632",
"R  c #E41923",
"E  c #F51626",
"W  c #FB0538",
"Q  c #E71938",
"!  c #F31834",
"~  c #F1072B",
"^  c #CA2528",
"/  c #D62628",
"(  c #C52536",
")  c #D8253A",
"_  c #E72833",
"`  c #F52B29",
"'  c #A64806",
"]  c #914936",
"[  c #B7482D",
"{  c #C34A17",
"}  c #F66518",
"|  c #DB4938",
" . c #CC5034",
".. c #DE6A30",
"X. c #B81954",
"o. c #8F3A50",
"O. c #B22C4C",
"+. c #853877",
"@. c #CE134D",
"#. c #CF2D4E",
"$. c #F92446",
"%. c #F03B4A",
"&. c #E9285D",
"*. c #894555",
"=. c #AE474D",
"-. c #B57D42",
";. c #89596B",
":. c #B84C63",
">. c #847462",
",. c #AB6E62",
"<. c #D04A56",
"1. c #E9524B",
"2. c #D66C55",
"3. c #ED6A56",
"4. c #F95C6E",
"5. c #DE6667",
"6. c #D06F6D",
"7. c #EF6B71",
"8. c #D05164",
"9. c #25896C",
"0. c #F6B718",
"q. c #F3B110",
"w. c #D09330",
"e. c #EDB834",
"r. c #D79E24",
"t. c #EFC20A",
"y. c #D6C62C",
"u. c #F09350",
"i. c #E78A6D",
"p. c #E5955F",
"a. c #EED04F",
"s. c #F5CB77",
"d. c #165D87",
"f. c #145C95",
"g. c #03598D",
"h. c #2A5D85",
"j. c #375B86",
"k. c #255D99",
"l. c #365C99",
"z. c #09698A",
"x. c #156586",
"c. c #1D6B85",
"v. c #14638C",
"b. c #1B648B",
"n. c #156A8D",
"m. c #1C698D",
"M. c #176885",
"N. c #067587",
"B. c #14728A",
"V. c #177388",
"C. c #096A96",
"Z. c #156593",
"A. c #1A6793",
"S. c #146B94",
"D. c #1C6A95",
"F. c #1C659A",
"G. c #156C9D",
"H. c #1D6A9A",
"J. c #15649A",
"K. c #067598",
"L. c #1D7293",
"P. c #1A739D",
"I. c #157497",
"U. c #24658C",
"Y. c #236B8D",
"T. c #296C8E",
"R. c #286586",
"E. c #356787",
"W. c #21728E",
"Q. c #347289",
"!. c #226692",
"~. c #226C94",
"^. c #23659C",
"/. c #226B9B",
"(. c #2B6796",
"). c #336695",
"_. c #2B7295",
"`. c #2C759C",
"'. c #277599",
"]. c #34789A",
"[. c #185CB5",
"{. c #1256A1",
"}. c #335BAD",
"|. c #2C5DAB",
" X c #086BA7",
".X c #1B64A4",
"XX c #146AA2",
"oX c #1C6BA3",
"OX c #1A66AA",
"+X c #1666A8",
"@X c #0774A7",
"#X c #1973A5",
"$X c #0D6BB9",
"%X c #126FB6",
"&X c #2767A4",
"*X c #3466A7",
"=X c #2777A4",
"-X c #347DA2",
";X c #387DA4",
":X c #256AB5",
">X c #2C7FB1",
",X c #48548A",
"<X c #53708F",
"1X c #727196",
"2X c #427EA2",
"3X c #6079A1",
"4X c #2A69C6",
"5X c #B97493",
"6X c #D97583",
"7X c #FF658B",
"8X c #E26680",
"9X c #058489",
"0X c #0B84AE",
"qX c #3A83A7",
"wX c #3384B3",
"eX c #448D91",
"rX c #4786A6",
"tX c #5789AA",
"yX c #6B8F9F",
"uX c #ADA4A3",
"iX c #D38789",
"pX c #D19790",
"aX c #E7948E",
"sX c #CEAB97",
"dX c #D49AA1",
"fX c #E898A1",
"gX c #D1B8AD",
"hX c #EBADA7",
"jX c #AFCEAE",
"kX c #F2D58C",
"lX c #CBCDBC",
"zX c #F3E2B1",
"xX c #AFB7CE",
"cX c #DFB7CC",
"vX c #B5CACF",
"bX c #D8CECD",
"nX c #ECD0CB",
"mX c #FFF6CF",
"MX c #FDE7DB",
"NX c #F5EDD5",
"BX c #FFD9E4",
"VX c #DBFBF8",
"CX c #DEF5EF",
"ZX c #E8FCE6",
"AX c #FCFCE9",
"SX c #FCE7FA",
"DX c #E7FBF8",
"FX c #F3FEFE",
"GX c #FAF8FB",
"HX c #ECECF2",
"JX c #DCE2D4",
/* pixels */
"D.D.H.~.D.H.D.D.H.D.H.~.L.m.m.M.N.J.OX}.D.l.(.}.XXn.M.m.F..Xm.0 D.Z.A.A.A.A.D.D.D.D.D.H.H.D.A.A.",
"D.D.D.D.D.D.~.D.L.D.D.D.D.D.n.m.C.H.G.!.N.N.N.^.M.q B.!.&X+X.X^.D.A.A.A.A.D.D.D.D.D.~.D.D.D.D.A.",
"H.~.H.D.D.H.H.D.D.H.H.D.D.H.H.H.F.J.U.h g g a +.r B.S.k.F.C.@XXXA.A.A.A.S.D.D.D.D.D.D.H.D.D.A.A.",
"D.D.D.D.~.D.D.D.D.L.D.D.H.H.oXoX.XK.0 O.Y Q N X.j.XX$X|.!.q q U.D.A.A.A.A.A.D.D.D.D.D.D.D.D.A.A.",
"D.D.D.D.D.D.D.D.D.D.D.H.H.H.oX&X).0 3 N U U m N 8 U.OXk.U.0 R.,XA.A.A.A.A.D.D.D.D.D.~.D.H.D.D.m.",
"D.D./.D.D.H.~.D.L.H.L./.H.H.H.H.+.o.m / H ^ M E m *.d r v.S.XXXXD.A.S.A.A.D.D.D.D.D.D.D.D.D.D.A.",
"D.D.D.D.D.D.H.D.D.D.L.D.D.D.m.v.X.@.C D R ~ E D R U o.e N.XXXXK.A.A.A.A.A.A.D.D.D.F.D.H.D.D.A.A.",
"D./.H.D.~.H.D.D.D.H.D.D.L.n.b.v.O.( J R / Q ^ ^ T ) o.3 N.}.,Xr D.A.A.A.Z.D.D.D.D.~.D.D.D.D.D.J.",
"A.A.H././.P.L.L.=XoXT.Z.J.g N M Q C F $.~ L F ! E K ( l J i #Xz.b.A.XX#XH.~.~.A.D.D.D.A.A.D.A.D.",
"D.D.D./.D.D.n.n.F.G.~.L..Xg c I ! L K $.Q K F ! A E Q Z V 2 &X@X&XG.S.M.0 c.H.OXD.D.D.D.A.D.D.H.",
"D.H./.^.H.D.n.n.&X#Xc.n.&Xi V U / Z C I T C F U 1.8X6.<.6.;.y s U.U.D.S.c.Y.H.oXD.D.D.A.D.D.D.~.",
"D.D.H././.H.D.B.&X=XM.z.f.i l P J J / ( ) C Z Z MXVXVXHXGXfXM N 3 r oX:X:X=XY.V.D.D.H.A.A.D.A.H.",
"D.~./././.H.L.D.k.=Xn.I.A.;.M N b n T P U P P l MXDXZXAXGXaXV l 3 r oX:X:X'.W.V.H.A.D.A.D.D.D.D.",
"L.D.H.^.H.A.n.n.|.#Xw I.{.uXaXfXk i *.M M 6.fXaXs.kXkXk 1X1Xi d R.!.D.n.Y.Y.D.OXD.D.D.D.A.D.D.D.",
"D.D.H.H.D.D.n.n.&XoXM.z.g.xXHXGX].m.s B B pXFXmXy.0.w.+ O , n.K.^.G.S.M.0 c.H.OX/.D.D.A.A.D.D.D.",
"A.A././././.L.L.k.J.B.I.g.xXAXVX(..Xd P Z dXFXBXa.q.r.+ O > *X).m.S.XX#X/.!.~.A.D.D.D.A.A.D.D.D.",
"D./.D.D.D.D.D.D.D.D.D.H.D.~.~.Y.#X@X1XgXgXBXHXZXnXGXmXy.y...c v j XX5 '.$Xd./.Z.J.D.A.A.A.D.A.D.",
"D.D.D.D./.D.D./.m.D.D.D.~.D.Y.Y.^.K.<XbXjXCXVXVXSXGXzXt.t.} ~ ~ d J.5 N.@Xd.(.(.D.D.A.D.A.D.D.A.",
"D.D./.D.D.D.D.D.D.D.D./.H.A.b.b.*X@X3XdXpXbXZXZXAXGXmXa.a.p.8.8.<X%Xr /. Xd.(.S.D.A.D.A.m.A.S.D.",
"L.D.D.D.D.D.D.D.n.L.H.H.~.~.m.b.z.g.s O.n iXgXgXmXHXGXGXAXDXDXZXrX%XE.).OXR.S.N.A.D.A.D.D.D.J.A.",
"H.H.D.D.D.D.D.D.D.L.D.D.H.~.~.~.N.L.f b Z iXbXgXGXGXFXAXAXSXDXHX3X+X5 x.@XT.(.A.A.D.D.A.D.A.A.D.",
"~.D.D.D.D.D./.D.D.D.D.D.A.~.~._.h 2 *.^ C 6.dXiXJXJXJXAXNXMXSXSXtX X0 v. X_.D.C.A.A.A.D.A.D.D.A.",
"D.D.D./.D.H.D.L.D.D.D.D.!.D.D.U.O.@.n ` G %.7.8.sXnXlXVXHXbXjXjXtX@Xr R.OXE.Z.C.D.D.A.A.D.D.A.D.",
"D.D.D.D.~.D.H.D.m.D.D.H.~.D.m.b.] T ( L S %.7X6.sXnXvXDXGXJXvXbX<X X0 N.@XW.k.&XA.A.A.D.A.A.D.A.",
"D.D.A.D.D.H.H.G.B.Y.).*XF.P.L.0 ( v ` W ! %.7X4.5.5Xi.1.%.;.0XrXq f.).*X+XB.`.k.A.H.D.H.D.D.D.A.",
"D.D.S.D.S.H.H./.B.A.&X&XJ.#XI.x.Y L S ~ R 1.i.6.4.7X1.Z ~ =.S.s =X[.0 Y.z.w H.[.D.D.~.D.D.D.A.A.",
"D.D.S.D.J.H.H.H.A.m.!.G.G.@XP.C.$.E K <.8.3.5.3.3.7.1._ $.:.f g t OXB.K.+XM.B.I.D.D.D.D.D.D.D.A.",
"D.A.A.A.D.F.H.H.F.Z.Z.G.C.XXG.f.@._ <.cXnXiX#.#.1.-.3.4.4.#.n O.s &XB.@X4X~.M.V.D.D.D.D.~.D.A.D.",
"A.S.A.H.D.F.H.H.^.f.z.C.B.W.E.j.#.| 2.JXbXi.@.@.` 3.4.7.6.%.G F ,X*XY.V.`.R.(.OXD.D.D.D.D.D.A.J.",
"D.A.D.S.D.H.H.G.(.v.C.I.T.,Xk k ....u.fXpXaXi.i.%.` <.gXhXp.} } j *Xr m..Xc.!./.A./.D.D.D.D.D.A.",
"D.A.A.D.J.H.H.H.U.v.K.P.Q.k >.-.e.0.u.3.6.dXnXnX1.A O.FXAXkXe.e.9.E.R.&X[.z.~.c.D.H.H.D.D.D.A.A.",
"D.D.A.D.D.H.H.H.R.v.I.'.<X>.w.w.a.t.u.7.8XpXbXcXO.A :.GXmXkXq.e.9.A.t ].G.N.#X.XD.D.D.~.D.D.A.A.",
"D.L.D.D.A.!./.&X'.m.!.R.rXrXtXrXyXeXp $.` { =.J v K _ 8.6.1. . .j 4X&XR.!.B.@XH.H.D.D.H.D.D.H.D.",
"D.m.D.D.H.~.~.A.x.x.m._.].2X].].T.t u @.D J X.R v V V T ' v ' ' e $XC.M.(.~.&X).D.D.D.D.D.~.D.D.",
"D.D.S.D././.J.d.'.`.W.rX].rX).T.j.f *.#.E C @.Y o.O.o.I c J N [ s [.N.z.f.(.G.S.D.D.D.D.H.D.D.~.",
"D.D.D.D.~.~.~.D.`.-X`.].].;XW.Y.X.@.! _ L J m x s ,Xf ] [ | =. .d |.z.N.&XU.H.N.H.D.~.H.D.D.D.H.",
"S.G.H.H.~.D./.`.qX`.qX`.;X_.'.m.O.F E G S D Y T 7 r e ]  .| [ { j `.w N.OX).).A.H.~.D.D.D.H.D.D.",
"A.H./.D.m.~.`.qXqX].qX`.qX=X'.S.&.E Q U F #.h h j.j.h.g p =.] v y a 4 M.:XT.T.D.D.D.D.H.D.~.D.D.",
"F.H././.D.~.-XqX'._._.Y.~.D.S.z.#.C n N M h Y.(.K.S.K.f.w y ; & - m - 9 $XI.V.G.D.D.D.D.D.D.D./.",
"J.H.G.F.~.'.`.qXqXqXm.~.x.L.S.P.Q S R ^ ^ h 9XOX9XQ.'.:Xz.u * v * - & e $XI.T.(.H.D.~.H.D.D.D.D.",
"=XS.D.b.-X=XwXwXW.~.J.H.H.'.Y.Y.* x * * x = @ @ # $ @ $ % % + o 7 r R.D.F.F.F.H.D.D.D.D.H.A.D.A.",
"A.D.qX;XqX`.=X=XW.D.D.J.H.D.Y.c.* x z * m & .   X         X X . 7 r c.H./.&X/./.A.~.D.~.D.D.A.A.",
"-X`.].].qX-X`./.m.m.Z.J.H./.U.b.y u u ; - =   X     X   . @ $ # 9 0 v.S.H.^.~.A.D.D.D.H.~.D.D.J.",
"qX`._.(.-X`.~.A.m.v.Z.F.H.D.Y.b.h.h.9 h.j.< O . O O + + O , d.5 m.Z.C.S.F./.D.Z.D.H.D.D.D.D.A.D.",
"_.].qXqX`.D.b.U.v.m.A.S.H.D.A.!.v.G.XX&X).6 @ O .   X X . % Q.Y.=XP.G.G.H././.L.D.D.D.D.D.D.A.A.",
"qXqXqXqX~.~.b.U.b.m.J.S.D.H.^.^.T.I.x.d.!.6 < < > , < % , 6 W.P.=X/.I.S.H.!.D.D.D.D.H.~.D.D.A.A.",
"qX].v.S.Z.H.A.~.F.D.D.D.D.H.F.^.Q.B.5 5 V.R.8 Q.oX=X=Xf.Z.XX#X@X~.D.S.S.m.b.J.S.D.D.D.D.~.J.D.A.",
"M.D.Z.=Xv.J.d._././.H.D.D.F./.&XS.K.f.A.0X@Xg. Xd.A.b.!./.!.h.Y.b.n.D.D.D.U.D.I.D.D.D.D.D.D.D.A."
};
