/* XPM */
static char *xpm_[] = {
/* columns rows colors chars-per-pixel */
"48 48 256 2 ",
"   c #020303",
".  c #0C0202",
"X  c #070807",
"o  c #170709",
"O  c #060816",
"+  c #0E120B",
"@  c #390405",
"#  c #2A0C0B",
"$  c #0C1B26",
"%  c #071126",
"&  c #152D38",
"*  c #273119",
"=  c #492F11",
"-  c #723E2F",
";  c #61220F",
":  c #2F463E",
">  c #6F432A",
",  c #163B56",
"<  c #113C4F",
"1  c #153A55",
"2  c #7A3647",
"3  c #6F3866",
"4  c #1A4356",
"5  c #1C4446",
"6  c #026658",
"7  c #025875",
"8  c #1B5A77",
"9  c #18556F",
"0  c #285A78",
"q  c #335872",
"w  c #0A6A77",
"e  c #19667B",
"r  c #017679",
"t  c #187379",
"y  c #116D69",
"u  c #2A6776",
"i  c #316A74",
"p  c #2D5359",
"a  c #515150",
"s  c #764B4F",
"d  c #6F6E5C",
"f  c #5C4B68",
"g  c #435273",
"h  c #6F4969",
"j  c #6A6F75",
"k  c #577058",
"l  c #BB1805",
"z  c #B51513",
"x  c #8F3015",
"c  c #B62906",
"v  c #AE2A14",
"b  c #B11D32",
"n  c #873328",
"m  c #903132",
"M  c #AC2429",
"N  c #B32D31",
"B  c #D10814",
"V  c #C71915",
"C  c #D6161B",
"Z  c #CB0A12",
"A  c #EA0818",
"S  c #FE0617",
"D  c #E91718",
"F  c #EE1406",
"G  c #CC251B",
"H  c #D42618",
"J  c #CC2900",
"K  c #E32610",
"L  c #D61A26",
"P  c #DA0C36",
"I  c #CD122C",
"U  c #FA092A",
"Y  c #E61827",
"T  c #F9162A",
"R  c #E81639",
"E  c #FE1535",
"W  c #F10A33",
"Q  c #C92525",
"!  c #D62527",
"~  c #D82738",
"^  c #C93134",
"/  c #FA2437",
"(  c #EC2628",
")  c #BC7216",
"_  c #A45D31",
"`  c #D4510A",
"'  c #D07731",
"]  c #E0672A",
"[  c #BD1349",
"{  c #9B3946",
"}  c #90324F",
"|  c #B3334A",
" . c #951C45",
".. c #F1164D",
"X. c #C93255",
"o. c #E72747",
"O. c #E13B53",
"+. c #DE1257",
"@. c #924B56",
"#. c #B55049",
"$. c #8D4269",
"%. c #BA5A6E",
"&. c #B36E73",
"*. c #A17061",
"=. c #D54D54",
"-. c #F35658",
";. c #C77449",
":. c #D66C54",
">. c #ED6F56",
",. c #F75C7A",
"<. c #CE6F6E",
"1. c #E76E6D",
"2. c #CB577E",
"3. c #00846F",
"4. c #5A837B",
"5. c #E5B72B",
"6. c #D09A3A",
"7. c #F7DF00",
"8. c #F0C335",
"9. c #F0E532",
"0. c #D5CC17",
"q. c #8F8C6A",
"w. c #AC9460",
"e. c #F98B57",
"r. c #D3A350",
"t. c #DAA67E",
"y. c #C1B173",
"u. c #E5A162",
"i. c #BEC24A",
"p. c #F0EB4A",
"a. c #743989",
"s. c #085D89",
"d. c #195B88",
"f. c #075A99",
"g. c #165D97",
"h. c #285B8C",
"j. c #265D96",
"k. c #375797",
"l. c #3E5A8C",
"z. c #096588",
"x. c #14638C",
"c. c #1B648D",
"v. c #136C8E",
"b. c #1C6A8C",
"n. c #186683",
"m. c #00738D",
"M. c #067788",
"N. c #157589",
"B. c #0A6996",
"V. c #146493",
"C. c #1A6693",
"Z. c #156B93",
"A. c #1C6A95",
"S. c #1B6699",
"D. c #1D6B9A",
"F. c #156799",
"G. c #057696",
"H. c #137295",
"J. c #1D7294",
"K. c #1A729A",
"L. c #147795",
"P. c #236B8D",
"I. c #276688",
"U. c #33698B",
"Y. c #297288",
"T. c #226593",
"R. c #226A95",
"E. c #2C659A",
"W. c #226C9B",
"Q. c #2B6896",
"!. c #356696",
"~. c #25729C",
"^. c #2C739B",
"/. c #287497",
"(. c #357B9C",
"). c #337598",
"_. c #38758A",
"`. c #0E5DA7",
"'. c #2956B5",
"]. c #2E58A8",
"[. c #1C6CA4",
"{. c #1767A8",
"}. c #1774A7",
"|. c #0F6DAC",
" X c #2668A5",
".X c #2774A4",
"XX c #347AA3",
"oX c #3A7CA3",
"OX c #3576A5",
"+X c #2E6DB7",
"@X c #4F4F8B",
"#X c #67498D",
"$X c #4D738C",
"%X c #4275AF",
"&X c #5B639B",
"*X c #286AC5",
"=X c #4671D0",
"-X c #AF7B86",
";X c #A47FA0",
":X c #876396",
">X c #D17C8C",
",X c #038789",
"<X c #0085A0",
"1X c #3784A7",
"2X c #36809D",
"3X c #4D8997",
"4X c #4285AA",
"5X c #4784B0",
"6X c #7599B0",
"7X c #77A5B8",
"8X c #458CDA",
"9X c #8E959B",
"0X c #B1999B",
"qX c #8AA596",
"wX c #B3A98E",
"eX c #B997A9",
"rX c #AD90A8",
"tX c #94B3B2",
"yX c #AEB5B0",
"uX c #8A8BA0",
"iX c #CB9299",
"pX c #CFAD91",
"aX c #D598A8",
"sX c #F890AE",
"dX c #C6B4B8",
"fX c #CEB0AE",
"gX c #F1A7A9",
"hX c #F19595",
"jX c #B2C3BA",
"kX c #92C2B4",
"lX c #FFF997",
"zX c #C3CBBA",
"xX c #F0E8AD",
"cX c #EDD9A4",
"vX c #A1B3CF",
"bX c #F1B8C9",
"nX c #EC97CF",
"mX c #A6D4CC",
"MX c #A6CFD3",
"NX c #B6FFE6",
"BX c #B8CDE0",
"VX c #CECFD0",
"CX c #F4CFD1",
"ZX c #D1F1CF",
"AX c #EEF0D5",
"SX c #C8D7E8",
"DX c #FFD9FB",
"FX c #E5DEE5",
"GX c #CBF6EB",
"HX c #EBE7E9",
"JX c #E9F7E8",
"KX c #F7F8EB",
"LX c #FFE9F8",
"PX c #E8FCFB",
"IX c #F9FAF8",
"UX c #EFECF3",
/* pixels */
"A.A.A.A.D.A.D.R.A.A.D.R.A.R.A.R.J.v.v.G.F. X X'.%Xd./.U.h.G.G.[.D.~.P.n.I.T.C.[.D.A.A.A.A.D.R.A.",
"A.A.A.A.A.A.A.A.R.A.A.A.T.D.R.A.A.Q.Q.R.E.j.S.G.F.x.H.x.b.~.c.T.B.B.Z.K.R.A.D.R.A.A.A.D.A.A.D.D.",
"A.A.A.A.D.A.A.A.A.A.A.A.D.D.D.A.W.E.E.A.T.U.Z.,XM.G.N.z.N.I.e t C.d.V.}.[.S.W.R.A.A.A.C.R.A.A.D.",
"D.A.R.D.A.A.A.D.A.D.A.A.C.D.A.A.E.C.B.B.G.H.Q.@X@X#X#X@X@X#Xg $X7X6XXXg.F.}.D.R.C.C.A.A.Z.D.D.A.",
"A.A.A.D.A.A.D.A.D.T.D.D.A.Z.A.D.U.x.V.g.}.<XR.a.l B Y ! ! C Q >.IXPX7Xd.F.[.V.D.A.C.A.A.A.A.D.A.",
"D.R.A.A.R.A.A.A.R.A.A.A.J.D.Z.F.U.A.h.k.E.N.u 3 v v Q N N b { -XKXPX7X8 V.[.f.D.C.C.C.A.A.C.A.A.",
"A.A.A.A.A.D.D.A.R.A.A.A.H.D.F.H.R.R.A.Q.@Xh } m ~ G ! ! M } f &X7X7X4Xc.x.D.W.D.C.C.C.C.C.A.A.A.",
"D.A.D.A.A.R.A.A.A.A.D.A.D.Z.H.H.Z.D.G.,Xq b D H E C ! M n q M.H.s.7 v.XXC.A.^.d.C.C.C.A.A.A.A.C.",
"A.A.A.R.A.A.A.A.b.D.J.Z.H.D.j.d.k.Q.8 Y.a M G F ..K H Z | h e g.d.g.C.Z.C.D.Z.v.C.C.C.C.A.C.A.A.",
"A.A.A.D.D.D.A.A.R.C.Z.K.D.C.T.E.,Xn.3  .b E Y C P H K Y ..| } :XT.C.Z.K.~.R.D.C.C.C.C.C.C.A.A.A.",
"A.A.A.A.A.D.A.A.~.C.Z.K.K.x.j.OXG.w | Z C / W C P H D U L B Z 2 R.S.K.D.D.W.R.D.C.A.A.C.A.A.A.C.",
"A.A.A.D.A.A.A.A.W.C.Z.D.A.c.Q.oX+Xy | D v 1.=.,.,.1.-.-.#.H Y s R.H.H.H.C.T.R.A.C.A.C.A.A.A.A.A.",
"b.C.A.A.A.A.A.C.x.C.C.Z.R./.oX4X8X,XN S ~ fXzXLXKXAXCXVXfX! E @.T.D.H.F.C.T.T.A.D.A.Z.A.Z.C.R.A.",
"A.C.D.C.A.A.C.A.C.W..XR.R.).oX).=XL.{ E =.zXmXAXAXZXVXVXdX^ R @.C.C.H.H.C.C.R.D.D.D.A.R.A.A.C.A.",
"C.C.C.A.A.A.C.C.~.~..XXXOX).^.).'.e *.-X-Xf k w.u.pXd j j %.<.uXd.D.K.J.A.C.A.D.D.D.A.A.A.A.A.A.",
"C.C.A.A.C.C.C.C.D.V.W.oX4XoX(.2X|.7 qXyXqX. + x e.e.#   + y.wX3Xd.C.A.K.A.C.Z.H.R.D.R.A.R.A.C.A.",
"c.T.W.W.W.~./.b.~.oXXX5X^./.e z.[.I.;XtXuX# + x ` r.;   O iX9X9Xr N.S.G.].F.C.!.C.A.A.A.A.A.Z.A.",
"C.C.g.C.C.A.b.n.b.Q.P..XR.OXE.K.f.M.eXyXFXFXNXgXF J gXLXUXIXUXMXm.S.k.Z.!.H.H.K.C.A.A.A.A.A.C.C.",
".X~..XW.~.^.(./.4X4XOXK.Z.E.j.c.Q.,XyXdXCXPXNXaXS l CXIXUXGXIXSXz.k.@XN.!.R.v.Z.A.A.A.R.D.A.C.C.",
"V.V.V.d.c.).(._.4X1XOX XB.Z.Z.k.h p yXmXbXLXHXbXX.<.CXHXIXPXHXfXp g Y.,XK.T.h.Q.A.A.A.D.D.D.C.C.",
"D.D.W.R.).oX4X%XY.M.k.j.H.m.r h E I gXMXBXPXGXZXLXPXJXKXKXdXyXiXU ..3 G. X XT.A.A.A.A.D.A.A.C.C.",
"C.A.A.P.P.^.).Q.Q.m.%XE.W.e i } S I aXmXSXIXIXKXIXGXKXKXIXfXCXiXF N a t E.|.H.~.A.A.A.R.A.A.C.C.",
"oX(.2X(.(.oXOXOXc.m.k.Z.).h @.| D C 1.>X>XyXjXVXGXVXVXzXdX%.1.=.F Q N 2 h b.m.W.A.A.A.A.A.A.C.A.",
").(.(.(.(.OX.XW.R.m.E.m.l.[ b M z Z Y S / iXyXnXmXdXyX0XeX=.S T W E E E ..i M.].C.D.A.D.A.A.C.C.",
"(.2X/.2X1XXXD.C.*XZ.w d.#XN ^ | v ! V K T eX0XjXzXcXpXrX>XG K o...A T J ( l.Y.f.A.A.A.A.A.A.A.A.",
"/.(.(./.J.x.c.W.Z.n.t t $X-X<.;.! ( Y / T :.<.nXHXHX-XX.O./ L ~ X.c ! J ~ d./. XD.A.D.D.A.A.A.A.",
").1X1X~.A.C.T.OXG.S.OXZ.(.vXeX&.b V R ..T ] -.sXLXPX<.B D C I b ! z Y Y +.s.H.!.R.A.A.A.A.R.A.A.",
"^.^.C.C.F.D.D. X}.`.*X`.Y.yXy.q. .m o.R Y ;.:.pXxXAX;.B ! V I | @.m ..U ..N.}.T.A.A.C.A.A.A.A.A.",
"~.W.x.x.A.D.D.D.t 7 }.`.k 5.8.6.n.y { C U ,.-.e.p.9.` z ^ C L } v.9 { A R y [.h.A.A.A.A.A.A.A.A.",
"W..XK.A.K.C.A.W.I.z.}.{.k 5.5.y.].z.| F T >X-.6.p.9.` I [ V Q h |.s.@.H o.6  Xs.Z.C.C.C.C.A.C.A.",
"c.D.A.x.x.x.x.R.[.[.{.{._.q.4.4.'.r #.` ` >.:.u.lXlXr.%.%.%.&.:Xj.j.iXhXsXy ].L.A.C.A.C.A.C.A.A.",
"A.R.Z.Z.J.J.A.^.Z.!.d.e ,X/.u y '.3.*.;.' ) ) t.KXJXtXqXyXmXvXuX9 G.VXIXLXr ].N.A.A.C.A.C.A.C.Z.",
"x.C.C.C.A.R.D.W.A.A.C.D.F.Z.v.z.+Xd.&.;.;._ ) pXAXUXdXeXyX9X0X6X_.G.SXJXLXz.L.v.Z.A.Z.A.C.A.C.A.",
"C.C.C.C.A.A.A.A.A.c.C.F.F.D.v.v.n.v.VXAXAXAXxXhX#.=.^ ^ #.^ N s x.7 y.0.u.6 J.x.C.Z.c.C.A.A.A.A.",
"A.A.A.D.A.C.C.C.b.v.F.D.D.D.C.Z.w w SXIXDXPXJXsXZ L J c v G H } |.s.r.7.8.y S.).C.C.C.A.C.A.A.A.",
"A.D.D.A.C.Z.C.c.v.Z.Z.C.D.W.R.T.M.M.VXJXDXHXAXaXI +.L c x M M h K.Z.q.i.wXA.g.R.C.C.C.A.A.A.A.C.",
"A.A.A.R.A.A.C.A.v.Z.F.D. XW.R.Q.+Xj.>X-.O.P P } r t a x m m n a 9 K.(.u j.S.b.f.C.C.C.C.C.A.C.A.",
"Z.A.A.A.D.A.A.A.Z.Z.C.D.W.W.Q.R.`.B.%.-.-.T A s u e a n n n = a i K.G.z.f.n.Y.|.A.C.C.C.A.A.A.A.",
"R.A.A.D.D.D.A.A.A.J.D.S.W.R.c.c.}.L.{ _ =.V V > 5 < : * * = @ : Q.{.v.N.|.d.e K.C.C.C.C.C.A.A.A.",
"A.A.R.D.R.C.Z.A.A.A.S.W.S.A.C.c.t w } > n n x = O % #   . @ @ 4 B.+XQ.8 [.{.A.b.C.C.C.A.C.A.A.C.",
"A.D.A.D.A.A.R.A.A.A.A.T.D.C.F.Z.B._.a - - - > = o + X +   O O , C.A.A.R.D.R.A.S.Z.C.C.C.A.A.A.A.",
"A.A.A.A.A.D.A.A.A.A.A.T.R.D.Z.Z.[.I.& # @ @ * + X   X + X X O : S.Z.A.b.b.A.C.S.C.C.C.A.A.A.A.A.",
"A.R.R.A.D.A.D.A.A.A.R.C.A.A.Z.Z.*Xh.$ X X       O O X + . X   & S.A.A.A.A.A.A.C.Z.C.C.C.A.A.A.A.",
"D.A.A.D.A.A.A.A.J.Z.C.R.R.A.C.v.*XF.4 & & + X X o o . . . $ $ < A.A.A.b.A.A.Z.A.C.C.Z.A.A.A.A.A.",
"A.D.A.A.A.R.A.A.D.A.D.T.A.C.F.Z.{.R.8 i p % X . # o . + % p U.I.A.A.A.C.C.A.A.A.C.A.A.A.A.A.R.D.",
"A.A.A.A.A.D.A.D.A.A.C.R.R.D.Z.Z.F.A.e Y.0 < O O .     X % 0 I.z.A.A.A.C.S.D.A.A.A.A.A.A.A.A.A.A.",
"A.D.D.R.A.A.A.A.A.A.R.C.R.A.Z.Z.S.K.n.R.h.1 < 4 4 4 4 4 , !.~.Z.A.A.A.S.S.C.R.b.A.A.A.A.A.A.A.A.",
"A.A.A.A.A.A.D.A.A.A.C.A.T.A.Z.Z.[.[.s.F.[.f.n.Y.P.d.Q.).h.U.P.N.R.A.C.S.D.C.A.A.A.D.A.D.R.A.D.A."
};
