/* XPM */
static char *xpm_[] = {
/* columns rows colors chars-per-pixel */
"48 48 256 2 ",
"   c #030202",
".  c #0B0101",
"X  c #070506",
"o  c #130705",
"O  c #050719",
"+  c #021316",
"@  c #181514",
"#  c #061B26",
"$  c #0A1430",
"%  c #34180F",
"&  c #72330A",
"*  c #713829",
"=  c #442914",
"-  c #524B30",
";  c #6E4930",
":  c #754018",
">  c #083B4B",
",  c #153A56",
"<  c #0F324B",
"1  c #2F3C45",
"2  c #753553",
"3  c #0B4457",
"4  c #3D4F4C",
"5  c #216242",
"6  c #10536E",
"7  c #365979",
"8  c #2E5769",
"9  c #166978",
"0  c #17767C",
"q  c #0D7274",
"w  c #296678",
"e  c #35637A",
"r  c #356E6B",
"t  c #4E5053",
"y  c #704D5B",
"u  c #6E6958",
"i  c #475A6A",
"p  c #455979",
"a  c #575169",
"s  c #63536C",
"d  c #664A6E",
"f  c #48707A",
"g  c #6F7F7C",
"h  c #BC1914",
"j  c #BB1D06",
"k  c #8E3812",
"l  c #B12B13",
"z  c #B41921",
"x  c #B70E35",
"c  c #913239",
"v  c #B92526",
"b  c #A23336",
"n  c #B03230",
"m  c #9A1C06",
"M  c #CA0417",
"N  c #D91918",
"B  c #D01312",
"V  c #FA130D",
"C  c #F7091C",
"Z  c #E51C1A",
"A  c #F9141D",
"S  c #EA100C",
"D  c #C52618",
"F  c #D4251A",
"G  c #CC3616",
"H  c #E72817",
"J  c #CA1B26",
"K  c #D91725",
"L  c #C71A36",
"P  c #D7183A",
"I  c #D20B2C",
"U  c #FB0B26",
"Y  c #E91628",
"T  c #F81727",
"R  c #F91538",
"E  c #E90D28",
"W  c #C62729",
"Q  c #D62A2D",
"!  c #CA3627",
"~  c #C42738",
"^  c #C73633",
"/  c #DA2D34",
"(  c #E82528",
")  c #ED2332",
"_  c #FD273B",
"`  c #EE2F32",
"'  c #B65739",
"]  c #AC4C31",
"[  c #8F461A",
"{  c #C2421F",
"}  c #C9492C",
"|  c #E6462E",
" . c #D5701C",
".. c #B01A4F",
"X. c #8C394F",
"o. c #B82744",
"O. c #A73547",
"+. c #AF2A4F",
"@. c #A33966",
"#. c #9D396B",
"$. c #CE1B46",
"%. c #D02F4C",
"&. c #F93347",
"*. c #8F4855",
"=. c #B94847",
"-. c #8C5A6E",
";. c #BC5C6B",
":. c #876E6F",
">. c #AD7454",
",. c #CF4B4E",
"<. c #F65154",
"1. c #CE5268",
"2. c #FA5867",
"3. c #F0566C",
"4. c #D6766D",
"5. c #EA6968",
"6. c #EC6D6F",
"7. c #F56157",
"8. c #36A153",
"9. c #698970",
"0. c #418173",
"q. c #B58539",
"w. c #F88C1C",
"e. c #FAB513",
"r. c #DF8121",
"t. c #F3B131",
"y. c #E0AB2C",
"u. c #F5CF0A",
"i. c #D6CC24",
"p. c #F7CE2D",
"a. c #89A954",
"s. c #AEA847",
"d. c #888756",
"f. c #DEA065",
"g. c #E3D369",
"h. c #095F89",
"j. c #165C84",
"k. c #0F5E97",
"l. c #165A99",
"z. c #1D4F8A",
"x. c #295B87",
"c. c #275B96",
"v. c #355A96",
"b. c #35578A",
"n. c #056C8B",
"m. c #0C6889",
"M. c #1B6C84",
"N. c #13658B",
"B. c #1A658E",
"V. c #156B8C",
"C. c #1A6C8D",
"Z. c #176685",
"A. c #09758A",
"S. c #1A738A",
"D. c #0B6994",
"F. c #146593",
"G. c #1B6693",
"H. c #156B94",
"J. c #1C6A95",
"K. c #1B659B",
"L. c #146D9B",
"P. c #1C6B9A",
"I. c #14659C",
"U. c #067596",
"Y. c #13729B",
"T. c #197396",
"R. c #23658B",
"E. c #27678A",
"W. c #34628C",
"Q. c #287389",
"!. c #226695",
"~. c #226A94",
"^. c #22659B",
"/. c #226C9A",
"(. c #2B6799",
"). c #346794",
"_. c #247294",
"`. c #23739B",
"'. c #2B749B",
"]. c #2C7A9D",
"[. c #277694",
"{. c #36759A",
"}. c #337388",
"|. c #195DA3",
" X c #0E5DBC",
".X c #2A5BAC",
"XX c #0B6AA5",
"oX c #1D6BA2",
"OX c #1C69AB",
"+X c #1767A5",
"@X c #0878A5",
"#X c #1873A6",
"$X c #1766B4",
"%X c #106FB7",
"&X c #2567A7",
"*X c #2674A3",
"=X c #337CA2",
"-X c #3677A5",
";X c #306AAF",
":X c #505592",
">X c #487A97",
",X c #4F748D",
"<X c #607F9E",
"1X c #4878A5",
"2X c #625195",
"3X c #266BCB",
"4X c #9C3181",
"5X c #C37A8A",
"6X c #E36E80",
"7X c #0E8393",
"8X c #34898F",
"9X c #3B83AC",
"0X c #3781A5",
"qX c #2381A3",
"wX c #0080B1",
"eX c #51879B",
"rX c #4389AE",
"tX c #4687B4",
"yX c #5B93AA",
"uX c #748A8E",
"iX c #BA9097",
"pX c #A7ACA1",
"aX c #CF8A8E",
"sX c #ED8E92",
"dX c #D3AC93",
"fX c #D899A7",
"gX c #F396A9",
"hX c #D0B7AA",
"jX c #E3AFAA",
"kX c #F0F08F",
"lX c #D4C8B3",
"zX c #EADBAD",
"xX c #87BAD5",
"cX c #FAB9CF",
"vX c #B4CECB",
"bX c #BAE6CF",
"nX c #93D2E0",
"mX c #CECDCC",
"MX c #E7C6CD",
"NX c #F0CFD7",
"BX c #D3F5DC",
"VX c #F2F2D1",
"CX c #DAC8EB",
"ZX c #D8F8FC",
"AX c #D3F8F1",
"SX c #E8EBE8",
"DX c #FAEBE6",
"FX c #E8FAE5",
"GX c #FEFBEB",
"HX c #FAF6EB",
"JX c #FFEEFD",
"KX c #E9FBF9",
"LX c #FDFDFD",
"PX c #FAF9FA",
"IX c #ECE7F8",
"UX c #FED1FA",
/* pixels */
"J.J.~.P.J.J.J.J.H.P.J.J.P.P.~.~.U.U.L.&X&XP.C.A.C.A.U.A.Y.~.!.!.~.K.~.K.~.J.J.!.P.J.J.J.P.J.J.J.",
"J.J.J.J.J.J.J./.J.J.J.J.P.J.J.J.E.~.Y.U.U.U.Y.~.E.~.V.G.J.~.J.B.J.~.J.~.J.~.~.J.J.J.J./.J.J.J.J.",
"J.~.J.J.J./.J.J.J.J.J.J.J.J.J.J.:XW.R.0 0 E.E.b.W.R.!.K.!.~.C.V.J.J.J.J.J.J.K.~.J.J.J.J.J.J.J.J.",
"P.J.J.P.J.J.J.J.!.!.J.J.J.H.H.T.@XH.7 i s a i p R.G.G.K.^.!.J.V.J.J.J.J.J.J.J.J.J.J.J.J.G.J.J.J.",
"P.J.J.P.J.J.P.~.J.!.J.J.J.H.J.H.XXc.d o.$.P $.O.9 V.D.XXOX&X^.!.J.J.J.J.J.J.J.J.J.J.J.J.J.J.J.J.",
"J.J.J.~.J.J.J.J.J.G.G.J.J.J.F.G.A.E.a O.v N J J i 7 R.I.+XOXc.K.J.H.H.F.H.G.H.H.J.J.G.J.J.G.J.G.",
"~.J.J.J.P.~.J.P.J.H.G.J.G.J.J.J.s y O.v Q Z Z N b X.a c.K.XXL.D.H.G.J.G.J.H.H.G.G.J.G.G.G.J.G.J.",
"J.J.J.J.J.J.J.J.H.H.H.G.J.G.J./.o.L K U C A T ( E v X.p E.Y.U.A.J.F.H.H.J.F.G.G.G.G.G.J.J.G.J.G.",
"/.J.P.J.J.J.J.!.~.m./.m.7X9 p 8 ! h Q H Z Z B Z Q E O.4 e v.+X;X/.G.N.V.C.J.K.K.G.J.G.G.G.G.J.G.",
"~.P.P.J.J.J.J.!.m.V.&XH.qX2X#.X.Y R U T T A _ ) W E / +.+.s 0 V.~.B.G.H.H.J.P.J.J.G.J.J.J.J.G.G.",
"J.P.J.J.J.J.!.!.n.&X).D._.2 I l M T E / ` ) ) J D B N N I y 9 W.R.M.G.K.K.F.K.G.G.G.J.G.G.J.J.J.",
"~.J.J.H.J.J.~.!.n.v.c.U.7XX.J { / Y ) D W _ T _ <.7.7.5.4.:.i i w E.!.oX+XK.J.J.J.J.G.J.J.J.J.J.",
"J.J.P.G.J.J.!.!.m.c.c.U.A.X.M j n z W n n } v ,.CXZXPXHXFXsXM z w R.*X&XOXoX/.~.J.J.J.J.J.J.J.J.",
"G.G.G.H.J.J.~.!.Y./.c.Y.6 X.I h x L J &.` ^ =.c NXKXPXVXAXaXx 2 x.G.K./.P.P.J.C.J.J.J.J.J.J.J.J.",
"G.J.G.G.J.J.~.!.n.Y.(.~.m.pXgXsX-.u *.%.%.;.hXdXg.g.dX>.9.2X2X2XG.G.F.G.P.C.J.C.J.J.J.J.P.J.J.P.",
"G.G.G.H.H.G.G.!.H.T./.m.q nXPXZX8X0.uX+.o.jXPXJXu.p.s.o @ > 7X7 oXI.J.T._._.~.~.P.J.P.J.J.~.J.J.",
"J.J.G.J.J.J.P.P.'.P.Y.H.j.xXKXLXyXT.,X;.o.fXAXHXi.t.s.X $ 3 4 ,X}.Z.Y.L.F.x.(.c.~.J.J.J.J.J.P.J.",
"G.G.G.G.G.J.J.G.j.m.H.*Xj.>X,Xf R.m.yXhXjXmXFXVXVXVXkXy.t.4.v o.e j.G.P.H.G.~.P.J.J./.J.J.J.~.J.",
"G.G.J.J.J.B.F.G.T.T.~.=X(.-X>X>X1X'.yXmXlXFXPXHXPXKXkXe.e. .S E p 7 G.P.H.G.T.Y.J.P.J.J.P.J.J.J.",
"G.J.J.J.J.J.J.G.9 J.l.{.-XrX_.0XtX=X,XiXaXMXSXFXJXLXVXg.t.f.1.;.,XW.K.L.H.V.Y.L.~.J.J.J.~.J.J.P.",
"J.J.J.P.J.J.J.G.m.0X'.-XtXtX`.T.m.n.8 o.L 5XvXhXBXFXKXZXLXJXPXJXeX[.G.L.H.B.!.P.J.J.~.P.J.J.~.J.",
"G.G.G.G.G.J.J.J.H.0X~.(.'.0X`.qXQ.S.a I E 5XmXmXLXVXBXZXLXDXBXPXeX_.F.Y.F.R.!.^.J.J.J.J.J.J.J.J.",
"J.J.H.B.G.J./.`.].0X{.rX0X].Z.V.2 a X.N Y 5.aXaXcXmXMXKXLXDXbXbXeXC.D.L.J.C.~.K.P.~.J.J.J.J.J.P.",
"P.P.G.G.J./.`.*X{.{.].rX0X_.Z.~.$.%.L H S <.3.3.jXbXmXPXBXUXmXvX,XE.h.Y.T.G.J.H.J.J.P.J.P.~.J.J.",
"F.P.P././.'.'.{.-X1X>X}.Q.P.I.F...H j N T ` 7.3.fXhXlXGXGXSXvXvX,X0 q 6 ;XY.Y./.~.J.J.J.P.J.J.J.",
"oX*X*X`./.-X-XtXrX{.(.E.B.F.C.0 $.T G 7.2.7.2.3.=.%.~ ,.%.-.}.8XK.&XL.D.&X/.~.C.P.J.J.P.~.J.J.P.",
"F.J.P.~.~.[.=XrX]._.~.oXk.N.9 8 v A Q 5.3.6.3.6X/ U U ) R @.w 9 I.&XK.U.m.).v.C.J.J.J.~.J.J.J.~.",
"N.P.[.].=X=X{.{.D.C.Q.*X+X9XyX<X,._ / 3.3.2.<.5./ H F l P X.i 7 M.Q.S.A.A.~.R.P.J.J.J.J.P.J.J.J.",
"J._.].=X0X0X[.E.%XT.0 H.K.nXZXIX4.2.1.3.<.&.T H T C S V A K $...7 M.m.D.oXU.D./.P.J.J.P.J.J.~.J.",
"].'.].[.'.'._.Z.$XT.9 N.j.vXPXJXf.3.4.4.7.,.K C K B F H H F B m a 7 oX|.;XXXY.!.J.~.J.J.J.P.P.J.",
"9X9X9X=X'.'.`.~.$XS.M.&Xj.pXg.g.dXgXfX,.&.4.sXsXf.6X4.] | |  .r.>.9.uXz.*XXX*XG.J.J.J.J.J.J.J.J.",
"].0X9X=X/.B.B.G.OX0 m.3Xj.a.i.u.VXJXcXM U fXKXKXlXMXlXd. .y.p.e.u.i.g.5 M.z.-XD.J.J.P.~.J.~.J.J.",
"tX9X-X*X`.P.T.Y.$XC.H. Xc.a.i.i.ZXHXhXM V aXKXDXCXmXdXq. .w.e.t.e.u.s.q (.).`.!.J.~.~.P.J.J.J./.",
"*X/.J.J.G.H.F.F./.9 0 +Xk.r 9.u <XeXuXl H ] ;.<.*.=.n z J ` | } u 8.0.n.P.I.I.j.P.J.J.J.J.J.J.J.",
"~.J.G.F.G.H.H.H.J.9 S.T.D.+X&Xl.b.k.r ] } ] h M B D D v J R R Y v.U.P.D.].#XOX_.J.J.J.J.J.J.J.J.",
"/./.~.J.P.P.T.J.oX|.K.S.V.OX%XY.E.OXr { ! ] D v $.n n v l D F D 4Xy d B.Q.L.+X/.J.J.J.J.J.J.J.J.",
"`./.J.G.J.P.H.J.T.$XOX~.~.+XP.q j.%Xi { G ' G ] v.9 t ..I N T U $.S b n.^.E.D.!.J.J.J.P.J.J.J.K.",
"J.J.F.H.J.G.J.G.S.J.K.C.!.|.m.r |.;Xi ' } ' n ' v.n.i +.n ! ( ` P V o.wXOX{.T.).G.G.G.G.J.J.G.G.",
"J.J.H.J.J.P.J.J.9 ~.J.Q./.+XF.9 p d t [ [ [ y u 7 q w a t b C B P A %.7Xl.J.D.x.J.G.G.J.J.G.G.G.",
"P.J.J.J.J.J.J.C..X&XJ.M.T.P.I.P.- [ ; & [ a .XR.U.@X;X.Xc.@.R l T Z x ,Xw I.XXP.G.J.G.G.G.J.G.J.",
"J.P.J.~.J.J.~.J.P.P.J.J.J.P.J.J.* ; & & * 4 G.OXS.=XoXI.[.s b B J L n 0 ^.A.b.U.J.G.C.G.J.H.G.J.",
"J.J.J.P.J.P.J.J.J./.P.J.J.~.J.P.7 e 4 % % + # # @ @ # # # = & m v l b 9 c.Y.b.U.G.J.J.G.G.J.G.G.",
"J.~.J.J.J.~.J.P.J.J.J.J.J./.~.P.$XL.6 O X X X . o X o o o = [ k * : * 9 l.H.v.XXJ.G.J.J.J.G.J.G.",
"P.J.J.J.J.P.J.J.G.G.J.J.J.J.P.~.K.A.6 < $ $ + o $ O O o . % - - 4 - t Z.I.H.c.D.J.J.J.G.J.J.J.J.",
"J.J.~.P.J.J.J.J.J.J.J.J.J./.J.P.x.C.9 7 7 > + . X X o @ O , ).Y.M.w 7 P.&XL.(.P.J.J.J.J.J.J.J.J.",
"J.J.J.J.J.J.P.~.J.P.J.J.J.J.J.J.+Xn.A.[.W., + . X   X   O < x.B.OXJ.(.oXOXJ.~.J.J.J.J.J.J.J.J.J.",
"J.J.J.J./.J.J.J./.~.J.J.J.J.J.C.+XU.n.Z.W.6 > 1 , 3 3 > , 8 e w +XV.M.oXXXC.C.(.J.~.P.J.J.P.J.J.",
"J.~.P.J.J.J.J.J./.P./.P.J.G.G.J.j.T.S.Q./.H.L.'.b.Q.J.m./.*X#X@X+XM.0 /.#XH.J.c.J.P.J.~.J.J.J.J."
};
