/* XPM */
static char *xpm_[] = {
/* columns rows colors chars-per-pixel */
"48 48 256 2 ",
"   c #060604",
".  c #140205",
"X  c #060715",
"o  c #0B1011",
"O  c #260912",
"+  c #041728",
"@  c #0F0929",
"#  c #13292F",
"$  c #092010",
"%  c #5D3D00",
"&  c #78342A",
"*  c #69280F",
"=  c #564E32",
"-  c #6B4530",
";  c #64692C",
":  c #123C50",
">  c #74364D",
",  c #793865",
"<  c #573C4B",
"1  c #0B4A50",
"2  c #345C59",
"3  c #0E5773",
"4  c #3C5A7A",
"5  c #305670",
"6  c #04697E",
"7  c #176878",
"8  c #0F706D",
"9  c #266779",
"0  c #326579",
"q  c #2B6E76",
"w  c #1A615D",
"e  c #525054",
"r  c #6F4A54",
"t  c #6C6A51",
"y  c #4A5877",
"u  c #575473",
"i  c #535068",
"p  c #6C4C6B",
"a  c #506A72",
"s  c #607B5A",
"d  c #146930",
"f  c #BA0419",
"g  c #AD1710",
"h  c #8F3512",
"j  c #B8291B",
"k  c #AE2B13",
"l  c #B2182B",
"z  c #913936",
"x  c #8F3132",
"c  c #B82427",
"v  c #B72836",
"b  c #A83338",
"n  c #AF3135",
"m  c #9F1400",
"M  c #C8190A",
"N  c #CC1C19",
"B  c #D81617",
"V  c #D50E09",
"C  c #E70915",
"Z  c #FB0917",
"A  c #E51918",
"S  c #F9131C",
"D  c #F10E08",
"F  c #C52405",
"G  c #C82217",
"H  c #D62719",
"J  c #D23C16",
"K  c #EE2617",
"L  c #CD1429",
"P  c #D91825",
"I  c #C91833",
"U  c #D31635",
"Y  c #D90720",
"T  c #FB0C27",
"R  c #EA1827",
"E  c #F51627",
"W  c #EB0E34",
"Q  c #C72526",
"!  c #D92825",
"~  c #C52434",
"^  c #CA393C",
"/  c #CE302E",
"(  c #E62837",
")  c #EB2C2E",
"_  c #AB4718",
"`  c #954C30",
"'  c #B04531",
"]  c #864412",
"[  c #CD7218",
"{  c #EA701D",
"}  c #D04F38",
"|  c #923151",
" . c #AE2B49",
".. c #8B396B",
"X. c #AD386B",
"o. c #BF1E52",
"O. c #CE194E",
"+. c #F2124A",
"@. c #D32E4A",
"#. c #EF384E",
"$. c #934847",
"%. c #AA4F4C",
"&. c #8C4F6D",
"*. c #A47E51",
"=. c #C94949",
"-. c #D44C51",
";. c #E84954",
":. c #E95858",
">. c #F55250",
",. c #E66452",
"<. c #F95767",
"1. c #E95467",
"2. c #D17276",
"3. c #ED6D78",
"4. c #FB6975",
"5. c #F17272",
"6. c #CE5766",
"7. c #73823F",
"8. c #3EA266",
"9. c #4B8379",
"0. c #7A837A",
"q. c #5D865E",
"w. c #AFB022",
"e. c #F6B116",
"r. c #FF8022",
"t. c #D1B335",
"y. c #F3BB2A",
"u. c #D49A22",
"i. c #D0C515",
"p. c #FDD407",
"a. c #F0C92B",
"s. c #C7C139",
"d. c #B78B79",
"f. c #A18964",
"g. c #E9A959",
"h. c #EAC971",
"j. c #D3D159",
"k. c #075D88",
"l. c #185C89",
"z. c #1A5D98",
"x. c #0E5F95",
"c. c #3C5D88",
"v. c #275E96",
"b. c #375C98",
"n. c #2C588A",
"m. c #096789",
"M. c #13648D",
"N. c #1C658D",
"B. c #166C8D",
"V. c #1B6B8C",
"C. c #186883",
"Z. c #0D738B",
"A. c #097685",
"S. c #177289",
"D. c #0B6997",
"F. c #156692",
"G. c #1B6693",
"H. c #156B94",
"J. c #1C6A95",
"K. c #1C639B",
"L. c #146C9B",
"P. c #1D6B9A",
"I. c #15669A",
"U. c #087497",
"Y. c #137294",
"T. c #13729C",
"R. c #1B7398",
"E. c #216B8B",
"W. c #266688",
"Q. c #24748A",
"!. c #236593",
"~. c #2A6492",
"^. c #226B94",
"/. c #24659B",
"(. c #2A639B",
"). c #226C99",
"_. c #2A6B98",
"`. c #336696",
"'. c #2A7396",
"]. c #23729C",
"[. c #2C749C",
"{. c #277397",
"}. c #327A9E",
"|. c #37759A",
" X c #396888",
".X c #175CA6",
"XX c #2A5DA2",
"oX c #315CB0",
"OX c #0969A9",
"+X c #1C6BA3",
"@X c #1767A6",
"#X c #0476A6",
"$X c #1C74A3",
"%X c #0965B1",
"&X c #0A73B9",
"*X c #176EB6",
"=X c #2766A7",
"-X c #3863A1",
";X c #2673A3",
":X c #367DA4",
">X c #3A7CA2",
",X c #366BB8",
"<X c #266BB7",
"1X c #48588D",
"2X c #4B708E",
"3X c #716289",
"4X c #A53484",
"5X c #947699",
"6X c #C47A87",
"7X c #008589",
"8X c #27828E",
"9X c #0D83B0",
"0X c #3983A8",
"qX c #2580AC",
"wX c #4F8293",
"eX c #518BA5",
"rX c #6394A5",
"tX c #6CADC3",
"yX c #9F9EAC",
"uX c #D38E85",
"iX c #F68A90",
"pX c #ECA593",
"aX c #ED97AB",
"sX c #D3B6B5",
"dX c #E8A1AE",
"fX c #F1B2B7",
"gX c #D4AB8D",
"hX c #B9D3B2",
"jX c #D0D599",
"kX c #F3D386",
"lX c #D0CEAF",
"zX c #EAE68D",
"xX c #AEB5C6",
"cX c #88A7D5",
"vX c #F8B5C7",
"bX c #91D1C3",
"nX c #B3C6CA",
"mX c #BFC3E0",
"MX c #B6F6D1",
"NX c #C3D1D1",
"BX c #F0D5CD",
"VX c #D6FEDF",
"CX c #FDE7DC",
"ZX c #FFF6DA",
"AX c #ECEED4",
"SX c #D9D9E6",
"DX c #F1D9E7",
"FX c #D7FDEC",
"GX c #D7FDFB",
"HX c #C9E8ED",
"JX c #FAF9E8",
"KX c #F8EAFE",
"LX c #E5FFFF",
"PX c #EDFAFC",
"IX c #FBFAFB",
"UX c #EEF8EB",
/* pixels */
"J.J.J.J.J.J.^.P.J.J.J.J.^.P.P.^.Z.F.~.v.K.L.L.P./.1XZ.7XB.Z.U.oXJ.b.E.Z.!.H.U.=X^.G.).J.P.J.J.J.",
"J.J.J.P.^.P.P.J.^.J.P.J.J.J.J.J.P.K.^.J.R.J.^.!.U.+XP.P.(.G.U.H.P.v.G.H.!.G.T.(.G.P.J.J.J.P.J.J.",
"G.J.J.J.J.P.^.P.J.J.^.J.J.J.).J.-X/.Y.Z.S.E.!._.(.^.v.-X`.`.c.W.T.).J.Z.!.^.H.^.P.J.J.J.J.J.J.P.",
"J.J.G.J.J.^.P.J.J.J.J.P.J.J.J.J.b.^.Z.Z.V.^.P.@Xc.y u i u 4 E.T.T.T.Y.J.!.E.V.H.H.J.J.J.J.J.J.G.",
"J.J.J.J.J.J.P.^.^.P.J.J.^.J.J.J.G.N.N.N.!./.@X#Xp o.U B W | v.@XP.Y.Y.H.G.!.N.Y.J.H.J.J.J.J.G.^.",
"J.J.J.J.J.).P.P.J.J.J.J.P.J.J.P.Z.B.~.(.(.(.(.`.> ~ M k M z 7 I.c.F.H.J.F.^.~.B.H.H.H.J.G.G.G.!.",
"J.G.J.J.J.^.P.^.J.J.^.J.J.J.J.^.Z.K.(./.E.4 i | Q R H G G b r ..1X!.B.J.U.^.b.U.H.H.J.H.J.G.^.K.",
"J.J.J.J.J.P.J.P.J.P.J.J.P.J.J.J.U./.XX/.C.2 z B A R T T E R I I , 0 C.M.D.K.b.H.H.H.H.J.G.G.G.^.",
"J.J.J.^.J.^.P.J.P.^.P.J.J.J.R.P.G.9X$Xc.2 t j A A C S ^ / Y E R r e 5 9 #X@Xb.Z.H.J.P.^.^.G.G.F.",
"J.G.J.J.J.P.J.).P.P.J.J.J.J.J.J.4 D.;X$.l O.I A A A B R ) ) ! G  . .&.y L.@X~.A.H.H.J.G.G.G.J.J.",
"J.J.G.J.J.J.J.J.J.R.P.J.J.P.R.P.1X+X`.z C W U M Z R R Z T S B A Y U b p M.@X/.A.J.H.G.G.^.G.J.J.",
"J.G.J.J.J.J.J.J.J.J.J.J.J.J.J.P._.1X5 f.,.3.5.>.-.Q Q R K H / ) ) ! b e Z.+X!.m.T.J.J.G.^.K.^.J.",
"J.G.G.J.J.J.J.J.B.F.M.B.G.G.J.J...U g DXFXVXUXFXpXg L j Q G c f B g l e S.T.v.m.R.R.J.P.^.J.J.P.",
"J.J.J.J.G.G.G.J.J.J.J.J.J.J.P.P.| g m KXKXCXJXPX*.f L l B R @.O.f c b p C.T.!.6 J.J.P.^.).J.J.J.",
"J.J.G.J.J.G.J.G.P.P.P.J.P.].].].e = - 5X5Xd.h.h.jXpXfX%.L l e y 6XdXfX3Xm.#X=Xm.m.M.J.J.).).P.J.",
"G.P.J.G.G.G.G.G.J.B.J.J.J.J.J.R.L.7X8X+   ; a.p.jXZXJXz Y b 8 A.bXLXPXrXm.U.>XE.k.M.F.J.^.{.J.J.",
"J.J.J.M.G.J.G.G.F.J.K.).).P.D.D.q `.c.@ . % t.w.BXFXCX' ~ | 3 OXcXLXGXeXB.U.G.|.G.J.J.J.J.^.P.P.",
"J.J.J.J.G.M.J.J.P.P.).P.P.F.m.m.,  .@.g.t.j.ZXJXAXUXUXhXyXsX6 v.W.2X0 3 J.$XI._.P.G.G.J.J.P.J.^.",
"J.J.G.G.G.G.G.G.H.H.J.P.P.P.H.H.4XW V e.i.j.BXPXJXJXDXSXNXxXW.c.D.l.3 3 R.$XI.G.J.J.P.J.J.P.P.P.",
"J.G.J.G.F.J.G.J.M.M.m.F.P.R.P.R.&.6.} g.j.zXZXIXFXAXKXsXdXyXZ.#Xm.L.P.J.G.P.;XG.J.G.J.J.J.^.P.^.",
"J.J.G.G.F.G.J.G.H.F.F.F.H.P.F.M.nXIXIXIXJXZXJXAXSXNXsXc +.> l.*Xk.m.L.D.l.).;Xl.J.G.J.J.P.^.P.J.",
"J.J.J.G.J.N.F.J.P.G.B.H.^.^.J.l.xXPXPXPXKXKXIXIXHXnXlX' W $.2 R.~.^.+X$XF.N.G.I.J.J.G.J.J.P.^.P.",
"J.G.J.G.F.J.G.J.G.N.N.J._.;X_.(.yXSXDXIXIXKXSXSXvXiXuXc D n | &.5 n.+XR.J.7 E.;XJ.P.G.P.J.J.J.P.",
"J.J.J.G.G.G.G.J.!.!.N.).}.;X|.~.tXSXdXUXFXUXlXlX6X<.3.L T P P v u 1XK.D.{.E.V.G.J.G.J.^.J.).).J.",
"J.G.G.J.G.J.G.J.z.^.E.C.7 C.B.S.tXxXbXCXCXMXsXfXgX4.>.R ) ) B _ > 6 7X=Xv.!.T.F.G.B.B.J.J.J.H.J.",
"G.J.G.J.J.G.J.G.B.J.G.K.=X+XP.x. X2X2X6.#.=.W +.%.:.2.1.<.>.C V ..Y.OX;X^.E.Y.[.P.P.P.J.J.J.J.J.",
"J.G.J.G.G.J.F.J.B.B.G.K.=X;XT.M.3 7 W.o.Z J K ( ;.4.2.3.-.,.K Z &.qX%XI.8X{.D.~.P.J.P.P.J.J.J.V.",
"G.J.G.J.J.G.J.G.H.^.^.E.C.7 A.A.5 2Xp @.T K S E ) >.:.4.<.<.( K ` wX,X3 A.;X@XoXN.B.F.J.J.R.P.J.",
"G.J.G.J.G.J.G.J.z.^.Q.S.C.m.D.OX4Xo.@.T E ( E K D D V >.<.<.<.:.pXPXPXrXA.Z.+X-XF.F.G.J.J.J.J.J.",
"J.G.J.F.J.G.J.F.!.!.J.L.+X@X<XoX> m F M L U W R V V ) ,.5.<.3.2.dXJXIXwX6 S.Q. XJ.J.J.J.R.J.J.J.",
"G.J.G.J.G.J.G.J.N.G.@XOX).2X0.f.[ { { { } -.6X2.aXpX6X;.^ #.fXsXfXkXkXa U.J.S.W.J.J.J.J.P.J.P.J.",
"F.N.J.G.J.G.J.G.C.I.*X@X0 7.i.p.y.i.e.u.{ *.lXnXHXGXCX@.Y #.JXUXkXi.a.t %X@X$X<XM.F.F.J.J.P.P.J.",
"J.F.G.J.J.J.J.J.B.N.m.l.8 *.t.p.e.y.a.[ ,.d.sXxXBXIXKX-.Q %.HXIXkXs.w.q.-X,Xx.L.P.I.F.P.G.N.G.^.",
"G.J.J.G.G.G.J.G.E._.P.K.#XQ.9.8.$.! ^ k Q b =.=.} =.%.H H ' wXwX0.s q.0 G.{.7 B.P.P.J.).).^.^.^.",
"F.G.G.J.J.J.J.J.I.!.(.=X#X%XOXU.X.W W N / k c j f V m ) } ` 2 /.z.3 ).x.l.q 7 N.R.P.P.P.).^.^.^.",
"J.J.G.J.J.J.J.J.D.I.~.`.L.c.3Xy %.! A H H c b  .| ^ k } b %.9 &XI.I.$XI.H.{.N.v.P.G.G.J.^.G.^.G.",
"G.J.J.J.G.J.^.P.Y.H.!.I.N.p @.! R S A A I ..4  X&.' _ / ' %.Q.#X@X=X^.S.P.*X+XN.G.G.J.G.G.^.^.J.",
"J.J.J.J.J.J.J.J.Q.Y.=X#X+Xu W Z S ) ! ~ o.&.q q t _ _ ) -.$.q T.oXXX!.C.K.@XV.8 P.P.P.G.G.).{.!.",
"G.J.J.J.J.J.P.J.E.L.-X#XL.u +.S C R N z < i 8 3 a r ; _ _ & 2 u 9 v..XG.N.K.G.7 P.P.P.F.G.).].^.",
"J.J.G.J.^.P.^.P.=X@Xb.U.9 e R D v v l y v.,X&XoX*X<XQ.- ] - = k d 7 .XK.E.G.=X/.P.P.P.l.M.^.{._.",
"G.G.J.P.J.P.^.P.N.V.F.L.N.u b C k v X.5 S.|.1XQ.*Xk.3 e - * ] * w 7 N.).+X=XN.V.P.J.G.J.J.E.^.'.",
"J.B.J.^.J.P.P.^.N.J.J.H.C.e z N ] m & $ # @ @ + # + # O O O u y 9 W.E.P.P.G.G.N.J.J.P.{.[.[.}.>X",
"G.J.J.J.^.P.^.P.P./.P.B.C.2 - h ] h h   $     $ .   . .   + ~.<XW.E.^.J.F.G.G.^.M.J.[.0X0X:X:X:X",
"J.J.J.J.J.P.P.P.P.P.K.J.N.9 2 = < r > .   . o X . . @ # # 1 W.L.z.K.J.J.B.J.^.).N.J.[.0X0X:X}.[.",
"G.J.J.J.J.J.P.).J.J.^.P.+X).W.0 J. X0 + o O O O @ X X 5 a W.!.L..XK.K.J.V.R.^.).'.'.[.:X:X:X^.J.",
"^.J.J.P.^.J.J.J.J.V.N.^.=X@XP.G.D.M.3 +         . o + 5 |.^.D.&XI.I.J.R.V.J.^.^.}.}.}.}.:X_.N.N.",
"J.J.J.^.J.P.^.J.^.J.V.R.P./.K.P.~._.{.: : : 1 1 # : : l._.K.D.OXG.H.H.P.P.{.'.}.2X0X:X}.'.E.N.J.",
"J.J.P.J.J.J.J.J./.J.S.B.J.G.B.C.G.$X;X/.-X1X~.~.q {.k.I.!.|.!.v.B.B.I.I.P.;X8X0X|.0XeX}._.l.C.^."
};
