/* XPM */
static char *xpm_[] = {
/* columns rows colors chars-per-pixel */
"48 48 256 2 ",
"   c #010203",
".  c #070605",
"X  c #160603",
"o  c #080815",
"O  c #0D1710",
"+  c #230406",
"@  c #381917",
"#  c #00201D",
"$  c #111331",
"%  c #182738",
"&  c #022332",
"*  c #342C21",
"=  c #420900",
"-  c #4A1C1E",
";  c #583007",
":  c #693717",
">  c #7B3B12",
",  c #733111",
"<  c #6F352D",
"1  c #682928",
"2  c #78410D",
"3  c #724214",
"4  c #59492D",
"5  c #6B4222",
"6  c #123648",
"7  c #06354F",
"8  c #173563",
"9  c #553C5A",
"0  c #7B3C75",
"q  c #7D3C54",
"w  c #074156",
"e  c #1C4553",
"r  c #146D58",
"t  c #39625C",
"y  c #075B7C",
"u  c #165C7A",
"i  c #104E68",
"p  c #2F566C",
"a  c #07796D",
"s  c #096678",
"d  c #176C7A",
"f  c #08797B",
"g  c #187478",
"h  c #0F6B60",
"j  c #266868",
"k  c #266A7B",
"l  c #376478",
"z  c #2A727C",
"x  c #2B4954",
"c  c #4D4F55",
"v  c #674959",
"b  c #784657",
"n  c #694F55",
"m  c #4B615F",
"M  c #475877",
"N  c #52546C",
"B  c #654A6A",
"V  c #684A70",
"C  c #5A7369",
"Z  c #6C6B68",
"A  c #6B6E59",
"S  c #A50301",
"D  c #AE0216",
"F  c #BB1D15",
"G  c #A9160F",
"H  c #893519",
"J  c #95371A",
"K  c #8F2C0A",
"L  c #A9281B",
"P  c #BA2419",
"I  c #B03516",
"U  c #A90625",
"Y  c #B0152C",
"T  c #8F2C21",
"R  c #853824",
"E  c #9C333B",
"W  c #8F3231",
"Q  c #AC2B29",
"!  c #B92727",
"~  c #A72A38",
"^  c #B72A38",
"/  c #B13330",
"(  c #8A0928",
")  c #C81B06",
"_  c #CA1619",
"`  c #DA1B1B",
"'  c #D61A17",
"]  c #CA0D13",
"[  c #FB0A17",
"{  c #E6161A",
"}  c #F8151C",
"|  c #F1150E",
" . c #D72505",
".. c #C9241C",
"X. c #D82618",
"o. c #CB2E07",
"O. c #E7231A",
"+. c #F3210D",
"@. c #C91A27",
"#. c #D81928",
"$. c #C91B33",
"%. c #D81935",
"&. c #D20120",
"*. c #E90D25",
"=. c #FC0A2B",
"-. c #E41C22",
";. c #EB1B2A",
":. c #E71628",
">. c #FA1726",
",. c #FB0B38",
"<. c #E41A35",
"1. c #F61636",
"2. c #E10A33",
"3. c #C82629",
"4. c #D42223",
"5. c #D3222B",
"6. c #D92525",
"7. c #DB3128",
"8. c #C62737",
"9. c #D42537",
"0. c #C4313E",
"q. c #CE3B2E",
"w. c #E62327",
"e. c #F82226",
"r. c #ED2437",
"t. c #8B441C",
"y. c #BC4219",
"u. c #814538",
"i. c #CD6C25",
"p. c #C44113",
"a. c #B11C45",
"s. c #873A46",
"d. c #8A3B56",
"f. c #953149",
"g. c #AB2A49",
"h. c #BB2644",
"j. c #AF394B",
"k. c #8B3D6A",
"l. c #AC2B67",
"z. c #C71B45",
"x. c #D41C44",
"c. c #ED1349",
"v. c #CA2B43",
"b. c #D9244D",
"n. c #CB3A4B",
"m. c #C3265B",
"M. c #FA2842",
"N. c #8C4657",
"B. c #9B645F",
"V. c #B97B40",
"C. c #BF524F",
"Z. c #CF5456",
"A. c #D96968",
"S. c #D1787D",
"D. c #C07347",
"F. c #2D8368",
"G. c #F28F35",
"H. c #D7B32A",
"J. c #FBCE19",
"K. c #A8A861",
"L. c #B2CD42",
"P. c #723E80",
"I. c #135B88",
"U. c #0D5F98",
"Y. c #375D88",
"T. c #275C97",
"R. c #385899",
"E. c #2C548D",
"W. c #0C688D",
"Q. c #136C84",
"!. c #126C8D",
"~. c #1C6A8D",
"^. c #1B6789",
"/. c #007A8A",
"(. c #077687",
"). c #167488",
"_. c #0D6D94",
"`. c #0C6D9B",
"'. c #056897",
"]. c #146693",
"[. c #1A6693",
"{. c #166B94",
"}. c #1C6A95",
"|. c #1D659A",
" X c #136C9B",
".X c #1D6B98",
"XX c #067494",
"oX c #137595",
"OX c #246A85",
"+X c #23668B",
"@X c #226A8B",
"#X c #2A6588",
"$X c #376786",
"%X c #236594",
"&X c #216A95",
"*X c #23669B",
"=X c #216D99",
"-X c #2B6595",
";X c #32669A",
":X c #25749E",
">X c #347390",
",X c #275EB8",
"<X c #315AA8",
"1X c #076AA5",
"2X c #1B64A2",
"3X c #156BA2",
"4X c #1A6BA2",
"5X c #1867A9",
"6X c #0672A4",
"7X c #0868B3",
"8X c #1A65B1",
"9X c #007AB2",
"0X c #2262A9",
"qX c #2065A1",
"wX c #2468B7",
"eX c #3173A7",
"rX c #0951A3",
"tX c #43578E",
"yX c #4156A5",
"uX c #5D6194",
"iX c #2673C3",
"pX c #E07F88",
"aX c #0081A0",
"sX c #2380A9",
"dX c #008989",
"fX c #7F839E",
"gX c #4EABA1",
"hX c #989596",
"jX c #8AAC8E",
"kX c #A7A98F",
"lX c #B19EA2",
"zX c #98AAA3",
"xX c #AEB7B1",
"cX c #B79C95",
"vX c #D29DB0",
"bX c #C5B1AC",
"nX c #D89D9A",
"mX c #B2CABB",
"MX c #DDCCAD",
"NX c #D4BECA",
"BX c #E2B8CC",
"VX c #9FC1CD",
"CX c #BBC5C5",
"ZX c #B8D1CA",
"AX c #ACDBF1",
"SX c #C4C7C9",
"DX c #D1CFD1",
"FX c #EDD0D2",
"GX c #F0ECD3",
"HX c #F1D5F0",
"JX c #D7EEEF",
"KX c #F8FBED",
"LX c #E9F7F8",
"PX c #F8F8F8",
"IX c #F7EBEF",
"UX c #C7F1DB",
/* pixels */
"[.}..X.X.X.X.X).[.}.}.[.}.}.}.}.1X{.R.#XQ.#XtXXX1X;XOXu oX4XyXdX X}..X.X.X.X|.&X[.}.[.}.[.}.[.}.",
"}.}..X.X.X.X}..X}.}.}.}.}.}.}.[.*X X}.~.XX!.%XXX&XV f.~ BXPXHXj .X.X.X}..X.X.X*X}.[.}.[.[.}.}.[.",
"{..X}.}.}.}.}..X}.}.}.}.[.}.}.}.+XXX`. X`.`.[.^.).v Q S MXKXJXh  X}..X}..X.X.X.X[.}.[.}.}.[.[.}.",
".X.X}.}.}.}.}..X}..X&X}.}..X}.&X+XXX2X0X5X*XY.0 B s.Q Y FXAXAXI..X}. X.X|.}.|..X}.[.}.[.[.}.[.[.",
".X}.}.}.}.}.oX.X}.}.}.}.}..X[..X^.W.R.0X2X[.l l.v.9.v.Y V y R.T..X.X X}..X.X|.&X[.}.}.[.}.[.[.}.",
")..X.X}.}.}..X}..X.X=X}.&X.X&X.X^.!.R. X!.l t g.) F G a.P.:X].'.}. X.X}..X.X&X.X}.[.].}.[.}.}.[.",
".X{..X.X.X.X}.}..X&X.X.X.X.X&X.X{.{.R.(.M f.s.%.X.w._ %.B y [.%X.X.X}.|.|..X&X|.[.[.}.[.}.[.}.[.",
"[..X.X=X=X.X{.~.}..X&X.X&X.X.X.X{._.#Xg q c.<.[ $.@.] @.C /.T.E.}. X}..X.X.X.X&X[.}.[.}.[.}.[.}.",
".X&X.X}.}.}.}..X}.{.}.&X}.|.}.{.<X#Xj r s.3.6.9./ 8.w.^ v a j 0X}.{.}.}.&X&X=X.X.X}..X}.}.}.}.}.",
"}.}..X}..X}.}.&X).}.}.}.[.}.{.{.3XB g.g.<.X.} 1.=.;.O.-.z.s.d.R.oX}.}..X&X}..X}.}.&X}.}.}..X&X.X",
"}..X}.}.}.&X}.}.!.}.}.}.*X}. X}./.b 2.1.=.X.O.>.[ -.o.' ,.9.^ E. X.X.X&X&X}.}.}.}.}.}.}.}..X}.}.",
"}.&X}.}.}..X}.}.}.}.}.%X[.[.[.{.(.b 4.3.>.X.X.#.O.X.' ' 1.3.^ l .X{..X}.&X}.[.}..X}..X}.&X}.}..X",
".X}..X}.}.}.&X.X).{.}.&X}.}. X[.E.d.6.3.=.-.{ :.w.;.} } =.3.^ tX.XoX&X&X&X}.}.}.&X.X}.}.}.}..X}.",
"}.}.&X}.}..X}.}.}..X}.}.}.}.[. XqXN.;.w.,.w.w.r.;.1.1.;.=.` ^ #X X.X.X&X}.}.}.}.}.}.}.}.}.}.}.&X",
"}.}.}.}.}..X}..X}..X.X&X[.[.}.}.3Xb 6.5.1.8.3.3.6.%.$.3.*.' ! }.{.{.}.[.&X&X&X.X}.}.&X.X}..X.X}.",
"&X.X.X}.}.&X}.}.).{.}.}.%X[.{.{.<Xq ..P *._ ] ] F @.#.F ] ) $.T.{.}.}.&X&X}..X=X}..X}.}.}.}.}.}.",
"}.}..X}.}.}..X}.%X_._./.tX[.T.<XE.9 W S ] U D D U D ] ] K U l.d ,X-X(.OX*X6X X!.}.[.}.[.}.[.}.[.",
".X&X}.}..X&X}.}.+X}.3XXX#XQ.XXXXeXfXnXnXFXIXIXGXKXLXFXGXMXnXvXoX8X%Xd tXyX8XR.Y.{.[.[.}.[.}.[.}.",
"}.}.}.}.}.}.}.}.!.T.5X2X^.d f d dXgXSXDXPXLXPXKXIXPXLXLXDXDXVXs XX(.dX}.5XaX6X).[.}.[.}.}.[.[.}.",
"}.}..X}.&X}..X}._.-X{.R.4X}.^.k.n hXSXZXJXIXHXIXPXIXLXLXBXDXBXk.0 M !.qXqXXX.X{.}.[.}.[.[.[.}.[.",
"=X}.}.&X}..X}.&X4X@Xf tX8X7X$Xb.2.A.bXjXDXDXFXPXLXHXZXDXlXjXkXa.$.0 |.0X#Xk R.0X[.}.}.[.}.[.[.}.",
"}.}.}..X}.&X}.}.0X@Xf #X*XoXN c.w.A.kXfXmXDXDXKXKXDXNXDXxXkXkX~ L v W._.d a ~.7X}.[.[.}.{.}.}.[.",
"&X}.}.}..X}.}..X*X=X{.~.B b ~ <.' q.Z.B.bXbXmXUXUXZXxXbXS.Z.Z.&.! W v V M Q.[.qX[.}.[.[.[.}.[.}.",
".X}..X}.}.}.}.&X&X0X0X~.^ +.[ ;.{ >.1.b.pXcXhXSXbXCXlXcXn.:.r.%.%.*.! h.0 4X2X+X}.[.}.[.[.[.}.[.",
"}.}.}..X.X.X}.}. XT.).W.c.X.o.%.} >.{ 3.pXlXzXCXSXmXnXK.C.{ [ l.R ~ 5.h.m _..X%X[.}.[.[.[.}.}.[.",
"[.}.}.&X&X.X.X&X X[.).`.c...o.#.! 7.` _ v.j.~ n./ j.9.! ^ ' ' N N s.#.8.B .X4XoX}.[.}.}.}.[.[.}.",
"[.}.}..X}.=X.X}.oX].(.XXb.`  .` Y 5.-.-.6.3.3.4...^ *.#.#.` 3.l 4Xv ..@.B 4X5X{.[.[.}.[.[.}.}.[.",
"}.}.}.}.&X}.=X}.!.].oX'.b.-.+.' #.;.} ;.X.3.! P ..I { #.<.w.8.-X5Xn p.y.m '.5X-X[.}.[.}.[.[.[.[.",
"}.}.}.}..X=X}.}.~.[.~._.b.*.+.! 8._ ' { { :.<.-.| ` } _ 3.3./ %XT.A i.i.C  X2X;X}.[.[.}.[.}.[.}.",
"[.}.}.=X.X}.=X}.*X[.OX!.b.>.{ f.~ L F ' ;.1.M.r.e.r.>.6.9...^ T.Q.C V.D.C .X XdX[.}.}.[.}.[.}.[.",
"}.}..X}.}.=X}.}.*X[.OXQ.v.:.6.v b W J L P ! Q J P Q { ' #.` ^ T.|.z Z Z $X*X&XXX{.[.[.}.[.}.}.}.",
"[.}.}..X&X}.=X}.4X}.z s v.#.8.N p c 4 5 H H , > H R _ _ %.3.E XX<X[.k k oX4X;X&X}.[.}.[.}.[.}.}.",
"}.[.[.[.[.[..X}.$X3X&X7Xq._ /  X6Xc < R R J K 4 3 I F 3.I P ~ &X].[.[.[.}.[.[.}.}.}.}..X}..X}.&X",
"[.[.[.[.}.[.[.}.s 1X&X'.G.G.G.Q.`.b L F P ..#.Q ! Q T T J K W !.}.}.}.}..X.X.X}.}.}.&X}.}.}..X}.",
"[.[.[.}.[.}.}.}.eX6X#Xs H.J.H.i _.N.! ' -.>.>.$.x.~ : : > > < Q.}.}..X.X.X&X&X.X&X}.}..X&X}.}.}.",
"}.}.}.}..X&X.X.X1XW.$XsXK.L.K.oX).b J P -.:.<.s.d.f.R T J I s.d [.[.}.}..X}.}.}.}..X}.}.}..X}.}.",
"}.}..X=X&X.X=X=XeX@Xp rXu r r W.;Xv : H 3.$.j.t j f.5.@.7.w.h.d [.[.[.}.[.}.[.[.}.}.}.}..X}.}..X",
".X=X=X=X=X=X=X=XT.+X&XwX8XwX3X1X<Xv ; H ! $.N.OXF.f.=.>.w.} x.k [.[.}.}.}.}.}.}.}..X&X}.}.}.&X}.",
"}.}.&X.X.X=X&X=X:XeX`.Q.].0X5X!.4Xv ; H Q T f.e w f.2.:.w.} $.d [.[..X}..X&X.X}..X}..X}.&X}.}..X",
"}.}.}.}..X}..X.X~.'.`.r F.k -Xk aXC 3 2 t.: 1 o $ ( _ 7.7.O.h.d [.[.}..X}.}.}.}.&X}.}.}..X}.}.}.",
"}.}.}..X}..X.X.X}.[.[.}.}.[.[.}.:Xt < t.K < 4 X + 1 } | +.>.m.M .X.X}..X{.}.).}..X[.{.}.}.[.[.}.",
"}.}.}.}.}.&X.X&X}.[.[.}.}.}.}.}.&Xx X = = @ O . . * J K y.Q N.h .X}.}.}..X.X.X}.{.{.[..X}.[.[.[.",
"}.}.}.}..X.X.X.X}.[.[.}.}.[.[.}.#Xe . X X . . o O * u.H : 1 n a }.}.}.}..X.X.X.X{.{.[..X%X[.[.~.",
"}.}.}.}.}.&X.X&X}.[.}.}.}.[.[.}.-Xi & % $ o   O X - < : < < B OX}.}.}.}.}..X.X}.}.[.{.=X}.[.[.}.",
"~.[.}.}.}..X&X.X}.[.}.}.}.[.[.}.^.y i $X%   . X X X X O c m #XW.)..X.X.X}.}.}.}.{.}.{..X.X[.}.&X",
"[.}.}.}..X.X.X.X}.[.[.}.}.}.}.}.].U.2X>X&   O . o     # i ^.`.U..X.X.X.X}.}.}.{.[.{..X.X}.[.[.&X",
"[.}.}.}.}.&X.X&X}.}.[.}.}.[.[.}.^..X{.:X7 % 6 7 6 6 e i l I.oXyX.X)..X}..X}.{..X}.{.}.}.[.[.&X:X",
"}.}.}.&X}..X.X}.}.[.}.}.}.[.[.}.OXeX'.!.).>X%X2X%X;X.XXXeXoXoX;X{.}.}.}..X.X=X.X{.}.}.}.[.].[.eX"
};
