/* XPM */
static char *xpm_[] = {
/* columns rows colors chars-per-pixel */
"48 48 256 2 ",
"   c #020302",
".  c #0D0000",
"X  c #020A01",
"o  c #090B02",
"O  c #06060B",
"+  c #120606",
"@  c #030216",
"#  c #130115",
"$  c #071318",
"%  c #0E1508",
"&  c #2B0E13",
"*  c #030728",
"=  c #0A1433",
"-  c #0F232F",
";  c #2D2B33",
":  c #2F1818",
">  c #4A0917",
",  c #4E2903",
"<  c #793512",
"1  c #4A2E2D",
"2  c #713E34",
"3  c #62441C",
"4  c #7A4A29",
"5  c #574218",
"6  c #153857",
"7  c #113148",
"8  c #373751",
"9  c #70334D",
"0  c #783B72",
"q  c #533E51",
"w  c #18455E",
"e  c #155978",
"r  c #02586A",
"t  c #315671",
"y  c #17667A",
"u  c #0B6D77",
"i  c #3E657B",
"p  c #326773",
"a  c #126959",
"s  c #53555C",
"d  c #754B56",
"f  c #49557A",
"g  c #57536A",
"h  c #6A496A",
"j  c #496E79",
"k  c #5C6958",
"l  c #B41711",
"z  c #853303",
"x  c #BA251D",
"c  c #AE2E1A",
"v  c #B71933",
"b  c #923230",
"n  c #B82728",
"m  c #AB2B3B",
"M  c #B53232",
"N  c #D81409",
"B  c #D30E17",
"V  c #F90919",
"C  c #E8171A",
"Z  c #F6141B",
"A  c #EE0A13",
"S  c #C32816",
"D  c #D22518",
"F  c #CF2F0F",
"G  c #EF2212",
"H  c #C81B27",
"J  c #D61928",
"K  c #D71A34",
"L  c #D10C2C",
"P  c #F90624",
"I  c #FC1729",
"U  c #E91A37",
"Y  c #F81935",
"T  c #EF0C33",
"R  c #C82328",
"E  c #D32925",
"W  c #C92539",
"Q  c #D92835",
"!  c #C5372D",
"~  c #E8282A",
"^  c #F92737",
"/  c #EF2E36",
"(  c #B6722F",
")  c #9C631D",
"_  c #CF451A",
"`  c #D47831",
"'  c #F36C2E",
"]  c #CF620D",
"[  c #943351",
"{  c #B22E4C",
"}  c #A53A6D",
"|  c #D0174E",
" . c #EE1848",
".. c #C92949",
"X. c #D82746",
"o. c #CC3452",
"O. c #EC2F49",
"+. c #904B51",
"@. c #AF5156",
"#. c #8A4766",
"$. c #8D7078",
"%. c #AC7170",
"&. c #A46853",
"*. c #CE4F4B",
"=. c #E74B53",
"-. c #EE5356",
";. c #C87156",
":. c #E56157",
">. c #CC4867",
",. c #F9566B",
"<. c #D36E72",
"1. c #F46B74",
"2. c #078077",
"3. c #6D9666",
"4. c #ABB43B",
"5. c #DEBE1D",
"6. c #D28629",
"7. c #F0BF3C",
"8. c #FAE812",
"9. c #EAEE34",
"0. c #E4C628",
"q. c #B4944E",
"w. c #B0B94A",
"e. c #809E60",
"r. c #A2987F",
"t. c #D08D51",
"y. c #CE8E70",
"u. c #CAB077",
"i. c #B9C26F",
"p. c #E9D24B",
"a. c #FFD367",
"s. c #0C5D88",
"d. c #1A5A87",
"f. c #1A5D96",
"g. c #14538E",
"h. c #285C89",
"j. c #395888",
"k. c #2A5D98",
"l. c #345C95",
"z. c #36448B",
"x. c #0E668B",
"c. c #036B8C",
"v. c #076887",
"b. c #15658D",
"n. c #1C658B",
"m. c #146B8D",
"M. c #1A6A8D",
"N. c #186785",
"B. c #037789",
"V. c #187389",
"C. c #086A97",
"Z. c #156592",
"A. c #1A6693",
"S. c #166A94",
"D. c #1C6A95",
"F. c #1D669A",
"G. c #146B9A",
"H. c #1C6B9A",
"J. c #15639A",
"K. c #077597",
"L. c #1C7294",
"P. c #1D719D",
"I. c #137498",
"U. c #276687",
"Y. c #33638C",
"T. c #21748C",
"R. c #246493",
"E. c #2A6393",
"W. c #216B95",
"Q. c #23649C",
"!. c #216B9A",
"~. c #2C6995",
"^. c #336794",
"/. c #257193",
"(. c #23739C",
"). c #2C7399",
"_. c #36779C",
"`. c #1C55A1",
"'. c #2B5DA3",
"]. c #0A6AA6",
"[. c #166BA1",
"{. c #1B6BA2",
"}. c #1B65A8",
"|. c #0376A3",
" X c #1C78A6",
".X c #166BB5",
"XX c #2767A5",
"oX c #2373A2",
"OX c #2B75A3",
"+X c #387AA6",
"@X c #306BB2",
"#X c #6C5589",
"$X c #4D7589",
"%X c #4B70AC",
"&X c #666597",
"*X c #2C7AC2",
"=X c #925E8E",
"-X c #BC7D88",
";X c #D47686",
":X c #F47584",
">X c #0B818D",
",X c #29879B",
"<X c #0582A8",
"1X c #3B82A6",
"2X c #328DA9",
"3X c #4A8BAF",
"4X c #7096B2",
"5X c #71ACAD",
"6X c #68979C",
"7X c #7DB7DC",
"8X c #58B8C4",
"9X c #988F92",
"0X c #AC9490",
"qX c #99AB91",
"wX c #ADA992",
"eX c #B499AC",
"rX c #98ACB7",
"tX c #ABAFA9",
"yX c #D89893",
"uX c #E98B9A",
"iX c #CDAF99",
"pX c #FAB78B",
"aX c #DA9CAA",
"sX c #C8AEB9",
"dX c #F6B3AF",
"fX c #E592A4",
"gX c #AED0B0",
"hX c #D6CFB4",
"jX c #EFD3BA",
"kX c #FAEEB1",
"lX c #ADB9D3",
"zX c #E9B8D0",
"xX c #D0ADC3",
"cX c #B6C4C5",
"vX c #AED6C3",
"bX c #AFE8CE",
"nX c #B2D4E5",
"mX c #8CDCD1",
"MX c #C9D6D9",
"NX c #D2D0CD",
"BX c #E4DAD9",
"VX c #F3D3CD",
"CX c #D3E4DC",
"ZX c #F4E5DA",
"AX c #E8EBDA",
"SX c #FBDBE7",
"DX c #DAFEE4",
"FX c #D8FFFB",
"GX c #CEF0E7",
"HX c #E6F5EB",
"JX c #FAF4E8",
"KX c #FAEBF8",
"LX c #E9FAF7",
"PX c #FCFBFD",
"IX c #F9F9F6",
"UX c #F3E9E6",
/* pixels */
"D.D.H.D.D.H.D.D.m.D.W.!.J.S.).k.@Xe u J.@XG.D.K.Q.F.Q.K.W.Y.V.j.D.J.A.D.A.D.A.D.D.D.D.W.H.(.(.OX",
"H.D.D.D.W.D.D.W.D.A.R.H.{.H.R.h.J.v.>XZ.}.J.j.k..X}.k.K.S.XX|.].A.D.A.A.D.A.D.A.H.D.D.H.W.(.).oX",
"D.D.D.W.D.H.H.D.P.Z.Q.A.(.S.d.3X4X8Xp d g t 0 d g f f B.m.E.|.H.D.A.D.A.A.D.A.D.D.D.D.(.!.H.!.!.",
"D.W.H.D.D.W.D.D.H.f.OXA.H.m.N.7XKXHX>.A x b { b c m h C.|.Q.p p A.D.A.D.D.A.D.A.D.D.D.D.D.D.D.D.",
"D.D.H.D.D.D.D.D.H.Z.OXJ.H.A.g.mXJXLX>.T l R U S x W h W.].].G.M.D.A.D.A.A.D.A.D.A.D.D.H.D.D.Z.b.",
"H.W.D.D.W.F.W.D.H.Z.Q.F.(.!.f.3X6X8X#Xh d m K J E J m 9 h U.G.].A.D.A.D.A.A.D.A.A.A.D.D.D.A.A.A.",
"D.W.D.W.D.!.H.D.L.A.D.H.{.P.R.E.B.B.Q.I.p m R E V V x D m s N.H.D.A.D.A.D.A.D.A.D.A.D.D.D.A.A.A.",
"D.D.H.D.D.D.D.D.M.W.!.!.Z.Z.Q.h.I.e l.C.j R S n V P M ..{ p m.Q.A.D.A.D.A.D.D.D.A.D.D.A.A.D.D.A.",
"D.W.D.D.D.W.D.D.D.D.D.A.H.H.J.J.I.~.+.b B C ^ G C N Q  . .H b 0 Z.G.G.H.(.(.W.M.D.F.D.D.D.D.!.D.",
"H.D.D.F.H.D.D.H.D.D.D.D.H.!.H.H.k.N.b m W F J N I A P B Y A R [ P.H.S.Z.S.A.D.D.D.D.W.H.!.D.D.D.",
"W.D.D.W.W.D.D.D.S.D.D.D.H.H.H.H.k.x.m Q H ;.>.:.<.:.*.*.=.N E [ (.L.S.Z.b.A.H.H.D.W.D.D.D.D.D.D.",
"D.D.H.D.D.H.D.W.D.D.D.D.D.A.A.Z.}.B.v P U dXxXVXFXHXBXBXdXE Q } L.M.m.D.P.H.H.H.H.D.W.D.H.D.H.W.",
"H.D.D.W.H.D.D.H.L.H.D.S.D.M.b.b.oXc.m T ,.hXMXBXFXIXBXMXyX! O.} L.S.S.L.{.H.G.!.D.D.H.D.D.W.H.D.",
"D.D.D.D.D.D.D.D.H.D.D.D.D./.L.M.'.c.%.;X;Xk s 0Xa.pX%.k d ;.y.=X(.D.b.S.D.A.A.!.D.W.D.D.D.D.D.D.",
"W.D.D.D.D.D.D.W.D.D.D.S.D./.D.S.f.S.9XrX9Xo . +.' ` ,   $ 9XwX6XP.S.Z.D.D.b.b.W.H.W.W.H.D.H.D.H.",
"H.D.W.F.!.D.D.H.H.H.A.A.S.M.N.N.C.x.6X5X9X. . 3 ' ` , @ = 9XrXrXG.Z.S.oXoXL.D.W.D.D.D.D.W.D.D.D.",
"Q.H.D.D.L.M.M.V.XXk.V.m.k.XXA.d.XXr nXIXKXBXDXuXZ l iXZXCXmXzXrX].J.h.B.E.m.D.k.D.A.A.A.A.D.D.D.",
"D.W.D.D.S.D.S.A.{.R.m.M.'.[.I.h.B.u GXIXPXHXDXfXN l hXIXIXMXzXrXu N.b.B.R.D.G.I.D.A.J.D.A.A.D.D.",
"D.D.D.W.W.W.Q.H.H.A.S.S.XX|.K.&Xh q NXUXKXKXLXdXO.@.VXJXSXcXcXeXg h f K.k.Q.E.S.A.A.A.A.A.D.D.D.",
"D.W.D.!.Q.Q.Q.Q.A.I.H.F.D.x.v.#X .v iXvXCXKXPXSXJXZXPXPXLXGXmXaX .X.h >XF.{.l.S.S.A.A.A.A.D.D.D.",
"D.D.W.W.Q.Q.Q.XXm.K.Q.G.U.i p } P T yXgXMXLXLXHXLXLXIXLXHXNXgX1.I U d y R.K.D.B.D.A.A.A.A.A.D.W.",
"D.D.D.D.W.W.!.!.M.I.XXK.Y.#.+...Q Y :.1.yXNXNXBXBXCXBXCXzX:X;.=.S L [ 9 0 N.k.G.D.A.A.A.A.D.D.D.",
"W.D.D.W.S.D.M.S.S.G.'.K.g X.! ~ E V C Z L 0X0XaXsXcXtXtX%.U B S x B n W | y l.k.A.A.A.A.A.D.D.D.",
"R.Q.D.D.S.L.V.m.L.[.'.K.g T C A Y P D I ~ wXqXsXvXNXtXqX0XQ P E n B n J { 2.b.}.A.A.S.D.A.S.D.D.",
"D.S.A.D.W.!.P.P.Z.W.d.{.p Q A O.! c H R H I U eXDXHXyX1.:.W ~ N H x <.9X9Xa B.S.S.S.S.S.D.S.S.A.",
"D.D.A.R.W.D.D.S.H.(.!.{.p U V -.Q W J J R Y T y.KXKXuX,.-.T I G K v <.eXeXb.H.j.S.D.S.S.A.A.D.D.",
"D.A.D.D.D.H.S.b.Q.b.x.S.j ^ ^ -.+.#.v F x  .L 6.kXkXyX1.-.C Y ..#.9 %.i.u.f.[.f.S.S.S.D.D.S.A.A.",
"S.A.D.Q.!.L.S.S.d.c.c.G.$XO./ @.2.$X{ N l | B 6.8.9.q.1.,.G ~ { Y.t 4.7.5.g.C.K.S.D.S.S.D.A.A.D.",
"S.D.D.!.!.L.H.S.d.I.2X2X$Xo.*.+.B.R.[ J S | L 6.8.9.6.:.,.G / { f.s.w.p.0.j.E.C.S.D.S.J.D.S.S.D.",
"D.D.R.W.!.D.S.S.h.,XOX%X$XuXyX0Xg.h.=X;.&.%.>.u.kXkXt.:.' ! *.@.k.c.3.3.e.{.k.U.S.S.S.A.A.S.D.D.",
"H.D.D.W.W.D.D.S.~.,Xj.%X3XJXUXcXd.v.6XeXqXwXwXbXPXIXu.( ( ( ;.&.k.|.d.y y |.f.H.S.S.S.A.S.A.S.A.",
"H.D.D.!.!.(.(. X).3XY.%X,XIXLXnXs.B.4XxXwXwX0XnXAXUXt.] ] ( q.) `.<XE.t ^.>Xk..XS.S.S.S.A.D.D.D.",
"G.G.S.b./._.+X%X1X1X1X}.s a.p.q.<X[.d _ M o.o.@./ o.jXhXBXBXHXlXv.x.G.H.J.A.A.D.D.D.D.H.D.D.H.D.",
"{.{.b.W.n.1X+X_.OXy s.s.k p.4.4.y z.[ J J H H c Z T hXDXKXHXZXcXx.S.P.{.H.A.M.W.D.W.W.D.D.W.D.D.",
"oXH.OXn.1X+X%X+X+XN.m. Xj i.w.3.M.l.[ E n x l m X.| hXAXSXZXVXxXx.S.H.H.F.A.n.W.D.W.D.D.W.D.W.F.",
"OX+XW.1X).3X+XOXU.e m..Xe j p /.].c.5 z < < < 9 u r ..A l =.;X=Xm.S.G.L.H.D.W.M.D.D.D.H.H.D.D.D.",
"OX~.1XU.3X_.+XR.U.V. X*X}.U.g..X.X+X3 z ) 4 b d B.u >.I ! 1.1.=Xm.S.G.H.H.D.D.W.W.D.D.D.D.W.H.D.",
"+X1X_.1X/.1XW.F.U.m.v.A.N.y u T.M.).; > ; : , 1 a 7 9 H R *.;.h m.I.S.H.H.H.W.W.D.D.H.W.D.D.D.D.",
"+X1X1XT._.S.(.F.).L.c.d.U.m.V.y x.T.- # * . % o > # 1 4 2 c < 2 S.S.S.H.H.H.W.W.H.D.H.D.!.D.D.!.",
"1X1X).T.N.b.S.S.U.I.I.R.~.]..Xk..X+X- + *   + * # $ b z 5 z 5 s I.m.S.G.F.D.D.W.W.D.D.D.D.D.D.D.",
").)././.S.S.M.D.L.D.A.D.A.A.D.(.c._.: # o o $ # $ % o & & & # 8 T.S.H.F.A.b.I.[.D.D.D.W.H.D.D.A.",
").(.L.S.M.M.b.M.D.A.A.D.D.Z.D.(.c.U.* @ % X X     X o + . . @ 7 V.D.H.XXD.b.b.G.D.D.D.D.D.D.A.A.",
"!.W.D.M.m.M.D.M.A.A.A.D.D.Z.A.D.M.N.7 - ; O + +   + o o   - - r m.D.{.H.D.N.M.D.D.D.D.H.D.D.D.A.",
"W.W.m.b.b.b.M.M.A.A.A.D.A.n.Z.D.W.V.B.e t @ O o + +   . $ t t U.b.G.{.{.D.M.n.W.D.F.D.W.D.D.A.A.",
"D.M.b.b.b.b.A.D.A.Z.A.D.A.b.Z.D.~.x.>Xx.t * @ O # + O @ - Y.Y./.b.Z.[.{.L.M.M.W.D.W.D.D.D.D.D.A.",
"A.A.Z.S.S.A.A.R.D.A.A.D.D.A.A.D.R.v.I.v.R.6 6 7 7 7 6 w 6 t d.b.m.S.[.{.L.M.n.!.D.D.F.D.H.D.A.A.",
"S.D.D.S.D.D.R.A.D.A.A.D.A.A.D.!.k.g.(.x.W.R.).E.U.n.)._.d.R.d.Z.N.A.H.{.I.b.A.H.D.D.H.W.D.D.D.A.",
"D.S.H.L.H.D.A.A.D.A.A.A.D.D.!.!.f.Q.+Xn.x.x.oX}. Xc.B.L.x.(.S.I.U.D.H.G.G.b.S.{.D.D.D.D.D.D.A.A."
};
