/* XPM */
static char *xpm_[] = {
/* columns rows colors chars-per-pixel */
"48 48 256 2 ",
"   c #030904",
".  c #000016",
"X  c #001317",
"o  c #1B020D",
"O  c #331906",
"+  c #0B0425",
"@  c #322833",
"#  c #0C313A",
"$  c #4B2A0F",
"%  c #792A03",
"&  c #6F3113",
"*  c #622B26",
"=  c #6F332F",
"-  c #601D13",
";  c #7C4628",
":  c #65452C",
">  c #11304E",
",  c #1B3D67",
"<  c #242F45",
"1  c #533752",
"2  c #6E364E",
"3  c #603D66",
"4  c #2A4852",
"5  c #2E6E5B",
"6  c #145676",
"7  c #0D516B",
"8  c #245A74",
"9  c #3C5A77",
"0  c #314E6A",
"q  c #17687C",
"w  c #17787A",
"e  c #07767A",
"r  c #2F6672",
"t  c #465559",
"y  c #4E4D54",
"u  c #74475A",
"i  c #684B4D",
"p  c #4F705C",
"a  c #475767",
"s  c #54516E",
"d  c #784567",
"f  c #456679",
"g  c #436E65",
"h  c #B31211",
"j  c #89330F",
"k  c #AA2719",
"l  c #B32B13",
"z  c #B81C31",
"x  c #B70D31",
"c  c #9C3827",
"v  c #8F3636",
"b  c #B73527",
"n  c #AB2E2D",
"m  c #DC1B0E",
"M  c #D90616",
"N  c #D31A17",
"B  c #CF0C0D",
"V  c #E91919",
"C  c #F91917",
"Z  c #F70E0C",
"A  c #C1251A",
"S  c #D52518",
"D  c #D02E0D",
"F  c #F12712",
"G  c #C81829",
"H  c #D61A2A",
"J  c #D21033",
"K  c #F90829",
"L  c #E91C25",
"P  c #FA1828",
"I  c #FD0935",
"U  c #E91837",
"Y  c #F21132",
"T  c #CB2629",
"R  c #D93121",
"E  c #CD2737",
"W  c #D72539",
"Q  c #D73332",
"!  c #E62624",
"~  c #F02B2E",
"^  c #BE551E",
"/  c #8C4623",
"(  c #A96C23",
")  c #D2571C",
"_  c #EF601E",
"`  c #CE4D35",
"'  c #CA6933",
"]  c #E97439",
"[  c #DF6518",
"{  c #983849",
"}  c #913951",
"|  c #AD2F46",
" . c #853562",
".. c #B71F52",
"X. c #CD184A",
"o. c #E51841",
"O. c #D33048",
"+. c #F9294D",
"@. c #8E515A",
"#. c #AF787D",
"$. c #B54158",
"%. c #CF4F52",
"&. c #F85957",
"*. c #F0524F",
"=. c #D56F51",
"-. c #FA655D",
";. c #EE6A59",
":. c #F95968",
">. c #FC5A72",
",. c #EC4F6B",
"<. c #D37276",
"1. c #EC6A68",
"2. c #E96777",
"3. c #F36D72",
"4. c #D65D6E",
"5. c #7B8D37",
"6. c #91983B",
"7. c #FF8D1E",
"8. c #F7B50C",
"9. c #CF902F",
"0. c #FFB030",
"q. c #D2AE34",
"w. c #CCC41D",
"e. c #F8C513",
"r. c #D7C937",
"t. c #FEC425",
"y. c #AB9E7E",
"u. c #BBA65A",
"i. c #C38644",
"p. c #F18A48",
"a. c #DA8E7C",
"s. c #E5A17C",
"d. c #E88669",
"f. c #F1D162",
"g. c #5E3F8F",
"h. c #165A87",
"j. c #1A5A99",
"k. c #095893",
"l. c #275C88",
"z. c #365D88",
"x. c #285C96",
"c. c #375A97",
"v. c #364C86",
"b. c #036C84",
"n. c #0D6C8D",
"m. c #09688A",
"M. c #14658B",
"N. c #1B658C",
"B. c #146D8D",
"V. c #1B6C8B",
"C. c #156B84",
"Z. c #0B748C",
"A. c #077587",
"S. c #167289",
"D. c #0C6693",
"F. c #096B96",
"G. c #156592",
"H. c #1A6693",
"J. c #156A93",
"K. c #1C6A95",
"L. c #1E659B",
"P. c #136D9A",
"I. c #1C6A9B",
"U. c #15669E",
"Y. c #017B93",
"T. c #04729B",
"R. c #0A729A",
"E. c #077696",
"W. c #137193",
"Q. c #1D729C",
"!. c #16799A",
"~. c #24658C",
"^. c #286688",
"/. c #356586",
"(. c #226593",
"). c #2A6393",
"_. c #226B95",
"`. c #2A6A95",
"'. c #24649A",
"]. c #236C99",
"[. c #29619C",
"{. c #346798",
"}. c #24729B",
"|. c #2A739B",
" X c #287493",
".X c #33789D",
"XX c #277A8B",
"oX c #1C5EA7",
"OX c #0957AD",
"+X c #2D5CA9",
"@X c #0D6AA3",
"#X c #1A63A3",
"$X c #1A6AA2",
"%X c #1769A8",
"&X c #0477A7",
"*X c #1573A2",
"=X c #1777A5",
"-X c #1965B5",
";X c #0F73B8",
":X c #2567A4",
">X c #2875A4",
",X c #3578A3",
"<X c #2364B3",
"1X c #306FA9",
"2X c #49508C",
"3X c #4B7095",
"4X c #4F7AA6",
"5X c #1365C1",
"6X c #B4708F",
"7X c #AF408C",
"8X c #F87085",
"9X c #F45186",
"0X c #16869A",
"qX c #1681AC",
"wX c #3C83AA",
"eX c #3F88B1",
"rX c #4E8899",
"tX c #4D8AB0",
"yX c #6A8BAF",
"uX c #639096",
"iX c #AB9A9F",
"pX c #C9898B",
"aX c #D38C96",
"sX c #C9B48D",
"dX c #F0A695",
"fX c #F491AB",
"gX c #CFB1AE",
"hX c #DC9AA4",
"jX c #B6C7AB",
"kX c #98D3A8",
"lX c #D1CFAA",
"zX c #F4F3BC",
"xX c #E3DD8F",
"cX c #97BACD",
"vX c #D5B9CF",
"bX c #E5BFD8",
"nX c #ADD0CC",
"mX c #B4C7E2",
"MX c #8AC7D9",
"NX c #D0C8CF",
"BX c #EDCBD4",
"VX c #D5F3D7",
"CX c #F4F1D2",
"ZX c #CED5F1",
"AX c #E9D8E9",
"SX c #DCFDFB",
"DX c #D4F5EB",
"FX c #FAE7E8",
"GX c #E8F7E5",
"HX c #FAFBE6",
"JX c #E6EAF7",
"KX c #FAEAF7",
"LX c #E8F8FA",
"PX c #FFFBFF",
"IX c #FAF6F9",
"UX c #EDEDE3",
/* pixels */
"K.M.V.}. X X.X.XtXtX).h.@X=X&XqXA.c.F.@Xx.x.#X;XT.^.f e ).*X%X%XK.K.K.].K.K.K.K.K.].K.K.K.K.K.K.",
">X_.K. X`..XwXwX0X!.V.`.1X{.l.c.).(.F.s u i } u 8 V.%X&X+XB.^.`.K.K.K.K.K.K.K.K.K.K.K.K.K.].K.K.",
"V.M.K.}.`..X.X^.h.~.M.6 h.^.l.8 ).0Xf X.Y l N T a Z.5X5Xc.e r `.K.K.K.K.K.K.I.K.L.].K.K.K.K.K.K.",
"}.|.wXeXwXtX.X~.~.{.'.M.Q.}.!.B.r r y o.K n n | s w L.U.C.0XW.&X].K.K.K.K.K.].K.K.K.I.K.K.K.K.K.",
">X|.>X.X(.(.(.h.m.m.D.=XqX@Xk.@X .{ v T Y T W U } u d r n.&X+XI.K.K.K.K.K.K.K._.K.K.K.K.K.K.].K.",
"eXwXeXeX>X_.}.K.|.>XJ.k.U.P.$X'...J l D C C C Z L T ..9 U.%X2Xz.L.].K.K.K.K.K.K.K.K.K.K.K.K.I.K.",
"wX X>XwX}.B.m.G.8 ^.^.^./.f t y v z A F C S m D m T v a 9 A.W.B.I.K.K.K.K.K.K.K.K.K.K.K.].K.K.K.",
"tX.X`.>XQ.J.P.qX0XS.tXLXPXpXv n U H ! P U O.Y ! V W X.| X.i ^.-XK.K.K.K.].K.K.K.K.K.K.].K.K.K.K.",
">X].].K.J.H.J.K.W.6 yXIXIXpXn M S U I ~ C K G P Z B U h h 2 m.%Xc.W.).I.E.(.K.V.K.K.K.K.K.K.K.H.",
"].].].K.K.H.K.P.!.M.4XcXcXiXu } l ~ K N N ,.<.<.d.d.fXa.a.6X1 s x.Y.I.P.R.x.).`.K.K.K.K.K.K.H.H.",
"].].K.K.K.J.K.K.k.k.k.K.!.q 8 9 / ~ G l k aXvXjXGXLXJXCXCXfXB E /.E.`.J.R.'.(.I.K.K.K.K.K.K.K.H.",
"].].K.K.K.J.K.K.P.>X>XR.Y.Y.!.Q.{ x c S N 6XBXvXSXKXPXHXHXgXl ..2XV.).I.T.K.P.T.K.K.K.K.K.K.H.K.",
"I.I.K.K.K.K.K.K.N.N.(.J.n.F.F.D.s 3 y T B pXDXFXxX0.sXd s 5 t g.z.B.`.I.T.I.I.P.L.K.K.K.K.K.H.H.",
"J.J.K.K.K.K._.K.`.^.(.`.`.L.'.'.=XQ.9 G M aXSXHXe.8.u.o + 7 0Xj.N.0XJ.I.R.c.c.{.K.K.K.K.K.K.H.H.",
"K.J.K.K.K.K.K.L._.V.M.N._.].L.P.L.j.s | W fXUXCXf.r.u.O O 1 t a c.E.].*XR.[.).`.K.I.K.K.K.K.K.H.",
"J.J.J.K.K.K._._.Q.B.m.m.K.Q.W.b.G.U.tXkXlXBXSXHXHXLXCXw.r.&.h { 2X'.{.I.E.K.E.Y.K.K.K.K.K.K.H.H.",
"K.K.K.K._.K.K.I.}.V.V.K.I.I.K.V.:Xj.rXnXjXUXIXUXGXSXCX8.t.] K H s q l.J.Y.^.`.^.K.H.K.H.H.K.K.K.",
"K.K.K.I.K.K.K.K.Q.K.K.K.I.I.K.V.F.T.3XaX3.vXLXGXHXKXGXf.f.dX>.1.3XW.(.$XR.)._.G.K.L.K.H.H.K.K.K.",
"_.I.K._.I.K._.K.K.K.~.Q.$XU.K.V.Z.Y.0 X.J 6XnXjXCXFXLXHXHXGXPXGXyXR.j.#XR.].I.*X(.J.K.K.K.K.K._.",
"K.K.K.K.K.K.K.K.J.K.H.K.I.$XI.V.f XXs G J <.NXgXGXIXLXPXPXLXLXDXtXF.h.L.P.).I.*XK.L._.J.K.K.K.K.",
"K.K.I._.K.K.K.K.K.K.V.K.$XI.K.V.2 d { T ! O.2.%.BXJXAXFXKXBXBXAX3Xb.j.{. X^.N.m.K.K.K.J.L.H.K.K.",
"K.K.K.K._.K.I.K.I.K.V.K.I.I.K.V.n X.U V C K U A iXnXnXVXGXCXvXvX4XE.l.`.V./.`.I.K.K.K.H.H.H.K.K.",
"K._.K.K.K.K.K.K.Q.K.K.K.'.$XK.V.E J M V F P +.Q dXhXbXCXCXAXMXcX4X=XL.H.b.).|.>XK.K.K.K.K.K.K.K.",
"K.I.K.K.K.K.K.K.]._.V.Q.U.U.K.V.W O.O.` -.-.>.*.^ x X.` G 7XS.r c.T.U.*XE.|.>Xk.K.K.K.H.H._.H.K.",
"K.K._.K.K.K.I.K.H.K.K.J.J.].'.'.b ! +.*.<.;.:.&.b z D L J u ;X@Xw %X~.L.oXM.U.%XH.H.K.H.H.K.H.K.",
"K.K.K.I.K.K._.K.K.K.K.J.K.K.L.x.E V +.&.2.:.>.&.X.o.F P I n 1 3 w <X~.].$XC.J.H.K.K.H.K.K.H.K.H.",
"I.K.K.K.K.K.K.K.H._.K.K.I.K.L.L.Q ~ +.&.4.:.2.3.H o.m V ~ R n O.r oXV.J.%XS.V.V.H.K.K.H.H.K.H.K.",
"_.K.K.K.K.K.I.K.H.K.Q.Q.I.L.H.G.T S U *.,.&.>.&.Q ~ F B Z B h x 9 x.q n.%XS.~.N.K.H.H.H.J.H.K.H.",
"K.K.K.K._.I.K.K.K.K.Q.K.I.K.P.G.j c O.;.>.3.:.-.) ) _ [ ) ] p.9.p {.q n.%XN.L.#XH.K.H.K.K.H.K.H.",
"K.K.K.K.K.K.K.K.J.K.K.K.I.U.G.J./ ; @.;.,.;.%.-.i.( ' ( ( 9.t.w.p {.w B.-X(.L.%XK.H.K.H.H.K.H.K.",
"].K.K._.K.K._.K.K.K.H.K.K.I.I.P.= * 2 :.9X3.4.d.=.=.=.=.9.p.7.0.g >XS.U.<X~.K.F.K.H.H.K.K.H.K.H.",
"K.K.K.Q.K.K.I.K.K.H.K.L.K.P.J.!.a 5 uXFXKXHXVXCXsXsXgXjXkX#.) c 0 oXZ.R.+X^.V.Z.H.K.H.H.H.K.H.K.",
"K.H.H.H.H.H.K.K.K.K.].L.H.K.V.W.{.$XrXHXLXHXPXHXBXmXmXjXlX#.k c s 9 Z.T.J.(.'.$XH._.K.K.K.K.K.H.",
"K.H.J.H.H.K.K.K.K._.K._.(.K.K.K.N.=XrXZXmXzXzXxXdXhXsXiXsX6X2 u 2X).P.R.B.~.~.K.K.K.K.].K.K.K.H.",
"K.H.H.H.H.K.H.H.K.K.K.K.'.K.P.*Xq b.7 l.oX5.q.w.Z B k % v u s v.x.H.R.P.V.^.^.V.K.K.K.K.K.K.H.H.",
"J.H.H.H.H.H.H.L.K.K._.].$X$X$X$XV.!.C.@XOX6.0.0.F m n % = 0 @X&XV.P.U.U.~.^.~.J.K.K.K.K.K.K.K.H.",
"K.K.H.H.H.H.K.K.V.H.K.L.'.$X$X$Xk.N.q @X5X( _ _ F ~ ` j & t Z.Y.n.Z.J.J.(.(.].$XK.K.K.K.K.H.K.H.",
"K.H.H.H.K.J.K.K.K.L.]._.I.I.P.$X>X'.^.q @X; V V M I U j k u ^.3XS.V.J.K.K._.$X%XK.K.K.K.K.K.H.H.",
"H.H.H.H.H.H.K.K.K.K.K.]._.K.I.J.M.j..XY.5X@.U P R Y E % j y A.`.K.L.L.K.S.S.J.$XK.K.K.K.K.K.K.H.",
"K.H.H.H.H.K.K.K.I.K._.K._.V.K.W.e oX1Xb.;X@.Y C ! I Q % / a F.<X:XoX:XL.S.S.S._.L.K.K.K.K.K.K.H.",
"H.K.K.K.K._.H.L.].Q.].]._._.(.~.H.m.*X>X`. .W F V S A % : 4 N.T.K.K.K.K.].I.K.K.K.K.K.K.I.K.K.K.",
"K.].K.K.K.H.J.H.K.H.K._.K._.(.(.:XI.l.7 4 } E T S R l % * y 3X].K.K.K.].K.K.K.K.K.K.K.K.].K.K.K.",
"K.K.K.K.K.H.H.N.K.V.H.K.H.H.N.N.:X|.4 X   * n & j j & o   > V.G.I.K.K.K.K.K.K.K.K.].K.K.K.K.K.K.",
"K.K.K.K.K.H.K.J._.K._._._.(.H.H.M. X0 X   O & & / ; * o . 7 {.].K.].K.K.K.K.K.].K.K.K.K.K.K.].K.",
"K.K._.K.I.K.K.J.}._.}._.].}.J.K.S.S.^.6 7 @ - $ $ $ @ < > 6 H.J.K.K.K.K.K.K.K.K.L.].K.K.K.K.I.].",
"L.J.K.K._.K.K._.].].}.].].V.K.Q.V.C.M.$XP.> o o     # ^.K.!.=XY.K.K.K.K.K.K.K.K.K.K.I.K.K.K.K.K.",
"K.K.K.K._.K.H.H._.}.].Q._.Q.K.B.].J.h.V.!., + X . . # v.h.).'.x.K.K.].L.].K.K.K.K.K.K.K.K.K.K.K.",
"K.K.K.K.H.H.H.J.V.K.K.K.K.J.V.J.oX>Xl.8 S./.0 q r 7 6  Xq J.:X:XK.K.K.K.K.K.K.K.K.K.K.K.].K.K.K."
};
