/* XPM */
static char *xpm_[] = {
/* columns rows colors chars-per-pixel */
"48 48 255 2 ",
"   c #040406",
".  c #170304",
"X  c #050514",
"o  c #0A0B17",
"O  c #34190E",
"+  c #382000",
"@  c #021722",
"#  c #0D142C",
"$  c #1F2D36",
"%  c #6A1E1A",
"&  c #6E3319",
"*  c #4F1A21",
"=  c #4E3629",
"-  c #74372B",
";  c #482812",
":  c #1A4F3F",
">  c #65431E",
",  c #734F31",
"<  c #19354F",
"1  c #180046",
"2  c #6D3A4A",
"3  c #593F71",
"4  c #783D71",
"5  c #154656",
"6  c #145969",
"7  c #1A597A",
"8  c #0E4B6C",
"9  c #32576F",
"0  c #07657B",
"q  c #1A667C",
"w  c #1A7377",
"e  c #107065",
"r  c #29647C",
"t  c #34637D",
"y  c #2D6C6F",
"u  c #2F4D4F",
"i  c #485758",
"p  c #555354",
"a  c #704656",
"s  c #4A5B62",
"d  c #595765",
"f  c #4E5173",
"g  c #694D6D",
"h  c #4B6A79",
"j  c #45695F",
"k  c #B51A14",
"l  c #B50414",
"z  c #893215",
"x  c #B82A17",
"c  c #B91D23",
"v  c #B2122D",
"b  c #972E30",
"n  c #AD252A",
"m  c #B7272C",
"M  c #B22636",
"N  c #B23132",
"B  c #971D2C",
"V  c #D50A15",
"C  c #D91918",
"Z  c #C91314",
"A  c #F9100D",
"S  c #E90B1E",
"D  c #FB0616",
"F  c #E61B1A",
"G  c #FD1617",
"H  c #E90905",
"J  c #CA2A18",
"K  c #D82518",
"L  c #E8291C",
"P  c #DA1A26",
"I  c #C41739",
"U  c #D51A37",
"Y  c #D01126",
"T  c #EC0725",
"R  c #E61828",
"E  c #FA1729",
"W  c #ED1532",
"Q  c #F61232",
"!  c #C72829",
"~  c #D82728",
"^  c #D52935",
"/  c #D03135",
"(  c #E42534",
")  c #F92539",
"_  c #EE2728",
"`  c #904116",
"'  c #B56B27",
"]  c #9E5338",
"[  c #D44D08",
"{  c #E96F18",
"}  c #CE6D2F",
"|  c #F96225",
" . c #E26621",
".. c #893A5C",
"X. c #96394F",
"o. c #AE2C47",
"O. c #933967",
"+. c #AA2B78",
"@. c #CD1844",
"#. c #C40E47",
"$. c #F61846",
"%. c #D92B45",
"&. c #E82D47",
"*. c #EE3142",
"=. c #8B4D4B",
"-. c #AD7F41",
";. c #884A6D",
":. c #A7646F",
">. c #D14D57",
",. c #FD485A",
"<. c #EE564F",
"1. c #EB6658",
"2. c #DA5664",
"3. c #E95964",
"4. c #F85B69",
"5. c #EF5A77",
"6. c #DA6967",
"7. c #D8797B",
"8. c #C57872",
"9. c #FB6768",
"0. c #E96577",
"q. c #F46F6D",
"w. c #D56851",
"e. c #01835D",
"r. c #1D8378",
"t. c #4A896E",
"y. c #AF9B26",
"u. c #D7B22E",
"i. c #FAAD2A",
"p. c #DA8F21",
"a. c #EEC710",
"s. c #EACA37",
"d. c #938F58",
"f. c #AB9647",
"g. c #B79560",
"h. c #D28475",
"j. c #E89658",
"k. c #BAC159",
"l. c #EBCC54",
"z. c #0A5D87",
"x. c #1C5D83",
"c. c #165C8A",
"v. c #0B5A93",
"b. c #1B5D94",
"n. c #165B97",
"m. c #235D8A",
"M. c #37588A",
"N. c #265B9B",
"B. c #365A96",
"V. c #0C6C8C",
"C. c #076987",
"Z. c #13648B",
"A. c #1B648D",
"S. c #146A8C",
"D. c #1B6B8C",
"F. c #176884",
"G. c #037589",
"H. c #16718A",
"J. c #0B6C93",
"K. c #0A6895",
"L. c #156592",
"P. c #1B6693",
"I. c #156B94",
"U. c #1C6A95",
"Y. c #1C649A",
"T. c #146C9A",
"R. c #1C6C99",
"E. c #15659A",
"W. c #00739B",
"Q. c #077895",
"!. c #1A7295",
"~. c #14729B",
"^. c #1C729B",
"/. c #147495",
"(. c #23638C",
"). c #26678A",
"_. c #356689",
"`. c #226595",
"'. c #2A6393",
"]. c #216B96",
"[. c #23659A",
"{. c #2C639B",
"}. c #236B9A",
"|. c #2B6B9B",
" X c #2A6A94",
".X c #326592",
"XX c #356899",
"oX c #267299",
"OX c #30768F",
"+X c #1F5EBF",
"@X c #0867A4",
"#X c #196AA3",
"$X c #1776A4",
"%X c #0D77AD",
"&X c #286AA3",
"*X c #3765A4",
"=X c #2675A4",
"-X c #2D6FB2",
";X c #2B5BA5",
":X c #4B4F92",
">X c #7F7F97",
",X c #457DA0",
"<X c #50768B",
"1X c #F26A89",
"2X c #DC6985",
"3X c #0C808C",
"4X c #2C8E8E",
"5X c #378AA3",
"6X c #69989F",
"7X c #5590A7",
"8X c #6291AD",
"9X c #57839E",
"0X c #B1968E",
"qX c #B8B09B",
"wX c #D48D94",
"eX c #E88B8A",
"rX c #EF998D",
"tX c #F399AB",
"yX c #D4B4B6",
"uX c #CEB7B3",
"iX c #F2AFB3",
"pX c #DB93A9",
"aX c #B4C6AF",
"sX c #DCDF84",
"dX c #FFD68A",
"fX c #EFF498",
"gX c #CAC9B9",
"hX c #FFEEBB",
"jX c #D5E0B5",
"kX c #BFBBE0",
"lX c #ACAED4",
"zX c #D5BAD2",
"xX c #EBB4C9",
"cX c #B7D4C2",
"vX c #BDE1DF",
"bX c #94D3E3",
"nX c #A9CFE6",
"mX c #D7C9C9",
"MX c #D1D1CF",
"NX c #ECD1CF",
"BX c #D0F5D5",
"VX c #F6FCDC",
"CX c #F8EFCB",
"ZX c #D3FBED",
"AX c #E9ECEA",
"SX c #F6E7E9",
"DX c #EAFCE6",
"FX c #F6FAE7",
"GX c #E5E5F8",
"HX c #FBE9F7",
"JX c #ECFEFD",
"KX c #E6FCFC",
"LX c #FEFCFD",
"PX c #F8F9F9",
"IX c #E0CDE3",
/* pixels */
"U.P.U.I.U.P.U.U.[.{.{.|.|.|.`.(.[.Q.Q.V.G.J.B.XXW.@X;X&XQ.P.B.$XP.`.P.P.P.U.P.P.P.U.P.P.U.P.U.U.",
"P.U.P.U.U.I.U.P.R.^.T.z.z.].oXP.G.G.9 g a a a p :XU.E.Y.G.Z.(.K.P.P.U.P.U.D.U.P.U.P.P.U.P.P.P.P.",
"I.U.P.I.P.I.I.U.V.U.^.^.^.oXI.L./.t ..I U R P n f 3X3XJ.U.D.(.U.P.U.U.P.U.U.U.U.U.P.U.P.P.U.P.U.",
"U.U.U.U.U.U.U.U.'.m.`.}.Y.v.v.#X/.r g b N ! ! n p y H.].{. X XU.U.U.R.R.U.].U.].U.U.U.U.U.U.U.U.",
"U.U.U.U.U.P.U.U.Y.Y.&X=XR.J.K.$XO.O.o.U R W W Q o.o.4 M.P.U.R.E.U.I.U.^.R.].R.}.U.U.U.U.U.U.U.U.",
"!.U.U.U.U.!.U.U.K.~.$X/.S.D.D.F.n I P F G G ~ R v @.O.r G.G.~.n.I.I.I.U.U.R.].].U.U.R.U.U.U.R.U.",
"R.U.R.U.U.R.!.U.Q.C.D.XX<Xh d d x K K K G F K L J ! X.p d t !.#XI.I.I.I.R.U.].].U.R.U.U.].U.R.U.",
"U.U.U.!.U.U.U.U.F.q 8XGXHXwXX.B ! Q R ^ Q E F G A E ^ v #.g A.K.K.I.I.U.U.U.U.].U.U.U.U.U.U.U.].",
"R.U.!.R.!.R.R.U.{.7 8XKXLX2Xn ! ! C E E ) ( T V $.H C l v > r.+X(.Y.#XN.{..X'.`.U.R.U.U.U.U.U.U.",
"U.U.U.U.U.U.U.R.!.C.5XbXnX>Xa a x C ( Z n >.2X2XrXeXeXwXpXh.2 d M..XY.I.I.(.`. XU.].U.U.U.U.R.U.",
"R.!.U.U.U.U.U.U.V.0 0 0 c.c.m.t ! R ~ x k 7.zXxXFXPXSXFXFXtXv N f _.I.Q.G.C.).}.U.R.U.].U.R.U.U.",
"U.U.U.R.U.R.!.R.U.oX|.(.#X#XoX!...#.m k Z 7.cXmXGXDXVXDXPXpXo.N 9 m.I.J.V.Z.A.R.U.U.U.U.U.U.U.U.",
"U.U.U.U.!.U.U.U.n.}.|.'.N.}.R.V.).g 2 n Z rXBXAXdXl.k.p 3 9 s 3 q S.R.}.{.'.E.#XU.U.U.U.U.U.U.U.",
"R.U.R.U.U.R.U.U.$X^.!.A.L.I.H.4X@XXXg B l rXDXLXa.a.y.. 1 5 4XB.C.J.#X&X{.{.Y.T.U.P.U.P.P.U.P.U.",
"U.!.R.U.U.R.U.R.K.V.H.^.$XE.V.0 n.x.<X:.M iXSXHXl.l.f.+ + = d :X).D.Y.Y.|. X`.I.U.P.P.P.U.P.P.U.",
"U.U.U.U.U.U.!.U.|. X).D.Y.&X&X}.*XC.4XzXpXDXJXLXPXJXhXl.s. .I +.:Xm.L.V.H.H.F.F.P.U.P.U.P.P.U.P.",
"U.U.U.`.R.].R.].U.U.U.P.U.I.L.Z.N.0 4XvXMXAXJXPXLXBXsXs.u.[ A ~ 9 r .XK.K.&XV.D.U.P.P.P.U.P.U.U.",
"U.U.U.U.U.U.U.R.].P.P.U.U.I.U.P.&XH.h 0X8.uXIXAXHXFXCXsXdXj.h.1Xt q OXT.#X=XJ.b.U.U.P.U.P.P.U.P.",
"U.U.U.U.U.U.U.].`.U.P.U.R.R.^.R.c.q i o.l h.aXmXSXLXPXBXFXVXFXHX9XD.XXT.K.[.K.(.P.U.U.P.P.P.U.U.",
"P.P.U.U.U.R.U.U.].U.U.U.].!.R.R.F.y p v k h.qXqXZXKXKXKXLXLXJXPX8XF..XI.z.n.T. XU.U.U.U.U.U.U.U.",
"P.U.P.U.U.U.].U.].].P.U.U./.U.I.;.;.o.T S <.6.>.xXzXIXHXHXNXMXBX,X7 '.$XT.{.!.`.U.U.U.U.U.U.U.U.",
"P.U.P.U.U.P.U.U.].Y.U.U.U.P.L.Z.#.@.W E D S T T tXuXmXLXZXBXMXaX=XV. X=XT.&XJ.`.U.U.U.U.U.U.U.].",
"P.P.U.P.P.P.U.U.U.].R.U.R.U.L.Z.m ! ( *./ ^ ( &.qXqXgXCXNXNXzXlX5XQ.|.J.K.[.K.}.U.U.U.R.[.U.U.U.",
"P.L.P.U.Y.U.U.U.U.U.U.}.R.R.L.Z.! L ) <.9.,.,.,.o.^ Y &.I O._.=XZ.G.].J.^.&XK.}.R.U.U.].U.U.U.R.",
"P.P.P.U.U.U.U.U.A.!.R.R.].}.Y.n./ E &.w.0.q.6.q.m C R Z %.;.6 J.H.3XOXOXXX:XR.I.R.U.U.U.U.R.U.].",
"P.P.P.U.P.U.U.U.D.!.U.U.Y.}.Y.n.~ E $.<.5.9.3.4./ W V _ *.o.g f N.n.x.I.#X*X!.A.U.U.].R.].U.U.U.",
"U.U.U.U.P.U.P.P.P.].].P.R.R.Y.n.m R &.1.1X9.5.0./ E A G G V N B :XB.b.W.W.U.V.).U.].U.U.U.U.U.Y.",
"U.U.U.U.U.P.P.I.D.!.U.R.U.[.P.c./ ~ &.9.4.9.4.4.^ Y ) W S ( I m :X.X-X%XW.S.S. XR.U.].U.R.U.U.].",
"R.].U.U.U.P.U.P.D.].].P.R.P.A.z.b z n <.2.1.3.1. .[ | [ [  .p.p.y w OX/.T.'.!.&XU.`.R.U.U.U.U.U.",
"U.U.R.U.U.U.U.U. X}.oXP.U.U.P.Z.=.> N 1.5.1.0.6.w.j.' ' y.p.l.u.t.w m.v.`.XXR.b.U.U.U.U.U.R.R.U.",
"P.U.U.].U.U.R.R.].}.oX].D.].P.Z.a = =.9.1X6.5.2.' f.' -.f.u.i.i.t.OXN.@XR. X/.P.R.U.R.U.U.U.U.U.",
"P.U.U.R.U.].R.U.|.oX}.].].!.P.A.w e.6XNXSXDXPXAXiXuXzXzXuX2XJ Z i ).+X%X$X).!.&XU.U.].U.U.U.R.R.",
"].R.R.U.U.U.U.U.].oX].}.U.`.}.&X+Xv.6XHXKXDXVXLXaXMXMXaXiX8.B P m.). X).U.D.].`.P.P.U.U.U.!.R.R.",
"R.].].U.U.R.P.U.D.U.].].P.`. X}.$XK.7XlXbXjXfXhXwXeXwX0XwX:.= ;.7 A.A.D.U.R.].}.U.R.U.!.U.U.U.U.",
"U.].U.R.U.P.U.P.A.U.!.U.`.b.Y.P.0 K.I.B.F.d.u.a.L J x > - i 9 .XZ.Z.P.I.I.I.I.I.U.U.U.U.P.P.S.L.",
"U.U.P.U.U.U.U.U.U.U.].].U.P.P.P.w ^.$Xb.V.d.i.i.) H J & & s |.-XP.U.R.^.R.E.R.R.U.U.U.U.U.P.I.P.",
"P.U.U.U.P.R.U.U.].].U.R.U.U.U.L.0 b.I.U.G.=.{ | F C L ` z d ).n.c.L.Y.].}.[.}.&XU.U.R.].U.R.P.U.",
"P.U.P.I.P.U.U.P.].].].R.}.U.R.L.|.&XoX=X/.b Z S R S _ z z j OX$Xn.Y.[.[.[.[.`.].U.U.U.U.!.R.U.R.",
"P.A.U.U.U.U.U.U.].].P.U.R.R.R.T.P.*XR.$X3X;.F W ) E K & % u q J.T.R.=X}.`.A.A.A.U.!.!.R.R.P.U.S.",
"U.P.P.U.P.U.U.U.].U.P.I.U.!.R.R.!.*XE.v.@X+.F R F C J ` b i r |.J.~.T.R.R.!.!.!.R.R.U.R.P.I.P.Z.",
"U.U.U.P.P.U.U.P.D.].].R.U.P.oXoX'.7 V.3XF.;.) A D G L z ] j t OX X!.V.C.I.oX].Z.P.U.U.].!.}.oXR.",
"P.A.U.U.U.P.U.U.D.!.].U.U.U.R.R.b.Z.(.7 5 X.^ x ! ] n = = : 5 6 (.P././.U.R.R.P.U.U.R.].}.].^.}.",
"U.I.U.P.P.U.U.P.].].U.U.U.R.R.}.E.R.9 #   * b z - - % . .   X @ 8 q oX$XR.R.R.R.U.].U.U.U.U.U.U.",
"R.P.P.U.U.U.P.U.U.U.U.U.U.R.R.R.&XU.8 #   O - - , - * O . X # # 8 7 ^.^.Y.P.R.E.R.P.U.U.P.U.P.U.",
"U.U.P.U.U.U.U.P.D.U.U.].U.R.Y.U.n.J.q u u u * O + + O . X @ 5 6 x.A.P.L.Y.].R.E.U.U.U.U.P.P.L.P.",
"U.U.U.R.U.U.].R.].U.U.P.].R.R.U.n.G.V._.).< . . . .     X < OXOX XU.I.L.Y.&X}.L.U.U.S.P.U.P.L.P.",
"].U.].U.U.U.U.U.U.D.P.R.].Y.U.P.{.Q.z.m.c.8 @ @ o o o o @ < x.m.R.~.T.E.[.'.].D.P.P.P.U.U.P.P.P.",
"U.U.R.U.R.].U.R.].P.P.U.R.R.P.L.|.W.C.N.-XK.7 y Z.7 w 9 e r /.J.K.T.$XT.P.P.A.S.P.U.U.P.U.P.U.P."
};
