/* XPM */
static char *xpm_[] = {
/* columns rows colors chars-per-pixel */
"48 48 256 2 ",
"   c #0D0201",
".  c #030504",
"X  c #160705",
"o  c #060715",
"O  c #140A15",
"+  c #001716",
"@  c #0F1412",
"#  c #210000",
"$  c #040E29",
"%  c #0F2C3B",
"&  c #281E33",
"*  c #513B11",
"=  c #7E3810",
"-  c #753837",
";  c #5C3432",
":  c #70420D",
">  c #794839",
",  c #6C522B",
"<  c #132C45",
"1  c #113448",
"2  c #273848",
"3  c #783F66",
"4  c #306256",
"5  c #195A7B",
"6  c #0E5270",
"7  c #3A596A",
"8  c #375A79",
"9  c #235275",
"0  c #19677A",
"q  c #08747C",
"w  c #0C7274",
"e  c #29677B",
"r  c #33687A",
"t  c #2E7672",
"y  c #23404E",
"u  c #59494B",
"i  c #525651",
"p  c #764558",
"a  c #6E5050",
"s  c #565264",
"d  c #4A5976",
"f  c #5B4B72",
"g  c #79446D",
"h  c #65497B",
"j  c #6F4E69",
"k  c #4F6B6E",
"l  c #69736A",
"z  c #62655A",
"x  c #BC1A1A",
"c  c #B8130A",
"v  c #942D0D",
"b  c #B5271A",
"n  c #B62B0E",
"m  c #9A1C2E",
"M  c #B91C36",
"N  c #B4152E",
"B  c #933338",
"V  c #B92825",
"C  c #AB3234",
"Z  c #AC2831",
"A  c #DB0A06",
"S  c #D71802",
"D  c #D81A18",
"F  c #CD1111",
"G  c #EB190D",
"H  c #F90516",
"J  c #E81A19",
"K  c #F81819",
"L  c #FA0007",
"P  c #C8261D",
"I  c #D82816",
"U  c #CE2A0B",
"Y  c #E72714",
"T  c #C81B24",
"R  c #D0152E",
"E  c #E9052B",
"W  c #FA0927",
"Q  c #E81C27",
"!  c #F81626",
"~  c #FB0933",
"^  c #E61634",
"/  c #F81234",
"(  c #CB2628",
")  c #DA2528",
"_  c #DC283B",
"`  c #CE2E2D",
"'  c #F6282C",
"]  c #F52235",
"[  c #E72C2F",
"{  c #9A450F",
"}  c #AD460A",
"|  c #B54331",
" . c #A55F3A",
".. c #CE4614",
"X. c #E97414",
"o. c #CE4932",
"O. c #EE4835",
"+. c #EC7729",
"@. c #DD6228",
"#. c #B61844",
"$. c #853C4B",
"%. c #9A354B",
"&. c #8C3557",
"*. c #AE2E4B",
"=. c #853A6A",
"-. c #913274",
";. c #971E51",
":. c #CF1A49",
">. c #F21549",
",. c #CE314C",
"<. c #F02F4A",
"1. c #DB2E64",
"2. c #8F464D",
"3. c #B35550",
"4. c #B37241",
"5. c #8D4B6A",
"6. c #907077",
"7. c #9E6D5F",
"8. c #D14B4E",
"9. c #EC4E56",
"0. c #F55B56",
"q. c #EC494A",
"w. c #D46D5B",
"e. c #E86A52",
"r. c #CD4465",
"t. c #D85070",
"y. c #F35870",
"u. c #D3706A",
"i. c #F76673",
"p. c #ED6E6D",
"a. c #00827F",
"s. c #05916A",
"d. c #45876C",
"f. c #F2991C",
"g. c #F2AE0A",
"h. c #EBBA2F",
"j. c #D0A11A",
"k. c #E3CF11",
"l. c #EDC430",
"z. c #DDD113",
"x. c #F9B452",
"c. c #E48671",
"v. c #E8D366",
"b. c #9FA365",
"n. c #095B87",
"m. c #185C8A",
"M. c #185C98",
"N. c #285C8B",
"B. c #395B86",
"V. c #275997",
"C. c #385999",
"Z. c #324F91",
"A. c #08688C",
"S. c #166E82",
"D. c #15648B",
"F. c #1A668D",
"G. c #156D8C",
"H. c #1B6A8C",
"J. c #1C6785",
"K. c #007B8D",
"L. c #09738A",
"P. c #1C738C",
"I. c #12738A",
"U. c #0D6B94",
"Y. c #0C6C9B",
"T. c #076698",
"R. c #146692",
"E. c #1C6793",
"W. c #156B93",
"Q. c #1C6995",
"!. c #1D669A",
"~. c #156B9A",
"^. c #1D6B99",
"/. c #0B7394",
"(. c #007C94",
"). c #0B729B",
"_. c #02769A",
"`. c #127393",
"'. c #1C729B",
"]. c #1B7698",
"[. c #23658C",
"{. c #236B8B",
"}. c #266A85",
"|. c #346987",
" X c #277688",
".X c #236693",
"XX c #216A95",
"oX c #24639A",
"OX c #2B6399",
"+X c #226C99",
"@X c #296895",
"#X c #39639C",
"$X c #23729C",
"%X c #267596",
"&X c #195CA5",
"*X c #1A52B2",
"=X c #275AA5",
"-X c #3756A6",
";X c #3056B4",
":X c #0A6AA7",
">X c #1B65A1",
",X c #136BA9",
"<X c #176BA5",
"1X c #0476A5",
"2X c #1A71A2",
"3X c #1270B5",
"4X c #2364A2",
"5X c #2769A5",
"6X c #2675A5",
"7X c #366DA7",
"8X c #496D92",
"9X c #5E5D96",
"0X c #9F6983",
"qX c #A67D83",
"wX c #DE7998",
"eX c #178DA0",
"rX c #498FAC",
"tX c #B6938D",
"yX c #B8A48E",
"uX c #919CB5",
"iX c #B1B3BC",
"pX c #B58CB4",
"aX c #C59289",
"sX c #EC9A89",
"dX c #ED908D",
"fX c #E3B192",
"gX c #D2BAB1",
"hX c #F3ABAE",
"jX c #D699A3",
"kX c #83C1BE",
"lX c #AEC8AD",
"zX c #F9E695",
"xX c #C4C8A8",
"cX c #D1CAB8",
"vX c #E8C8B2",
"bX c #FCF1AF",
"nX c #FFC98B",
"mX c #B2B7CD",
"MX c #CD9BD2",
"NX c #FCAEC9",
"BX c #A0CFD9",
"VX c #D1CED1",
"CX c #DBEAD3",
"ZX c #FEFFDE",
"AX c #F7F6D9",
"SX c #F6F2CA",
"DX c #F7D7E4",
"FX c #D6FCF8",
"GX c #E7FDE8",
"HX c #FCF9E9",
"JX c #FCECFA",
"KX c #E9F6FA",
"LX c #FBFCFF",
"PX c #F8F7F8",
"IX c #F0E9EE",
"UX c #FFC8C9",
/* pixels */
"6X$X$XQ.Q.Q.+X^.Q.Q.XXXXQ.Q.Q.Q.>X{.J.C.C.S.L.-Xq OX/.q G.=X,Xr W.W.^.E.E.E.E.W.Q.E.E.W.E.E.Q.E.",
"$X$X+X^.Q.Q.^.^.Q.Q.^.Q.XXQ.Q.Q.4XW.K./.V.L.(.~.=X4X_.L.C.=X,XP.`.Q.^.XX.XE.E.E.E.Q.Q.Q.W.E.E.Q.",
"XX^.Q.Q.XXQ.Q.Q.Q.Q.Q.^.'.^.Q.Q.G.W._.L.F.Q.oXB.h d 7 i s .X(.S.W.^.Q.F.E.E.E.R.Q.E.E.Q.E.Q.Q.R.",
"E.Q.Q.+X^.Q.Q.Q.Q.Q.Q.XX^.Q.XXQ.S.-X-XH.S.Y.C.3 P V x T $.0 _.-XW.R.E.Q..XQ.E.E.E.E.Q.E.Q.E.Q.Q.",
"E.R.Q.Q.^.Q.Q.H.Q.Q.^.^.Q.^.Q.Q.0 -X=XL.L.L.e a ( V x R p w _.;XW.Q.Q.Q.Q.E.Q.Q.Q.R.E.Q.E.W.E.E.",
"E.E.Q.Q.Q.Q.Q.E.Q.Q.Q.XX^.Q.Q.Q.G.oX_.K.8 g %.Z ~ T ) ~ R B p 9XW.R.W.Q.E.E.Q.W.Q.Q.Q.E.E.Q.Q.E.",
"Q.Q.Q.Q.Q.Q.E.Q.Q.Q.^.XXXXQ.Q.Q.U.G.(.U.g :.E G W U D ! J S n $.W.E.Q.E.oXQ.Q.Q.E.Q.R.Q.Q.E.Q.Q.",
"Q.Q.Q.Q.Q.E.Q.E.Q.Q.^.^.^.Q.Q.Q.<XB.H.~.9XV U U W I ! >._ T M &.W.R.E.E.E.Q.Q.Q.Q.E.Q.E.E.Q.R.Q.",
"Q.^.Q.^.Q.Q.^.Q.2X}.e <X,XI.S.Q.*Xe %.Z P G I Q D ^ ~ K I _ ^ ) b %.8 T.5X`.n.7XD.E.H.^.^.^.^.Q.",
"Q.Q.^.Q.Q.Q.Q.XX4XG.I.~.oXQ.H.F.%Xr B R T / H E J ] / ! Y [ / Q c *.8 R.5XU.m.5XH.H.Q.XXXX+X^.^.",
"Q.XXQ.Q.XX^.Q.Q.@X)./.[..XY.V.d i i 7.3.w.wXy.r.Y ( ) S n T ^ T F M d P.XXA.^.6XE.^.Q.^.^.^.^.^.",
"^.Q.Q.^.Q.^.'.XX`.,X=X|.G.1X!.g Z N DXGXHXGXPXjXA V P S I _ >.R c M 7 P.XXL.Q.^.XXQ.XXQ.Q.^.XX^.",
"Q.Q.Q.^.Q.Q.Q.Q.W.:X5XB.P.1X!.=.N R DXIXHXGXHXtXc b c A D :.#.M b *.8 P.$XI.W.n.XXQ.Q.^.Q.^.^.^.",
"Q.Q.Q.XXXXQ.Q.Q.@X)./..X.X).[.d s z l 6.tXzXnXvXdXjX| F C g f tXdXhX%XD.@XW.$X<XP.^.Q.XX^.^.+X^.",
"XXQ.Q.Q.^.Q.Q.Q.5XG.L.~.!.E.H.[.A.s.. o * h.h.bXLXGX3.c - N.5 kXPXLXrXn.C.H.6X6XF.H.H.XXQ.+XQ.^.",
"^.Q.^.Q.Q.Q.Q.XX,X}.e >X,XI.S.~.;Xt @ O * g.k.v.PXJX,.E ;.OX6 BXGXKXeXn.7X+X!.T.F.F.Q.'.^.^.^.Q.",
"Q.Q.Q.XXQ.Q.XXQ.N.5Xn.H.A.M.%X&.>.c x.j.v.bXCXHXKXPXCXyXMXA. XQ.+X+XQ.Q.^.XXoXE.Q.E.E.E.Q.E.Q.Q.",
"Q.^.Q.Q.$XXXQ.^./.2XW.P.).M.}.&.^ F f.j.v.bXPXLXKXGXcXxXmXK.L.5X+X^.Q.^.^.Q.XXQ.E.E.W.E.E.Q.R.Q.",
"Q.Q.^.Q.Q.Q.Q.Q./.~.'.{.].V.0 0Xy.4.x.v.zXZXJXJXLXPXfXsXpXeXL.4XE.E.Q.+XXX^.Q.Q.Q.E.Q.Q.Q.E.Q.E.",
"H.Q.Q.^.$XQ.^.Q.XXoX@X0 2X5XK.mXPXHXHXHXIXKXIXVXmXiXC F ;.w {.,XD.E.XX+X^.E.W.].E.E.E.Q.R.Q.E.Q.",
"Q.Q.Q.^.Q.XXQ.Q.oXM.XX5 $X5X(.BXPXJXJXPXKXFXPXCXVXVX3.A m w r R.A.E.+X+XQ.Q.W.].Q.E.E.Q.E.Q.Q.E.",
"E.Q.Q.^.Q.XX$X^.W.Y.I.5 %X-XA.mXVXSXSXZXHXCXJXMXc.wX) Q C u 2.9XU.W.Q.XXXXXX^.^.E.Q.Q.R.Q.E.Q.R.",
"Q.Q.^.Q.^.Q.^.^.^.~./.0 %X=XT.uXlXlXAXHXAXcXNXwXq.p.' ' ) m R p /.`.R.XX+X+X+X~.W.Q.E.Q.R.E.Q.Q.",
"H.Q.Q.^.XX^.^.^.C.5X`.S.].=X(.uXcXVXJXKXFXiXcXaXe.p.] G Q T ! a ).`.W.oX+X@X+X^.Q.E.Q.E.Q.Q.E.E.",
"Q.E.Q.E.Q.E.Q.E.P.Q.&XT.0 N.3X6X7X7Xt.O.3.dXp.i.9.t.^ W ,.G G &.T.+X7X+XW.Y.!.4XW.W.P.^.Q.Q.XX+X",
"E.Q.E.Q.R.Q.E.Q.N.W.,X).8 Z.:Xm.q 9 :.H ] y.c.e.e.p.K K T G [ 2.T.~.5X^.R.U.^.oXR.Q.W.^.Q.Q.^.+X",
"Q.Q.E.Q.E.Q.Q.E.[.`.,XU.e oX:Xf k j r.' ] 9.c.q.q.8.q.8.8.G Y 5.:X:X^.Q.G.F.E.@XR.Q.^.^.+XQ.Q.+X",
"E.E.Q.R.Q.E.Q.W.R.`.5Xm.0 _.T.5._ :.y.w.9.p.e.<.~ ( hXgXNXW ~ 5.T.T.~.G.G.Q.Q.[.Q.Q.XX^.Q.Q.+X+X",
"E.Q.E.Q.E.Q.E.Q.A.I.7XV.P.1Xq %.H L q.i.i.i.0.q.E M gXxXhXD J $.|.}.H.D.H.XXXXF.E.Q.Q.XXXXQ.Q.XX",
"W.E.Q.E.Q.R.Q.E.[.G.5XT.{.>X6 7.X.X.fXgXdX[ <.w.c.dXsXsXp.+.X.4.z k r D.~.^.^.H.E.oXXX+XQ.Q.Q.^.",
"E.E.W.E.Q.E.E.Q.OXS.~.A.XXOX0 b.l.l.SXFXgXF E aXxXgXp.0.e.h.k.j.4.7.k J.~.<X^.F..XoX+X+XQ.Q.Q.Q.",
"E.Q.E.Q.E.Q.Q.R.U.J.C.U.].oX6 b.z.g.bXKXUXW W yXgXVX7.9.p.h.z.f.+.4.k J.,X3X2XG.oX.X+XXXQ.Q.Q.Q.",
"^.Q.^.Q.Q.Q.Q.Q.OXS.).&X9 w 0 j @.8.r.r.8.` ) [ ,.3...[ 1.l d.9X}.}.P.H.P.^.^.!.Q.Q.^.Q.Q.Q.XXQ.",
"Q.Q.Q.Q.+XP.^.Q.^.0 I.=X[.L.eX5...} v b T S S T v M W G *.`.1XT.{.@XP.H.Q.W.!.!.Q.^.XXQ.Q.^.^.Q.",
"^.XXQ.Q.Q.Q.XXQ.<X0 S.5X<X1XS.a o.} { n ( *.$.%.V *.E ! 1.g d e XXXXQ.^.Q.^.^.^.Q.^.Q.Q.Q.^.Q.Q.",
"Q.Q.Q.^.Q.^.Q.Q.<Xe e 6X6XeX%Xa | o.o...2.C.V.p W b n I >.Q P p XX^.^.^.^.^.W.Q.^.Q.^.Q.Q.Q.XXQ.",
"^.Q.Q.^.Q.Q.Q.^.<Xe {.6X7X7X|.a n ` ..} 2.V.T.u G n G G ! J R &.!.^.^.^.^.^.^.Q.Q.XXQ.^.Q.^.Q.Q.",
"Q.^.Q.XXXXQ.Q.Q.6X}.].6X8Xd i $.C { , z 9X8XI.8 2.=.:.G Q ^ _ z ~.~.^.^.Q.^.^.^.^.Q.^.Q.Q.XX^.Q.",
"^.Q.Q.Q.^.Q.Q.XX.X}.1X~.s a > : > , 4 T.-X#XK.M.N.-X-.b I ! ! a ~.W.W.Q.^.^.^.^.Q.^.Q.Q.Q.Q.Q.XX",
"Q.XXQ.^.Q.Q.^.Q.[.F.:XT.u = = v = B d 1XoXJ.eXe D.e %.C V K W =./.W.Q.Q.XX+X^.~.Q.Q.Q.+XP.^.Q.Q.",
"E.E.Q.E.Q.E.W.E.N.m.^.~.m.|.d 2 O @ & % $ 1 < 1 & % - U v n n p E.E.Q.Q.Q.Q.Q.^.XX^.Q.XX^.Q.Q.^.",
"Q.E.~.Q.E.Q.E.Q..Xm.R.W.D. X|.1     X     .   . . + * : * * : 4 R.E.XXQ.Q.Q.Q.XXQ.Q.Q.Q.Q.Q.Q.XX",
"E.Q.E.E.Q.E.Q.E..Xm.R.].R.H.|.6 % % . . O   X . # X ; $.- > a s E.E.Q.Q.Q.Q.Q.Q.Q.Q.XXQ.Q.XXQ.Q.",
"Q.E.^.E.W.E.E.E.F.F.'.6XW.m.F.e E.|.$ o @   O O + $ 9  Xe J.I.R.E.E.Q.Q.Q.Q.Q.Q.^.Q.Q.^.^.Q.Q.^.",
"R.Q.E.Q.E.Q.E.Q.H.H.$X2X~.A.R.^.|.|.+ . X   X   o O 9 ~.Z.@X1X&XR.E.W.XXQ.Q.Q.Q.Q.^.Q.Q.Q.^.Q.XX",
"Q.E.Q.E.Q.!.W.E.Q.W.R.Q.'.~.W.R.m.J.1 1 y % 2 < % % 5 Y.}.P._.].E.E.^.^.Q.Q.Q.Q.XXQ.Q.XXQ.P.Q.Q.",
"E.Q.R.Q.W.E.Q.E.R.W.F.F.$X+XQ.R.Y.Y.Y.:X6X].2X^.}.t ].1X X XT.%XH.Q.^.Q.Q.Q.Q.Q.Q.Q.Q.^.^.Q.^.Q.",
"Q.E.Q.E.E.Q.E.Q.D.$X$XXXF.[.F.'.|.J.Q.~.U.W.P.Q.=X+X3X,X{.V.*X5XE.Q.Q.Q.Q.Q.Q.Q.Q.^.Q.^.Q.^.XXQ."
};
