/* XPM */
static char *xpm_[] = {
/* columns rows colors chars-per-pixel */
"48 48 256 2 ",
"   c #050502",
".  c #190005",
"X  c #030816",
"o  c #001B1D",
"O  c #320F09",
"+  c #020625",
"@  c #07142B",
"#  c #3A2B26",
"$  c #501B09",
"%  c #753210",
"&  c #70362F",
"*  c #532E1B",
"=  c #5A471A",
"-  c #79463B",
";  c #6F5A21",
":  c #253C4B",
">  c #0A264C",
",  c #473843",
"<  c #773D51",
"1  c #71346D",
"2  c #165878",
"3  c #0B5274",
"4  c #245976",
"5  c #3B5D79",
"6  c #2D556F",
"7  c #006576",
"8  c #1A6A79",
"9  c #057A79",
"0  c #13737A",
"q  c #0D736C",
"w  c #266768",
"e  c #256679",
"r  c #366679",
"t  c #267274",
"y  c #30694B",
"u  c #5A5156",
"i  c #564D57",
"p  c #73475C",
"a  c #6D4E4D",
"s  c #5A4D72",
"d  c #4F566E",
"f  c #774666",
"g  c #665173",
"h  c #4E6C6E",
"j  c #71675D",
"k  c #921B18",
"l  c #B91707",
"z  c #B10E0B",
"x  c #913112",
"c  c #B9271E",
"v  c #B81A25",
"b  c #933131",
"n  c #B22B30",
"m  c #851B3F",
"M  c #C71918",
"N  c #D91716",
"B  c #CF0C0C",
"V  c #E8150F",
"C  c #FF0718",
"Z  c #E91516",
"A  c #F10F14",
"S  c #D73401",
"D  c #CB2615",
"F  c #D52317",
"G  c #D12B0E",
"H  c #E82615",
"J  c #C81828",
"K  c #D41B28",
"L  c #C81837",
"P  c #D11033",
"I  c #E90928",
"U  c #E81628",
"Y  c #F91B28",
"T  c #E51936",
"R  c #FC1937",
"E  c #F60934",
"W  c #C72529",
"Q  c #D72927",
"!  c #D22E32",
"~  c #F82328",
"^  c #E52535",
"/  c #FF203D",
"(  c #E72529",
")  c #8D4939",
"_  c #AC482E",
"`  c #AD743B",
"'  c #CA4618",
"]  c #CD701D",
"[  c #CB482E",
"{  c #E74B2E",
"}  c #C57628",
"|  c #D47331",
" . c #EE663C",
".. c #892958",
"X. c #A33450",
"o. c #8A3868",
"O. c #8F356E",
"+. c #AB266A",
"@. c #DE1C56",
"#. c #F70F45",
"$. c #D12D45",
"%. c #F8314C",
"&. c #DD3E64",
"*. c #8F4C52",
"=. c #B4524B",
"-. c #867A52",
";. c #894267",
":. c #914B6A",
">. c #D6524D",
",. c #F05658",
"<. c #DA6554",
"1. c #E77153",
"2. c #D75C6C",
"3. c #FC5D69",
"4. c #F6597A",
"5. c #F0526A",
"6. c #D96A74",
"7. c #C86765",
"8. c #F9656C",
"9. c #EA6972",
"0. c #EA6B6B",
"q. c #6E8277",
"w. c #BF8A18",
"e. c #C98638",
"r. c #ECAB29",
"t. c #F4C62C",
"y. c #E3CF22",
"u. c #979A5A",
"i. c #E8BC55",
"p. c #F3AB56",
"a. c #E88C77",
"s. c #F1CC4F",
"d. c #F3D86D",
"f. c #C0CA50",
"g. c #753C81",
"h. c #0A5B89",
"j. c #185988",
"k. c #095C94",
"l. c #165D95",
"z. c #104B90",
"x. c #275B8C",
"c. c #2A5E98",
"v. c #355B96",
"b. c #2F5687",
"n. c #0B608D",
"m. c #026788",
"M. c #14638D",
"N. c #1B648D",
"B. c #156C8C",
"V. c #186887",
"C. c #05748D",
"Z. c #007B8C",
"A. c #097486",
"S. c #177589",
"D. c #0C6D91",
"F. c #0C6D9B",
"G. c #056497",
"H. c #156594",
"J. c #1B6692",
"K. c #146C93",
"L. c #1C6A95",
"P. c #126599",
"I. c #1D669A",
"U. c #15699B",
"Y. c #1D6B99",
"T. c #047393",
"R. c #087696",
"E. c #197498",
"W. c #226A85",
"Q. c #2B628C",
"!. c #27688A",
"~. c #226A95",
"^. c #23639C",
"/. c #2A629A",
"(. c #226E9A",
"). c #266394",
"_. c #346998",
"`. c #23719D",
"'. c #2B739B",
"]. c #287696",
"[. c #35799B",
"{. c #326E87",
"}. c #285DA6",
"|. c #3759A5",
" X c #285BB6",
".X c #0A6BA7",
"XX c #1B65A2",
"oX c #1869A6",
"OX c #0875A5",
"+X c #1979A7",
"@X c #1764B7",
"#X c #1171B7",
"$X c #2361A1",
"%X c #2668A6",
"&X c #3767A4",
"*X c #2676A4",
"=X c #3578A7",
"-X c #316BB5",
";X c #1856A3",
":X c #4B538D",
">X c #664883",
",X c #4B6D8C",
"<X c #475BA3",
"1X c #8A718E",
"2X c #FC6691",
"3X c #D2718C",
"4X c #048486",
"5X c #0080A6",
"6X c #3984A9",
"7X c #3288AD",
"8X c #4489AA",
"9X c #4689B1",
"0X c #4F94B7",
"qX c #649CB5",
"wX c #AF9292",
"eX c #A7B699",
"rX c #CE8689",
"tX c #E59391",
"yX c #D3AB91",
"uX c #D49AAD",
"iX c #C6B0AD",
"pX c #E3B4AB",
"aX c #ED969F",
"sX c #BAD5B1",
"dX c #EFCF8B",
"fX c #E6E98E",
"gX c #CECAB7",
"hX c #F7D3AE",
"jX c #D2F3B5",
"kX c #FFECAA",
"lX c #8EB7CF",
"zX c #B1AAD2",
"xX c #D7B6C6",
"cX c #E5BCC4",
"vX c #92CDCB",
"bX c #ACC3C8",
"nX c #ACD3E6",
"mX c #BDFFF9",
"MX c #D9D6D5",
"NX c #C6CFD8",
"BX c #F5CFD0",
"VX c #D4EFD7",
"CX c #EFE8DC",
"ZX c #F9E7DC",
"AX c #F6F7D0",
"SX c #D3D2ED",
"DX c #F5D9ED",
"FX c #DCFBF9",
"GX c #D1F2F3",
"HX c #E5FFE9",
"JX c #F9F8E6",
"KX c #FFE4FB",
"LX c #F9EAFB",
"PX c #E6FDFB",
"IX c #FBF8FD",
"UX c #F2EBF2",
/* pixels */
"L.J.H.J.L.J.L.J.L.L.L.L.Y.L.L.L.Q.0 8 F..X!.B.}.I.T.G.b.Q.Z.Z.v.&X&X-Xl.H.L.*Xh.M.J.J.Y.L.L.L.L.",
"J.L.L.L.J.L.H.L.J.L.Y.Y.Y.~.Y.~.Y.OXXX/.!.S.0 d 1 i i p >X}.Y.v.E.7 7 E.E.Y.(.'.L.L.Y.L.L.L.L.L.",
"L.H.L.J.L.J.J.L.L.L.~.E.Y.E.~.Y.:X@X Xv.V.Z.q a #.W D W O.|.oX$X4XA.S.'.~.~.!.h.Y.(.~.L.L.J.Y.~.",
"J.L.J.L.H.L.J.L.J.L.J.~.L.~.Y.J.8 T.XXH.A.S.8 u P F N D *.r K./.B.J.=Xj.x.j.*XL.Y.(.Y.L.L.L.L.L.",
"L.J.J.L.L.L.J.L.J.L.Y.L.Y.L.L.L.4XZ.S.J.:X+.X.X.Q L ! U D b ;.1 .Xk.oX=X=XI.%XE.J.J.L.Y.L.~.Y.L.",
"H.L.L.J.J.L.L.H.J.L.L.Y.~.L.(.L. XJ.!.K.s K Z U E E @.T C V n o.E.D.G.+XG.Y.H.M.L.J.J.L.~.E.L.L.",
"J.L.J.L.L.H.L.J.L.L.L.Y.Y.Y.Y.L.$XQ.5 w u n G G C U Q Q N D b a d 6 ,X!.].h.(.%X`.Y.L.Y.~.Y.~.J.",
"L.J.L.B.L.L.J.L.J.L.L.Y.~.Y.Y.L.9 Q.O.n K E L Q G A A Y Z I Y E b ..BXUXPX8 m.h.`.`.L.J.L.Y.Y.Y.",
"J.L.L.L.Y.Y.L.L.B.C.K. XXX9 S.c.OXr k B L N B #.N T Z S R P I Y v k BXIXnXx.Y.h.`.`.~.L.Y.J.Y.~.",
"L.L.L.L.~.L.~.Y./.Q.B.D.^.F.C.5 p < tXrXaXaXtX1.7.2X~ F T ( N b ;.f xXnXlX~.E.k.J.J.Y.J.L.L.L.Y.",
"J.L.Y.Y.~.Y.~.Y.c.v.A.9 ).@XF.a T k JXVXZXKXPXfXsXcX@.v v G F p x.j.j.x.h.n.L.*XM.J.L.E.~.Y.Y.J.",
"L.L.L.Y.Y.~.E.L.U.L.Z.Z.v.$X!.p v k ZXHXAXDXIXMXNXNXW M n v P O.#X+XF.U.P.oXK.E.J.L.L.~.L.Y.L.J.",
"J.L.L.(.L.Y.L.L.F.C.D.$X/.8 e :Xi 5 d u -.i.i.hXUXGX_ G X.>X1 d A.S.K.N.'.J.h.H.Y.Y.L.J.L.L.L.~.",
"J.L.L.L.Y.~.Y.~.).B.). X^.q q (.V.+X> . = y.y.d.IXPX_ l ..@X*X4XV.V.S.V.'.j.(.6X`.`.L.Y.L.L.L.E.",
"L.L.L.E.Y.Y.L.L.).).B.I.^.D.A.b.d d # . % s.s.fXLXDX[ n +.z.(.k.~.J.`.(.(.M.l.h.L.Y.L.Y.L.L.L.L.",
"J.L.L.L.Y.~.Y.L.U.^.Z.9 /. X$Xf @.z p.r.s.ZXUXJXmXHXyXNXzX0 t ;X%XoXXXG.G.Y.*X'.B.J.L.~.L.Y.L.L.",
"Y.~.L.L.L.L.(.L.E.)./.Y.oXC.w o.I z r.t.s.AXHXPXJXFXgXdXzXG.|.:XU.P.L.L.J.L.L.L.Y.L.L.L.L.J.L.L.",
"L.L.L.Y.L.L.L.L.E.V.n.h./.J.e 1X2X9.dXd.hXHXKXKXCXGXuXa.wXT.oXk.U.H.L.J.J.~.J.L.L.Y.L.L.J.L.L.J.",
"L.Y.L.L.L.L.L.L.).V.R.G._.x.8 lXKXLXUXCXJXHXSXDXeXuXL P ..m.=Xc.oXP.L.J.~.~.L.L.L.L.L.L.L.L.Y.J.",
"L.L.L.~.L.Y.L.Y.L.M.7X(.|.M.7 nXHXFXPXLXJXHXJXCXjXMX>.v m 8 d j.Y.K.J.L.J.J.L.Y.~.L.Y.L.Y.L.J.L.",
"Y.J.~.Y.L.Y.~.L.+XM.L.j.&XE.7 vXZXMXKXKXBXgXgXrX_ 7.c Q n p *.>XU.P.L.J.~.L.J.Y.E.~.~.Y.L.L.L.L.",
"L.Y.Y.L.L.L.L.L.E.M.N.j.&XR.Z.lXxXsXLXIXPXbXMX3XC E V Y #.M K :.oXY.L.Y.J.~.Y.Y.~.Y.L.Y.L.L.J.Y.",
"L.Y.L.L.L.L.~.L.L.~.E.L.v.K.A.qXzXvXJXZXDXpXiX0.R ^ F ! / l M f oXK.L.~.~.~.Y.Y.~.`.Y.~.E.L.~.L.",
"L.~.L.L.L.Y.L.L._.Y.Z.R.&X).A.!.!.y =.M $.$.=.[ ,.2.<.,.5.G H ;.Y.K.J.L.~.L.Y.Y.Y.Y.Y.L.~.L.L.Y.",
"L.L.L.~.E.Y.~.L.!.4 `.4X9 <X@XoXA.r +.#.N z T %.3.,.,.<.4.Y V *.P.H.L.J.J.J.H.L.J.L.L.J.L.L.J.L.",
"J.L.L.Y.~.Y.Y.L.%Xn.XXD.e =X+Xs u p $.U G D F W 3.5.0.0.4.R Z :.P.P.J.L.J.J.J.L.L.L.J.L.J.H.L.J.",
"J.L.L.L.~.Y.L.L.%XC.oXc.5 oX.Xo.J L ^ A V ~ Y ,.9.6.<.2.5.U B *.P.K.Y.J.J.J.J.L.J.H.L.J.L.J.L.L.",
"L.L.L.Y.E.Y.~.L.!.9 oX/.Q.oXG.o.N N Z Z Z Z N %.0.9.3.3.5.^ ! :.U.H.L.J.N.J.J.L.J.L.B.L.H.L.H.L.",
"J.L.L.~.~.Y.Y.L.).A.E.F.{.E.0 j w.r.' {  .' [ 1.,.0.3.8.5.v k a P.H.L.J.J.B.J.L.L.L.H.J.L.J.L.J.",
"J.J.Y.Y.L.~.~.Y. XI.XXC.0 W.t u.y.s.] ] | } e. .0.0.,.8.2.% % i P.H.H.L.J.J.L.H.J.L.J.L.L.J.J.L.",
"L.L.~.L.Y.Y.Y.L.@XJ./.m.S.E.8 -.r.p.e.e.` ` ` | 4.2.,.5.3X$ & >XP.U.J.~.~.N.J.L.L.L.L.L.J.L.Y.J.",
"J.L.E.~.L.~.L.L.C.8 {.H.+X#Xz.:.S _ u.sXMXpXiXBXIXFXJXZXGXy y !.P.H.L.J.J.J.H.L.J.H.L.J.L.J.J.Y.",
"L.J.L.H.J.L.J.L.!.B.U.oX.XR.r p P J yXvXxXsXvXUXLXVXPXKXPX7 .X-X^.~.~.~.L.L.Y.J.Y.L.Y.L.L.Y.L.L.",
"J.L.L.L.L.L.L.H.B.K.L.^.XXP.4 d < < a.eXpXaXaXhXkXjXGXSXnXD.G.j.(.L.Y.L.Y.L.L.Y.~.Y.~.L.L.L.~.L.",
"L.L.J.L.L.H.L.L.T.J.Q.).I.~.Q.e w 6 & x % l I } y.f.h 2 l.k.oX[.E.P.L.L.L.L.L.~.L.Y.L.L.L.L.L.Y.",
"J.H.L.J.J.L.J.H.OXJ.Q.B.D.^./.L.S.Q.& x x G R | s.d.h m.F.%Xl.e K.E.K.K.L.Y.~.L.L.L.L.L.E.L.L.L.",
"L.L.L.J.L.H.J.L.I.c.W.A.T.I.$X^.k.5 * ) =.{ / <.] <.g m.+X&X}.4 K.E.K.Y.L.L.~.~.L.L.L.Y.~.Y.Y.L.",
"L.H.L.J.L.J.L.J.}.).B.C.T.U.$X^.+Xr = - *.[ / ~ $.! g m.].x.$XQ.K.K.K.L.Y.L.J.~.Y.L.L.~.J.~.L.L.",
"B.L.J.L.J.L.H.L./.K.K.L.^.XXY.I.E.e j *.=.>.%.H T P g OX'.(.+X!.Y.L.L.L.L.L.L.L.L.L.L.L.L.L.L.Y.",
"J.L.L.J.L.J.J.L.I.T.K.v.v.XXF.D.W.3 -.n b n / S ~ J s #Xj.L.OX].(.~.~.^.Y.Y.L.Y.L.~.L.L.Y.L.~.L.",
"J.B.H.J.J.L.L.J.H.`.H.(.=Xj.8X{.8Xr j *._ Q ( K R W g E.A.T.oX&XB.B.K.Y.Y.I.~.J.Y.L.L.L.L.~.L.L.",
"J.L.L.L.L.L.L.L.H.H.`.'.h.(.8 0X[.,Xu - k Q Q W D c , 3 4 =XG.).B.H.Y.Y.Y.I.~.J.L.L.L.Y.Y.L.L.Y.",
"J.L.L.J.L.L.L.L.E.'.H.`.(.V.8X8X[.{.o   O x % % x x . + @ ,Xh.'.B.J.L.Y.I.Y.L.~.L.~.E.Y.L.Y.L.L.",
"J.L.J.L.L.J.Y.L.~.3 '.h.'.=X!.'.8X[.@ X O - = ) % % . + X ,XP.E.B.J.Y.Y.I.Y.~.L.L.L.J.~.L.~.L.L.",
"L.H.L.L.L.L.L.L.].~.6X9X'.0X[.0Xj.j.3 : , # O * $ $ : 2 : )..XG.L.E.L.Y.Y.I.L.L.Y.~.L.L.L.L.L.L.",
"L.L.J.L.L.L.~.Y.V.6X~.[.[.].8X'.R.D.S.{.5 X     .   2 7XW.B.#Xm.S.~.Y.Y.Y.Y.~.~.L.L.L.L.L.Y.L.~.",
"L.L.L.L.L.L.Y.Y.=X!.0XW.6X[.'.^.'.j.x.j.6 @ X   + o 7 R.W.~.#XM.L.L.L.Y.L.Y.L.~.L.L.L.Y.Y.J.E.~.",
"L.L.J.Y.Y.Y.~.~.N.9X[.8X!.2 (.~.J.k.*X+X/.3 w w 6 6 `.F.Q.{.H.2 S.E.L.Y.Y.Y.~.~.Y.L.L.L.~.Y.Y.J."
};
