/* XPM */
static char *xpm_[] = {
/* columns rows colors chars-per-pixel */
"48 48 256 2 ",
"   c #050506",
".  c #140201",
"X  c #180904",
"o  c #020A15",
"O  c #0B0919",
"+  c #260707",
"@  c #2E0F0B",
"#  c #000C25",
"$  c #061826",
"%  c #1A1122",
"&  c #11282D",
"*  c #203D39",
"=  c #4E2D1C",
"-  c #683518",
";  c #773A19",
":  c #78320E",
">  c #543933",
",  c #773726",
"<  c #75372B",
"1  c #4A1408",
"2  c #5F4710",
"3  c #5F403E",
"4  c #7F413C",
"5  c #634D38",
"6  c #69440D",
"7  c #17394A",
"8  c #7C3B56",
"9  c #6C3F56",
"0  c #7A3B6F",
"q  c #413658",
"w  c #114459",
"e  c #325156",
"r  c #1A6A5A",
"t  c #0E4A72",
"y  c #395B61",
"u  c #325471",
"i  c #056A79",
"p  c #137070",
"a  c #276779",
"s  c #356576",
"d  c #5A5158",
"f  c #514D4D",
"g  c #674B56",
"h  c #774657",
"j  c #6C4F4D",
"k  c #5A4A76",
"l  c #4A587E",
"z  c #4F546E",
"x  c #684D74",
"c  c #70466E",
"v  c #456572",
"b  c #666662",
"n  c #971519",
"m  c #BC1A17",
"M  c #AB0512",
"N  c #863405",
"B  c #893517",
"V  c #973219",
"C  c #812017",
"Z  c #B2280B",
"A  c #A9281B",
"S  c #B8291A",
"D  c #A4341A",
"F  c #B22D15",
"G  c #B91B28",
"H  c #B70027",
"J  c #9D3338",
"K  c #93322B",
"L  c #A52726",
"P  c #BA2526",
"I  c #A92536",
"U  c #B82936",
"Y  c #A3353A",
"T  c #B03831",
"R  c #991D27",
"E  c #CE0616",
"W  c #D90B15",
"Q  c #C41816",
"!  c #D71A1A",
"~  c #CC1407",
"^  c #F9140A",
"/  c #FF0D1E",
"(  c #FD0B17",
")  c #E7171C",
"_  c #F6131A",
"`  c #E70C1A",
"'  c #D7280B",
"]  c #C82519",
"[  c #D92419",
"{  c #CF3514",
"}  c #E3241A",
"|  c #F3221B",
" . c #E42D0D",
".. c #CA1928",
"X. c #D41C22",
"o. c #D71829",
"O. c #DB0E38",
"+. c #C71B34",
"@. c #D81935",
"#. c #C70F35",
"$. c #F60A28",
"%. c #EC1223",
"&. c #EB1B24",
"*. c #E41A2C",
"=. c #E51827",
"-. c #F71826",
";. c #E61535",
":. c #F81437",
">. c #EB0C32",
",. c #C92726",
"<. c #DB2223",
"1. c #D52326",
"2. c #C42834",
"3. c #D72736",
"4. c #C93433",
"5. c #E42429",
"6. c #EF2931",
"7. c #87420D",
"8. c #8A4931",
"9. c #AA723C",
"0. c #AE452F",
"q. c #D15B25",
"w. c #BD1A47",
"e. c #9A2A45",
"r. c #943547",
"t. c #8E3755",
"y. c #A92C4C",
"u. c #A73345",
"i. c #B83642",
"p. c #883867",
"a. c #8D386C",
"s. c #A52263",
"d. c #CE174D",
"f. c #FC0742",
"g. c #EF0B40",
"h. c #C9344A",
"j. c #8E4353",
"k. c #B3695A",
"l. c #93476A",
"z. c #807E71",
"x. c #B8777B",
"c. c #C75F41",
"v. c #C34D4E",
"b. c #CF466A",
"n. c #E3625D",
"m. c #3F8175",
"M. c #14816C",
"N. c #7C8E5A",
"B. c #5A8C74",
"V. c #728B63",
"C. c #FE931A",
"Z. c #F7CF21",
"A. c #B3BD59",
"S. c #B7936F",
"D. c #E68069",
"F. c #1B5B85",
"G. c #1A5E95",
"H. c #0C5E98",
"J. c #365D89",
"K. c #275C98",
"L. c #355B98",
"P. c #2C5288",
"I. c #056A88",
"U. c #166A8D",
"Y. c #1C6A8C",
"T. c #196689",
"R. c #05748B",
"E. c #067787",
"W. c #177288",
"Q. c #0A6C97",
"!. c #146593",
"~. c #1A6693",
"^. c #166994",
"/. c #1C6A95",
"(. c #1B669A",
"). c #146C9A",
"_. c #1D6A99",
"`. c #15629A",
"'. c #067494",
"]. c #0C7293",
"[. c #0A7299",
"{. c #037898",
"}. c #117393",
"|. c #167399",
" X c #236B8B",
".X c #286587",
"XX c #246594",
"oX c #2A6394",
"OX c #216C95",
"+X c #23659C",
"@X c #2B619A",
"#X c #216D9A",
"$X c #2A6992",
"%X c #287599",
"&X c #346B8D",
"*X c #0F5CAE",
"=X c #2A5EA1",
"-X c #315CAE",
";X c #0C69A4",
":X c #136DA0",
">X c #1B6BA3",
",X c #1864AB",
"<X c #0674A7",
"1X c #1877A6",
"2X c #0D69BA",
"3X c #2668A7",
"4X c #246BAE",
"5X c #4E548E",
"6X c #785281",
"7X c #6E4791",
"8X c #456AA6",
"9X c #0E6DCB",
"0X c #893684",
"qX c #8B7685",
"wX c #C7678D",
"eX c #0B859F",
"rX c #3B8C9D",
"tX c #7F95AC",
"yX c #75A4CE",
"uX c #91998F",
"iX c #A19B8F",
"pX c #8DAC95",
"aX c #B9AF9B",
"sX c #B79CAF",
"dX c #98B7B3",
"fX c #B9B4B5",
"gX c #AFAEB0",
"hX c #899BB1",
"jX c #CD9992",
"kX c #D6ABAE",
"lX c #E3B0B3",
"zX c #D2A5A3",
"xX c #BDC4B8",
"cX c #A0CAB4",
"vX c #99C6AF",
"bX c #9FA8D9",
"nX c #D7BACD",
"mX c #E6B7CB",
"MX c #B8CEC6",
"NX c #B1F1FB",
"BX c #D6C7C3",
"VX c #C9C9D8",
"CX c #D1D9CD",
"ZX c #E8D3CD",
"AX c #CAECD6",
"SX c #E8FCDC",
"DX c #F9E6D9",
"FX c #D6F5FD",
"GX c #E5E6E9",
"HX c #FFEAEB",
"JX c #F8FAEA",
"KX c #FBEDFA",
"LX c #E7FAFA",
"PX c #F5FFFD",
"IX c #FFF1FF",
"UX c #E2F0ED",
/* pixels */
"/./././.OX/./._._.^././.^.^.^.~.|.T.E.eXI.[.{.a Q.Q.].}./.$X_.[./._././._././././././././.OX_./.",
"_././._._./.OX/.^.^.^.^././.~.^.i .XW.rXu l &XW.).XXXX/.|.OXK.L.|.%X/././././.^./.#X#X/././././.",
"/./._.OX/._./._.^./.^./.^.~.^.~.P.bXIXIXb.d.8 l [._.@X@X|.[./.L./././././.|././.#X/././.OX/./.OX",
"OX/./././.OX/././.^._.^.^.^.^.^.eXbXFXJXv.@.t.v U.U.XX@X+X[.].^././././././././././././././.~./.",
"/._./././._././._.^.^.^.^.~.^.^.I.yXNXAXT E R f x a R.Q._.[.[.}./././././././.^././././././././.",
"/.OX/._./.OX/._.^.^./.^.^.^.~.^.}.~.I.r , [ 4.j.d.0 a Y.@X@XL.5X/./.|./.~./.^.~.~./.~././.~./.~.",
"_././.OX/.OXOX/./.^./.^.^.~././.J.K.K.u u.W W o.@.j p p '.{.eX:X/./././.^./.~.~./.~./.~.~./.~./.",
"OX/././._./._./.^./.^.~.^.^.^.^.E.;X2XF.l.S F 3.%.Y 8 0 7X3X:XL./.^././.^.~.~.~.~./.~././.~./.~.",
"_./.OX_._././.OX~./.~.^./.^.^.^.I.(.K.T.r.,.=.5.! f.;.S y '._.<X XT.Y././._././.~./.~././.~./.~.",
"/./././.OX/._./././././.^.^.^.^.R..Xu y u.P [ <.! >.*.S j 5X5X).W.Y.Y./.(._.(././.~./.~././.~./.",
"/.OX/._././.OX/.~./.^.^.^.^.^.^.+Xk r.K @.o.$.^ ) ;.*.[ u.p.p..XY.Y.Y.~./.(././.~./.~./.~./.~.~.",
"/././././._.~./././.~.^./.^.^.^.K.p.X.] $.;.$.^ 5.:.<.} @.d.y.s U./.~.~.~././.~./././._.~./.OX~.",
"/./././././._./.~././.^.^.^.^.^.).h [ ' -.3.5.| ) :.[ ) =.=.U a ~./.~.~.~.(._.(./.~._./.~./././.",
"~.~.~././.~.~.~.~./.~./.^.^.^.^.|.j.5. .-.3.5.5.&.:.} } *.%.U p _._./.~././._.(.OX/./.OXOX/._./.",
"/.~./.~.~./.~.OX/.^.~.^./.^.^.^..Xp.=.} $.-.%.&.o.$.) } *.-.h.XX_._././.OX/._.(./._./._./._._./.",
"~./.~././.~./.~.~././.^.^.^.^.^.i g +.] _ ! X...! ( ! ! @.%.@.K.3X_.#X/.OX/.(.#X/.OX/./././.OX/.",
"/././.~.~./.~./.].~.@XoX+X(.:X{.1Xf +.m 3.O.G U ,.D I +.Q E J XX].U.Y.Y.$XoX$XW._.(._._._./.OX/.",
"/.~./.~.~.~./.~.XXoXXXU.].]._.K.J.0 h.n L H n M M M E O.U P t.u ).].E.{.).XX/.}._.OX_._._./._._.",
"~.~.~.~.~.~././.J.XX^.}.].U.OXoX$XhXlXaXCXHXHXDXSXJXDXHXCXzXgXXXJ.J.L.L.@X^.}.}._._._._._._._._.",
"Y.~.~.~./.~././.XX].[.OXoXXXY.Y.W.hXmXkXUXPXPXHXHXJXSXPXGXBXMX.XeX'.3X@X3X)._.oX/.OX/._._.OX/._.",
"~.~.~./././././.).[.;X3X(.U.T.k z uXMXfXGXUXUXPXIXJXAXLXVXkXfXq z a {.:X_.)._.=X/.Y.OXOX/._._._.",
"~.~././.#X/._./.Q.).3XK.'.E.u s.I x.vXgXmXnXnXKXFXCXVXVXfXiXzXw.f.t. X}.XX/.[.;X/. XW./././._.(.",
"~././.#X#X#X#X/.XX).+XL.T.p g d.m k.pXuXBXMXCXLXPXZXBXVXsXiXS.3.( j.a .X.XW.[.3XY.Y. X/.#X/._._.",
"~./._.#X#X#X#X_.J.R.U.J.k d 4 U ~ 6.k.v.kXdXgXCXFXxXpXsXwXk.c.-.^ 2.a.0X5XW.[.-XY.Y.Y./././._.#X",
"~.~./.#X#X#X#X_.,X|.E.5Xs.@.Q o.! O.:.` n.hXdXkXMXgXvXiX4.W 1.=.-.;.! 2.x &X X4XW.^./._._.~./.Y.",
"/././._.%X#X#X#X/.W.p s u.,.A r.n #.:.) D.iXgXlXBXkXaXjXn.&.5.=.<.3.&.,.x E.'.;XU.^._._./.~.Y.XX",
"~././._.#X%X#X/.W.W.I.p J S J k v j.3.W c.Y y.i.i.I J i.=.-.) W m o.$.-.c U.].4XU././._._.~.~. X",
"~.Y.~.~././.#X^.!.>X4X{.I Z J K.i h 3.~ { X.O.@.[ Q P ,.&.| 6.X.Q X.( &.c OXOX-XU./._._./.~.Y./.",
"~.~.Y.~././././.G.,X-XR.T { Y ~.%Xl.6.) [ =.` P ' ] ] ,.] ] ,.A +.2.' ] k ).`.,XU.U./.#X/.~./.Y.",
"/.~.~./._._.#X/.%XY.K.p c.q.9.a ;Xp.! ! <.-.-.3.^ ) =.` ! <.,.U @.2.' ,.x >XOX3XY.^./._._.~.Y.XX",
"OX_./././.#X#X/.%XY.W.a k.9.N.a <Xg S [ @.-.-.5._ 5.:.$.X.,.+.I w.G ^ 6.6X3XXX8XU.^.|.#X/././. X",
"_.~.~./././././.~.!.'.a b b v (.4Xh S 1.2.1.[ P Z D P Q K J J K r.U ^ 6.x '.I.%XU.^./._././.Y./.",
"/._./.OX/./._./.~.~.Y. XOX_.^.W.L.h S ! ..,.D 7.2 K K B 2 - > r p l.O.d.7X1X[.-X)./.^./.Y.Y.OX%X",
"/./._./.OX/./.OX(.Y.T.XX(.(.^.U.<Xd A Q G m V B 6 ; B ; : B h p H.0 } [ x ;XI.F.~.^.~././.Y.%X%X",
"/././././._.OX/._._./.Y.~.`.^.U.:Xd B B , V A P ] S S S m o.t.T.9XqXC.C.b rX}.&X!.I.~./././.#X%X",
"/._./.OX/./._./.>X#XOXY.(.`.!.!.I.g V B ; B L I $.$.-.%.%.%.y. XeXN.Z.Z.V.T.R.$X!.!.!./.#X#X$X%X",
"OX_./././.OX/._.3X#X/.OX(.>X_.^.F.9 A B ; V I e.t.U *.o.S Z K i M.B.A.A.B.XX/.3X!.!./.^././.OXOX",
"/./._.OX/._.OX/._.OXY.OX+X>X_.^.eXh =.%.=.5.8.y $Xh 2.U B N 5 u i T.&Xs K.F.T.H._.^.)._././.Y./.",
"/././././.OX/./.).~.Y./._._.^.W.].l.6.&.&.-.u.y |.d U G B N - P.4X2XG.T.3X3XW.>X_.`.`./.~.~.~.~.",
"OX_._././._./._._.Y. X X#X_.^.U.F.t.3.[ ) / U w t > m +.V 7.5 `. X>XI.i _.K.a ;X).`.!.~./.~.~.XX",
"/._././.#X/._././././.^././././.,Xr.^ ( :.| P +   1 C K : ; 5 J._.^./.^./././././.~.~./.~./.~./.",
"/.OX/.#X/././.OXY.^.Y././.^.^.~.;Xj.[ =.3.[ L X o = , < < 4 f J.^.^.^././._.XXXX~././.~./.~./.~.",
"/._././././._././././.^./.~.~.~.).j V D L V N . o X + @ @ @ % L.^.^././././.OX~./.~./.~.~.~.~./.",
"/.OX/./._.OX/./.Y././././.(.^._.U.e - , < B - . $ . . X O   o 8X/._._./././.(.OX/./././././././.",
"/./.OX/./././.OX/././././.^.(./.T.y f d 3 = = X O . . O * $ $ .X^.|././././.OX(./././././././.~.",
"_././._._.OX_./.W././._./._.^._.XX.Xy y & X X   O + X o y 5Xa Y._._.|.OX/.#XOXOXOX/././.OX_._.OX",
"_././.OX/./././.OX/././._.~._.~.(.~.Y.s $   o o $     # t L.&X_._./././._._.+XOX_./.OX_./.OX/./.",
"/././._./.#X/./.OX/./././.)./._.(.Q.Q. Xw 7 7 7 w & * w =XL.$XeX/.|./.#XOX/._.OX/./././._./._./."
};
