/* XPM */
static char *xpm_[] = {
/* columns rows colors chars-per-pixel */
"48 48 251 2 ",
"   c #000502",
".  c #040B02",
"X  c #07060A",
"o  c #150602",
"O  c #061409",
"+  c #15150B",
"@  c #010717",
"#  c #130A16",
"$  c #280F10",
"%  c #061028",
"&  c #212526",
"*  c #582A16",
"=  c #672918",
"-  c #783816",
";  c #712F16",
":  c #583333",
">  c #70322C",
",  c #6B4212",
"<  c #72503B",
"1  c #293652",
"2  c #305252",
"3  c #105574",
"4  c #345E78",
"5  c #315872",
"6  c #1A766B",
"7  c #0A677B",
"8  c #186679",
"9  c #0E7272",
"0  c #25687B",
"q  c #316971",
"w  c #19444A",
"e  c #4E5152",
"r  c #754954",
"t  c #6F4C52",
"y  c #5A605E",
"u  c #564A64",
"i  c #47566A",
"p  c #4F5773",
"a  c #6A4C65",
"s  c #7A4568",
"d  c #744475",
"f  c #655371",
"g  c #466F74",
"h  c #B71713",
"j  c #982917",
"k  c #883516",
"l  c #943416",
"z  c #95350B",
"x  c #AC2B1B",
"c  c #B72A19",
"v  c #AB2F0E",
"b  c #9B1F27",
"n  c #B71D35",
"m  c #863C28",
"M  c #983627",
"N  c #893936",
"B  c #9A282E",
"V  c #AA2720",
"C  c #B72926",
"Z  c #AC2A36",
"A  c #BA2A38",
"S  c #AB352B",
"D  c #C8170A",
"F  c #C71718",
"G  c #DD1A1C",
"H  c #D61818",
"J  c #D9190E",
"K  c #FF0C18",
"L  c #E81818",
"P  c #F71618",
"I  c #F40F0B",
"U  c #C62918",
"Y  c #D5241A",
"T  c #CD2A12",
"R  c #E62908",
"E  c #E3221C",
"W  c #E42418",
"Q  c #F3240B",
"!  c #C81927",
"~  c #D41C22",
"^  c #DC1C2C",
"/  c #D91826",
"(  c #D71B32",
")  c #D20E2C",
"_  c #ED0B27",
"`  c #FD0C2A",
"'  c #FB0824",
"]  c #E71926",
"[  c #FD122C",
"{  c #F81826",
"}  c #FF0938",
"|  c #E91836",
" . c #F81736",
".. c #C82726",
"X. c #D32325",
"o. c #D52826",
"O. c #C3332D",
"+. c #C92635",
"@. c #D92435",
"#. c #D73535",
"$. c #CC3A33",
"%. c #E62226",
"&. c #FC2428",
"*. c #E42537",
"=. c #F02239",
"-. c #8D4628",
";. c #AD493C",
":. c #D27B38",
">. c #DC4228",
",. c #833E58",
"<. c #973359",
"1. c #99314E",
"2. c #AC2945",
"3. c #B73745",
"4. c #AD2F50",
"5. c #873A69",
"6. c #943668",
"7. c #B42E70",
"8. c #D81946",
"9. c #CB1542",
"0. c #E51748",
"q. c #F81244",
"w. c #C32648",
"e. c #D72846",
"r. c #CF3554",
"t. c #E53B48",
"y. c #F6375B",
"u. c #8D4653",
"i. c #B0514F",
"p. c #AF7357",
"a. c #854365",
"s. c #B37D73",
"d. c #82756C",
"f. c #CA494D",
"g. c #DB4B6C",
"h. c #D26F6E",
"j. c #F4515D",
"k. c #058376",
"l. c #778F71",
"z. c #EC9D1E",
"x. c #BFCD30",
"c. c #F0CA0F",
"v. c #D3C639",
"b. c #9DA378",
"n. c #C9A460",
"m. c #A3C955",
"M. c #0A5C8C",
"N. c #185D89",
"B. c #185B99",
"V. c #275C87",
"C. c #275C9A",
"Z. c #355C96",
"A. c #0C6A8B",
"S. c #14648E",
"D. c #1B658C",
"F. c #166B8D",
"G. c #1A6C8C",
"H. c #196983",
"J. c #057689",
"K. c #13728A",
"L. c #167587",
"P. c #0C6D9A",
"I. c #0A6A96",
"U. c #156492",
"Y. c #1A6793",
"T. c #166B92",
"R. c #1C6A95",
"E. c #15659B",
"W. c #1C6799",
"Q. c #136B9A",
"!. c #1D6B99",
"~. c #047494",
"^. c #007C9A",
"/. c #087499",
"(. c #167496",
"). c #256889",
"_. c #3A7688",
"`. c #226595",
"'. c #2B6394",
"]. c #226B95",
"[. c #24659B",
"{. c #216C9B",
"}. c #2D6B9A",
"|. c #346498",
" X c #23719B",
".X c #2B749D",
"XX c #287597",
"oX c #2F7092",
"OX c #1A58B1",
"+X c #3859A4",
"@X c #2958B1",
"#X c #0A6BA7",
"$X c #1C64A1",
"%X c #1A6AA2",
"&X c #1867AA",
"*X c #0775A3",
"=X c #1B76A5",
"-X c #126CB5",
";X c #2665A6",
":X c #2875A4",
">X c #3579A5",
",X c #2D70B1",
"<X c #4D598B",
"1X c #664C8A",
"2X c #4779A4",
"3X c #4167B2",
"4X c #6376A0",
"5X c #4C6299",
"6X c #255FC2",
"7X c #2C6AC8",
"8X c #E17B88",
"9X c #088192",
"0X c #1B8995",
"qX c #3C8097",
"wX c #0C87A8",
"eX c #3D83AB",
"rX c #2D89B2",
"tX c #718F93",
"yX c #478BB3",
"uX c #4889B1",
"iX c #719DA4",
"pX c #3280CB",
"aX c #AA8F8B",
"sX c #B9A593",
"dX c #A3AC90",
"fX c #9AABA3",
"gX c #88ABB3",
"hX c #B8B8BA",
"jX c #B3B2A8",
"kX c #90A6A6",
"lX c #CDA9AD",
"zX c #C9989B",
"xX c #BEC5BE",
"cX c #E1CFB8",
"vX c #B5B5C3",
"bX c #D0B2C4",
"nX c #E3BFCD",
"mX c #9AC6C7",
"MX c #BBC6C9",
"NX c #B3CFCF",
"BX c #CED5D0",
"VX c #D3CEC9",
"CX c #EFD0CC",
"ZX c #EBD7EA",
"AX c #DDE4E9",
"SX c #F9ECEA",
"DX c #EBFAE8",
"FX c #E7FEFA",
"GX c #F8FCF8",
"HX c #F6FAEB",
"JX c #E2E1DA",
/* pixels */
"R.R.R.R.!.R.].R.!.R.R.R.R.R.R.!.!.(.R.G.J.~.W.$X+XgXCXCXiXI.M.(.!.!.!.!. XR.].!.R.R.R.R.R.`.!.].",
"R.R.].R.R.R.R.!.!.R.!.(.!.R.R.R.!.Q.R.Y.T.Y.!.Q.C.u h n u A.!.|.Y.T.(.R.!.R.].R.Y.R.R.R.R.R.R.R.",
"!.].R.R.R.R.R.R.!.R.R.!.R.R.R.R.Y.W.!.;X[.[.Y.F.8 : h ) f wX=X|.U.U.T.Y.R.R.].].Y.Y.R.R.R.R.R.R.",
"R.R.R.!.R.!.].R.R.R.T.R.R.R.R.(.F.'.!.#X$XD.).i ,.1.Z A u A.%X>XT.T.Y.R.R.{.{.{.Y.Y.Y.Y.R.R.R.R.",
"R.R.].R.R.].R.R.!.R.R.R.R.R.!.T.K.Z.$X*XP.H.i <.q.! ! Z u ).C.Z.(.R.T.R.R.R.R.[.Y.Y.Y.Y.R.Y.R.R.",
"R.R.!.R.!.R.!.R.T.Y.Y.T.R.T.Y.T.A.Z.E.~.'.i r +._ H G w.f XX%XB.!.R.!.R.R.Y.Y.Y.Y.T.Y.R.R.R.R.R.",
"!.R.W.R.R.R.R.R.R.Y.R.T.Y.T.Y.Y.I.C.~.F.d 1.Z / ..../ n i J.*X=X(.!.R.R.R.Y.Y.Y.R.R.R.R.R.R.R.!.",
"R.].].R.R.!.R.].R.T.Y.Y.R.R.Y.T.Q.`.J.H.7.0.A G G Y ( w.u D.`.+X!.!.!.!.!.].{.].R.R.R.R.`.R.].!.",
"R.R.R.].R.].R.!.[.[.W.R.Y.T.F.F.-X4 u s M c G X.0...o.Z e 2 g *X].{.].].].].{.!.R.W.R.R.R.W.R.R.",
"R.!.R.R.!.R.R.R.`.W.R.Y.T.T.T.T.C.t 2.4.o.P ` ` =.Y P ` n Z 6.|.:X{.]. X].].].{.R.].R.R.R.].R.R.",
"!.R.!.R.R.R.R.R.T.T.Y.Y.Y.T.T.T.).< +.| Y P [ [ *.T Q ' ] _ w.p !.!.].R.R.].R.!.R.].R.!.R.].].R.",
"R.].R.R.R.!.].R.F.(.T.T.Q.Y.E.E.J.< X.| Y Y o.] { Y W %...X.A 0 !.!.Y.Y.G.Y.R.!.R.R.R.R.R.R.R.R.",
"R.R.!.R.].R.].W.T.G.T.T.Y.!.E.W.P.r _ } ] L ] %.` E { | o.P 3.8 W.W.E.Y.Y.T.R.T.R.R.R.R.R.R.R.R.",
"].R.R.R.R.R.R.R.R.R.T.Y.Y.Y.Y.Y.&X,._ } { %.=.%.X.o.{  .%.K w.8 %XQ.!.Q.R.R.T.!.Y.Y.Y.R.R.Y.Y.Y.",
"W.R.].R.!.].R.R.].`.`.`.R.Y.Y.Y.W.t ..| ~ X.( X.S U _ ( C J 2.K.&XE.!.R.R.!.Q.!.R.Y.R.Y.R.Y.Y.R.",
"R.R.!.R.R.R.!.R.[.[.[.`.Y.G.G.F.[.< c ! F ! ) F H G _ n z D Z ).$X%XE.T.T.(.Y.Y.Y.Y.R.Y.Y.R.Y.Y.",
"!.R.R.!.].!.].R.K./.#X#XG.G.Q.-XM.6.4.-.i.r.g.3.w.4.C f.;.3.7.<X@X;XA.K.|.+X[.J.H.T.R.W.R.W.R.T.",
"].!.].!.R.R.!.!.G.T.Q.W.].).T.I.wXkXlXVXSXZXSXJXSXHXHXSXcXCXhX9X^.T.).~.~.[.].K.H.T.Y.W.[.W.Y.Y.",
"R.!.R.].!.R.].!.G.D.Y.`.W.[.).0 3 tXBXBXGXGXFXGXDXFXFXFXBXAXmX9 k.4 <X(.^.K.'.{.G.T.R.R.W.W.Y.T.",
"R.R.R.!.].R.R.R.%X'.V.W.*X#X4 u <.aXxXhXZXZXAXGXSXZXZXZXVXbXlXa y f Z.*XJ.).|.+XF.T.R.!.].].R.R.",
"R.].R.!.R.R.].R.&X[.Z.T.*XP.p 1.| s.fXfXVXhXBXHXFXBXMXNXfXaXzX| ( a.].Q.Q.!.$X&XF.T.T.].{.W.R.Y.",
"R.R.R.R.R.R.R.R.:X;XY.S.H.g <.8.[ h.sXsXVXxXVXGXDXVXvXMXfXdXn.| ` u.q ).'.P.*X-XG.T.R.!.[.{.R.R.",
"R.R.R.R.R.Y.R.].`.A.J.0 a 1.w.e.Y f.j.h.zXdXjXBXCXnXlXlXh.i.i.) | A 1.a.<XT./.W.(.G.!.{.W.{.W.R.",
"R.R.R.R.R.R.R.Y.0 J.J.5 3. .=.r.-.f.q.0.aXkXfXBXNXmXgXzXy.) H _ C L K 8.d ].).<XG.R.!.R.{.W.R.R.",
"R.{.U.!.U.Q.M.F.7 @X&X*Xf.y.t.g.#.W L e.g.b.sXbXbXzXb.b.y.{ L Y O.O.I K a J.D.[.R.R.R.].R.].(.R.",
"Y.!.U.!.U.!.U.U.H.,XN.A.w.t.%.i.@.Y J / ( C C w.r.*.S +._ J h h ..S Q W p 9X(.*X`.].].R.R.R. XR.",
"U.Y.U.Y.U.{.W.!.!.,XoX0Xt.j.>.;.9.^ W ] ^ H D ( ) I D / [ E Y ..) +.I %.1XE.D.!.R.`.].].].!.R.R.",
"Y.Y.U.Y.Y.].{.:XW.>Xq _.e.t.U r 5.3.Y ^ @.G Y +.$.E U ~ ] E @.1.a.4.W o.1X&XT.J.R.R.R.].!.!.!.].",
"Y.Y.R.U.Y.`.{.:X,XrX_.uXr.$.Z 1XJ.t ! ) ( / L L %.L T ! ) h Z q C.5.H H 1X&X(.9 `.R.`.R.R.R.R.(.",
"F.F.R.D.].D.}..X2X:XoX'.$.c M +X~.r ] _ | { P ] ' K %.*./ ! 1.~.#Xa.Q R d @XG.0 Y.`.].]. XR.!.R.",
"U.S. XD.}.`.>X>XuXrX{.B.z.z.:.%X%X,.G H +.] L J ] P {  ./ / 2.V.J.d.:.z.f rX~./.R.R.W.].!.!.!.R.",
"F.F..XG..X}.>X>X4X/.U.B.z.c.z.7 I.t v v ..[ K &.#.&.{ [ F c 2.V.3 p.c.c.l.[.A.I.`.`.W.].!.!.R.R.",
"`.).2X.XyX>X>X}.4XU.wX`.m.x.m.8 $Xt F v v L Y ] L ..C c F z M B.%Xl.v.v.tX&XI.q M.S.!.!.!.R.!.{.",
"N.oXH.yX`.yXoXuX|.M.9 M.4Xi q B.*Xy x l -.x k l l m - k V k -.P.7 8 g q 8 I.#X:XN.Y.!.!.W.Y.R.R.",
"XX).uX}.yX].>X}.pXG.k.;X,XOX;X7X~.e j ; > M - ; , , - > B k N T.0X,X@XOX;X}.}.[.Y.W.!.{.R.Y.Y.Y.",
"XXXXuX>X>X].].N.*XM.3 @X:XQ.7 Y.I.r V b S C v v v x c M Z M Z V.N.U.P.%XC.V.0 0 E.!.!.!.R.Y.T.Y.",
").>XXXyXG.>XN.R.K.{.}.7XR.L.6 Y.;Xa.C h X.W I R P { P U A x Z 4 B.K.k.9 (.!.(.0XW.!.W.!.R.R.R.Y.",
"XXR.>XD. XS.].R.H.).).OXY.%XH.$XB.,.V F ~ P P Y e. .I T ! x S 0 +X}.L.8 F.!.W.#XW.W.W.R.!.R.].].",
":XXX XR.F.D.U.Y.%XR.8 OX[.;X X&XP.u.U L  .*.e.r f 4.] L ] ! A K.B.C.|.|.:X,X;X;X!.W.W.!.R.!.R.R.",
"XX XT.R.Y.R.Y.Y.Y.Q.(.#X0 8 6 #XQ.i.E K } e.<.5 J.s *.{ } } 9.F.~./.(.Y.I.P.H.6 !.!.W.R.!.].R.R.",
"Y.R.!.].Y.Y.R.R.Y.Y.T.R.R.R.R.Y.W.6./ / X.#.i.u g t @.| U R +.5X X X!.R.R.T.R.T.!.!.R.R.!.R.R.R.",
"Y.R.R.R.R.R.Y.R.Y.T.Y.Y.Y.T.R.T.^.e j j j z =   % + j b - z m (.(.R.R.R.R.R.R.R.R.R.R.].R.].R.!.",
"Y.Y.Y.Y.R.R.R.R.Q.R.R.R.T.Y.Y.T.J.e ; k m l = X @ & M N , , > Q.G.Y.R.R.R.R.!.{.R.R.R.W.R.R.R.].",
"Y.U.S.Y.!.].R.Y.R.R.R.T.!.R.R.R.L.2 * * * ; = $ # * = ; : ; : |.U.Y.T.!.!.!.R.R.R.R.R.R.R.R.R.R.",
"Y.Y.D.Y.R. XR.R.R.R.R.R.R.R.R.T.B.w O O . o + @ X   o o o o # N.T.Y.T.!.!.!.Y.R.R.R.R.R.R.R.R.R.",
"T.Y.Y.Y.!.].R.R.R.R.R.R.R.R.R.!.C.w @ @ # X + X O O .   @ X % V.R.Y.R.R.T.Y.T.T.Y.Y.Y.Y.R.Y.Y.Y.",
"R.R.!.R.R.R.R.R.!.R.(.R.R.R.R.!.3X4 2 1 & # o o o o . X 1 5 3 2XR.R.T.R.Y.Y.Y.Y.R.Y.Y.R.Y.R.R.Y.",
"R.!. X{.].T.]. XR.(.R.!.R.R.!.!.#XL.).V.&   . + o # X O u 2XH.7 Y.R.R.T.T.Y.Y.R.Y.R.R.Y.R.Y.Y.R."
};
