/* XPM */
static char *xpm_[] = {
/* columns rows colors chars-per-pixel */
"48 48 252 2 ",
"   c #020403",
".  c #060903",
"X  c #120101",
"o  c #180409",
"O  c #031907",
"+  c #190212",
"@  c #00171B",
"#  c #0C0D11",
"$  c #260809",
"%  c #2C0B1A",
"&  c #010E21",
"*  c #001225",
"=  c #14222E",
"-  c #4D1E1A",
";  c #4F3514",
":  c #633819",
">  c #713516",
",  c #552F28",
"<  c #673B2A",
"1  c #704112",
"2  c #794724",
"3  c #55512A",
"4  c #07334E",
"5  c #31324D",
"6  c #4D3848",
"7  c #73394F",
"8  c #6F3C6C",
"9  c #5E3D6A",
"0  c #145879",
"q  c #295977",
"w  c #385B78",
"e  c #18687B",
"r  c #057979",
"t  c #177779",
"y  c #0A7370",
"u  c #276879",
"i  c #2C6E74",
"p  c #1E4F52",
"a  c #505451",
"s  c #6F4A53",
"d  c #545379",
"f  c #505071",
"g  c #754666",
"h  c #694777",
"j  c #4C6B6E",
"k  c #7D6C7C",
"l  c #B81B1B",
"z  c #B81A0E",
"x  c #8A3718",
"c  c #933718",
"v  c #902911",
"b  c #B62619",
"n  c #B12C12",
"m  c #B91B27",
"M  c #AF1631",
"N  c #9A3724",
"B  c #953130",
"V  c #A52726",
"C  c #BB2827",
"Z  c #B5352B",
"A  c #AB2B38",
"S  c #A5353A",
"D  c #B33031",
"F  c #971C2E",
"G  c #CA1A19",
"H  c #D8181A",
"J  c #D51110",
"K  c #E9160B",
"L  c #FF140B",
"P  c #F60C17",
"I  c #E51718",
"U  c #F91719",
"Y  c #F1080F",
"T  c #C7251A",
"R  c #D82318",
"E  c #CA2C10",
"W  c #E62219",
"Q  c #F72516",
"!  c #CB1C28",
"~  c #D81929",
"^  c #C71A34",
"/  c #D71B38",
"(  c #D70A2B",
")  c #FB0C28",
"_  c #E51A2A",
"`  c #EA1827",
"'  c #F51424",
"]  c #F61A23",
"[  c #F5132B",
"{  c #FB1828",
"}  c #FC0635",
"|  c #E81933",
" . c #F91636",
".. c #E50126",
"X. c #C72728",
"o. c #D32324",
"O. c #D9272A",
"+. c #C52636",
"@. c #D52734",
"#. c #C63439",
"$. c #D4372D",
"%. c #E32528",
"&. c #F62626",
"*. c #E92636",
"=. c #EC372E",
"-. c #A4421D",
";. c #AE482C",
":. c #894623",
">. c #FF790D",
",. c #863947",
"<. c #993746",
"1. c #8A3B57",
"2. c #923956",
"3. c #912C4F",
"4. c #BB2646",
"5. c #AB364B",
"6. c #B63946",
"7. c #A82C4D",
"8. c #8F366A",
"9. c #A7204F",
"0. c #D31A4B",
"q. c #C81E47",
"w. c #EE0F48",
"e. c #C92944",
"r. c #CB324D",
"t. c #E4334F",
"y. c #8D4254",
"u. c #B2484E",
"i. c #8C5774",
"p. c #846C7A",
"a. c #D04345",
"s. c #D67945",
"d. c #CD7271",
"f. c #F1425B",
"g. c #31807B",
"h. c #698B6E",
"j. c #639F57",
"k. c #E79E2D",
"l. c #BCC534",
"z. c #F6D611",
"x. c #D5CD2D",
"c. c #ADB950",
"v. c #A3AD6A",
"b. c #D48B7C",
"n. c #145E88",
"m. c #155997",
"M. c #0A5992",
"N. c #2A598B",
"B. c #345B89",
"V. c #295B98",
"C. c #385B98",
"Z. c #244191",
"A. c #096A89",
"S. c #14628B",
"D. c #136B8C",
"F. c #1C6C8B",
"G. c #1A6787",
"H. c #0C7484",
"J. c #04748C",
"K. c #0D728B",
"L. c #037B8A",
"P. c #16748A",
"I. c #0B6A98",
"U. c #156593",
"Y. c #1A6793",
"T. c #166B94",
"R. c #1C6A96",
"E. c #156D9D",
"W. c #1D6C99",
"Q. c #1A669B",
"!. c #0A7294",
"~. c #027499",
"^. c #027894",
"/. c #157398",
"(. c #2B638B",
"). c #226B8C",
"_. c #266786",
"`. c #346787",
"'. c #377489",
"]. c #236592",
"[. c #2B6394",
"{. c #226B95",
"}. c #23669C",
"|. c #226D9A",
" X c #296698",
".X c #346398",
"XX c #23719C",
"oX c #2C749C",
"OX c #297498",
"+X c #34759A",
"@X c #075EA1",
"#X c #2D5AAE",
"$X c #0769A5",
"%X c #1A67A7",
"&X c #0774A6",
"*X c #1C67B5",
"=X c #1472AE",
"-X c #2665A5",
";X c #3667A5",
":X c #2D79A3",
">X c #2774A2",
",X c #357BA5",
"<X c #3776B6",
"1X c #2B6CB7",
"2X c #415799",
"3X c #5E4B82",
"4X c #41789E",
"5X c #446598",
"6X c #5462A4",
"7X c #2257C1",
"8X c #477BC4",
"9X c #DC3F82",
"0X c #E37B82",
"qX c #008185",
"wX c #0D8497",
"eX c #0C88AE",
"rX c #3A83AB",
"tX c #60A39C",
"yX c #4688AB",
"uX c gray61",
"iX c #AE968E",
"pX c #9CAF95",
"aX c #A1AB8E",
"sX c #90ABAC",
"dX c #A5ABB7",
"fX c #AAAFA8",
"gX c #808EA8",
"hX c #CB8C8E",
"jX c #C5B398",
"kX c #D0B1B1",
"lX c #A6CAB8",
"zX c #B9CEBD",
"xX c #A7CE9F",
"cX c #C4C5BA",
"vX c #EFD1B9",
"bX c #ADBBCB",
"nX c #CBB6CC",
"mX c #E7B7D3",
"MX c #BDD0C4",
"NX c #BFE8DA",
"BX c #C6CAC7",
"VX c #CCCEC8",
"CX c #F1D7D8",
"ZX c #FEE9D8",
"AX c #DDDEE0",
"SX c #EED9E8",
"DX c #D7FCEF",
"FX c #F9E8E9",
"GX c #EAFBF7",
"HX c #FBF8F9",
"JX c #F5ECF5",
"KX c #CFF0DF",
/* pixels */
"W.W.W.{.R.|.|.R.R.R.Y.Y.Y.Y.Y.R.V.R.Y.T.].D.^.B.}.bXZXvXtX^.V.#X!.P.T.F.{.].W.W.W.W.Y.Y.|.R.R.R.",
"R.W.W.{.|.R.R.|.R.Y.R.Y.Y.Y.Y.Y.!.!.W.^.W.N.J.D.n.9 F M 6 F.;X-XP.T./.{.W.W.Y.R.{.W.Y.R.R.R.|.R.",
"R.R.R.W.R.R.W.R.R.R.R.Y.Y.U.Y.R.^.W.[.~.Q.2XA.S.y g D q.a r T.K.T.P.D.R.{.W.Y.W.{.R.Y.W.R.{.R.R.",
"Y.Y.Y.R.R.R.|.R.R.R.R.Y.Y.R.Y.R.F..XC.I.Q.B._.3X8 A ! m a H.B.N.T.R.T.R.W.Y.{.W.R.R.R.Y.R.R.W.W.",
"Y.Y.R.Y.R.W.R.W.W.R.Y.Y.Y.Y.Y.R.].[.C./.!.e u 3.#.R z V f OX6X XW.Q.W.R.R.R.Y.W.|.W.R.Y.R.R.W.{.",
"R.R.Y.R.R.R.R.R.R.Y.Y.Y.Y.Y.Y.Y.D.T.Q.^.e t a q.l G Z 5.f M.m.~.W.W.W.R.R.W.{.{.W.W.R.R.Y.Y.W.XX",
"R.R.R.R.R.R.R.|.R.R.R.Y.Y.Y.U.R.!.!.Q.F.f 2.S ` *.I J ^ h >X.X/.}.}.W.E.R.R.R.].W.{.W.Y.S.R.W.|.",
"R.Y.R.R.R.|.R.R.R.R.R.Y.U.R.Y.R.U.Y.V.(.8.w.` L ^ ` ~ 4.w L.D.r }.}.Q.W.W.T.{.].R.|.R.R.Y.Y.R.|.",
"R.{.W.R.{.W.Y.R.R.R.W.R.W.Y.R.R.&Xw a a 5.O.o.X.X.T b A 8 a a L.T.T.R.T.W.{.{.R.R.|.|.W.Y.U.|.XX",
"R.R.R.R.R.R.W.R.R.T.W.Y.].Y.U.T.V.8 A S / ) U ' I P I ` r.7.,.B.W.W.R.R.W.W.Y.W.S.R.|.R.Y.R.|.>X",
"{.R.R.W.R.R.{.R.T.R.R.].R.Y.R.U.[.2.! C ~ U U &.] ' I { w.C B w W./.T.R.Y.R.W.{.R.R.W.Y.S.W.XX>X",
"W.R.R.R.W.Y.W.R.T.R.W.R.R.Y.T.T.L.,.o.X.o.R W _ *.*.E W | G S N.W.W.W.R.W.Y.].W.Y.R.R.Y.Y.Y.XXoX",
"Y.W.R.{.W.R.R.R.T.R.W.].R.Y.T.T.J.2._ _ | { {  .' *.R U [ ] #.5XT.R.T.R.W.W.R.R.W.R.R.Y.Y.Y.W.|.",
"R.R.R.R.R.R.W.R.T.R.W.Y.Y.R.R.U.K.2.| *.| { {  .I _ %.U  .U +.2XS.T.R.W.{.W.].R.|.W.R.R.Y.S.R.W.",
"R.W.Y.R.R.Y.{.R.W.T.W.W.{.W.Y.T.!.y.#.X.! H G ^ E ! @._ / b S N.T.R.R.W.W.W.R.].W.{.{.W.R.Y.Y.R.",
"R.{.W.R.R.W.W.R.T.W.R.{.Y.Y.R.T. X1.C b G J z b z ! ! ~ ! b <.C.XXR.T.R.Y.Y.{.R.R.R.W.R.R.Y.Y.Y.",
"R.R.Y.W.R.R.R.{.u ).E.}.T.`.[.Y.I.8.6.N r.6.5.r.Z 5.9.0.-.:.9XZ.%XC.F.F.!.!.V.(.W.Y.Y.R.R.R.R.Y.",
"R.W.{.R.R.W.R.R.Q.T.!.{.{.T.!.~.eXtXkXkXCXFXHXFXZXHXSXFXvXjXnXeX~.W.T..X[./.V.[.Y.Y.R.Y.Y.Y.Y.W.",
"W.Y.R.R.R.R.W.R.*X~.r _.[./.T.N.H.gXcXzXGXGXGXGXJXHXDXHXCXBXMXr r J.&X-X}.^.^.$XY.R.Y.R.Y.W.Y.R.",
"R.W.R.R.W.{.R.R.*X!.G.(.#X&XB.8.7 iXzXlXAXSXJXAXHXHXKXAXmXbXsX7 2.3X&X#X2XF.W.%XY.Y.Y.R.R.R.{.R.",
"{.R.W.R.R.W.R.R.[.F.(.E.#X&Xf @...d.pXsXVXmXCXGXHXZXMXMXdXdXiXm } 8.!.E.B.F.V.-XR.Y.R.R.Y.W.R.R.",
"R.R.R.R.R.R.R.R.N.(.].~.2XP.a T { d.aXpXVXkXVXDXJXAXzXlXfXhXb.| _ y.g.L.F.H.{.%XR.R.R.Y.R.W.R.W.",
"R.W.R.R.W.R.R.R. XS.D.qX8.s S C J Z u.a.jXpXlXNXFXBXnXfXd.f.a.~ O.+.y.y.f ).(.].R.R.R.R.R.R.W.W.",
"R.Y.W.{.R.R.R.R.%XI.r g. .) | / H @.} } 0XaXuXVXMXsXuXuXu.) O.V ;.] [ 0.g H.J.L.R.Y.R.R.W.R.R.{.",
"R.R.R.R.W.R.{.R.P.C.V.e 0.} [ ~ G $._ | 0XiXiXxXkXjXaXd.f.` I | r.X.K =.d &XwX~.W.T.W.{.{.{.W.W.",
"W.{.R.{.Y.W.R.R.J.V.%XL.5._ H ^ T $.I I e.4.m e.e.Z D D | U J o.X.X.Q O.h V.(.C.T.R.W.R.].R.R.W.",
"Y.R.R.R.R.{.W.Y.D.V.Q.H.;.W _ m b T K I $.^ ( | / l l ^ [ L K C J @.Q ~ h S.e }.T.T.R.Y.R.R.Y.Y.",
"W.R.R.W.W.R.R.W.V.m.m.e e.L ~ 8.<.C ` %.o.X.O.X.~ b G @.O.W X.7 3 5._ ( f A.A.V.W.T.Y.].R.R.W.Y.",
"W.Y.W.R.Y.R.R.{.OX/.eXG.#.L r.C.5X3./ ` I ' ' I U K I / C X.<.N.N.i.| ..h eX/.;XT.T.T.W.R.R.R.R.",
"R.{.R.R.W.R.W.R.n.A.=X0 X.K S @XqXf M ! H ] &.%.&.&.{  .X.! 9.V.M.8 P Y 9 ~.~.N.T.W.R.{.{.{.R.R.",
"R.W.R.R.W.R.R.R..XOX,Xu s.>.s.}.^.8.4.C E H X.R H R ) ' T K e.C.&Xh.>.>.p.*X;X6XT.T.R.Y.].Y.R.W.",
"R.R.W.{.Y.R.R.R.E.A.U.y c.z.x.e e 8.@.T %.] [  . ._ ) P E E A 0 %Xj.z.z.h.I.I.OXT.T.Y.Y.Y.Y.Y.T.",
"R.W.Y.W.R.R.R.Y.i J.$XN.v.x.c.G.*Xg m ~ o.R o.+.| H R G G c 3.N.V.h.l.l.h.%XI.P.R.T.Y.R.R.R.R.R.",
"{.R.R.R.R.W.{.W.m.I.=Xm.j 3 i I.>Xa x N x > c v V x c N V 2 ,.).S.`.j j i S.$X*XU.Y.R.Y.T.Y.T.R.",
"R.W.R.{.W.Y.R.W.*X>XXXM.Q.n.W.=XG.a 1 > 1 ; 1 x 1 1 1 1 x > ,.G.wX%X7X#XW./.}.*XR.S.W.D.U.R.R.R.",
"R.Y.W.R.{.R.R.Y.W.e e S.$X&X/.T.+Xj :.Z V c -.Z c n n B V x F q J.E.=X=X/.D.G.u R.T.R.R.R.Y.T.R.",
"R.{.R.R.R.W.R.W.y n.G.).D.A.S._.<Xk u.*.[ I W ~ | P ' @.~ b A e U.F.t e e A.T.OXR.T.U.R.R.Y.R.R.",
"Y.W.R.R.{.Y.{.R.D.%X*XoXF.OX X4X;Xi.#.O._ P U / q.| ) *.] T 7.J.-X}.R.F.T.T.*X*XR.R.R.R.R.D.R.U.",
"W.R.R.R.W.R.R.R.T.%XM.).oX4X<X:XE.i.$.O.*.{ t.y.s A ~ %.U I 4.A.}.|.%X|.XX{.Q.$XR.R.R.T.R.R.U.R.",
"R.R.{.W.R.R.W.R.W.%Xe rX'.8X<XwXwXu.U K `  .5.q u s #.%.U U 0.V.T.P./.W.%X}.F.t R.D.R.R.U.Y.Y.D.",
"Q.A.W.Y.U.|.S.OXY.|.Y.+XoXrXoX+XA.1.J =.O.&.6.f i 1.+.$.&. .B g.W.{.W.|.R.W.T.T.Y.W.R.R.Y.R.Y.{.",
"W.M.:XA.XXS.Y.|.G.{.).,XOX,X|.{.A.s v c c V : @ @ - v > v m , r ].R.{.R.R.R.T.T.W.Y.R.Y.R.R.Y.R.",
"W.U.<XU.:XR.oX:X+X'.+X,X:X,X{.{.n.a : : 2 > < # X - 1 2 x :.6 w W.Y.R.W.R.T.R.R.Y.R.Y.R.R.R.W.Y.",
"M.S.S.S.n.G.F.oX4XyX+X+X+XoX|.{.V.w 3 , < ; , + $ - - : : < = d W.{.R.R.R.W.W.R.W.R.R.W.R.R.R.W.",
"XXOXW.|.{.|.oXrXyX+X+X(.{.].R.W./.4 O X $ . O   & @   X $ . @ `.R.R.R.T.W.R.R.W.R.R.{.R.R.R.R.R.",
"R.D.XXn.:Xn.oXOXyXoX).S.{.n.R.W./.4 O + % X O O & & & X $   & `.R.R.T.R.W.{.Y.{.R.W.W.R.{.W.W.{.",
"OXXXoXOXyXXXyXoXrX{.|.Y.XXn.W.|.1Xw 5 5 = $ $ o   o % + 6 5 4 V.T.T.R.W.R.Y.W.{.{.W.W.R.W.W.W.R.",
"n.|.S.rXrX,X,XOX>XU.Q.Y.>XS.R.W.@X'.i u 4 # . . . X     i 4X|.eXW.W.T.R.R.W.].{.R.W.W.{.R.{.R.W."
};
