/* XPM */
static char *xpm_[] = {
/* columns rows colors chars-per-pixel */
"48 48 256 2 ",
"   c #020204",
".  c #06070A",
"X  c #150407",
"o  c #000415",
"O  c #070B12",
"+  c #130812",
"@  c #05131B",
"#  c #15120C",
"$  c #2A140E",
"%  c #050E2A",
"&  c #302C38",
"*  c #2A231E",
"=  c #641E1E",
"-  c #542818",
";  c #53330F",
":  c #733310",
">  c #4F2925",
",  c #663A26",
"<  c #6E322E",
"1  c #6E441A",
"2  c #694835",
"3  c #675738",
"4  c #1B3651",
"5  c #20364B",
"6  c #703D50",
"7  c #5C3968",
"8  c #105556",
"9  c #0B6A54",
"0  c #2A6A4F",
"q  c #0D5372",
"w  c #265974",
"e  c #345774",
"r  c #08677D",
"t  c #127078",
"y  c #276679",
"u  c #336472",
"i  c #504B4F",
"p  c #78435B",
"a  c #6F504C",
"s  c #545765",
"d  c #485A76",
"f  c #4A596C",
"g  c #695865",
"h  c #694475",
"j  c #6F4272",
"k  c #537371",
"l  c #726A46",
"z  c #B21418",
"x  c #812E07",
"c  c #883507",
"v  c #933214",
"b  c #B62818",
"n  c #AB2E0E",
"m  c #B41A32",
"M  c #8F3732",
"N  c #BA2828",
"B  c #AD3234",
"V  c #981600",
"C  c #CB0718",
"Z  c #D41110",
"A  c #E80707",
"S  c #F40103",
"D  c #E71906",
"F  c #F91606",
"G  c #E7091A",
"H  c #F70719",
"J  c #E61618",
"K  c #FC1518",
"L  c #CB251A",
"P  c #D92619",
"I  c #CB2F0B",
"U  c #E62506",
"Y  c #E92815",
"T  c #F52B1D",
"R  c #D40826",
"E  c #CD1E27",
"W  c #D91729",
"Q  c #C41A38",
"!  c #DB1A3A",
"~  c #D10C33",
"^  c #E40225",
"/  c #FA0929",
"(  c #E81725",
")  c #F61625",
"_  c #E61736",
"`  c #F91736",
"'  c #F80C32",
"]  c #D72425",
"[  c #C22335",
"{  c #D52537",
"}  c #CA2F2D",
"|  c #E62625",
" . c #E92836",
".. c #F52432",
"X. c #946908",
"o. c #8D5328",
"O. c #A06B25",
"+. c #FF443A",
"@. c #C1603D",
"#. c #F46836",
"$. c #DA450D",
"%. c #8A3A59",
"&. c #8F3C53",
"*. c #B92846",
"=. c #AD334B",
"-. c #9B2866",
";. c #D81C45",
":. c #D3154C",
">. c #FF0F4A",
",. c #CA2845",
"<. c #D82941",
"1. c #C62356",
"2. c #C7314D",
"3. c #DF2659",
"4. c #944B57",
"5. c #AF4754",
"6. c #BA6B72",
"7. c #99786F",
"8. c #D25350",
"9. c #C1605A",
"0. c #F0744F",
"q. c #CE5D70",
"w. c #FF4067",
"e. c #D56574",
"r. c #F26B6E",
"t. c #1E8D6F",
"y. c #419875",
"u. c #A1952A",
"i. c #FDAE15",
"p. c #F6D32E",
"a. c #FBE534",
"s. c #EFC900",
"d. c #9EA36E",
"f. c #C78040",
"g. c #D3B155",
"h. c #D78877",
"j. c #F6A57B",
"k. c #EDBE48",
"l. c #D8C869",
"z. c #F6CA6B",
"x. c #F1EF7E",
"c. c #F4DC48",
"v. c #17588A",
"b. c #1A5E97",
"n. c #0B5A90",
"m. c #345C87",
"M. c #2C5C9D",
"N. c #265A95",
"B. c #355B96",
"V. c #28528D",
"C. c #026987",
"Z. c #15648C",
"A. c #1B648C",
"S. c #136A8D",
"D. c #1A6A8D",
"F. c #196784",
"G. c #00748B",
"H. c #087489",
"J. c #16748A",
"K. c #096A97",
"L. c #166592",
"P. c #1B6693",
"I. c #156A94",
"U. c #1C6A95",
"Y. c #1D649A",
"T. c #146C9B",
"R. c #1D6B99",
"E. c #146499",
"W. c #027493",
"Q. c #0A7495",
"!. c #0C729A",
"~. c #027898",
"^. c #137293",
"/. c #1C7399",
"(. c #26678A",
"). c #376886",
"_. c #31728D",
"`. c #226694",
"'. c #236B95",
"]. c #226C9A",
"[. c #286499",
"{. c #336498",
"}. c #23729D",
"|. c #2A749B",
" X c #287297",
".X c #337299",
"XX c #155DAD",
"oX c #2A5CB6",
"OX c #2D58AE",
"+X c #076BA5",
"@X c #176BA4",
"#X c #0B72A9",
"$X c #1775A3",
"%X c #0972B4",
"&X c #2868A6",
"*X c #2474A3",
"=X c #327AA1",
"-X c #3069AC",
";X c #555197",
":X c #4B708A",
">X c #885F81",
",X c #AE7388",
"<X c #A1478F",
"1X c #D17887",
"2X c #EF7DA4",
"3X c #E06F83",
"4X c #048494",
"5X c #2D88A4",
"6X c #7499A5",
"7X c #7BB8BB",
"8X c #AF9790",
"9X c #96AA9A",
"0X c #97A9AE",
"qX c #AEABA9",
"wX c #918B8F",
"eX c #D29698",
"rX c #EC8993",
"tX c #F2AA97",
"yX c #D491B1",
"uX c #F797AE",
"iX c #C5B5B6",
"pX c #D0AFB2",
"aX c #F8AFB3",
"sX c #D4A18C",
"dX c #97C3AC",
"fX c #B3CFBB",
"gX c #C8C7B4",
"hX c #F1C6AB",
"jX c #DDC78F",
"kX c #97BDFF",
"lX c #F1BDD7",
"zX c #C1ADE8",
"xX c #B3CCCA",
"cX c #9AD7E2",
"vX c #C6CBC5",
"bX c #D6CFD1",
"nX c #FBC8C9",
"mX c #EBD2D2",
"MX c #FDE5CB",
"NX c #E8FAD9",
"BX c #FCF4D9",
"VX c #F8EAD7",
"CX c #F3D6EB",
"ZX c #CFF1F0",
"AX c #FAEBE7",
"SX c #E6FBE6",
"DX c #FAF4ED",
"FX c #FFEAF8",
"GX c #E4FCFD",
"HX c #ECFFFF",
"JX c #E9F8F5",
"KX c #FCF5FE",
"LX c #FCFCFE",
"PX c #F7FAF7",
"IX c #EFEEF6",
"UX c #CEE4E0",
/* pixels */
"=X5X=X|.=X|.].}.'.R.R./.].U.I.Q.-Xq cXLXCXn *.6 V.A.I.Q.^.4XM.`.[.Y.R.I.I.I.U.'.U.U./.U.'.U.P.U.",
"=X=X=X X|.].D.U.`.U.U.U.`.U.I.Q.n.n.cXLXCXb *.6 H.G.W.`.;X~.^.S.`.Y.P.L.I.U.^.'.U.'.P.].U.U.U.U.",
".X=X X'.].U.Z.P.P.U.I.P.U.P.L.S.&X[.dXcX0XN ;.B h j m.'.;XT.H.H.U.U.U.L.I.I.P.D.U.].].U.].U.U.U.",
"'. X`.A.'.U.Z.U.P.P.I.U.P.`.I.K.[.v.r ~.y z R z m :.h 4X&XR.M.L.U.P.U.D.U.U.U.U.U.U.].U.U.U.U.P.",
"A.D.P.Z.U.U.U.U.'.P.I.U.`.`.U.T.$X@Xw +Xm.{ _ N b ! i t.(.R.M.@XI.D.U.U.P.U.U.U.U.U.U.].U.U.U.P.",
"A.'.P.Z.U.U.I.R.U.U.I.U.`.`.U.^.n.+XV.%Xe [ ! E n L M %.-.U.T.K.U.I.U.U.U.U.R.R.U.].U.].].U.U.U.",
"Z.'.P.Z.R.I.L.I.U.U.U.U.`.[.U.U.[.~.u 5Xw N ] ..Y J ( ;.,.u y J.S.S.P.P.U.`.R.R.U.U.U.U.U.U.U.P.",
"Z.U.P.Z.R.I.E.R.P.U.I.P.`.`.'./.J.G.f :Xs b N L ] ( ( m M 0 s f ^.U.D.P.`.Y.R.R.U.'.].U.].U.U.P.",
"U.'.U.U.U.`.R.R.P.U.R.P.R.b.Z.'.-X{.< *.m ) ` J J S Y W / { =.j `.(.U.E.E.I.I.U.P.U.P.U.U.U.U.U.",
"U.R.U.U.U.U.U.U.P.U.R.R.`.].'. Xn.v.< ,.Q G ~ G R K ] _ ^ L B %.(.P.U.R.T.T.U.U.U.P.P.U.U.U.U.R.",
"U.U.R.U.U.U.U.U.U.L.R.Y.].].'.(.@X/.M >.{ r.3Xr.2XrXe.e.e.| [ =.D.D.R.T.R.R.P.Z.P.P.P.U.U.`.U.'.",
"U.U.'.U.'.U.R.U.R.U.R.R.].'.A.v.-X{.B R { hXbXnXPXSXnXxXhX( ( M Z.D.I.R.R.R.P.P.P.U.P.U.U.U.U.U.",
"U.`.U.`.R.R.R.U.}.U.R.R.Y.P.A.r [.(.5.! 5.gXxXbXNXNXhXxXiX_ >.=.C.Z.D.P.U.U.P.Z.U.P.U.U.U.U.'.U.",
"U.R.U.U.U.U.`.U.U.U.R.R.R.`.'.A.!.C.8Xe.6.a i d.sXjXl i s 6.,X,XS.S.L.L.Y.`.P.U.P.U.P.U.U.U.U.R.",
"R.U.'.U.U.R.U.U.U.U./.].].].'. X!.r 9XyXwXX X 1 f.f.# . + 9XdX6XS.Z.U.U.[.R.U.I.L.U.P.R.U.U.U.U.",
"U.U.U.U.U.'.U.U.U.U.R.R.Y.].]. X[.C.0X0X9X$ * l #.#.1 + & qXvX6XZ.L.`.].&X*XU.I.U.P.P.U.U.U.U.R.",
"U.U.R.U.`.U.U.U.&X~.).(.E.M.P.t OXr CXIXHXZXPXsXD W iXIXFXDXKXcXW.oX#XH.(.T.&Xm.I.U.T.U.U.U.U.U.",
"U.'.U.U.R.U.U.U.M.K.(.'.R.@X!.(.W.r ZXPXLXFXFXsXA / aXHXPXDXFXxXq V.!.Q.U.!.K.G.R.I.U.U.U./.U.U.",
"R.U.U.U.R.U.U.'.I.W.D.^.@X$X!.;Xg i bXUXZXLXPXvX8.r.CXGXNXUXmXyX6 6 ).T.&XN.`.~.^.U.T.U.U.U.U.U.",
"'.U.`.R.U.U.U.U.'.I.U.!.I.Q.C.h ^ ~ uXxXfXSXJXJXBXNXGXHXVXxXxXuX{ { g !.XXv.B.&XU.U.T.U.U.U.U.U.",
"U.U.U.U.U.U.'.U.m.B.[.!.(.y t 6 K / uXgXgXDXFXKXLXJXGXLXAXxXfXrX| | a (.b.F.F.+XU.T.U.U.U.R.U.U.",
"U.U.R.`.U.U.R.U.J.!.@X!.u p M ,.b Z 8.9.6.hXiXxXbXCXbXgXpXq.e.w.L J B %.%.).^.K.^.U.^.U.T.U.U.U.",
"U.'.R.U.U.R.U.U.~.4X@X!.s ,.) H } L L G =.qX8XdXxXvXqX9X8X~ ! ' b J { _ 1.:XR.].U.^.U.U.U.U./.U.",
"U.U.U.U.U.'.U.R.(.@XM.D.s _ H I m ] D K <.8XeXqXvXgX8Xh.2X<.B L v [ [ J b w !.{.U.U.U.T.U.U.U.U.",
"R.U.U.U.U./.U.U.Q.XXOXt i =. .D :.*.P | N U ! yXZXFXq.E ] <.! ) E ,.` ) { k E.K.U.U.U.U.U.U.U./.",
"U.U.R.U.U.U.U.U.y J.&X%X7 ;.J Z L N K >.3.J A h.SXDXe.P Y ` ` T I n W R 1.m.]._.U.L.D.P.U.U.U.U.",
"U.U.U.U./.U.U.U.(./.U.#Xd r.0.8.a 6 P ..;.S G h.SXAX8.G F K ) L < < 9.8.3Xw b.N.U.I.U.I.U.U.U.U.",
"U.R.U.U.U.R.U.U.T.*XV.t y.AXDXvXn.V.v F Y F ' yXFXJXq.' / ` ' 5.b.E.CXMXDXH.+XE.U.U.P.U.I.U.U.U.",
"U.U.U.U.U.U.U.U.J.*XV.Q.5XPXGXkXG.Y.&.J _ ) ' r.BXNX6.! { ) _ 4.%XW.ZXDXKXG.~.(.U.U.U.I.I.U.U./.",
"U.U.U./.U.U.U.U.Z.J.v.%Xy.j.z.d.Q.&X4.[ =.N z u.x.x.O.n n n v , T.9 9Xl.jX8 E.M.U.L.U.P.U.U.U.U.",
"U./.U.U.U.U./.U.@XF.D.#Xk i.s.u.T.OX2 c : : : u.a.c.X.x : c : 2 -X9 u.p.k.0 @XoXU.I.U.D.U.U.U.U.",
"U.U.R.U.U.U.U.U.$XE.N.C.y.g.l.d.q V.< : ; x V u.a.a.X.- : : 1 7 oX8 d.c.g.9 C.I.U.U.U.L.U.U.U.U.",
"U.R./.U.U.U.U.U.K.R.R.Z.Z. X.X(.oXW.ZXUXFXPXSXpX$.z tXVXFXVXMXzXW.H.u d :X_.S.W.U.U.U.`.U.U.U.P.",
"U.U.].U./.R.U.U.I.R.R.Z.A.'._.(.b.C.ZXNXKXKXBXsXH z tXPXGXHXSXcXL.`.A.C.H.^.P.M.U.U.U.U.U.U.U.U.",
"U.].U.U.U.U.U.D.T.T.R.P.A.'.`.'.E.P.eXhXlXnXhXsX/ C j.MXlXlXaX0XL.'.P.b.T.T.R.[.U.U.U.U.U.U.U.P.",
"U.U.U./.U.U.I.U.T.I.I.U.U.P.(.'.C.q =.L R Z A H / Z U D C G } 4.C.U.&X&X&X&XE.U.P.U.P.U.U.U.U.P.",
"U.U.]./.U.U.U.U.R.I.I.U.].P.P.].H._.m |  .] T  .H ` ..P P F S 1.t U.}.&X*X@XD.(.P.U.U.R.U.U.U.P.",
"U./.U.U.U.U.U.I.T.I.L.R.U.U.P.U./..X:.) ) H F [ g >X1.( ..F J <XG.J.(.N.[.U.I.J.P.U.U.U.U.P.U.U.",
"U.R.].U.U.U.U.U.I.U.R.T.R.R.R.L.^.].1.W ] | } g C.F.4.(  .J ) -.G.^.(.V.{.].^.!.U.U.U.U.U.Y.P.U.",
"U.U.U./.].U.U.U.L.T.T.L.L.T.R.L.~.!.3.G / ) ^ 4.5Xw 2.K } Y +.4.v.`.I.G.4X!.[.M.P.U.U.U.`.U.U.P.",
"].U.U.U.U.U.P.Z.U.U.U.I.U.U.P.`.+Xt a v : o.v = % X : x n v M < I.Z.U.}.*XU.Z.U.U.U.U.U.`.R.U.U.",
"U.U.].R.].R.U.P.P.P.L.U.U.P.P.`.C.F.i v 1 o.M = o + < v v : , a U.U.U.U./.U.U.}.`.U.U.U.R.U.'.U.",
"U.U.U.U.].U.U.P.P.P.L.L.U.'.`.`.n._.& = ; ; - $   . - ; , - * i U.U.U.Z.L.U.R.U.U.R.U.U.`.U.U.U.",
"U.P.P.U.'.U.U.Z.P.A.P.I.P.U.].`.@X.X% X # X X X + . X X # # O & I.R.U.U.U.}.R.D.U.U.'.U.R.U.U.U.",
"P.P.U.P.P.U.P.U.P.U.U.U.U.P.U.`.].D.% o @   . . + + +     . o 4 U.}.}.U.U.}.}.U.'.U.U.U.R.U.U.'.",
"U.U.U.].}.R.U.U.P.P.U.I.I.P.P.`. X/.q 4 8 @ # . + X + . @ 5 4 w U.}.U.Z.Z.U.R.R.U.U.R.`.U.U.U.U.",
"].].].}.}.].U.U.P.P.U.L.U.P.`.`.|.H. Xm.w % +   O     . @ :X_.]./.U.L.Z.L.Z.P.].U.U.R.U.R.R.U.U.",
"/.].U.U.].U.P.L.P.P.P.I.U.R.`.`.(.C.|.m.q % + . o .   . O w U.T.].U.U.*X}.U.L.U.U.R.U.U.U.`.U.U."
};
