/* XPM */
static char *xpm_[] = {
/* columns rows colors chars-per-pixel */
"48 48 242 2 ",
"   c #3A2D00",
".  c #3C2419",
"X  c #363129",
"o  c #541C04",
"O  c #481E0B",
"+  c #4D2302",
"@  c #462805",
"#  c #5A2204",
"$  c #542309",
"%  c #472518",
"&  c #4C3709",
"*  c #623110",
"=  c #42312D",
"-  c #197C13",
";  c #3A6707",
":  c #2D7D02",
">  c #2D7D0C",
",  c #267B07",
"<  c #367501",
"1  c #3C7401",
"2  c #347D02",
"3  c #3B7C02",
"4  c #347C0C",
"5  c #3A7D0C",
"6  c #3D760C",
"7  c #3D6A13",
"8  c #2C7C13",
"9  c #2C7B1C",
"0  c #287A16",
"q  c #337C13",
"w  c #337D1A",
"e  c #397A18",
"r  c #314A38",
"t  c #2C7B2B",
"y  c #287D23",
"u  c #337E24",
"i  c #327D2D",
"p  c #377726",
"a  c #2B7B3D",
"s  c #297A36",
"d  c #337C34",
"f  c #377E3A",
"g  c #1B7126",
"h  c #585E00",
"j  c #784C01",
"k  c #685802",
"l  c #755802",
"z  c #456B09",
"x  c #5C6601",
"c  c #536B01",
"v  c #5B6B01",
"b  c #5A6909",
"n  c #447402",
"m  c #4C7203",
"M  c #427A02",
"N  c #487809",
"B  c #537206",
"V  c #466E13",
"C  c #457917",
"Z  c #646402",
"A  c #63610A",
"S  c #354C56",
"D  c #314842",
"F  c #2D7D45",
"G  c #2D794B",
"H  c #347D43",
"J  c #327D4D",
"K  c #367B48",
"L  c #2D7A54",
"P  c #2D7A5A",
"I  c #267656",
"U  c #337E55",
"Y  c #327D5D",
"T  c #377A58",
"R  c #286B5A",
"E  c #1D6C79",
"W  c #2E7C65",
"Q  c #2D746C",
"!  c #297868",
"~  c #317B63",
"^  c #337868",
"/  c #246C7B",
"(  c #266A75",
")  c #247374",
"_  c #2B7374",
"`  c #2D7974",
"'  c #2C747B",
"]  c #2C797A",
"[  c #25767B",
"{  c #327B73",
"}  c #357679",
"|  c #2C6B6F",
" . c #5D5758",
".. c #5B504E",
"X. c #66524C",
"o. c #675450",
"O. c #684F4B",
"+. c #46727E",
"@. c #476970",
"#. c #4C6C5D",
"$. c #973800",
"%. c #8F3B00",
"&. c #A82A00",
"*. c #A73401",
"=. c #834301",
"-. c #8C4506",
";. c #8A4A03",
":. c #1B811B",
">. c #2D8202",
",. c #2B820C",
"<. c #25820A",
"1. c #338102",
"2. c #3A8204",
"3. c #33810A",
"4. c #3B830C",
"5. c #378A01",
"6. c #2C8113",
"7. c #2B831B",
"8. c #228317",
"9. c #358213",
"0. c #3A8313",
"q. c #32821A",
"w. c #378616",
"e. c #1B8324",
"r. c #18812C",
"t. c #198F32",
"y. c #2A8126",
"u. c #358125",
"i. c #33812B",
"p. c #348924",
"a. c #298332",
"s. c #35833A",
"d. c #3B853C",
"f. c #388635",
"g. c #259432",
"h. c #28953A",
"j. c #448405",
"k. c #528A00",
"l. c #578707",
"z. c #41821A",
"x. c #5FA00E",
"c. c #42822F",
"v. c #76A821",
"b. c #6C9B11",
"n. c #2D824A",
"m. c #398342",
"M. c #378547",
"N. c #388358",
"B. c #3E9046",
"V. c #17A354",
"C. c #2BA853",
"Z. c #388567",
"A. c #398379",
"S. c #2E8862",
"D. c #31B86F",
"F. c #0EA358",
"G. c #428A41",
"H. c #428879",
"J. c #48946B",
"K. c #44BB69",
"L. c #3FC070",
"P. c #8EBF21",
"I. c #92C92F",
"U. c #B3D72A",
"Y. c #BFE737",
"T. c #A4C91A",
"R. c #E6FF3D",
"E. c #BBE55F",
"W. c #D2FB4E",
"Q. c #E8FF4A",
"!. c #D8FF62",
"~. c #175E8A",
"^. c #1D6A85",
"/. c #1B658D",
"(. c #1E6B8C",
"). c #1A6888",
"_. c #166493",
"`. c #1D6593",
"'. c #1E6B93",
"]. c #1C669A",
"[. c #1E6B9B",
"{. c #156F95",
"}. c #1B7293",
"|. c #187397",
" X c #166E86",
".X c #246B83",
"XX c #22658C",
"oX c #226C8C",
"OX c #2A6D8C",
"+X c #2A6B86",
"@X c #336A8E",
"#X c #237185",
"$X c #2A7283",
"%X c #23718C",
"&X c #2C738D",
"*X c #297983",
"=X c #347A88",
"-X c #246693",
";X c #226C94",
":X c #296D94",
">X c #22669B",
",X c #226B9B",
"<X c #2A6D9C",
"1X c #247094",
"2X c #297395",
"3X c #25729A",
"4X c #29749B",
"5X c #2E7998",
"6X c #337B9C",
"7X c #317796",
"8X c #306E95",
"9X c #1E69A3",
"0X c #236CA2",
"qX c #286EA4",
"wX c #2571A2",
"eX c #2A74A1",
"rX c #2C7BA6",
"tX c #337BA4",
"yX c #347DAB",
"uX c #3A7DA4",
"iX c #407386",
"pX c #348188",
"aX c #39829C",
"sX c #36829C",
"dX c #3B83A5",
"fX c #3A83AC",
"gX c #3885A6",
"hX c #3B84B2",
"jX c #2D81A3",
"kX c #448896",
"lX c #438E8A",
"zX c #4389A8",
"xX c #428AB8",
"cX c #4F97A3",
"vX c #3FCB84",
"bX c #38D396",
"nX c #28C98B",
"mX c #39EEB3",
"MX c #51E29F",
"NX c #43EFB8",
"BX c #49DD93",
"VX c #36F5C6",
/* pixels */
"dX6X[.9X0X,X(.%X;X'.'.}.;X%X[.'.|.|.|.|.uXkXR N.^ { }.|.wX-X;X(.oXoXoX'.9X0X0X`.&XzX%XoX,X,X(.'.",
"sXgXyX9X].;X1XoX;X;X;X'.(.(.'.'.'.[. XjXdXiXH.K K ~  X_.;X-X3XoX;X;X'.'.[.].[.2XgXsXdX1X`.[.4X3X",
").6XgXeX'.;X1X;X,X[.,X;X'.'.'.;X-X-XrXhX$XQ J.s.p K _ oX%X(.3X`.;X(.'.,X[.;XeXhX5X^.aXfX<X0X0X{.",
"/.'.4X5X;X;X;X[.[.;X;X;X}.,X[.;X<XXXtX&XQ T t i w p J Q *X).'.,X;X'.,X3X}.).1XtX/.;X;XuX0X>X,X[.",
"wX'.(.oXoX(.,X[.;XoX(.(.;X,X,X;X;X;X XE M.u w 8 9.8 4 d { %X'.3XOXoX'.;X'.^.).(.,X,X-X`.<X).3X[.",
",X;XoX(.(.;X0X,X;X'.^.oX'.,X,X>X/.&X[ S.u : 4.4 4 2 2 q N.} *X^.oXoX;X'.1X1X1X}.,X].qX>X;X1X(.`.",
"/.oX%XoX,X0X[.,X,X;X;X;XoXoX;X-X@XQ n.i.8 2 3 3 2 2.3 5 c.K ^ _ .X-X;X>X[.9X'.(.2X`.,X0X/.1X(.%X",
";X1XoX'.,X0X].0X;X1X4X2XoX.XoX$X| T y 4 N n M M 3 2 < < 3 0 M.H.( .X-X,X0X,X'.}.oXOX'.,X3X).oX(.",
",X;XoX'.;X,X[.'.;X^.6X7X.X/ ) ~ U f 6.n l l v m 3 j.k.k.2.> s.J.I ` oX;X].;X^.#X.XoX;X;X,X'.'.'.",
"[.,X;X;X'.;X,X,X(.^.5X=X.X) ~ F i w : m ;.-.k B < I.W.W.x.2 w d.F N.$X-X;X1X%X^.(.;X;X[.,X,X;X;X",
",X,X;X%XoXoX0XwXyXtXgXgX6XpXZ.t 5 3 >.c $.&.j v ; P.Q.R.b.C C p i.M.A.%X;X'.;X'.,X[.,X,X;X'.;X}.",
",X,X;X'.oXoX3X3XyX<XtXaXA.Z.G.8 2 3 2.B ;.$.l v 1 v.U.U.l.N C z.9.f.Z.[ %XXX;X,X,X,X0X,X,X,X'.;X",
";X;X(.;X;X;XoXoX]._.6X} a 8.,.: 2 3 1.3 B b n 3 6 1 1 3 2 2 M j.2 , 7.s ` #X;X'.'.;X,X,X0X[.'.}.",
"oXoX;X'.'.;X(.oX<X`.dXA.F y 0 7.w e 2 : 4 2 : 2 3 6 3 2 4.3.5 w.w 9 y s S.#X(.'.oXoX;X,X,X[.;X'.",
",X,X,X;XoXoX'.[.,X;X&X' ` ^ ~ U F d q 2 2 1.1.1.2 2.2.: : , t M.L P ~ ` $X(.'.0X,X;X(.oX'.;X'.'.",
",X'.,X;X(.(.;X;X`.,XoX.X.X.X' | I a q 2 1.>.1.3 3 3 n M 3 7.a.I ! _ .XoXoX1X].[.,X'.oXoX%X;X;X;X",
"'.'.;X'.;X).oXoX;X;X;X;X;X(.) ! I M.6.<.,., 1.3 1 m Z Z m q i.n.I ) .X'.;X'./.1X(.;XoXoX;XoX;X;X",
"1X}.`.;X/.5XoXoX'.,X<X,X,X%X! L m.y., <.w.3.2.M N x j =.A C u a.F W OX`.,X3X'.(.}.3X;X'.;X,X'.'.",
";X/.yXtX;X(.{.0X].,X,X`.-X' n.t w 4 9.>.: < 2 N b j &.&.k N 4 q 9 n.' oX;X(.3XyX>X_.;XgX3XoX,X;X",
"-X6XxX;X'.'.9X0X[.,X-XoX} Y s.w 8 7.g.g.: j.0.C c l *.$.x 1 4.2 > i.~ ] $X/.4XxXyX_.xXfX;X1X/.,X",
"uXuX<X-X/.4X{.{.[.;X^._ J u e 8 r.vXVXmXg.4 q 5 3 m v v n 1.3 2 : 9.i.F Q $XoX(.hXhXyX`.;X:X,X;X",
"uXzX-X-X3X'.`.1X%XE ) P u , 2 6.g bXVXmXh.3.q.2 2 2 1.>.:.8., >.1.1.: y U ! ( .XuXuXrX-X;X(.wX;X",
"XX6XxX1XoX;X4X).' ! L f 9.2 5 w e.C.vXL.7.2 e z.2 2 5.:.V.V.V.:.7.4 : q.s.G P lXzXXXzXdXoX:X).,X",
":X^.6X6X'.1X)./ ` U s 9 1.2 5 > 8.:.8.8.: 2.j.5 2 : 4.t.bXNXBXt.0 5 2.: 0 t n.A.( oXXXdX;XoX3X'.",
"OXoX;X,X,X-X$XQ ~ f u > : 1.2 3.,.8.<.>.3 3 2 2 1.: 1.- bXVXMXt.6.3 1.1.3.6.t n.Q $XoX/.;X;X,X;X",
"'.'.'.;X,XOX` U M.i.> : 1.5.>.: 2 >.>.1.3 3 2 : >.1.2.<.V.D.C.g 3.2 1.: >.,.7.s.N.{ &X;X-X,X;X{.",
"|.}.,X'.oX' J i.0 w q 2 1.: >.2.3 3 2 1.1.1.2.: 3.: , <.<.8 9 8 2 3 1.2 >.>.,.7.y F ' (.;X;X,X,X",
"{.'.[.'.oX_ J s d i i i w q.6.>.2.3 3 3 c v N 3 2.: 5.1.3 3 3 z.< w.q.p y.y.y.t a.n.] oXoX;X[.9X",
"}.'.[.[.;X1X$X_ { Q H.H.^ T d.q., 3.2 v $.$.j B < 2 2.2 3 j.4.9.e f T ^ ^ ^ Z.{ ] *X1X-X1X;X'.'.",
"(.'.[.,X;X;X,X;XXX/ =X=X( R m.9 6.>.5 x *.&.=.A m 2 2 2.3 1 < z.q d ^ ( / / .XoX'.>X-X'.;X1X'.1X",
";X;X;X;X'./.,X0XtX2X7X=X{ N.G.q 2.1.2 m j =.k v M 3 1.2 k.k.l.C q.d.N.Q ' #XoX;X0X0X;X.X1X(.'.;X",
";X;X;X,X%X(.wXrXuXaXaX{ J.m.u.q 1.2 : n b k v m n 1.3.3 I.!.E.j.0.u.m.U { $X.X;X0X0XoX^.%X'.'.1X",
";X,X>X>X1X}.{.'..X( pXS.i 4 5 : : >.1.2 M N M 3 3 2 1.2 Y.Q.!.l.2 > > t P ' .XoX;X'.%X#X(.'.'.'.",
"/.'.qX<X-X(.{.;X/ | H.N.8 2 1.2 >.>.1.2.>.2 1.1.4.1.: 3 P.T.T.k.2 2 1.9 H P _ $XoX'.(.%X%X'.'.}.",
" X}.;X-X-X:X-XoXA.P d p q j.2 >.>.2 2 2.,.,.>.>.: 4 >.: M 1 3 3 2 1.4 ,.,.y.G { OX;XoXoX;X'.'.,X",
"|.}.(.(.oXOX&X| I a.9 8 y.:.- ,.>.1.3 2 1.>.>.>.1 N B B n 3 2 1.: 1.2 2 >.>.i.N.' oX-X-X;X;X,X,X",
"{.'.OX(. X#X^ n.B.i.8.t.nXnXC.8.>.1.2 3 3 1.>.2 m k -.-.A N 3 >.1.1.2 4 >.2 3.i.H ^ @X-X-X,X<X,X",
";X(.XX.X XS.U i 0 ,.,.g.mXVXK.- 1.1.2 4 3 2.1.3 c j &.*.k 1 2 1.2 2 2 1.2.1.2 3.q.H } OX-X;X,X;X",
"oXXX:X&X[ S.F 9 w.4 : g.bXmXK.0 2 1.5 5 2 1.1.2.m k $.%.b 5 2.1.1.1.1.1.1.>.2 3.8 i ~ $XOX;XoXoX",
"XX7XzXkX! a d e 2 2.1.8.V.F.g.6.2 3 5 5 >.>.1.j.n Z ;.l N 2 3 3 1.1.1.1.2.4 4 w.3.9 M.Z.=X#X^.#X",
"tXfX=XI f y q 6 : : 3 q y r.0 0 8 9.6 5 0.9.9.5 z N B m 5 4.5 3 : ,.3.> > 4 4 > w.6.p.g S.) E (.",
"xX5X[ ` U f d d.f.i.f d.F m.s.f.d.i.7 V C C V ; V ; 7 6 7 V 7 c.s.s.f s.m.s.d i d.B.i.n.! E &X'.",
":XdXjX#X#X=X' ` ` ` ` [ *X*X` ^ #.r   @ & & & @     @ @ @   =  .} ' ' =X' ` { H.kX$XcX7X#X1X(.|.",
"-XoXgXjX].[.,X;X'.;X`.'.].'.(.( } D & * o o * * + # $ $ o % = iX@X>X-X-X-XXX&XzX-XeX<XxX,X'.wX[.",
";X/.'.}.3X`._.wX'.'.[.[.9X].'.+X@.r O # o o # $ + + + $ $ % X @.@X`.XXoX;XOXOXOX;X~.,X;X,X,X[.wX",
"4X`.3X}.).;XwX`.'.{.0X,X[.,X;X+XiXS % # + O $ % @ @ @ $ O . D iXXXXXoX%XOX;X'.'.2X4XoX2X/.eX_.9X",
"<X,X[.[.;XoX-X-X(.%X;X,X[.[.`.+X@XS . % % = . . . . % % . X X } .X}.1X'.`.'.0X0X`.(.oXoX;X;X,X[.",
"-X,X9X[.oXoX8XoX(.'.;X1X[.'.'.XX@X@X .O.X... . .o.X.o.O.o. .@.} .X(.'.,X[.[.9X0X;X(.1X;X^.;X;X,X"
};
